<svg width="96" height="97" viewBox="0 0 96 97" fill="none" xmlns="http://www.w3.org/2000/svg">
<circle cx="48" cy="48.25" r="47" fill="#F9FAFB"/>
<path d="M48 95.25C73.9574 95.25 95 74.2074 95 48.25C95 22.2926 73.9574 1.25002 48 1.25002C22.0426 1.25002 1 22.2926 1 48.25C1 74.2074 22.0426 95.25 48 95.25Z" fill="url(#paint0_linear)"/>
<path d="M74.871 40.495H69.2936C66.223 31.9723 57.9667 26.1287 47.0783 26.1287H29.1713V40.495H22.9517V45.6493H29.1713V51.0543H22.9517V56.2087H29.1713V70.4027H47.0783C57.8413 70.4027 66.035 64.606 69.184 56.2087H74.871V51.0543H70.4373C70.547 50.1457 70.6097 49.2057 70.6097 48.2657V48.1403C70.6097 47.2943 70.5626 46.464 70.4843 45.6493H74.8867V40.495H74.871ZM34.1847 30.719H47.0783C55.0683 30.719 61.006 34.6513 63.7477 40.4793H34.1847V30.719ZM47.0783 65.7653H34.1847V56.193H63.7163C60.959 61.927 55.037 65.7653 47.0783 65.7653ZM65.424 48.3753C65.424 49.284 65.3613 50.177 65.236 51.0387H34.1847V45.6337H65.2517C65.3613 46.4797 65.424 47.357 65.424 48.25V48.3753Z" fill="white"/>
<defs>
<linearGradient id="paint0_linear" x1="48" y1="-12.0666" x2="48" y2="105.12" gradientUnits="userSpaceOnUse">
<stop stop-color="#F9A606"/>
<stop offset="1" stop-color="#FBCC5F"/>
</linearGradient>
</defs>
</svg>
