<svg width="20" height="20" viewBox="0 0 20 20" fill="none" xmlns="http://www.w3.org/2000/svg">
<path d="M9.92255 19.3607C15.0078 19.3607 19.1302 15.2383 19.1302 10.153C19.1302 5.06774 15.0078 0.945312 9.92255 0.945312C4.83727 0.945312 0.714844 5.06774 0.714844 10.153C0.714844 15.2383 4.83727 19.3607 9.92255 19.3607Z" fill="#070A0E"/>
<path d="M9.91591 18.6717C14.6221 18.6717 18.4373 14.8565 18.4373 10.1503C18.4373 5.44406 14.6221 1.62891 9.91591 1.62891C5.20968 1.62891 1.39453 5.44406 1.39453 10.1503C1.39453 14.8565 5.20968 18.6717 9.91591 18.6717Z" fill="#070A0E"/>
<path fill-rule="evenodd" clip-rule="evenodd" d="M6.03371 13.2405C5.75829 13.0721 5.58984 12.7721 5.58984 12.45V10.6512C5.58984 10.5823 5.60829 10.5159 5.64271 10.4569C5.74968 10.2725 5.98698 10.2098 6.17141 10.318L10.2313 12.6848C10.4686 12.8237 10.615 13.077 10.615 13.3524V15.2164C10.615 15.3012 10.5916 15.386 10.5473 15.4586C10.4133 15.6774 10.1281 15.7463 9.9092 15.6123L6.03371 13.2405ZM12.0855 9.82495C12.3228 9.96389 12.4691 10.2172 12.4691 10.4926V14.2746C12.4691 14.3865 12.4088 14.4897 12.3117 14.5438L11.4228 15.0442C11.4117 15.0504 11.3994 15.0553 11.3871 15.059V12.959C11.3871 12.6873 11.2445 12.4352 11.0109 12.295L7.44521 10.1618V7.79133C7.44521 7.72248 7.46366 7.65609 7.49808 7.59707C7.60505 7.41264 7.84235 7.34994 8.02678 7.45813L12.0855 9.82495ZM13.8622 7.03149C14.1007 7.1692 14.247 7.42494 14.247 7.70035V13.2246C14.247 13.3377 14.1843 13.4422 14.0847 13.4963L13.2425 13.9512V10.1053C13.2425 9.83356 13.0998 9.58274 12.8675 9.44257L9.22312 7.25649V5.00771C9.22312 4.93886 9.24156 4.87246 9.27476 4.81345C9.38173 4.62902 9.61903 4.56632 9.80346 4.67328L13.8622 7.03149Z" fill="#00D395"/>
</svg>
