<svg width="256" height="257" viewBox="0 0 256 257" fill="none" xmlns="http://www.w3.org/2000/svg">
<g clip-path="url(#clip0)">
<circle cx="128" cy="128.604" r="126.175" transform="rotate(-5.6583 128 128.604)" fill="#F9FAFB"/>
<path d="M208.101 226.092C188.82 241.934 165.274 251.703 140.44 254.164C107.14 257.463 73.8924 247.399 48.0124 226.185C22.1324 204.971 5.7396 174.345 2.44025 141.044C-0.0202017 116.211 4.93856 91.2056 16.6895 69.1905C28.4403 47.1753 46.4556 29.1391 68.4571 17.3627C90.4585 5.58618 115.458 0.59836 140.294 3.02994C165.131 5.46152 188.688 15.2033 207.988 31.0233L182.537 62.0717C169.378 51.2853 153.316 44.6432 136.382 42.9853C119.449 41.3274 102.404 44.7282 87.4025 52.7576C72.4015 60.7871 60.1184 73.0845 52.1064 88.0948C44.0945 103.105 40.7135 120.154 42.3911 137.086C44.6406 159.791 55.8175 180.672 73.463 195.136C91.1085 209.6 113.777 216.463 136.482 214.213C153.414 212.535 169.468 205.875 182.614 195.073L208.101 226.092Z" fill="url(#paint0_linear)"/>
<path d="M128 232.604C185.438 232.604 232 186.042 232 128.604C232 71.1664 185.438 24.604 128 24.604C70.5624 24.604 24 71.1664 24 128.604C24 186.042 70.5624 232.604 128 232.604Z" fill="white"/>
<path d="M124.246 119.931C126.759 124.376 121.138 125.754 118.5 126.007C114.503 126.397 113.675 124.083 114.456 121.176C114.712 120.135 115.281 119.198 116.085 118.493C116.889 117.788 117.89 117.349 118.951 117.234C119.997 117.138 121.048 117.34 121.985 117.817C122.922 118.294 123.705 119.027 124.246 119.931Z" fill="#283947"/>
<path d="M139.938 111.707C137.016 134.155 176.401 129.483 175.651 147.349C179.536 142.276 181.206 128.492 169.769 121.397C159.579 115.071 146.301 118.533 139.938 111.707Z" fill="#283947"/>
<path d="M162.624 103.236C162.367 102.998 162.103 102.763 161.846 102.529C162.106 102.767 162.367 103.017 162.624 103.236Z" fill="#283947"/>
<path d="M171.778 119.605L171.755 119.57C171.399 118.906 170.994 118.271 170.543 117.669C169.215 115.862 167.31 114.567 165.147 114.001C163.707 113.627 162.234 113.395 160.75 113.306C159.245 113.197 157.711 113.134 156.161 113.052C153.054 112.881 149.872 112.561 146.764 111.671C145.987 111.449 145.21 111.206 144.46 110.914C144.072 110.773 143.71 110.621 143.326 110.457C142.941 110.293 142.549 110.106 142.16 109.907C140.699 109.103 139.345 108.115 138.132 106.968C135.739 104.732 133.859 102.196 131.974 99.737C130.198 97.2689 128.292 94.898 126.264 92.6344C124.263 90.4168 121.897 88.5609 119.271 87.1474C116.552 85.7715 113.598 84.9241 110.565 84.6498C113.711 84.3066 116.894 84.6966 119.865 85.7893C122.864 86.9588 125.605 88.7075 127.934 90.9368C129.455 92.3692 130.882 93.8982 132.208 95.5144C142.075 93.5632 150.077 95.2959 156.227 98.6598L156.367 98.7301C158.325 99.7966 160.159 101.077 161.837 102.547C162.105 102.781 162.369 103.015 162.614 103.253C163.924 104.462 165.143 105.767 166.262 107.156L166.347 107.269C169.98 111.889 171.774 116.693 171.778 119.605Z" fill="#283947"/>
<path d="M171.775 119.587L171.753 119.542L171.775 119.587Z" fill="#283947"/>
<path d="M111.073 87.5398C113.59 87.9066 116.158 88.9135 117.813 90.8336C119.468 92.7536 120.077 95.2511 120.555 97.6279C120.944 99.4698 121.251 101.347 121.973 103.091C122.323 103.942 122.836 104.688 123.263 105.491C123.617 106.159 124.261 106.76 124.51 107.474C124.554 107.576 124.571 107.689 124.558 107.8C124.545 107.911 124.503 108.017 124.436 108.106C123.558 109.082 121.189 107.997 120.295 107.56C118.75 106.791 117.367 105.731 116.22 104.438C112.634 100.438 110.781 94.6814 110.894 89.4403C110.919 88.804 110.978 88.1695 111.073 87.5398Z" fill="#283947"/>
<path d="M153.169 132.637C147.73 147.884 172.399 158.113 163.157 173.614C172.64 169.68 177.142 157.797 173.207 148.368C169.765 140.091 159.587 137.074 153.169 132.637Z" fill="#283947"/>
<path d="M120.536 152.578C122.018 151.455 123.639 150.53 125.357 149.826C127.096 149.127 128.9 148.604 130.742 148.265C134.397 147.567 138.014 147.395 141.052 146.165C142.553 145.577 143.934 144.717 145.127 143.629C146.282 142.551 147.166 141.214 147.707 139.726C148.261 138.157 148.486 136.489 148.367 134.829C148.23 133.045 147.828 131.291 147.175 129.626C148.529 131.041 149.515 132.77 150.045 134.659C150.576 136.548 150.635 138.539 150.216 140.456C149.741 142.485 148.715 144.343 147.252 145.822C145.804 147.255 144.058 148.347 142.14 149.022C140.309 149.667 138.4 150.061 136.464 150.193C134.599 150.349 132.797 150.392 131.025 150.497C127.444 150.648 123.906 151.349 120.536 152.578Z" fill="#283947"/>
<path d="M155.337 179.382C154.79 179.819 154.242 180.283 153.639 180.689C153.033 181.09 152.399 181.445 151.74 181.751C150.368 182.423 148.861 182.766 147.335 182.754C143.201 182.676 140.28 179.584 138.57 176.092C137.405 173.712 136.601 171.14 135.218 168.872C133.24 165.629 129.857 163.019 125.894 163.503C124.278 163.706 122.763 164.435 121.866 165.844C119.504 169.524 122.895 174.68 127.219 173.95C127.587 173.893 127.947 173.794 128.291 173.653C128.635 173.506 128.955 173.311 129.243 173.072C129.847 172.566 130.302 171.905 130.56 171.159C130.844 170.382 130.907 169.54 130.743 168.728C130.565 167.88 130.066 167.134 129.352 166.648C130.183 167.039 130.83 167.739 131.158 168.599C131.498 169.485 131.586 170.449 131.411 171.382C131.241 172.354 130.814 173.263 130.175 174.012C129.836 174.398 129.443 174.733 129.01 175.007C128.58 175.278 128.12 175.497 127.639 175.659C126.663 175.994 125.624 176.102 124.601 175.975C123.164 175.77 121.808 175.179 120.677 174.265C119.341 173.205 118.346 171.815 117.138 170.62C115.753 169.161 114.119 167.962 112.313 167.081C111.068 166.532 109.764 166.126 108.428 165.871C107.756 165.731 107.076 165.629 106.396 165.543C106.086 165.513 104.563 165.173 104.349 165.372C106.45 163.429 108.741 161.703 111.186 160.221C113.697 158.724 116.393 157.565 119.205 156.775C122.12 155.95 125.169 155.715 128.175 156.083C129.722 156.271 131.238 156.664 132.681 157.255C134.194 157.861 135.59 158.727 136.807 159.815C138.011 160.955 138.985 162.318 139.674 163.83C140.295 165.246 140.759 166.726 141.057 168.244C141.942 172.783 141.616 179.819 147.533 180.857C147.841 180.917 148.152 180.961 148.465 180.99L149.432 181.013C150.097 180.965 150.758 180.871 151.41 180.728C152.759 180.409 154.075 179.958 155.337 179.382Z" fill="#283947"/>
<path d="M120.967 174.441L120.812 174.319L120.967 174.441Z" fill="#283947"/>
<path d="M115.65 110.38C115.435 111.212 115.059 111.993 114.543 112.679C113.584 113.93 112.314 114.905 110.86 115.508C109.553 116.074 108.169 116.439 106.754 116.593C106.447 116.632 106.129 116.655 105.822 116.679C104.926 116.713 104.064 117.034 103.363 117.596C102.661 118.158 102.158 118.931 101.925 119.801C101.819 120.234 101.74 120.673 101.688 121.116C101.549 122.263 101.525 123.457 101.401 124.901C101.096 127.358 100.389 129.748 99.307 131.973C97.9006 134.946 96.3234 137.343 96.6886 140.769C96.9294 142.993 98.0638 144.484 99.5711 146.022C102.291 148.816 108.378 150.065 107.018 156.949C106.199 161.059 99.4157 165.371 89.8824 166.877C90.8302 166.732 88.6665 163.068 88.5304 162.834C87.5087 161.226 86.3899 159.712 85.578 157.967C83.9852 154.584 83.2471 150.67 83.8998 146.963C84.5874 143.06 87.4621 140.07 89.8513 137.089C92.695 133.542 95.6786 128.894 96.3389 124.289C96.4943 123.173 96.6031 121.775 96.8517 120.386C97.0888 118.847 97.5688 117.356 98.2736 115.968C98.7547 115.059 99.3881 114.239 100.146 113.545C100.541 113.177 100.802 112.686 100.886 112.151C100.971 111.616 100.874 111.068 100.612 110.595L85.4149 83.1364L107.244 110.197C107.492 110.51 107.806 110.765 108.164 110.943C108.522 111.121 108.914 111.217 109.313 111.226C109.712 111.234 110.108 111.155 110.472 110.992C110.837 110.83 111.162 110.589 111.424 110.286C111.7 109.962 111.857 109.553 111.868 109.126C111.878 108.699 111.742 108.282 111.482 107.945C110.056 106.115 108.549 104.249 107.088 102.415L101.595 95.5855L90.57 81.9501L75.536 63L91.9841 80.7285L103.72 93.763L109.575 100.296C111.517 102.493 113.459 104.62 115.402 106.93L115.72 107.32L115.79 107.925C115.885 108.746 115.838 109.576 115.65 110.38Z" fill="#283947"/>
<path d="M120.687 174.242C119.632 173.424 118.694 172.464 117.898 171.389C118.752 172.412 119.684 173.366 120.687 174.242Z" fill="#283947"/>
</g>
<defs>
<linearGradient id="paint0_linear" x1="96.4564" y1="15.5724" x2="136.022" y2="234.931" gradientUnits="userSpaceOnUse">
<stop stop-color="#27D3A2"/>
<stop offset="1" stop-color="#9388FD"/>
</linearGradient>
<clipPath id="clip0">
<rect width="256" height="256" fill="white" transform="translate(0 0.604004)"/>
</clipPath>
</defs>
</svg>
