<svg width="64" height="64" viewBox="0 0 64 64" fill="none" xmlns="http://www.w3.org/2000/svg">
<g clip-path="url(#clip0)">
<g filter="url(#filter0_d)">
<circle cx="32.0024" cy="31.9983" r="30.2292" transform="rotate(-5.6583 32.0024 31.9983)" fill="#EDF0F2"/>
</g>
<path d="M51.1932 55.3546C46.5737 59.1502 40.9325 61.4907 34.9829 62.0802C27.0046 62.8706 19.0392 60.4594 12.8388 55.3769C6.63841 50.2944 2.71099 42.957 1.92052 34.9788C1.33104 29.0291 2.51907 23.0383 5.33438 17.7639C8.14968 12.4894 12.4658 8.16829 17.737 5.34685C23.0081 2.52542 28.9976 1.33043 34.9479 1.91299C40.8982 2.49555 46.5421 4.82951 51.166 8.61971L45.0685 16.0584C41.9159 13.4741 38.0677 11.8828 34.0107 11.4856C29.9537 11.0884 25.8699 11.9032 22.276 13.8269C18.682 15.7506 15.7392 18.6968 13.8197 22.293C11.9001 25.8892 11.0901 29.9739 11.492 34.0304C12.031 39.4701 14.7088 44.4729 18.9363 47.9383C23.1638 51.4036 28.5948 53.0476 34.0345 52.5087C38.0911 52.1067 41.9374 50.5109 45.087 47.9231L51.1932 55.3546Z" fill="url(#paint0_linear)"/>
<path d="M32.0025 58.5915C46.6897 58.5915 58.5961 46.6852 58.5961 31.9979C58.5961 17.3107 46.6897 5.4043 32.0025 5.4043C17.3152 5.4043 5.40887 17.3107 5.40887 31.9979C5.40887 46.6852 17.3152 58.5915 32.0025 58.5915Z" fill="white"/>
<path d="M26.3843 34.3513C23.4783 34.3513 21.1226 36.7139 21.1226 39.6283C21.1226 42.5427 23.4786 44.9053 26.3845 44.9053C29.2905 44.9053 31.6465 42.5427 31.6465 39.6283C31.6465 36.7139 29.2907 34.3513 26.3845 34.3513H26.3843ZM26.3843 43.3091C24.3591 43.3091 22.7161 41.6621 22.7161 39.6301C22.7161 37.5982 24.3585 35.9512 26.3843 35.9512C28.4101 35.9512 30.0528 37.5982 30.0528 39.6301C30.0493 41.6603 28.409 43.3066 26.3843 43.3091ZM37.6218 23.095C34.7158 23.095 32.3598 25.4575 32.3598 28.3719C32.3598 31.2863 34.7158 33.6489 37.6218 33.6489C40.5277 33.6489 42.8837 31.2863 42.8837 28.3719C42.8837 25.4575 40.5282 23.0947 37.622 23.0947L37.6218 23.095ZM37.6218 32.0527C35.5966 32.0527 33.9535 30.4057 33.9535 28.3737C33.9535 26.3418 35.5953 24.6948 37.622 24.6948C39.6487 24.6948 41.2905 26.3418 41.2905 28.3737C41.2871 30.4048 39.6456 32.049 37.622 32.0525L37.6218 32.0527ZM26.3843 23.0947C23.8793 23.0931 21.7196 24.8625 21.2218 27.3248C20.7239 29.787 22.0252 32.26 24.3318 33.2377C25.4539 33.709 26.7045 33.7779 27.8715 33.4327C29.0386 33.0874 30.0504 32.3493 30.7355 31.3434C31.4206 30.3375 31.7368 29.1257 31.6306 27.9133C31.5245 26.7009 31.0024 25.5625 30.1529 24.6909H31.6449V23.0947H26.3843ZM30.053 28.3717C30.053 30.4034 28.4106 32.0506 26.3845 32.0506C24.3585 32.0506 22.7163 30.4034 22.7163 28.3717C22.7163 26.34 24.3585 24.6935 26.3843 24.6935C28.4101 24.6935 30.0512 26.3411 30.0548 28.3724H30.053V28.3717Z" fill="#283947"/>
</g>
<defs>
<filter id="filter0_d" x="-3.05994" y="-2.10403" width="70.1247" height="70.1247" filterUnits="userSpaceOnUse" color-interpolation-filters="sRGB">
<feFlood flood-opacity="0" result="BackgroundImageFix"/>
<feColorMatrix in="SourceAlpha" type="matrix" values="0 0 0 0 0 0 0 0 0 0 0 0 0 0 0 0 0 0 127 0"/>
<feOffset dy="0.96"/>
<feGaussianBlur stdDeviation="1"/>
<feColorMatrix type="matrix" values="0 0 0 0 0 0 0 0 0 0 0 0 0 0 0 0 0 0 0.08 0"/>
<feBlend mode="normal" in2="BackgroundImageFix" result="effect1_dropShadow"/>
<feBlend mode="normal" in="SourceGraphic" in2="effect1_dropShadow" result="shape"/>
</filter>
<linearGradient id="paint0_linear" x1="24.4451" y1="4.91795" x2="33.9242" y2="57.4723" gradientUnits="userSpaceOnUse">
<stop stop-color="#27D3A2"/>
<stop offset="1" stop-color="#9388FD"/>
</linearGradient>
<clipPath id="clip0">
<rect width="64" height="64" fill="white"/>
</clipPath>
</defs>
</svg>
