<svg width="64" height="64" viewBox="0 0 64 64" fill="none" xmlns="http://www.w3.org/2000/svg">
<g clip-path="url(#clip0)">
<g filter="url(#filter0_d)">
<circle cx="32.0024" cy="31.9983" r="30.2292" transform="rotate(-5.6583 32.0024 31.9983)" fill="#EDF0F2"/>
</g>
<path d="M51.1932 55.3546C46.5737 59.1502 40.9325 61.4907 34.9829 62.0802C27.0046 62.8706 19.0392 60.4594 12.8388 55.3769C6.63841 50.2944 2.71099 42.957 1.92052 34.9788C1.33104 29.0291 2.51907 23.0383 5.33438 17.7639C8.14968 12.4894 12.4658 8.16829 17.737 5.34685C23.0081 2.52542 28.9976 1.33043 34.9479 1.91299C40.8982 2.49555 46.5421 4.82951 51.166 8.61971L45.0685 16.0584C41.9159 13.4741 38.0677 11.8828 34.0107 11.4856C29.9537 11.0884 25.8699 11.9032 22.276 13.8269C18.682 15.7506 15.7392 18.6968 13.8197 22.293C11.9001 25.8892 11.0901 29.9739 11.492 34.0304C12.031 39.4701 14.7088 44.4729 18.9363 47.9383C23.1638 51.4036 28.5948 53.0476 34.0345 52.5087C38.0911 52.1067 41.9374 50.5109 45.087 47.9231L51.1932 55.3546Z" fill="url(#paint0_linear)"/>
<path d="M32.0025 58.5915C46.6897 58.5915 58.5961 46.6852 58.5961 31.9979C58.5961 17.3107 46.6897 5.4043 32.0025 5.4043C17.3152 5.4043 5.40887 17.3107 5.40887 31.9979C5.40887 46.6852 17.3152 58.5915 32.0025 58.5915Z" fill="white"/>
<path d="M25.602 21.9588L41.9132 33.5016C45.2017 35.8287 43.6561 38.5988 42.7353 39.3881C41.9987 40.0195 39.688 41.6462 38.6247 42.3806C38.6247 42.3806 22.9712 32.1862 20.9323 29.7855C18.8934 27.3849 20.9323 25.0943 21.5571 24.5896C22.5721 23.7698 24.5716 22.5946 25.602 21.9588Z" stroke="#283947" stroke-width="1.5"/>
<path fill-rule="evenodd" clip-rule="evenodd" d="M38.9959 21.0594L38.5636 20.7359L33.4453 24.3419L34.8349 25.3349L38.3785 22.8814C38.5199 22.9858 38.6957 23.1152 38.9056 23.2691C39.542 23.7356 40.4917 24.427 41.7467 25.3276C42.7762 26.0665 43.3064 26.6402 43.1676 27.5025C43.0191 28.4248 42.7237 28.9086 42.2431 29.3766C41.8041 29.8041 39.928 31.1482 38.3785 32.1926C37.7814 32.595 37.1516 33.0143 36.5347 33.4251C35.5953 34.0506 34.1649 35.1607 33.4453 35.657L34.8338 36.6586C35.5465 36.167 36.4345 35.5758 37.3629 34.9576C37.9816 34.5457 38.6182 34.1218 39.2329 33.7075C40.7268 32.7006 42.1472 31.7142 42.7072 31.1689C43.3789 30.5148 44.609 29.4452 44.8168 28.1538C45.0344 26.8024 45.0521 25.4446 42.7745 23.8101C41.5236 22.9124 40.578 22.224 39.9456 21.7604C39.6294 21.5286 39.3915 21.353 39.2329 21.2355C39.1536 21.1767 39.0941 21.1325 39.0546 21.1031L38.9959 21.0594Z" fill="#657786"/>
<path fill-rule="evenodd" clip-rule="evenodd" d="M25.0041 42.9406L25.4364 43.2641L30.5547 39.6581L29.1652 38.6651L25.6216 41.1186C25.4801 41.0142 25.3043 40.8848 25.0945 40.7309C24.4581 40.2644 23.5084 39.573 22.2533 38.6724C21.2238 37.9335 20.6937 37.3598 20.8325 36.4975C20.9809 35.5752 21.2764 35.0914 21.757 34.6234C22.196 34.1959 24.0721 32.8518 25.6216 31.8074C26.2187 31.405 26.8484 30.9857 27.4654 30.5749C28.4048 29.9494 29.8352 28.8393 30.5547 28.343L29.1663 27.3414C28.4536 27.833 27.5656 28.4242 26.6372 29.0424C26.0185 29.4543 25.3818 29.8782 24.7671 30.2925C23.2733 31.2994 21.8529 32.2858 21.2928 32.8311C20.6211 33.4852 19.3911 34.5548 19.1832 35.8462C18.9657 37.1976 18.9479 38.5554 21.2256 40.1899C22.4764 41.0876 23.422 41.776 24.0544 42.2396C24.3706 42.4714 24.6085 42.647 24.7671 42.7645C24.8464 42.8233 24.9059 42.8675 24.9455 42.8969L25.0041 42.9406Z" fill="#657786"/>
</g>
<defs>
<filter id="filter0_d" x="-3.05994" y="-2.10403" width="70.1247" height="70.1247" filterUnits="userSpaceOnUse" color-interpolation-filters="sRGB">
<feFlood flood-opacity="0" result="BackgroundImageFix"/>
<feColorMatrix in="SourceAlpha" type="matrix" values="0 0 0 0 0 0 0 0 0 0 0 0 0 0 0 0 0 0 127 0"/>
<feOffset dy="0.96"/>
<feGaussianBlur stdDeviation="1"/>
<feColorMatrix type="matrix" values="0 0 0 0 0 0 0 0 0 0 0 0 0 0 0 0 0 0 0.08 0"/>
<feBlend mode="normal" in2="BackgroundImageFix" result="effect1_dropShadow"/>
<feBlend mode="normal" in="SourceGraphic" in2="effect1_dropShadow" result="shape"/>
</filter>
<linearGradient id="paint0_linear" x1="24.4451" y1="4.91795" x2="33.9242" y2="57.4723" gradientUnits="userSpaceOnUse">
<stop stop-color="#27D3A2"/>
<stop offset="1" stop-color="#9388FD"/>
</linearGradient>
<clipPath id="clip0">
<rect width="64" height="64" fill="white"/>
</clipPath>
</defs>
</svg>
