<svg width="64" height="64" viewBox="0 0 64 64" fill="none" xmlns="http://www.w3.org/2000/svg">
<g clip-path="url(#clip0)">
<g filter="url(#filter0_d)">
<circle cx="32.0024" cy="31.9983" r="30.2292" transform="rotate(-5.6583 32.0024 31.9983)" fill="#EDF0F2"/>
</g>
<path d="M51.1932 55.3546C46.5737 59.1502 40.9325 61.4907 34.9829 62.0802C27.0046 62.8706 19.0392 60.4594 12.8388 55.3769C6.63841 50.2944 2.71099 42.957 1.92052 34.9788C1.33104 29.0291 2.51907 23.0383 5.33438 17.7639C8.14968 12.4894 12.4658 8.16829 17.737 5.34685C23.0081 2.52542 28.9976 1.33043 34.9479 1.91299C40.8982 2.49555 46.5421 4.82951 51.166 8.61971L45.0685 16.0584C41.9159 13.4741 38.0677 11.8828 34.0107 11.4856C29.9537 11.0884 25.8699 11.9032 22.276 13.8269C18.682 15.7506 15.7392 18.6968 13.8197 22.293C11.9001 25.8892 11.0901 29.9739 11.492 34.0304C12.031 39.4701 14.7088 44.4729 18.9363 47.9383C23.1638 51.4036 28.5948 53.0476 34.0345 52.5087C38.0911 52.1067 41.9374 50.5109 45.087 47.9231L51.1932 55.3546Z" fill="url(#paint0_linear)"/>
<path d="M32.0025 58.5915C46.6897 58.5915 58.5961 46.6852 58.5961 31.9979C58.5961 17.3107 46.6897 5.4043 32.0025 5.4043C17.3152 5.4043 5.40887 17.3107 5.40887 31.9979C5.40887 46.6852 17.3152 58.5915 32.0025 58.5915Z" fill="white"/>
<path fill-rule="evenodd" clip-rule="evenodd" d="M30.1296 23.8906V28.4545C30.1296 28.7555 30.4095 28.9783 30.6533 28.9783H37.8359C38.0796 28.9783 38.3596 29.2041 38.3596 29.502V31.4473C38.3596 31.691 38.1338 31.971 37.8359 31.971H30.6533C30.4095 31.971 30.1296 32.2479 30.1296 32.4947V43.119C30.1272 43.5211 29.9069 43.7368 29.6058 43.5679L27.5109 42.0715C27.2641 41.9217 27.1368 41.7709 27.1368 41.473V32.4947C27.1368 32.2479 26.8538 31.971 26.6131 31.971H23.1714C22.8701 31.971 22.6477 31.691 22.6477 31.4473V29.502C22.6477 29.2101 22.8701 28.9783 23.1714 28.9783H26.6131C26.8538 28.9783 27.1368 28.7555 27.1368 28.4545V20.8979C27.1368 20.5999 27.3794 20.3741 27.6231 20.3741H40.8286C41.0724 20.3741 41.3523 20.6541 41.3523 20.8979V22.8432C41.3523 23.0869 41.1265 23.3669 40.8286 23.3669H30.6533C30.4095 23.3669 30.1296 23.6468 30.1296 23.8906Z" fill="#283947"/>
</g>
<defs>
<filter id="filter0_d" x="-3.05994" y="-2.10403" width="70.1247" height="70.1247" filterUnits="userSpaceOnUse" color-interpolation-filters="sRGB">
<feFlood flood-opacity="0" result="BackgroundImageFix"/>
<feColorMatrix in="SourceAlpha" type="matrix" values="0 0 0 0 0 0 0 0 0 0 0 0 0 0 0 0 0 0 127 0"/>
<feOffset dy="0.96"/>
<feGaussianBlur stdDeviation="1"/>
<feColorMatrix type="matrix" values="0 0 0 0 0 0 0 0 0 0 0 0 0 0 0 0 0 0 0.08 0"/>
<feBlend mode="normal" in2="BackgroundImageFix" result="effect1_dropShadow"/>
<feBlend mode="normal" in="SourceGraphic" in2="effect1_dropShadow" result="shape"/>
</filter>
<linearGradient id="paint0_linear" x1="24.4451" y1="4.91795" x2="33.9242" y2="57.4723" gradientUnits="userSpaceOnUse">
<stop stop-color="#27D3A2"/>
<stop offset="1" stop-color="#9388FD"/>
</linearGradient>
<clipPath id="clip0">
<rect width="64" height="64" fill="white"/>
</clipPath>
</defs>
</svg>
