<svg width="64" height="64" viewBox="0 0 64 64" fill="none" xmlns="http://www.w3.org/2000/svg">
<g clip-path="url(#clip0)">
<g filter="url(#filter0_d)">
<circle cx="32.0024" cy="31.9983" r="30.2292" transform="rotate(-5.6583 32.0024 31.9983)" fill="#EDF0F2"/>
</g>
<path d="M51.1931 55.3546C46.5737 59.1502 40.9325 61.4907 34.9828 62.0802C27.0046 62.8706 19.0392 60.4594 12.8388 55.3769C6.6384 50.2944 2.71098 42.957 1.92051 34.9788C1.33103 29.0291 2.51906 23.0383 5.33436 17.7639C8.14967 12.4894 12.4658 8.16829 17.737 5.34685C23.0081 2.52542 28.9976 1.33043 34.9479 1.91299C40.8982 2.49555 46.5421 4.82951 51.166 8.61971L45.0685 16.0584C41.9158 13.4741 38.0677 11.8828 34.0107 11.4856C29.9536 11.0884 25.8699 11.9032 22.276 13.8269C18.682 15.7506 15.7392 18.6968 13.8196 22.293C11.9001 25.8892 11.0901 29.9739 11.492 34.0304C12.031 39.4701 14.7088 44.4729 18.9363 47.9383C23.1638 51.4036 28.5948 53.0476 34.0345 52.5087C38.0911 52.1067 41.9374 50.5109 45.087 47.9231L51.1931 55.3546Z" fill="url(#paint0_linear)"/>
<path d="M32.0025 58.5915C46.6897 58.5915 58.5961 46.6852 58.5961 31.9979C58.5961 17.3107 46.6897 5.4043 32.0025 5.4043C17.3152 5.4043 5.40886 17.3107 5.40886 31.9979C5.40886 46.6852 17.3152 58.5915 32.0025 58.5915Z" fill="white"/>
<path d="M43.6703 45.6932H20.3297C19.2176 45.6932 18.3068 44.7825 18.3068 43.6703V20.3297C18.3068 19.2176 19.2176 18.3068 20.3297 18.3068H43.6703C44.7824 18.3068 45.6932 19.2176 45.6932 20.3297V43.6703C45.6932 44.7825 44.7824 45.6932 43.6703 45.6932Z" fill="white" stroke="#283947" stroke-width="0.4"/>
<path d="M23.529 43.0502C23.4846 43.0502 23.4428 43.0075 23.4428 42.9566V39.223C23.4428 39.1276 23.366 39.0369 23.2641 39.0369H21.9461C21.8945 39.0369 21.8525 38.9953 21.8525 38.9507V38.2292C21.8525 38.1816 21.8985 38.1357 21.9461 38.1357H26.0029C26.0507 38.1357 26.0964 38.1809 26.0964 38.2292V38.9507C26.0964 38.9951 26.0538 39.0369 26.0029 39.0369H24.6923C24.5938 39.0369 24.5061 39.1232 24.5061 39.223V42.9566C24.5061 43.0075 24.4644 43.0502 24.42 43.0502H23.529Z" fill="#283947" stroke="#283947" stroke-width="0.0926214"/>
<path d="M30.2385 38.2281C30.2385 38.1772 30.2802 38.1345 30.3246 38.1345H31.2082C31.256 38.1345 31.3018 38.1797 31.3018 38.2281V40.7761C31.3018 41.5224 31.0908 42.1064 30.718 42.5035C30.3454 42.9002 29.8063 43.1157 29.1391 43.1157C28.4756 43.1157 27.9402 42.9003 27.5705 42.5036C27.2004 42.1065 26.9912 41.5225 26.9912 40.7761V38.2281C26.9912 38.1772 27.0329 38.1345 27.0773 38.1345H27.9609C28.0087 38.1345 28.0545 38.1797 28.0545 38.2281V40.8122C28.0545 41.1915 28.152 41.5209 28.3386 41.7566C28.5263 41.9935 28.8013 42.132 29.1465 42.132C29.4917 42.132 29.7667 41.9935 29.9543 41.7566C30.141 41.5209 30.2385 41.1915 30.2385 40.8122V38.2281Z" fill="#283947" stroke="#283947" stroke-width="0.0926214"/>
<path d="M35.4521 39.6776V39.6767H35.4058C35.3528 39.6767 35.3253 39.6667 35.3066 39.6527C35.2866 39.6377 35.2703 39.6137 35.2487 39.5709C35.0853 39.191 34.728 38.9552 34.198 38.9552C33.9616 38.9552 33.7402 38.9963 33.576 39.0799C33.4113 39.1638 33.2978 39.2947 33.2978 39.4729C33.2978 39.5666 33.3229 39.6488 33.3758 39.7199C33.428 39.7902 33.5051 39.8466 33.6043 39.8933C33.8013 39.986 34.097 40.0454 34.4945 40.0932L34.4947 40.0932C35.0966 40.1629 35.5619 40.289 35.876 40.5113C36.1864 40.7309 36.3533 41.0475 36.3533 41.5124C36.3533 42.0346 36.1253 42.4313 35.7504 42.6991C35.3739 42.968 34.8468 43.1083 34.2499 43.1083C33.7341 43.1083 33.258 42.9828 32.8948 42.729C32.5326 42.476 32.2801 42.0937 32.2118 41.5731L32.2119 41.5731L32.2118 41.5725C32.2054 41.5286 32.2151 41.5121 32.2232 41.5047C32.2339 41.4948 32.2575 41.4856 32.3058 41.4856H33.1162C33.161 41.4856 33.1918 41.4952 33.2136 41.51C33.235 41.5244 33.2519 41.5465 33.2641 41.5793C33.3823 41.9565 33.7798 42.2367 34.3388 42.2367C34.583 42.2367 34.8161 42.1918 34.99 42.0956C35.1655 41.9986 35.2836 41.847 35.2836 41.6384C35.2836 41.518 35.2538 41.4183 35.1912 41.3363C35.1293 41.255 35.0383 41.1952 34.9234 41.1483C34.6956 41.0553 34.3575 41.0068 33.9177 40.9515C33.411 40.8855 32.9897 40.7797 32.6955 40.5791C32.4054 40.3812 32.2354 40.0885 32.2354 39.635C32.2354 39.1817 32.4295 38.7937 32.7767 38.5179C33.1248 38.2415 33.6293 38.0762 34.2508 38.0762C35.3669 38.0762 36.1318 38.6758 36.2892 39.5625L36.2892 39.5625L36.2896 39.5642C36.2998 39.6116 36.2952 39.6391 36.2864 39.6532C36.2796 39.6641 36.2635 39.6776 36.2172 39.6776H35.4521Z" fill="#283947" stroke="#283947" stroke-width="0.0926214"/>
<path d="M39.357 42.1459V42.1469H39.4033C40.2337 42.1469 40.8778 41.4907 40.8778 40.5908C40.8778 39.6908 40.2326 39.0348 39.3959 39.0348H38.5641C38.4624 39.0348 38.3854 39.1244 38.3854 39.221V41.9672C38.3854 42.0659 38.4654 42.1459 38.5641 42.1459H39.357ZM37.4008 43.049C37.3564 43.049 37.3147 43.0064 37.3147 42.9555V38.2281C37.3147 38.1772 37.3564 38.1345 37.4008 38.1345H39.4033C40.8683 38.1345 42.0004 39.1402 42.0004 40.6066C42.0004 42.0504 40.8834 43.049 39.4033 43.049H37.4008Z" fill="#283947" stroke="#283947" stroke-width="0.0926214"/>
<path d="M45.1523 35.2875H18.8479C18.6697 35.2875 18.5237 35.1415 18.5237 34.9633V20.3291C18.5237 19.3359 19.3366 18.523 20.3298 18.523H43.6704C44.6637 18.523 45.4765 19.3359 45.4765 20.3291V34.9633C45.4765 35.1415 45.3305 35.2875 45.1523 35.2875Z" fill="#283947" stroke="#283947" stroke-width="0.0926214"/>
<path d="M37.4648 24.5028H26.5355C26.4082 24.5028 26.3039 24.3985 26.3039 24.2713V21.8631C26.3039 21.7359 26.4082 21.6315 26.5355 21.6315H37.4648C37.592 21.6315 37.6964 21.7359 37.6964 21.8631V24.2713C37.6964 24.3985 37.592 24.5028 37.4648 24.5028Z" fill="white" stroke="#283947" stroke-width="0.0926214"/>
<path d="M33.3644 32.3293H30.9562C30.8034 32.3293 30.6783 32.2076 30.6783 32.0588V22.1377C30.6783 21.9889 30.8034 21.8671 30.9562 21.8671H33.3644C33.5172 21.8671 33.6422 21.9889 33.6422 22.1377V32.0588C33.6422 32.2076 33.5172 32.3293 33.3644 32.3293Z" fill="white"/>
</g>
<defs>
<filter id="filter0_d" x="-3.05995" y="-2.10403" width="70.1247" height="70.1247" filterUnits="userSpaceOnUse" color-interpolation-filters="sRGB">
<feFlood flood-opacity="0" result="BackgroundImageFix"/>
<feColorMatrix in="SourceAlpha" type="matrix" values="0 0 0 0 0 0 0 0 0 0 0 0 0 0 0 0 0 0 127 0"/>
<feOffset dy="0.96"/>
<feGaussianBlur stdDeviation="1"/>
<feColorMatrix type="matrix" values="0 0 0 0 0 0 0 0 0 0 0 0 0 0 0 0 0 0 0.08 0"/>
<feBlend mode="normal" in2="BackgroundImageFix" result="effect1_dropShadow"/>
<feBlend mode="normal" in="SourceGraphic" in2="effect1_dropShadow" result="shape"/>
</filter>
<linearGradient id="paint0_linear" x1="24.4451" y1="4.91795" x2="33.9242" y2="57.4723" gradientUnits="userSpaceOnUse">
<stop stop-color="#27D3A2"/>
<stop offset="1" stop-color="#9388FD"/>
</linearGradient>
<clipPath id="clip0">
<rect width="64" height="64" fill="white"/>
</clipPath>
</defs>
</svg>
