<svg width="256" height="257" viewBox="0 0 256 257" fill="none" xmlns="http://www.w3.org/2000/svg">
<g clip-path="url(#clip0)">
<circle cx="128" cy="128.604" r="126.175" transform="rotate(-5.6583 128 128.604)" fill="#F9FAFB"/>
<path d="M208.101 226.092C188.82 241.934 165.274 251.703 140.44 254.164C107.14 257.463 73.8924 247.399 48.0124 226.185C22.1324 204.971 5.7396 174.345 2.44025 141.044C-0.0202017 116.211 4.93856 91.2056 16.6895 69.1905C28.4403 47.1753 46.4556 29.1391 68.4571 17.3627C90.4585 5.58618 115.458 0.59836 140.294 3.02994C165.131 5.46152 188.688 15.2033 207.988 31.0233L182.537 62.0717C169.378 51.2853 153.316 44.6432 136.382 42.9853C119.449 41.3274 102.404 44.7282 87.4025 52.7576C72.4015 60.7871 60.1184 73.0845 52.1064 88.0948C44.0945 103.105 40.7135 120.154 42.3911 137.086C44.6406 159.791 55.8175 180.672 73.463 195.136C91.1085 209.6 113.777 216.463 136.482 214.213C153.414 212.535 169.468 205.875 182.614 195.073L208.101 226.092Z" fill="url(#paint0_linear)"/>
<path d="M128 232.604C185.438 232.604 232 186.042 232 128.604C232 71.1664 185.438 24.604 128 24.604C70.5624 24.604 24 71.1664 24 128.604C24 186.042 70.5624 232.604 128 232.604Z" fill="white"/>
<path d="M99.662 89.3607L174.625 140.545L156.086 167.951L81.1228 116.364L99.662 89.3607Z" fill="#283947"/>
<path d="M174.625 140.545C168.177 149.814 146.413 146.187 125.859 131.678C104.902 117.572 93.6168 98.63 99.6622 89.3604C106.111 80.0907 127.874 83.718 148.428 98.2269C169.386 111.93 180.671 131.275 174.625 140.545Z" fill="#283947"/>
<path d="M156.086 167.548C149.637 176.818 127.874 173.191 107.32 158.682C86.7652 144.173 75.0774 125.633 81.5258 115.961C87.9742 106.691 109.738 110.318 130.292 124.827C150.846 139.336 162.131 158.279 156.086 167.548Z" fill="#283947"/>
<path d="M174.625 140.545L156.086 167.951C149.638 177.22 127.874 173.19 107.32 159.084C103.289 156.263 99.6709 152.721 96.0437 149.497C98.8649 149.094 102.483 148.202 106.111 144.172C112.559 137.321 115.783 135.709 118.604 136.112C121.426 136.112 124.65 138.933 129.889 145.784C135.129 152.636 142.383 154.651 146.816 151.024C147.219 150.621 147.622 150.621 148.025 150.218C151.653 147.396 152.862 146.187 159.713 133.29C161.325 130.066 166.968 124.827 174.625 127.245C176.64 132.484 176.64 136.918 174.625 140.545Z" fill="#283947"/>
<path fill-rule="evenodd" clip-rule="evenodd" d="M171.804 138.933C166.161 146.994 146.413 142.963 127.471 129.664C108.125 116.364 96.8405 99.4365 102.483 91.376C108.125 83.3155 127.874 87.3457 146.816 100.646C165.758 113.946 177.043 130.873 171.804 138.933ZM154.07 126.842C151.249 130.873 141.577 128.857 131.904 122.409C122.634 115.961 116.992 107.497 119.813 103.467C122.634 99.4365 132.307 101.452 141.98 107.9C151.249 114.349 156.892 122.812 154.07 126.842Z" fill="white"/>
<path d="M98.0499 98.63C98.0499 98.227 97.6468 97.824 97.2438 98.227C96.8408 98.63 96.4377 98.63 96.4377 99.0331C96.8408 100.242 97.2438 101.048 97.2438 101.854C97.2438 102.257 97.6468 102.66 98.0499 102.257C98.4529 102.257 98.8559 101.854 98.4529 101.451C98.4529 100.645 98.4529 99.8391 98.0499 98.63Z" fill="white"/>
<path d="M100.065 105.079C100.065 104.676 99.662 104.273 99.259 104.676C98.856 105.079 98.856 105.079 98.856 105.482C103.289 115.557 112.559 126.439 124.65 134.5C125.053 134.903 125.456 134.5 125.859 134.5C126.262 134.097 125.859 133.694 125.859 133.291C113.365 125.23 104.498 114.751 100.065 105.079Z" fill="white"/>
<path d="M148.831 144.575C148.428 144.575 148.025 144.575 148.025 144.978C148.025 145.381 148.025 145.784 148.428 145.784C149.637 146.187 151.249 146.59 152.458 146.993C152.861 146.993 153.264 146.993 153.264 146.59C153.264 146.187 153.264 145.784 152.861 145.784C151.652 145.381 150.04 144.978 148.831 144.575Z" fill="white"/>
<path d="M156.086 146.187C155.683 146.187 155.28 146.59 155.28 146.993C155.28 147.396 155.683 147.799 156.086 147.799C159.31 148.202 162.937 148.605 165.758 148.202C166.161 148.202 166.564 147.799 166.564 147.396C166.564 146.993 166.161 146.59 165.758 146.59C162.534 146.993 159.31 146.59 156.086 146.187Z" fill="white"/>
</g>
<defs>
<linearGradient id="paint0_linear" x1="96.4564" y1="15.5724" x2="136.022" y2="234.931" gradientUnits="userSpaceOnUse">
<stop stop-color="#27D3A2"/>
<stop offset="1" stop-color="#9388FD"/>
</linearGradient>
<clipPath id="clip0">
<rect width="256" height="256" fill="white" transform="translate(0 0.604004)"/>
</clipPath>
</defs>
</svg>
