<svg width="64" height="64" viewBox="0 0 64 64" fill="none" xmlns="http://www.w3.org/2000/svg">
<g clip-path="url(#clip0)">
<g filter="url(#filter0_d)">
<circle cx="32.0024" cy="31.9983" r="30.2292" transform="rotate(-5.6583 32.0024 31.9983)" fill="#EDF0F2"/>
</g>
<path d="M51.1931 55.3546C46.5737 59.1502 40.9325 61.4907 34.9828 62.0802C27.0046 62.8706 19.0392 60.4594 12.8388 55.3769C6.6384 50.2944 2.71098 42.957 1.92051 34.9788C1.33103 29.0291 2.51906 23.0383 5.33436 17.7639C8.14967 12.4894 12.4658 8.16829 17.737 5.34685C23.0081 2.52542 28.9976 1.33043 34.9479 1.91299C40.8982 2.49555 46.5421 4.82951 51.166 8.61971L45.0685 16.0584C41.9158 13.4741 38.0677 11.8828 34.0107 11.4856C29.9536 11.0884 25.8699 11.9032 22.276 13.8269C18.682 15.7506 15.7392 18.6968 13.8196 22.293C11.9001 25.8892 11.0901 29.9739 11.492 34.0304C12.031 39.4701 14.7088 44.4729 18.9363 47.9383C23.1638 51.4036 28.5948 53.0476 34.0345 52.5087C38.0911 52.1067 41.9374 50.5109 45.087 47.9231L51.1931 55.3546Z" fill="url(#paint0_linear)"/>
<path d="M32.0025 58.5915C46.6897 58.5915 58.5961 46.6852 58.5961 31.9979C58.5961 17.3107 46.6897 5.4043 32.0025 5.4043C17.3152 5.4043 5.40886 17.3107 5.40886 31.9979C5.40886 46.6852 17.3152 58.5915 32.0025 58.5915Z" fill="white"/>
<g style="mix-blend-mode:multiply" opacity="0.5">
<path d="M20.7999 35.3204C20.3142 29.9776 23.9309 25.8086 25.7999 24.3919C28.3356 22.5705 32.2285 21.1062 36.9784 22.1776C41.7284 23.249 44.157 26.7133 46.7284 31.8204C49.2998 36.9276 41.9427 39.249 40.7284 39.8918C39.5141 40.5347 37.6213 42.3204 34.3713 44.999C31.1213 47.6775 27.407 45.7847 25.7999 44.999C24.1928 44.2133 21.4071 41.999 20.7999 35.3204Z" fill="#657786"/>
</g>
<g style="mix-blend-mode:multiply" opacity="0.5">
<path d="M45.8876 23.5211C47.4366 26.7076 45.1226 30.112 44.2399 31.9657C40.1205 40.4103 33.4478 42.4601 30.9992 43.029C28.0862 43.7058 20.5243 43.6175 19.9653 35.3494C19.4062 27.0813 24.7319 22.2852 26.4091 19.9313C28.0862 17.5774 31.9407 17.0184 33.206 18.2542C34.2181 19.2428 36.7074 20.2354 37.8255 20.6081C38.5611 20.9023 44.8578 21.4025 45.8876 23.5211Z" fill="#657786"/>
</g>
<g style="mix-blend-mode:multiply" opacity="0.5">
<path d="M24.4393 19.9608C26.7932 19.3135 33.5019 20.7847 35.8852 21.8145C40.8578 23.8742 44.83 32.4953 39.5337 38.4095C34.2374 44.3237 28.1762 43.1173 26.0282 42.9407C23.8803 42.7642 22.5562 42.3523 20.4377 41.7932C16.1771 41.1106 16.4459 36.801 17.1128 34.7315C17.8386 32.7994 19.3667 28.2818 19.6727 25.669C20.0552 22.403 22.0854 20.6081 24.4393 19.9608Z" fill="#657786"/>
</g>
<circle cx="31.1958" cy="31.9814" r="7.70483" fill="white"/>
</g>
<defs>
<filter id="filter0_d" x="-3.05995" y="-2.10403" width="70.1247" height="70.1247" filterUnits="userSpaceOnUse" color-interpolation-filters="sRGB">
<feFlood flood-opacity="0" result="BackgroundImageFix"/>
<feColorMatrix in="SourceAlpha" type="matrix" values="0 0 0 0 0 0 0 0 0 0 0 0 0 0 0 0 0 0 127 0"/>
<feOffset dy="0.96"/>
<feGaussianBlur stdDeviation="1"/>
<feColorMatrix type="matrix" values="0 0 0 0 0 0 0 0 0 0 0 0 0 0 0 0 0 0 0.08 0"/>
<feBlend mode="normal" in2="BackgroundImageFix" result="effect1_dropShadow"/>
<feBlend mode="normal" in="SourceGraphic" in2="effect1_dropShadow" result="shape"/>
</filter>
<linearGradient id="paint0_linear" x1="24.4451" y1="4.91795" x2="33.9242" y2="57.4723" gradientUnits="userSpaceOnUse">
<stop stop-color="#27D3A2"/>
<stop offset="1" stop-color="#9388FD"/>
</linearGradient>
<clipPath id="clip0">
<rect width="64" height="64" fill="white"/>
</clipPath>
</defs>
</svg>
