<svg width="64" height="64" viewBox="0 0 64 64" fill="none" xmlns="http://www.w3.org/2000/svg">
<g clip-path="url(#clip0)">
<g filter="url(#filter0_d)">
<circle cx="32.0024" cy="31.9983" r="30.2292" transform="rotate(-5.6583 32.0024 31.9983)" fill="#EDF0F2"/>
</g>
<path d="M51.1932 55.3546C46.5737 59.1502 40.9325 61.4907 34.9829 62.0802C27.0046 62.8706 19.0392 60.4594 12.8388 55.3769C6.63841 50.2944 2.71099 42.957 1.92052 34.9788C1.33104 29.0291 2.51907 23.0383 5.33438 17.7639C8.14968 12.4894 12.4658 8.16829 17.737 5.34685C23.0081 2.52542 28.9976 1.33043 34.9479 1.91299C40.8982 2.49555 46.5421 4.82951 51.166 8.61971L45.0685 16.0584C41.9159 13.4741 38.0677 11.8828 34.0107 11.4856C29.9537 11.0884 25.8699 11.9032 22.276 13.8269C18.682 15.7506 15.7392 18.6968 13.8197 22.293C11.9001 25.8892 11.0901 29.9739 11.492 34.0304C12.031 39.4701 14.7088 44.4729 18.9363 47.9383C23.1638 51.4036 28.5948 53.0476 34.0345 52.5087C38.0911 52.1067 41.9374 50.5109 45.087 47.9231L51.1932 55.3546Z" fill="url(#paint0_linear)"/>
<path d="M32.0025 58.5915C46.6897 58.5915 58.5961 46.6852 58.5961 31.9979C58.5961 17.3107 46.6897 5.4043 32.0025 5.4043C17.3152 5.4043 5.40887 17.3107 5.40887 31.9979C5.40887 46.6852 17.3152 58.5915 32.0025 58.5915Z" fill="white"/>
<path d="M35.1242 26.647C35.1242 22.6555 33.1795 19.2179 31.6984 18.1021C31.6984 18.1021 31.5845 18.0393 31.5963 18.2004C31.4745 25.9123 27.534 28.0024 25.3693 30.8153C20.372 37.3134 25.0157 44.4361 29.7537 45.7522C32.3938 46.4908 29.1408 44.4478 28.7205 40.1381C28.2058 34.9365 35.1242 30.9607 35.1242 26.647V26.647Z" fill="#283947"/>
<path d="M37.395 29.2753C37.3636 29.2557 37.3204 29.24 37.2929 29.291C37.2104 30.2614 36.2203 32.3358 34.9632 34.2451C30.7005 40.7117 33.1285 43.8311 34.4956 45.5086C35.2892 46.479 34.4956 45.5086 36.4757 44.5147C38.9233 43.0296 40.5104 40.4603 40.7462 37.608C41.1351 33.0115 38.3772 30.1161 37.395 29.2753V29.2753Z" fill="#657786"/>
</g>
<defs>
<filter id="filter0_d" x="-3.05994" y="-2.10403" width="70.1247" height="70.1247" filterUnits="userSpaceOnUse" color-interpolation-filters="sRGB">
<feFlood flood-opacity="0" result="BackgroundImageFix"/>
<feColorMatrix in="SourceAlpha" type="matrix" values="0 0 0 0 0 0 0 0 0 0 0 0 0 0 0 0 0 0 127 0"/>
<feOffset dy="0.96"/>
<feGaussianBlur stdDeviation="1"/>
<feColorMatrix type="matrix" values="0 0 0 0 0 0 0 0 0 0 0 0 0 0 0 0 0 0 0.08 0"/>
<feBlend mode="normal" in2="BackgroundImageFix" result="effect1_dropShadow"/>
<feBlend mode="normal" in="SourceGraphic" in2="effect1_dropShadow" result="shape"/>
</filter>
<linearGradient id="paint0_linear" x1="24.4451" y1="4.91795" x2="33.9242" y2="57.4723" gradientUnits="userSpaceOnUse">
<stop stop-color="#27D3A2"/>
<stop offset="1" stop-color="#9388FD"/>
</linearGradient>
<clipPath id="clip0">
<rect width="64" height="64" fill="white"/>
</clipPath>
</defs>
</svg>
