<svg width="256" height="257" viewBox="0 0 256 257" fill="none" xmlns="http://www.w3.org/2000/svg">
<g clip-path="url(#clip0)">
<circle cx="128" cy="128.604" r="126.175" transform="rotate(-5.6583 128 128.604)" fill="#EDF0F2"/>
<path d="M208.101 226.092C188.82 241.934 165.274 251.703 140.44 254.164C107.14 257.463 73.8924 247.399 48.0124 226.185C22.1324 204.971 5.7396 174.345 2.44025 141.044C-0.0202017 116.211 4.93856 91.2056 16.6895 69.1905C28.4403 47.1753 46.4556 29.1391 68.4571 17.3627C90.4585 5.58618 115.458 0.59836 140.294 3.02994C165.131 5.46152 188.688 15.2033 207.988 31.0233L182.537 62.0717C169.378 51.2853 153.316 44.6432 136.382 42.9853C119.449 41.3274 102.404 44.7282 87.4025 52.7576C72.4015 60.7871 60.1184 73.0845 52.1064 88.0948C44.0945 103.105 40.7135 120.154 42.3911 137.086C44.6406 159.791 55.8175 180.672 73.463 195.136C91.1085 209.6 113.777 216.463 136.482 214.213C153.414 212.535 169.468 205.875 182.614 195.073L208.101 226.092Z" fill="url(#paint0_linear)"/>
<path d="M128 232.604C185.438 232.604 232 186.042 232 128.604C232 71.1664 185.438 24.604 128 24.604C70.5624 24.604 24 71.1664 24 128.604C24 186.042 70.5624 232.604 128 232.604Z" fill="#F9FAFB"/>
<path d="M152.72 124.82V132.892C152.72 133.397 152.216 133.649 151.963 133.649H133.801V158.117C133.801 158.621 133.297 158.874 133.045 158.874H123.207C122.703 158.874 122.45 158.369 122.45 158.117V133.649H104.289C103.784 133.649 103.532 133.144 103.532 132.892V124.82C103.532 124.316 104.036 124.064 104.289 124.064H152.216C152.468 124.064 152.72 124.316 152.72 124.82ZM128 112.46C132.036 112.46 135.315 109.181 135.315 105.145C135.315 101.109 132.036 97.8298 128 97.8298C123.964 97.8298 120.685 101.109 120.685 105.145C120.432 109.181 123.964 112.46 128 112.46ZM198.125 128.604C198.125 167.198 166.846 198.729 128 198.729C89.1537 198.729 57.875 167.198 57.875 128.604C57.875 90.0102 89.1537 58.4792 128 58.4792C166.846 58.4792 198.125 89.7579 198.125 128.604ZM188.791 128.604C188.791 112.46 182.485 97.0731 170.882 85.722C159.278 74.1186 144.144 67.8124 128 67.8124C111.856 67.8124 96.4688 74.1186 85.1177 85.722C73.5143 97.3253 67.2082 112.46 67.2082 128.604C67.2082 144.748 73.5143 160.135 85.1177 171.486C96.7211 183.089 111.856 189.396 128 189.396C144.144 189.396 159.531 183.089 170.882 171.486C182.485 160.135 188.791 144.748 188.791 128.604Z" fill="#283947"/>
</g>
<defs>
<linearGradient id="paint0_linear" x1="96.4564" y1="15.5724" x2="136.022" y2="234.931" gradientUnits="userSpaceOnUse">
<stop stop-color="#27D3A2"/>
<stop offset="1" stop-color="#9388FD"/>
</linearGradient>
<clipPath id="clip0">
<rect y="0.604004" width="256" height="256" fill="white"/>
</clipPath>
</defs>
</svg>
