<svg width="256" height="257" viewBox="0 0 256 257" fill="none" xmlns="http://www.w3.org/2000/svg">
<g clip-path="url(#clip0)">
<circle cx="128" cy="128.604" r="126.175" transform="rotate(-5.6583 128 128.604)" fill="#F9FAFB"/>
<path d="M208.101 226.092C188.82 241.934 165.274 251.703 140.44 254.164C107.14 257.463 73.8924 247.399 48.0124 226.185C22.1324 204.971 5.7396 174.345 2.44025 141.044C-0.0202017 116.211 4.93856 91.2056 16.6895 69.1905C28.4403 47.1753 46.4556 29.1391 68.4571 17.3627C90.4585 5.58618 115.458 0.59836 140.294 3.02994C165.131 5.46152 188.688 15.2033 207.988 31.0233L182.537 62.0717C169.378 51.2853 153.316 44.6432 136.382 42.9853C119.449 41.3274 102.404 44.7282 87.4025 52.7576C72.4015 60.7871 60.1184 73.0845 52.1064 88.0948C44.0945 103.105 40.7135 120.154 42.3911 137.086C44.6406 159.791 55.8175 180.672 73.463 195.136C91.1085 209.6 113.777 216.463 136.482 214.213C153.414 212.535 169.468 205.875 182.614 195.073L208.101 226.092Z" fill="url(#paint0_linear)"/>
<path d="M128 232.604C185.438 232.604 232 186.042 232 128.604C232 71.1664 185.438 24.604 128 24.604C70.5624 24.604 24 71.1664 24 128.604C24 186.042 70.5624 232.604 128 232.604Z" fill="white"/>
<path d="M174.376 170.619L138.604 84.135C136.587 79.6636 133.588 77.4824 129.634 77.4824H126.471C122.518 77.4824 119.519 79.6636 117.501 84.135L101.933 121.815H90.1547C86.6375 121.842 83.7747 124.678 83.7475 128.222V128.304C83.7747 131.821 86.6375 134.684 90.1547 134.711H96.4801L81.6208 170.619C81.3482 171.41 81.1846 172.228 81.1846 173.073C81.1846 175.09 81.8117 176.672 82.9295 177.899C84.0474 179.126 85.656 179.726 87.6736 179.726C89.0096 179.698 90.291 179.289 91.3543 178.499C92.4995 177.708 93.2902 176.563 93.9172 175.254L110.276 134.684H121.618C125.135 134.657 127.998 131.821 128.026 128.277V128.113C127.998 124.596 125.135 121.733 121.618 121.706H115.566L128.053 90.5968L162.079 175.227C162.706 176.536 163.497 177.681 164.642 178.471C165.706 179.262 167.014 179.671 168.323 179.698C170.341 179.698 171.922 179.098 173.067 177.872C174.212 176.645 174.812 175.063 174.812 173.046C174.839 172.228 174.703 171.382 174.376 170.619Z" fill="#283947"/>
</g>
<defs>
<linearGradient id="paint0_linear" x1="96.4564" y1="15.5724" x2="136.022" y2="234.931" gradientUnits="userSpaceOnUse">
<stop stop-color="#27D3A2"/>
<stop offset="1" stop-color="#9388FD"/>
</linearGradient>
<clipPath id="clip0">
<rect width="256" height="256" fill="white" transform="translate(0 0.604004)"/>
</clipPath>
</defs>
</svg>
