<svg width="64" height="64" viewBox="0 0 64 64" fill="none" xmlns="http://www.w3.org/2000/svg">
<g clip-path="url(#clip0)">
<g filter="url(#filter0_d)">
<circle cx="32.0024" cy="31.9983" r="30.2292" transform="rotate(-5.6583 32.0024 31.9983)" fill="#EDF0F2"/>
</g>
<path d="M51.1931 55.3546C46.5737 59.1502 40.9325 61.4907 34.9828 62.0802C27.0046 62.8706 19.0392 60.4594 12.8388 55.3769C6.6384 50.2944 2.71098 42.957 1.92051 34.9788C1.33103 29.0291 2.51906 23.0383 5.33436 17.7639C8.14967 12.4894 12.4658 8.16829 17.737 5.34685C23.0081 2.52542 28.9976 1.33043 34.9479 1.91299C40.8982 2.49555 46.5421 4.82951 51.166 8.61971L45.0685 16.0584C41.9158 13.4741 38.0677 11.8828 34.0107 11.4856C29.9536 11.0884 25.8699 11.9032 22.276 13.8269C18.682 15.7506 15.7392 18.6968 13.8196 22.293C11.9001 25.8892 11.0901 29.9739 11.492 34.0304C12.031 39.4701 14.7088 44.4729 18.9363 47.9383C23.1638 51.4036 28.5948 53.0476 34.0345 52.5087C38.0911 52.1067 41.9374 50.5109 45.087 47.9231L51.1931 55.3546Z" fill="url(#paint0_linear)"/>
<path d="M32.0025 58.5915C46.6897 58.5915 58.5961 46.6852 58.5961 31.9979C58.5961 17.3107 46.6897 5.4043 32.0025 5.4043C17.3152 5.4043 5.40887 17.3107 5.40887 31.9979C5.40887 46.6852 17.3152 58.5915 32.0025 58.5915Z" fill="white"/>
<path d="M33.1642 24.9106C33.8694 24.9106 34.4411 24.3389 34.4411 23.6336C34.4411 22.9284 33.8694 22.3567 33.1642 22.3567V24.9106ZM20.7402 39.3413C20.035 39.3413 19.4633 39.913 19.4633 40.6183C19.4633 41.3235 20.035 41.8952 20.7402 41.8952V39.3413ZM33.1642 22.3567C33.1617 22.3567 33.1591 22.3567 33.1566 22.3567C33.1541 22.3567 33.1516 22.3567 33.149 22.3567C33.1465 22.3567 33.1439 22.3567 33.1414 22.3567C33.1388 22.3567 33.1363 22.3567 33.1337 22.3567C33.1312 22.3567 33.1286 22.3567 33.126 22.3567C33.1234 22.3567 33.1208 22.3567 33.1183 22.3567C33.1157 22.3567 33.1131 22.3567 33.1105 22.3567C33.1079 22.3567 33.1052 22.3567 33.1026 22.3567C33.1 22.3567 33.0974 22.3567 33.0947 22.3567C33.0921 22.3567 33.0895 22.3567 33.0868 22.3567C33.0842 22.3567 33.0815 22.3567 33.0789 22.3567C33.0762 22.3567 33.0735 22.3567 33.0709 22.3567C33.0682 22.3567 33.0655 22.3567 33.0628 22.3567C33.0601 22.3567 33.0574 22.3567 33.0547 22.3567C33.052 22.3567 33.0493 22.3567 33.0466 22.3567C33.0439 22.3567 33.0412 22.3567 33.0385 22.3567C33.0357 22.3567 33.033 22.3567 33.0303 22.3567C33.0275 22.3567 33.0248 22.3567 33.022 22.3567C33.0193 22.3567 33.0165 22.3567 33.0137 22.3567C33.011 22.3567 33.0082 22.3567 33.0054 22.3567C33.0026 22.3567 32.9999 22.3567 32.9971 22.3567C32.9943 22.3567 32.9915 22.3567 32.9887 22.3567C32.9859 22.3567 32.983 22.3567 32.9802 22.3567C32.9774 22.3567 32.9746 22.3567 32.9717 22.3567C32.9689 22.3567 32.9661 22.3567 32.9632 22.3567C32.9604 22.3567 32.9575 22.3567 32.9547 22.3567C32.9518 22.3567 32.9489 22.3567 32.9461 22.3567C32.9432 22.3567 32.9403 22.3567 32.9374 22.3567C32.9346 22.3567 32.9317 22.3567 32.9288 22.3567C32.9259 22.3567 32.923 22.3567 32.9201 22.3567C32.9171 22.3567 32.9142 22.3567 32.9113 22.3567C32.9084 22.3567 32.9055 22.3567 32.9025 22.3567C32.8996 22.3567 32.8966 22.3567 32.8937 22.3567C32.8907 22.3567 32.8878 22.3567 32.8848 22.3567C32.8819 22.3567 32.8789 22.3567 32.8759 22.3567C32.873 22.3567 32.87 22.3567 32.867 22.3567C32.864 22.3567 32.861 22.3567 32.858 22.3567C32.855 22.3567 32.852 22.3567 32.849 22.3567C32.846 22.3567 32.843 22.3567 32.8399 22.3567C32.8369 22.3567 32.8339 22.3567 32.8309 22.3567C32.8278 22.3567 32.8248 22.3567 32.8217 22.3567C32.8187 22.3567 32.8156 22.3567 32.8126 22.3567C32.8095 22.3567 32.8064 22.3567 32.8034 22.3567C32.8003 22.3567 32.7972 22.3567 32.7941 22.3567C32.7911 22.3567 32.788 22.3567 32.7849 22.3567C32.7818 22.3567 32.7787 22.3567 32.7756 22.3567C32.7724 22.3567 32.7693 22.3567 32.7662 22.3567C32.7631 22.3567 32.76 22.3567 32.7568 22.3567C32.7537 22.3567 32.7506 22.3567 32.7474 22.3567C32.7443 22.3567 32.7411 22.3567 32.738 22.3567C32.7348 22.3567 32.7316 22.3567 32.7285 22.3567C32.7253 22.3567 32.7221 22.3567 32.7189 22.3567C32.7158 22.3567 32.7126 22.3567 32.7094 22.3567C32.7062 22.3567 32.703 22.3567 32.6998 22.3567C32.6966 22.3567 32.6934 22.3567 32.6902 22.3567C32.6869 22.3567 32.6837 22.3567 32.6805 22.3567C32.6773 22.3567 32.674 22.3567 32.6708 22.3567C32.6676 22.3567 32.6643 22.3567 32.6611 22.3567C32.6578 22.3567 32.6545 22.3567 32.6513 22.3567C32.648 22.3567 32.6448 22.3567 32.6415 22.3567C32.6382 22.3567 32.6349 22.3567 32.6316 22.3567C32.6283 22.3567 32.6251 22.3567 32.6218 22.3567C32.6185 22.3567 32.6152 22.3567 32.6119 22.3567C32.6085 22.3567 32.6052 22.3567 32.6019 22.3567C32.5986 22.3567 32.5953 22.3567 32.5919 22.3567C32.5886 22.3567 32.5853 22.3567 32.5819 22.3567C32.5786 22.3567 32.5752 22.3567 32.5719 22.3567C32.5685 22.3567 32.5652 22.3567 32.5618 22.3567C32.5584 22.3567 32.5551 22.3567 32.5517 22.3567C32.5483 22.3567 32.5449 22.3567 32.5415 22.3567C32.5381 22.3567 32.5347 22.3567 32.5313 22.3567C32.528 22.3567 32.5245 22.3567 32.5211 22.3567C32.5177 22.3567 32.5143 22.3567 32.5109 22.3567C32.5075 22.3567 32.504 22.3567 32.5006 22.3567C32.4972 22.3567 32.4937 22.3567 32.4903 22.3567C32.4869 22.3567 32.4834 22.3567 32.48 22.3567C32.4765 22.3567 32.473 22.3567 32.4696 22.3567C32.4661 22.3567 32.4626 22.3567 32.4592 22.3567C32.4557 22.3567 32.4522 22.3567 32.4487 22.3567C32.4452 22.3567 32.4417 22.3567 32.4382 22.3567C32.4347 22.3567 32.4312 22.3567 32.4277 22.3567C32.4242 22.3567 32.4207 22.3567 32.4172 22.3567C32.4137 22.3567 32.4102 22.3567 32.4066 22.3567C32.4031 22.3567 32.3996 22.3567 32.396 22.3567C32.3925 22.3567 32.3889 22.3567 32.3854 22.3567C32.3818 22.3567 32.3783 22.3567 32.3747 22.3567C32.3712 22.3567 32.3676 22.3567 32.364 22.3567C32.3605 22.3567 32.3569 22.3567 32.3533 22.3567C32.3497 22.3567 32.3461 22.3567 32.3425 22.3567C32.3389 22.3567 32.3353 22.3567 32.3317 22.3567C32.3281 22.3567 32.3245 22.3567 32.3209 22.3567C32.3173 22.3567 32.3137 22.3567 32.3101 22.3567C32.3064 22.3567 32.3028 22.3567 32.2992 22.3567C32.2956 22.3567 32.2919 22.3567 32.2883 22.3567C32.2846 22.3567 32.281 22.3567 32.2773 22.3567C32.2737 22.3567 32.27 22.3567 32.2664 22.3567C32.2627 22.3567 32.259 22.3567 32.2553 22.3567C32.2517 22.3567 32.248 22.3567 32.2443 22.3567C32.2406 22.3567 32.2369 22.3567 32.2332 22.3567C32.2296 22.3567 32.2259 22.3567 32.2222 22.3567C32.2185 22.3567 32.2147 22.3567 32.211 22.3567C32.2073 22.3567 32.2036 22.3567 32.1999 22.3567C32.1962 22.3567 32.1924 22.3567 32.1887 22.3567C32.185 22.3567 32.1812 22.3567 32.1775 22.3567C32.1737 22.3567 32.17 22.3567 32.1662 22.3567C32.1625 22.3567 32.1587 22.3567 32.155 22.3567C32.1512 22.3567 32.1474 22.3567 32.1437 22.3567C32.1399 22.3567 32.1361 22.3567 32.1323 22.3567C32.1286 22.3567 32.1248 22.3567 32.121 22.3567C32.1172 22.3567 32.1134 22.3567 32.1096 22.3567C32.1058 22.3567 32.102 22.3567 32.0982 22.3567C32.0944 22.3567 32.0906 22.3567 32.0867 22.3567C32.0829 22.3567 32.0791 22.3567 32.0753 22.3567C32.0714 22.3567 32.0676 22.3567 32.0638 22.3567C32.0599 22.3567 32.0561 22.3567 32.0522 22.3567C32.0484 22.3567 32.0445 22.3567 32.0407 22.3567C32.0368 22.3567 32.033 22.3567 32.0291 22.3567C32.0252 22.3567 32.0214 22.3567 32.0175 22.3567C32.0136 22.3567 32.0097 22.3567 32.0059 22.3567C32.002 22.3567 31.9981 22.3567 31.9942 22.3567C31.9903 22.3567 31.9864 22.3567 31.9825 22.3567C31.9786 22.3567 31.9747 22.3567 31.9708 22.3567C31.9669 22.3567 31.9629 22.3567 31.959 22.3567C31.9551 22.3567 31.9512 22.3567 31.9473 22.3567C31.9433 22.3567 31.9394 22.3567 31.9355 22.3567C31.9315 22.3567 31.9276 22.3567 31.9236 22.3567C31.9197 22.3567 31.9157 22.3567 31.9118 22.3567C31.9078 22.3567 31.9039 22.3567 31.8999 22.3567C31.8959 22.3567 31.892 22.3567 31.888 22.3567C31.884 22.3567 31.88 22.3567 31.8761 22.3567C31.8721 22.3567 31.8681 22.3567 31.8641 22.3567C31.8601 22.3567 31.8561 22.3567 31.8521 22.3567C31.8481 22.3567 31.8441 22.3567 31.8401 22.3567C31.8361 22.3567 31.8321 22.3567 31.8281 22.3567C31.8241 22.3567 31.82 22.3567 31.816 22.3567C31.812 22.3567 31.808 22.3567 31.8039 22.3567C31.7999 22.3567 31.7959 22.3567 31.7918 22.3567C31.7878 22.3567 31.7837 22.3567 31.7797 22.3567C31.7756 22.3567 31.7716 22.3567 31.7675 22.3567C31.7635 22.3567 31.7594 22.3567 31.7553 22.3567C31.7513 22.3567 31.7472 22.3567 31.7431 22.3567C31.739 22.3567 31.735 22.3567 31.7309 22.3567C31.7268 22.3567 31.7227 22.3567 31.7186 22.3567C31.7145 22.3567 31.7104 22.3567 31.7063 22.3567C31.7022 22.3567 31.6981 22.3567 31.694 22.3567C31.6899 22.3567 31.6858 22.3567 31.6817 22.3567C31.6776 22.3567 31.6735 22.3567 31.6693 22.3567C31.6652 22.3567 31.6611 22.3567 31.657 22.3567C31.6528 22.3567 31.6487 22.3567 31.6446 22.3567C31.6404 22.3567 31.6363 22.3567 31.6321 22.3567C31.628 22.3567 31.6238 22.3567 31.6197 22.3567C31.6155 22.3567 31.6114 22.3567 31.6072 22.3567C31.603 22.3567 31.5989 22.3567 31.5947 22.3567C31.5905 22.3567 31.5864 22.3567 31.5822 22.3567C31.578 22.3567 31.5738 22.3567 31.5696 22.3567C31.5654 22.3567 31.5613 22.3567 31.5571 22.3567C31.5529 22.3567 31.5487 22.3567 31.5445 22.3567C31.5403 22.3567 31.5361 22.3567 31.5319 22.3567C31.5276 22.3567 31.5234 22.3567 31.5192 22.3567C31.515 22.3567 31.5108 22.3567 31.5066 22.3567C31.5023 22.3567 31.4981 22.3567 31.4939 22.3567C31.4896 22.3567 31.4854 22.3567 31.4812 22.3567C31.4769 22.3567 31.4727 22.3567 31.4685 22.3567C31.4642 22.3567 31.46 22.3567 31.4557 22.3567C31.4515 22.3567 31.4472 22.3567 31.4429 22.3567C31.4387 22.3567 31.4344 22.3567 31.4301 22.3567C31.4259 22.3567 31.4216 22.3567 31.4173 22.3567C31.4131 22.3567 31.4088 22.3567 31.4045 22.3567C31.4002 22.3567 31.3959 22.3567 31.3916 22.3567C31.3874 22.3567 31.3831 22.3567 31.3788 22.3567C31.3745 22.3567 31.3702 22.3567 31.3659 22.3567C31.3616 22.3567 31.3573 22.3567 31.353 22.3567C31.3486 22.3567 31.3443 22.3567 31.34 22.3567C31.3357 22.3567 31.3314 22.3567 31.3271 22.3567C31.3227 22.3567 31.3184 22.3567 31.3141 22.3567C31.3097 22.3567 31.3054 22.3567 31.3011 22.3567C31.2967 22.3567 31.2924 22.3567 31.2881 22.3567C31.2837 22.3567 31.2794 22.3567 31.275 22.3567C31.2707 22.3567 31.2663 22.3567 31.262 22.3567C31.2576 22.3567 31.2532 22.3567 31.2489 22.3567C31.2445 22.3567 31.2401 22.3567 31.2358 22.3567C31.2314 22.3567 31.227 22.3567 31.2226 22.3567C31.2183 22.3567 31.2139 22.3567 31.2095 22.3567C31.2051 22.3567 31.2007 22.3567 31.1963 22.3567C31.192 22.3567 31.1876 22.3567 31.1832 22.3567C31.1788 22.3567 31.1744 22.3567 31.17 22.3567C31.1656 22.3567 31.1612 22.3567 31.1568 22.3567C31.1523 22.3567 31.1479 22.3567 31.1435 22.3567C31.1391 22.3567 31.1347 22.3567 31.1303 22.3567C31.1258 22.3567 31.1214 22.3567 31.117 22.3567C31.1126 22.3567 31.1081 22.3567 31.1037 22.3567C31.0993 22.3567 31.0948 22.3567 31.0904 22.3567C31.0859 22.3567 31.0815 22.3567 31.0771 22.3567C31.0726 22.3567 31.0682 22.3567 31.0637 22.3567C31.0593 22.3567 31.0548 22.3567 31.0503 22.3567C31.0459 22.3567 31.0414 22.3567 31.037 22.3567C31.0325 22.3567 31.028 22.3567 31.0236 22.3567C31.0191 22.3567 31.0146 22.3567 31.0101 22.3567C31.0057 22.3567 31.0012 22.3567 30.9967 22.3567C30.9922 22.3567 30.9877 22.3567 30.9832 22.3567C30.9788 22.3567 30.9743 22.3567 30.9698 22.3567C30.9653 22.3567 30.9608 22.3567 30.9563 22.3567C30.9518 22.3567 30.9473 22.3567 30.9428 22.3567C30.9383 22.3567 30.9338 22.3567 30.9292 22.3567C30.9247 22.3567 30.9202 22.3567 30.9157 22.3567C30.9112 22.3567 30.9067 22.3567 30.9021 22.3567C30.8976 22.3567 30.8931 22.3567 30.8886 22.3567C30.884 22.3567 30.8795 22.3567 30.875 22.3567C30.8705 22.3567 30.8659 22.3567 30.8614 22.3567C30.8568 22.3567 30.8523 22.3567 30.8478 22.3567C30.8432 22.3567 30.8387 22.3567 30.8341 22.3567C30.8296 22.3567 30.825 22.3567 30.8205 22.3567C30.8159 22.3567 30.8113 22.3567 30.8068 22.3567C30.8022 22.3567 30.7977 22.3567 30.7931 22.3567C30.7885 22.3567 30.784 22.3567 30.7794 22.3567C30.7748 22.3567 30.7703 22.3567 30.7657 22.3567C30.7611 22.3567 30.7565 22.3567 30.7519 22.3567C30.7474 22.3567 30.7428 22.3567 30.7382 22.3567C30.7336 22.3567 30.729 22.3567 30.7244 22.3567C30.7198 22.3567 30.7152 22.3567 30.7107 22.3567C30.7061 22.3567 30.7015 22.3567 30.6969 22.3567C30.6923 22.3567 30.6877 22.3567 30.683 22.3567C30.6784 22.3567 30.6738 22.3567 30.6692 22.3567C30.6646 22.3567 30.66 22.3567 30.6554 22.3567C30.6508 22.3567 30.6462 22.3567 30.6415 22.3567C30.6369 22.3567 30.6323 22.3567 30.6277 22.3567C30.623 22.3567 30.6184 22.3567 30.6138 22.3567C30.6092 22.3567 30.6045 22.3567 30.5999 22.3567C30.5953 22.3567 30.5906 22.3567 30.586 22.3567C30.5813 22.3567 30.5767 22.3567 30.5721 22.3567C30.5674 22.3567 30.5628 22.3567 30.5581 22.3567C30.5535 22.3567 30.5488 22.3567 30.5442 22.3567C30.5395 22.3567 30.5349 22.3567 30.5302 22.3567C30.5256 22.3567 30.5209 22.3567 30.5162 22.3567C30.5116 22.3567 30.5069 22.3567 30.5022 22.3567C30.4976 22.3567 30.4929 22.3567 30.4882 22.3567C30.4836 22.3567 30.4789 22.3567 30.4742 22.3567C30.4695 22.3567 30.4649 22.3567 30.4602 22.3567C30.4555 22.3567 30.4508 22.3567 30.4461 22.3567C30.4415 22.3567 30.4368 22.3567 30.4321 22.3567C30.4274 22.3567 30.4227 22.3567 30.418 22.3567C30.4133 22.3567 30.4086 22.3567 30.4039 22.3567C30.3993 22.3567 30.3946 22.3567 30.3899 22.3567C30.3852 22.3567 30.3805 22.3567 30.3758 22.3567C30.3711 22.3567 30.3663 22.3567 30.3616 22.3567C30.3569 22.3567 30.3522 22.3567 30.3475 22.3567C30.3428 22.3567 30.3381 22.3567 30.3334 22.3567C30.3287 22.3567 30.3239 22.3567 30.3192 22.3567C30.3145 22.3567 30.3098 22.3567 30.3051 22.3567C30.3003 22.3567 30.2956 22.3567 30.2909 22.3567C30.2862 22.3567 30.2814 22.3567 30.2767 22.3567C30.272 22.3567 30.2672 22.3567 30.2625 22.3567C30.2578 22.3567 30.253 22.3567 30.2483 22.3567C30.2436 22.3567 30.2388 22.3567 30.2341 22.3567C30.2293 22.3567 30.2246 22.3567 30.2199 22.3567C30.2151 22.3567 30.2104 22.3567 30.2056 22.3567C30.2009 22.3567 30.1961 22.3567 30.1914 22.3567C30.1866 22.3567 30.1819 22.3567 30.1771 22.3567C30.1723 22.3567 30.1676 22.3567 30.1628 22.3567C30.1581 22.3567 30.1533 22.3567 30.1486 22.3567C30.1438 22.3567 30.139 22.3567 30.1343 22.3567C30.1295 22.3567 30.1247 22.3567 30.12 22.3567C30.1152 22.3567 30.1104 22.3567 30.1057 22.3567C30.1009 22.3567 30.0961 22.3567 30.0913 22.3567C30.0866 22.3567 30.0818 22.3567 30.077 22.3567C30.0722 22.3567 30.0674 22.3567 30.0627 22.3567C30.0579 22.3567 30.0531 22.3567 30.0483 22.3567C30.0435 22.3567 30.0387 22.3567 30.034 22.3567C30.0292 22.3567 30.0244 22.3567 30.0196 22.3567C30.0148 22.3567 30.01 22.3567 30.0052 22.3567C30.0004 22.3567 29.9956 22.3567 29.9908 22.3567C29.986 22.3567 29.9812 22.3567 29.9764 22.3567C29.9716 22.3567 29.9668 22.3567 29.962 22.3567C29.9572 22.3567 29.9524 22.3567 29.9476 22.3567C29.9428 22.3567 29.938 22.3567 29.9332 22.3567C29.9284 22.3567 29.9236 22.3567 29.9188 22.3567C29.914 22.3567 29.9092 22.3567 29.9044 22.3567C29.8995 22.3567 29.8947 22.3567 29.8899 22.3567C29.8851 22.3567 29.8803 22.3567 29.8755 22.3567C29.8706 22.3567 29.8658 22.3567 29.861 22.3567C29.8562 22.3567 29.8514 22.3567 29.8465 22.3567C29.8417 22.3567 29.8369 22.3567 29.8321 22.3567C29.8272 22.3567 29.8224 22.3567 29.8176 22.3567C29.8128 22.3567 29.8079 22.3567 29.8031 22.3567C29.7983 22.3567 29.7934 22.3567 29.7886 22.3567C29.7838 22.3567 29.7789 22.3567 29.7741 22.3567C29.7693 22.3567 29.7644 22.3567 29.7596 22.3567C29.7548 22.3567 29.7499 22.3567 29.7451 22.3567C29.7402 22.3567 29.7354 22.3567 29.7306 22.3567C29.7257 22.3567 29.7209 22.3567 29.716 22.3567C29.7112 22.3567 29.7064 22.3567 29.7015 22.3567C29.6967 22.3567 29.6918 22.3567 29.687 22.3567C29.6821 22.3567 29.6773 22.3567 29.6724 22.3567C29.6676 22.3567 29.6627 22.3567 29.6579 22.3567C29.653 22.3567 29.6482 22.3567 29.6433 22.3567C29.6385 22.3567 29.6336 22.3567 29.6287 22.3567C29.6239 22.3567 29.619 22.3567 29.6142 22.3567C29.6093 22.3567 29.6045 22.3567 29.5996 22.3567C29.5947 22.3567 29.5899 22.3567 29.585 22.3567C29.5802 22.3567 29.5753 22.3567 29.5704 22.3567C29.5656 22.3567 29.5607 22.3567 29.5559 22.3567C29.551 22.3567 29.5461 22.3567 29.5413 22.3567C29.5364 22.3567 29.5315 22.3567 29.5267 22.3567C29.5218 22.3567 29.5169 22.3567 29.5121 22.3567C29.5072 22.3567 29.5023 22.3567 29.4974 22.3567C29.4926 22.3567 29.4877 22.3567 29.4828 22.3567C29.478 22.3567 29.4731 22.3567 29.4682 22.3567C29.4633 22.3567 29.4585 22.3567 29.4536 22.3567C29.4487 22.3567 29.4438 22.3567 29.439 22.3567C29.4341 22.3567 29.4292 22.3567 29.4243 22.3567C29.4195 22.3567 29.4146 22.3567 29.4097 22.3567C29.4048 22.3567 29.3999 22.3567 29.3951 22.3567C29.3902 22.3567 29.3853 22.3567 29.3804 22.3567C29.3755 22.3567 29.3707 22.3567 29.3658 22.3567C29.3609 22.3567 29.356 22.3567 29.3511 22.3567C29.3462 22.3567 29.3414 22.3567 29.3365 22.3567C29.3316 22.3567 29.3267 22.3567 29.3218 22.3567C29.3169 22.3567 29.3121 22.3567 29.3072 22.3567C29.3023 22.3567 29.2974 22.3567 29.2925 22.3567C29.2876 22.3567 29.2827 22.3567 29.2778 22.3567C29.273 22.3567 29.2681 22.3567 29.2632 22.3567C29.2583 22.3567 29.2534 22.3567 29.2485 22.3567C29.2436 22.3567 29.2387 22.3567 29.2338 22.3567C29.2289 22.3567 29.2241 22.3567 29.2192 22.3567C29.2143 22.3567 29.2094 22.3567 29.2045 22.3567C29.1996 22.3567 29.1947 22.3567 29.1898 22.3567C29.1849 22.3567 29.18 22.3567 29.1751 22.3567C29.1702 22.3567 29.1653 22.3567 29.1605 22.3567C29.1556 22.3567 29.1507 22.3567 29.1458 22.3567C29.1409 22.3567 29.136 22.3567 29.1311 22.3567C29.1262 22.3567 29.1213 22.3567 29.1164 22.3567C29.1115 22.3567 29.1066 22.3567 29.1017 22.3567C29.0968 22.3567 29.0919 22.3567 29.087 22.3567C29.0821 22.3567 29.0772 22.3567 29.0723 22.3567C29.0674 22.3567 29.0625 22.3567 29.0576 22.3567C29.0528 22.3567 29.0479 22.3567 29.043 22.3567C29.0381 22.3567 29.0332 22.3567 29.0283 22.3567C29.0234 22.3567 29.0185 22.3567 29.0136 22.3567C29.0087 22.3567 29.0038 22.3567 28.9989 22.3567C28.994 22.3567 28.9891 22.3567 28.9842 22.3567C28.9793 22.3567 28.9744 22.3567 28.9695 22.3567C28.9646 22.3567 28.9597 22.3567 28.9548 22.3567C28.9499 22.3567 28.945 22.3567 28.9401 22.3567C28.9352 22.3567 28.9303 22.3567 28.9254 22.3567C28.9205 22.3567 28.9156 22.3567 28.9107 22.3567C28.9058 22.3567 28.9009 22.3567 28.896 22.3567C28.8911 22.3567 28.8862 22.3567 28.8813 22.3567C28.8765 22.3567 28.8716 22.3567 28.8667 22.3567C28.8618 22.3567 28.8569 22.3567 28.852 22.3567C28.8471 22.3567 28.8422 22.3567 28.8373 22.3567C28.8324 22.3567 28.8275 22.3567 28.8226 22.3567C28.8177 22.3567 28.8128 22.3567 28.8079 22.3567C28.803 22.3567 28.7981 22.3567 28.7932 22.3567C28.7883 22.3567 28.7834 22.3567 28.7785 22.3567C28.7736 22.3567 28.7688 22.3567 28.7639 22.3567C28.759 22.3567 28.7541 22.3567 28.7492 22.3567C28.7443 22.3567 28.7394 22.3567 28.7345 22.3567C28.7296 22.3567 28.7247 22.3567 28.7198 22.3567C28.7149 22.3567 28.71 22.3567 28.7052 22.3567C28.7003 22.3567 28.6954 22.3567 28.6905 22.3567C28.6856 22.3567 28.6807 22.3567 28.6758 22.3567C28.6709 22.3567 28.666 22.3567 28.6611 22.3567C28.6563 22.3567 28.6514 22.3567 28.6465 22.3567C28.6416 22.3567 28.6367 22.3567 28.6318 22.3567C28.6269 22.3567 28.622 22.3567 28.6172 22.3567C28.6123 22.3567 28.6074 22.3567 28.6025 22.3567C28.5976 22.3567 28.5927 22.3567 28.5878 22.3567C28.583 22.3567 28.5781 22.3567 28.5732 22.3567C28.5683 22.3567 28.5634 22.3567 28.5585 22.3567C28.5537 22.3567 28.5488 22.3567 28.5439 22.3567C28.539 22.3567 28.5341 22.3567 28.5293 22.3567C28.5244 22.3567 28.5195 22.3567 28.5146 22.3567C28.5097 22.3567 28.5049 22.3567 28.5 22.3567C28.4951 22.3567 28.4902 22.3567 28.4854 22.3567C28.4805 22.3567 28.4756 22.3567 28.4707 22.3567C28.4659 22.3567 28.461 22.3567 28.4561 22.3567C28.4512 22.3567 28.4464 22.3567 28.4415 22.3567C28.4366 22.3567 28.4318 22.3567 28.4269 22.3567C28.422 22.3567 28.4172 22.3567 28.4123 22.3567C28.4074 22.3567 28.4025 22.3567 28.3977 22.3567C28.3928 22.3567 28.3879 22.3567 28.3831 22.3567C28.3782 22.3567 28.3734 22.3567 28.3685 22.3567C28.3636 22.3567 28.3588 22.3567 28.3539 22.3567C28.349 22.3567 28.3442 22.3567 28.3393 22.3567C28.3345 22.3567 28.3296 22.3567 28.3247 22.3567C28.3199 22.3567 28.315 22.3567 28.3102 22.3567C28.3053 22.3567 28.3005 22.3567 28.2956 22.3567C28.2907 22.3567 28.2859 22.3567 28.281 22.3567C28.2762 22.3567 28.2713 22.3567 28.2665 22.3567C28.2616 22.3567 28.2568 22.3567 28.2519 22.3567C28.2471 22.3567 28.2422 22.3567 28.2374 22.3567C28.2325 22.3567 28.2277 22.3567 28.2229 22.3567C28.218 22.3567 28.2132 22.3567 28.2083 22.3567C28.2035 22.3567 28.1986 22.3567 28.1938 22.3567C28.189 22.3567 28.1841 22.3567 28.1793 22.3567C28.1744 22.3567 28.1696 22.3567 28.1648 22.3567C28.1599 22.3567 28.1551 22.3567 28.1503 22.3567C28.1454 22.3567 28.1406 22.3567 28.1358 22.3567C28.1309 22.3567 28.1261 22.3567 28.1213 22.3567C28.1164 22.3567 28.1116 22.3567 28.1068 22.3567C28.102 22.3567 28.0971 22.3567 28.0923 22.3567C28.0875 22.3567 28.0827 22.3567 28.0778 22.3567C28.073 22.3567 28.0682 22.3567 28.0634 22.3567C28.0586 22.3567 28.0537 22.3567 28.0489 22.3567C28.0441 22.3567 28.0393 22.3567 28.0345 22.3567C28.0297 22.3567 28.0249 22.3567 28.02 22.3567C28.0152 22.3567 28.0104 22.3567 28.0056 22.3567C28.0008 22.3567 27.996 22.3567 27.9912 22.3567C27.9864 22.3567 27.9816 22.3567 27.9768 22.3567C27.972 22.3567 27.9672 22.3567 27.9624 22.3567C27.9576 22.3567 27.9528 22.3567 27.948 22.3567C27.9432 22.3567 27.9384 22.3567 27.9336 22.3567C27.9288 22.3567 27.924 22.3567 27.9192 22.3567C27.9144 22.3567 27.9096 22.3567 27.9048 22.3567C27.9 22.3567 27.8952 22.3567 27.8905 22.3567C27.8857 22.3567 27.8809 22.3567 27.8761 22.3567C27.8713 22.3567 27.8665 22.3567 27.8618 22.3567C27.857 22.3567 27.8522 22.3567 27.8474 22.3567C27.8426 22.3567 27.8379 22.3567 27.8331 22.3567C27.8283 22.3567 27.8236 22.3567 27.8188 22.3567C27.814 22.3567 27.8092 22.3567 27.8045 22.3567C27.7997 22.3567 27.7949 22.3567 27.7902 22.3567C27.7854 22.3567 27.7807 22.3567 27.7759 22.3567C27.7711 22.3567 27.7664 22.3567 27.7616 22.3567C27.7569 22.3567 27.7521 22.3567 27.7473 22.3567C27.7426 22.3567 27.7378 22.3567 27.7331 22.3567C27.7283 22.3567 27.7236 22.3567 27.7188 22.3567C27.7141 22.3567 27.7094 22.3567 27.7046 22.3567C27.6999 22.3567 27.6951 22.3567 27.6904 22.3567C27.6856 22.3567 27.6809 22.3567 27.6762 22.3567C27.6714 22.3567 27.6667 22.3567 27.662 22.3567C27.6572 22.3567 27.6525 22.3567 27.6478 22.3567C27.643 22.3567 27.6383 22.3567 27.6336 22.3567C27.6289 22.3567 27.6241 22.3567 27.6194 22.3567C27.6147 22.3567 27.61 22.3567 27.6053 22.3567C27.6005 22.3567 27.5958 22.3567 27.5911 22.3567C27.5864 22.3567 27.5817 22.3567 27.577 22.3567C27.5723 22.3567 27.5676 22.3567 27.5629 22.3567C27.5582 22.3567 27.5535 22.3567 27.5487 22.3567C27.544 22.3567 27.5393 22.3567 27.5347 22.3567C27.53 22.3567 27.5253 22.3567 27.5206 22.3567C27.5159 22.3567 27.5112 22.3567 27.5065 22.3567C27.5018 22.3567 27.4971 22.3567 27.4924 22.3567C27.4877 22.3567 27.4831 22.3567 27.4784 22.3567C27.4737 22.3567 27.469 22.3567 27.4643 22.3567C27.4597 22.3567 27.455 22.3567 27.4503 22.3567C27.4456 22.3567 27.441 22.3567 27.4363 22.3567C27.4316 22.3567 27.427 22.3567 27.4223 22.3567C27.4176 22.3567 27.413 22.3567 27.4083 22.3567C27.4037 22.3567 27.399 22.3567 27.3943 22.3567C27.3897 22.3567 27.385 22.3567 27.3804 22.3567C27.3757 22.3567 27.3711 22.3567 27.3664 22.3567C27.3618 22.3567 27.3571 22.3567 27.3525 22.3567C27.3479 22.3567 27.3432 22.3567 27.3386 22.3567C27.3339 22.3567 27.3293 22.3567 27.3247 22.3567C27.32 22.3567 27.3154 22.3567 27.3108 22.3567C27.3062 22.3567 27.3015 22.3567 27.2969 22.3567C27.2923 22.3567 27.2877 22.3567 27.2831 22.3567C27.2784 22.3567 27.2738 22.3567 27.2692 22.3567C27.2646 22.3567 27.26 22.3567 27.2554 22.3567C27.2508 22.3567 27.2462 22.3567 27.2416 22.3567C27.2369 22.3567 27.2323 22.3567 27.2277 22.3567C27.2231 22.3567 27.2186 22.3567 27.214 22.3567C27.2094 22.3567 27.2048 22.3567 27.2002 22.3567C27.1956 22.3567 27.191 22.3567 27.1864 22.3567C27.1818 22.3567 27.1773 22.3567 27.1727 22.3567C27.1681 22.3567 27.1635 22.3567 27.159 22.3567C27.1544 22.3567 27.1498 22.3567 27.1452 22.3567C27.1407 22.3567 27.1361 22.3567 27.1315 22.3567C27.127 22.3567 27.1224 22.3567 27.1179 22.3567C27.1133 22.3567 27.1087 22.3567 27.1042 22.3567C27.0996 22.3567 27.0951 22.3567 27.0905 22.3567C27.086 22.3567 27.0815 22.3567 27.0769 22.3567C27.0724 22.3567 27.0678 22.3567 27.0633 22.3567C27.0588 22.3567 27.0542 22.3567 27.0497 22.3567C27.0452 22.3567 27.0406 22.3567 27.0361 22.3567C27.0316 22.3567 27.0271 22.3567 27.0225 22.3567C27.018 22.3567 27.0135 22.3567 27.009 22.3567C27.0045 22.3567 27 22.3567 26.9955 22.3567C26.9909 22.3567 26.9864 22.3567 26.9819 22.3567C26.9774 22.3567 26.9729 22.3567 26.9684 22.3567C26.9639 22.3567 26.9594 22.3567 26.9549 22.3567C26.9505 22.3567 26.946 22.3567 26.9415 22.3567C26.937 22.3567 26.9325 22.3567 26.928 22.3567C26.9236 22.3567 26.9191 22.3567 26.9146 22.3567C26.9101 22.3567 26.9057 22.3567 26.9012 22.3567C26.8967 22.3567 26.8923 22.3567 26.8878 22.3567C26.8833 22.3567 26.8789 22.3567 26.8744 22.3567C26.87 22.3567 26.8655 22.3567 26.8611 22.3567C26.8566 22.3567 26.8522 22.3567 26.8477 22.3567C26.8433 22.3567 26.8388 22.3567 26.8344 22.3567C26.8299 22.3567 26.8255 22.3567 26.8211 22.3567C26.8167 22.3567 26.8122 22.3567 26.8078 22.3567C26.8034 22.3567 26.7989 22.3567 26.7945 22.3567C26.7901 22.3567 26.7857 22.3567 26.7813 22.3567C26.7769 22.3567 26.7725 22.3567 26.768 22.3567C26.7636 22.3567 26.7592 22.3567 26.7548 22.3567C26.7504 22.3567 26.746 22.3567 26.7416 22.3567C26.7373 22.3567 26.7329 22.3567 26.7285 22.3567C26.7241 22.3567 26.7197 22.3567 26.7153 22.3567C26.7109 22.3567 26.7066 22.3567 26.7022 22.3567C26.6978 22.3567 26.6934 22.3567 26.6891 22.3567C26.6847 22.3567 26.6803 22.3567 26.676 22.3567C26.6716 22.3567 26.6673 22.3567 26.6629 22.3567C26.6585 22.3567 26.6542 22.3567 26.6498 22.3567C26.6455 22.3567 26.6412 22.3567 26.6368 22.3567C26.6325 22.3567 26.6281 22.3567 26.6238 22.3567C26.6195 22.3567 26.6151 22.3567 26.6108 22.3567C26.6065 22.3567 26.6022 22.3567 26.5978 22.3567C26.5935 22.3567 26.5892 22.3567 26.5849 22.3567C26.5806 22.3567 26.5763 22.3567 26.5719 22.3567C26.5676 22.3567 26.5633 22.3567 26.559 22.3567V24.9106C26.5633 24.9106 26.5676 24.9106 26.5719 24.9106C26.5763 24.9106 26.5806 24.9106 26.5849 24.9106C26.5892 24.9106 26.5935 24.9106 26.5978 24.9106C26.6022 24.9106 26.6065 24.9106 26.6108 24.9106C26.6151 24.9106 26.6195 24.9106 26.6238 24.9106C26.6281 24.9106 26.6325 24.9106 26.6368 24.9106C26.6412 24.9106 26.6455 24.9106 26.6498 24.9106C26.6542 24.9106 26.6585 24.9106 26.6629 24.9106C26.6673 24.9106 26.6716 24.9106 26.676 24.9106C26.6803 24.9106 26.6847 24.9106 26.6891 24.9106C26.6934 24.9106 26.6978 24.9106 26.7022 24.9106C26.7066 24.9106 26.7109 24.9106 26.7153 24.9106C26.7197 24.9106 26.7241 24.9106 26.7285 24.9106C26.7329 24.9106 26.7373 24.9106 26.7416 24.9106C26.746 24.9106 26.7504 24.9106 26.7548 24.9106C26.7592 24.9106 26.7636 24.9106 26.768 24.9106C26.7725 24.9106 26.7769 24.9106 26.7813 24.9106C26.7857 24.9106 26.7901 24.9106 26.7945 24.9106C26.7989 24.9106 26.8034 24.9106 26.8078 24.9106C26.8122 24.9106 26.8167 24.9106 26.8211 24.9106C26.8255 24.9106 26.8299 24.9106 26.8344 24.9106C26.8388 24.9106 26.8433 24.9106 26.8477 24.9106C26.8522 24.9106 26.8566 24.9106 26.8611 24.9106C26.8655 24.9106 26.87 24.9106 26.8744 24.9106C26.8789 24.9106 26.8833 24.9106 26.8878 24.9106C26.8923 24.9106 26.8967 24.9106 26.9012 24.9106C26.9057 24.9106 26.9101 24.9106 26.9146 24.9106C26.9191 24.9106 26.9236 24.9106 26.928 24.9106C26.9325 24.9106 26.937 24.9106 26.9415 24.9106C26.946 24.9106 26.9505 24.9106 26.9549 24.9106C26.9594 24.9106 26.9639 24.9106 26.9684 24.9106C26.9729 24.9106 26.9774 24.9106 26.9819 24.9106C26.9864 24.9106 26.9909 24.9106 26.9955 24.9106C27 24.9106 27.0045 24.9106 27.009 24.9106C27.0135 24.9106 27.018 24.9106 27.0225 24.9106C27.0271 24.9106 27.0316 24.9106 27.0361 24.9106C27.0406 24.9106 27.0452 24.9106 27.0497 24.9106C27.0542 24.9106 27.0588 24.9106 27.0633 24.9106C27.0678 24.9106 27.0724 24.9106 27.0769 24.9106C27.0815 24.9106 27.086 24.9106 27.0905 24.9106C27.0951 24.9106 27.0996 24.9106 27.1042 24.9106C27.1087 24.9106 27.1133 24.9106 27.1179 24.9106C27.1224 24.9106 27.127 24.9106 27.1315 24.9106C27.1361 24.9106 27.1407 24.9106 27.1452 24.9106C27.1498 24.9106 27.1544 24.9106 27.159 24.9106C27.1635 24.9106 27.1681 24.9106 27.1727 24.9106C27.1773 24.9106 27.1818 24.9106 27.1864 24.9106C27.191 24.9106 27.1956 24.9106 27.2002 24.9106C27.2048 24.9106 27.2094 24.9106 27.214 24.9106C27.2186 24.9106 27.2231 24.9106 27.2277 24.9106C27.2323 24.9106 27.2369 24.9106 27.2416 24.9106C27.2462 24.9106 27.2508 24.9106 27.2554 24.9106C27.26 24.9106 27.2646 24.9106 27.2692 24.9106C27.2738 24.9106 27.2784 24.9106 27.2831 24.9106C27.2877 24.9106 27.2923 24.9106 27.2969 24.9106C27.3015 24.9106 27.3062 24.9106 27.3108 24.9106C27.3154 24.9106 27.32 24.9106 27.3247 24.9106C27.3293 24.9106 27.3339 24.9106 27.3386 24.9106C27.3432 24.9106 27.3479 24.9106 27.3525 24.9106C27.3571 24.9106 27.3618 24.9106 27.3664 24.9106C27.3711 24.9106 27.3757 24.9106 27.3804 24.9106C27.385 24.9106 27.3897 24.9106 27.3943 24.9106C27.399 24.9106 27.4037 24.9106 27.4083 24.9106C27.413 24.9106 27.4176 24.9106 27.4223 24.9106C27.427 24.9106 27.4316 24.9106 27.4363 24.9106C27.441 24.9106 27.4456 24.9106 27.4503 24.9106C27.455 24.9106 27.4597 24.9106 27.4643 24.9106C27.469 24.9106 27.4737 24.9106 27.4784 24.9106C27.4831 24.9106 27.4877 24.9106 27.4924 24.9106C27.4971 24.9106 27.5018 24.9106 27.5065 24.9106C27.5112 24.9106 27.5159 24.9106 27.5206 24.9106C27.5253 24.9106 27.53 24.9106 27.5347 24.9106C27.5393 24.9106 27.544 24.9106 27.5487 24.9106C27.5535 24.9106 27.5582 24.9106 27.5629 24.9106C27.5676 24.9106 27.5723 24.9106 27.577 24.9106C27.5817 24.9106 27.5864 24.9106 27.5911 24.9106C27.5958 24.9106 27.6005 24.9106 27.6053 24.9106C27.61 24.9106 27.6147 24.9106 27.6194 24.9106C27.6241 24.9106 27.6289 24.9106 27.6336 24.9106C27.6383 24.9106 27.643 24.9106 27.6478 24.9106C27.6525 24.9106 27.6572 24.9106 27.662 24.9106C27.6667 24.9106 27.6714 24.9106 27.6762 24.9106C27.6809 24.9106 27.6856 24.9106 27.6904 24.9106C27.6951 24.9106 27.6999 24.9106 27.7046 24.9106C27.7094 24.9106 27.7141 24.9106 27.7188 24.9106C27.7236 24.9106 27.7283 24.9106 27.7331 24.9106C27.7378 24.9106 27.7426 24.9106 27.7473 24.9106C27.7521 24.9106 27.7569 24.9106 27.7616 24.9106C27.7664 24.9106 27.7711 24.9106 27.7759 24.9106C27.7807 24.9106 27.7854 24.9106 27.7902 24.9106C27.7949 24.9106 27.7997 24.9106 27.8045 24.9106C27.8092 24.9106 27.814 24.9106 27.8188 24.9106C27.8236 24.9106 27.8283 24.9106 27.8331 24.9106C27.8379 24.9106 27.8426 24.9106 27.8474 24.9106C27.8522 24.9106 27.857 24.9106 27.8618 24.9106C27.8665 24.9106 27.8713 24.9106 27.8761 24.9106C27.8809 24.9106 27.8857 24.9106 27.8905 24.9106C27.8952 24.9106 27.9 24.9106 27.9048 24.9106C27.9096 24.9106 27.9144 24.9106 27.9192 24.9106C27.924 24.9106 27.9288 24.9106 27.9336 24.9106C27.9384 24.9106 27.9432 24.9106 27.948 24.9106C27.9528 24.9106 27.9576 24.9106 27.9624 24.9106C27.9672 24.9106 27.972 24.9106 27.9768 24.9106C27.9816 24.9106 27.9864 24.9106 27.9912 24.9106C27.996 24.9106 28.0008 24.9106 28.0056 24.9106C28.0104 24.9106 28.0152 24.9106 28.02 24.9106C28.0249 24.9106 28.0297 24.9106 28.0345 24.9106C28.0393 24.9106 28.0441 24.9106 28.0489 24.9106C28.0537 24.9106 28.0586 24.9106 28.0634 24.9106C28.0682 24.9106 28.073 24.9106 28.0778 24.9106C28.0827 24.9106 28.0875 24.9106 28.0923 24.9106C28.0971 24.9106 28.102 24.9106 28.1068 24.9106C28.1116 24.9106 28.1164 24.9106 28.1213 24.9106C28.1261 24.9106 28.1309 24.9106 28.1358 24.9106C28.1406 24.9106 28.1454 24.9106 28.1503 24.9106C28.1551 24.9106 28.1599 24.9106 28.1648 24.9106C28.1696 24.9106 28.1744 24.9106 28.1793 24.9106C28.1841 24.9106 28.189 24.9106 28.1938 24.9106C28.1986 24.9106 28.2035 24.9106 28.2083 24.9106C28.2132 24.9106 28.218 24.9106 28.2229 24.9106C28.2277 24.9106 28.2325 24.9106 28.2374 24.9106C28.2422 24.9106 28.2471 24.9106 28.2519 24.9106C28.2568 24.9106 28.2616 24.9106 28.2665 24.9106C28.2713 24.9106 28.2762 24.9106 28.281 24.9106C28.2859 24.9106 28.2907 24.9106 28.2956 24.9106C28.3005 24.9106 28.3053 24.9106 28.3102 24.9106C28.315 24.9106 28.3199 24.9106 28.3247 24.9106C28.3296 24.9106 28.3345 24.9106 28.3393 24.9106C28.3442 24.9106 28.349 24.9106 28.3539 24.9106C28.3588 24.9106 28.3636 24.9106 28.3685 24.9106C28.3734 24.9106 28.3782 24.9106 28.3831 24.9106C28.3879 24.9106 28.3928 24.9106 28.3977 24.9106C28.4025 24.9106 28.4074 24.9106 28.4123 24.9106C28.4172 24.9106 28.422 24.9106 28.4269 24.9106C28.4318 24.9106 28.4366 24.9106 28.4415 24.9106C28.4464 24.9106 28.4512 24.9106 28.4561 24.9106C28.461 24.9106 28.4659 24.9106 28.4707 24.9106C28.4756 24.9106 28.4805 24.9106 28.4854 24.9106C28.4902 24.9106 28.4951 24.9106 28.5 24.9106C28.5049 24.9106 28.5097 24.9106 28.5146 24.9106C28.5195 24.9106 28.5244 24.9106 28.5293 24.9106C28.5341 24.9106 28.539 24.9106 28.5439 24.9106C28.5488 24.9106 28.5537 24.9106 28.5585 24.9106C28.5634 24.9106 28.5683 24.9106 28.5732 24.9106C28.5781 24.9106 28.583 24.9106 28.5878 24.9106C28.5927 24.9106 28.5976 24.9106 28.6025 24.9106C28.6074 24.9106 28.6123 24.9106 28.6172 24.9106C28.622 24.9106 28.6269 24.9106 28.6318 24.9106C28.6367 24.9106 28.6416 24.9106 28.6465 24.9106C28.6514 24.9106 28.6563 24.9106 28.6611 24.9106C28.666 24.9106 28.6709 24.9106 28.6758 24.9106C28.6807 24.9106 28.6856 24.9106 28.6905 24.9106C28.6954 24.9106 28.7003 24.9106 28.7052 24.9106C28.71 24.9106 28.7149 24.9106 28.7198 24.9106C28.7247 24.9106 28.7296 24.9106 28.7345 24.9106C28.7394 24.9106 28.7443 24.9106 28.7492 24.9106C28.7541 24.9106 28.759 24.9106 28.7639 24.9106C28.7688 24.9106 28.7736 24.9106 28.7785 24.9106C28.7834 24.9106 28.7883 24.9106 28.7932 24.9106C28.7981 24.9106 28.803 24.9106 28.8079 24.9106C28.8128 24.9106 28.8177 24.9106 28.8226 24.9106C28.8275 24.9106 28.8324 24.9106 28.8373 24.9106C28.8422 24.9106 28.8471 24.9106 28.852 24.9106C28.8569 24.9106 28.8618 24.9106 28.8667 24.9106C28.8716 24.9106 28.8765 24.9106 28.8813 24.9106C28.8862 24.9106 28.8911 24.9106 28.896 24.9106C28.9009 24.9106 28.9058 24.9106 28.9107 24.9106C28.9156 24.9106 28.9205 24.9106 28.9254 24.9106C28.9303 24.9106 28.9352 24.9106 28.9401 24.9106C28.945 24.9106 28.9499 24.9106 28.9548 24.9106C28.9597 24.9106 28.9646 24.9106 28.9695 24.9106C28.9744 24.9106 28.9793 24.9106 28.9842 24.9106C28.9891 24.9106 28.994 24.9106 28.9989 24.9106C29.0038 24.9106 29.0087 24.9106 29.0136 24.9106C29.0185 24.9106 29.0234 24.9106 29.0283 24.9106C29.0332 24.9106 29.0381 24.9106 29.043 24.9106C29.0479 24.9106 29.0528 24.9106 29.0576 24.9106C29.0625 24.9106 29.0674 24.9106 29.0723 24.9106C29.0772 24.9106 29.0821 24.9106 29.087 24.9106C29.0919 24.9106 29.0968 24.9106 29.1017 24.9106C29.1066 24.9106 29.1115 24.9106 29.1164 24.9106C29.1213 24.9106 29.1262 24.9106 29.1311 24.9106C29.136 24.9106 29.1409 24.9106 29.1458 24.9106C29.1507 24.9106 29.1556 24.9106 29.1605 24.9106C29.1653 24.9106 29.1702 24.9106 29.1751 24.9106C29.18 24.9106 29.1849 24.9106 29.1898 24.9106C29.1947 24.9106 29.1996 24.9106 29.2045 24.9106C29.2094 24.9106 29.2143 24.9106 29.2192 24.9106C29.2241 24.9106 29.2289 24.9106 29.2338 24.9106C29.2387 24.9106 29.2436 24.9106 29.2485 24.9106C29.2534 24.9106 29.2583 24.9106 29.2632 24.9106C29.2681 24.9106 29.273 24.9106 29.2778 24.9106C29.2827 24.9106 29.2876 24.9106 29.2925 24.9106C29.2974 24.9106 29.3023 24.9106 29.3072 24.9106C29.3121 24.9106 29.3169 24.9106 29.3218 24.9106C29.3267 24.9106 29.3316 24.9106 29.3365 24.9106C29.3414 24.9106 29.3462 24.9106 29.3511 24.9106C29.356 24.9106 29.3609 24.9106 29.3658 24.9106C29.3707 24.9106 29.3755 24.9106 29.3804 24.9106C29.3853 24.9106 29.3902 24.9106 29.3951 24.9106C29.3999 24.9106 29.4048 24.9106 29.4097 24.9106C29.4146 24.9106 29.4195 24.9106 29.4243 24.9106C29.4292 24.9106 29.4341 24.9106 29.439 24.9106C29.4438 24.9106 29.4487 24.9106 29.4536 24.9106C29.4585 24.9106 29.4633 24.9106 29.4682 24.9106C29.4731 24.9106 29.478 24.9106 29.4828 24.9106C29.4877 24.9106 29.4926 24.9106 29.4974 24.9106C29.5023 24.9106 29.5072 24.9106 29.5121 24.9106C29.5169 24.9106 29.5218 24.9106 29.5267 24.9106C29.5315 24.9106 29.5364 24.9106 29.5413 24.9106C29.5461 24.9106 29.551 24.9106 29.5559 24.9106C29.5607 24.9106 29.5656 24.9106 29.5704 24.9106C29.5753 24.9106 29.5802 24.9106 29.585 24.9106C29.5899 24.9106 29.5947 24.9106 29.5996 24.9106C29.6045 24.9106 29.6093 24.9106 29.6142 24.9106C29.619 24.9106 29.6239 24.9106 29.6287 24.9106C29.6336 24.9106 29.6385 24.9106 29.6433 24.9106C29.6482 24.9106 29.653 24.9106 29.6579 24.9106C29.6627 24.9106 29.6676 24.9106 29.6724 24.9106C29.6773 24.9106 29.6821 24.9106 29.687 24.9106C29.6918 24.9106 29.6967 24.9106 29.7015 24.9106C29.7064 24.9106 29.7112 24.9106 29.716 24.9106C29.7209 24.9106 29.7257 24.9106 29.7306 24.9106C29.7354 24.9106 29.7402 24.9106 29.7451 24.9106C29.7499 24.9106 29.7548 24.9106 29.7596 24.9106C29.7644 24.9106 29.7693 24.9106 29.7741 24.9106C29.7789 24.9106 29.7838 24.9106 29.7886 24.9106C29.7934 24.9106 29.7983 24.9106 29.8031 24.9106C29.8079 24.9106 29.8128 24.9106 29.8176 24.9106C29.8224 24.9106 29.8272 24.9106 29.8321 24.9106C29.8369 24.9106 29.8417 24.9106 29.8465 24.9106C29.8514 24.9106 29.8562 24.9106 29.861 24.9106C29.8658 24.9106 29.8706 24.9106 29.8755 24.9106C29.8803 24.9106 29.8851 24.9106 29.8899 24.9106C29.8947 24.9106 29.8995 24.9106 29.9044 24.9106C29.9092 24.9106 29.914 24.9106 29.9188 24.9106C29.9236 24.9106 29.9284 24.9106 29.9332 24.9106C29.938 24.9106 29.9428 24.9106 29.9476 24.9106C29.9524 24.9106 29.9572 24.9106 29.962 24.9106C29.9668 24.9106 29.9716 24.9106 29.9764 24.9106C29.9812 24.9106 29.986 24.9106 29.9908 24.9106C29.9956 24.9106 30.0004 24.9106 30.0052 24.9106C30.01 24.9106 30.0148 24.9106 30.0196 24.9106C30.0244 24.9106 30.0292 24.9106 30.034 24.9106C30.0387 24.9106 30.0435 24.9106 30.0483 24.9106C30.0531 24.9106 30.0579 24.9106 30.0627 24.9106C30.0674 24.9106 30.0722 24.9106 30.077 24.9106C30.0818 24.9106 30.0866 24.9106 30.0913 24.9106C30.0961 24.9106 30.1009 24.9106 30.1057 24.9106C30.1104 24.9106 30.1152 24.9106 30.12 24.9106C30.1247 24.9106 30.1295 24.9106 30.1343 24.9106C30.139 24.9106 30.1438 24.9106 30.1486 24.9106C30.1533 24.9106 30.1581 24.9106 30.1628 24.9106C30.1676 24.9106 30.1723 24.9106 30.1771 24.9106C30.1819 24.9106 30.1866 24.9106 30.1914 24.9106C30.1961 24.9106 30.2009 24.9106 30.2056 24.9106C30.2104 24.9106 30.2151 24.9106 30.2199 24.9106C30.2246 24.9106 30.2293 24.9106 30.2341 24.9106C30.2388 24.9106 30.2436 24.9106 30.2483 24.9106C30.253 24.9106 30.2578 24.9106 30.2625 24.9106C30.2672 24.9106 30.272 24.9106 30.2767 24.9106C30.2814 24.9106 30.2862 24.9106 30.2909 24.9106C30.2956 24.9106 30.3003 24.9106 30.3051 24.9106C30.3098 24.9106 30.3145 24.9106 30.3192 24.9106C30.3239 24.9106 30.3287 24.9106 30.3334 24.9106C30.3381 24.9106 30.3428 24.9106 30.3475 24.9106C30.3522 24.9106 30.3569 24.9106 30.3616 24.9106C30.3663 24.9106 30.3711 24.9106 30.3758 24.9106C30.3805 24.9106 30.3852 24.9106 30.3899 24.9106C30.3946 24.9106 30.3993 24.9106 30.4039 24.9106C30.4086 24.9106 30.4133 24.9106 30.418 24.9106C30.4227 24.9106 30.4274 24.9106 30.4321 24.9106C30.4368 24.9106 30.4415 24.9106 30.4461 24.9106C30.4508 24.9106 30.4555 24.9106 30.4602 24.9106C30.4649 24.9106 30.4695 24.9106 30.4742 24.9106C30.4789 24.9106 30.4836 24.9106 30.4882 24.9106C30.4929 24.9106 30.4976 24.9106 30.5022 24.9106C30.5069 24.9106 30.5116 24.9106 30.5162 24.9106C30.5209 24.9106 30.5256 24.9106 30.5302 24.9106C30.5349 24.9106 30.5395 24.9106 30.5442 24.9106C30.5488 24.9106 30.5535 24.9106 30.5581 24.9106C30.5628 24.9106 30.5674 24.9106 30.5721 24.9106C30.5767 24.9106 30.5813 24.9106 30.586 24.9106C30.5906 24.9106 30.5953 24.9106 30.5999 24.9106C30.6045 24.9106 30.6092 24.9106 30.6138 24.9106C30.6184 24.9106 30.623 24.9106 30.6277 24.9106C30.6323 24.9106 30.6369 24.9106 30.6415 24.9106C30.6462 24.9106 30.6508 24.9106 30.6554 24.9106C30.66 24.9106 30.6646 24.9106 30.6692 24.9106C30.6738 24.9106 30.6784 24.9106 30.683 24.9106C30.6877 24.9106 30.6923 24.9106 30.6969 24.9106C30.7015 24.9106 30.7061 24.9106 30.7107 24.9106C30.7152 24.9106 30.7198 24.9106 30.7244 24.9106C30.729 24.9106 30.7336 24.9106 30.7382 24.9106C30.7428 24.9106 30.7474 24.9106 30.7519 24.9106C30.7565 24.9106 30.7611 24.9106 30.7657 24.9106C30.7703 24.9106 30.7748 24.9106 30.7794 24.9106C30.784 24.9106 30.7885 24.9106 30.7931 24.9106C30.7977 24.9106 30.8022 24.9106 30.8068 24.9106C30.8113 24.9106 30.8159 24.9106 30.8205 24.9106C30.825 24.9106 30.8296 24.9106 30.8341 24.9106C30.8387 24.9106 30.8432 24.9106 30.8478 24.9106C30.8523 24.9106 30.8568 24.9106 30.8614 24.9106C30.8659 24.9106 30.8705 24.9106 30.875 24.9106C30.8795 24.9106 30.884 24.9106 30.8886 24.9106C30.8931 24.9106 30.8976 24.9106 30.9021 24.9106C30.9067 24.9106 30.9112 24.9106 30.9157 24.9106C30.9202 24.9106 30.9247 24.9106 30.9292 24.9106C30.9338 24.9106 30.9383 24.9106 30.9428 24.9106C30.9473 24.9106 30.9518 24.9106 30.9563 24.9106C30.9608 24.9106 30.9653 24.9106 30.9698 24.9106C30.9743 24.9106 30.9788 24.9106 30.9832 24.9106C30.9877 24.9106 30.9922 24.9106 30.9967 24.9106C31.0012 24.9106 31.0057 24.9106 31.0101 24.9106C31.0146 24.9106 31.0191 24.9106 31.0236 24.9106C31.028 24.9106 31.0325 24.9106 31.037 24.9106C31.0414 24.9106 31.0459 24.9106 31.0503 24.9106C31.0548 24.9106 31.0593 24.9106 31.0637 24.9106C31.0682 24.9106 31.0726 24.9106 31.0771 24.9106C31.0815 24.9106 31.0859 24.9106 31.0904 24.9106C31.0948 24.9106 31.0993 24.9106 31.1037 24.9106C31.1081 24.9106 31.1126 24.9106 31.117 24.9106C31.1214 24.9106 31.1258 24.9106 31.1303 24.9106C31.1347 24.9106 31.1391 24.9106 31.1435 24.9106C31.1479 24.9106 31.1523 24.9106 31.1568 24.9106C31.1612 24.9106 31.1656 24.9106 31.17 24.9106C31.1744 24.9106 31.1788 24.9106 31.1832 24.9106C31.1876 24.9106 31.192 24.9106 31.1963 24.9106C31.2007 24.9106 31.2051 24.9106 31.2095 24.9106C31.2139 24.9106 31.2183 24.9106 31.2226 24.9106C31.227 24.9106 31.2314 24.9106 31.2358 24.9106C31.2401 24.9106 31.2445 24.9106 31.2489 24.9106C31.2532 24.9106 31.2576 24.9106 31.262 24.9106C31.2663 24.9106 31.2707 24.9106 31.275 24.9106C31.2794 24.9106 31.2837 24.9106 31.2881 24.9106C31.2924 24.9106 31.2967 24.9106 31.3011 24.9106C31.3054 24.9106 31.3097 24.9106 31.3141 24.9106C31.3184 24.9106 31.3227 24.9106 31.3271 24.9106C31.3314 24.9106 31.3357 24.9106 31.34 24.9106C31.3443 24.9106 31.3486 24.9106 31.353 24.9106C31.3573 24.9106 31.3616 24.9106 31.3659 24.9106C31.3702 24.9106 31.3745 24.9106 31.3788 24.9106C31.3831 24.9106 31.3874 24.9106 31.3916 24.9106C31.3959 24.9106 31.4002 24.9106 31.4045 24.9106C31.4088 24.9106 31.4131 24.9106 31.4173 24.9106C31.4216 24.9106 31.4259 24.9106 31.4301 24.9106C31.4344 24.9106 31.4387 24.9106 31.4429 24.9106C31.4472 24.9106 31.4515 24.9106 31.4557 24.9106C31.46 24.9106 31.4642 24.9106 31.4685 24.9106C31.4727 24.9106 31.4769 24.9106 31.4812 24.9106C31.4854 24.9106 31.4896 24.9106 31.4939 24.9106C31.4981 24.9106 31.5023 24.9106 31.5066 24.9106C31.5108 24.9106 31.515 24.9106 31.5192 24.9106C31.5234 24.9106 31.5276 24.9106 31.5319 24.9106C31.5361 24.9106 31.5403 24.9106 31.5445 24.9106C31.5487 24.9106 31.5529 24.9106 31.5571 24.9106C31.5613 24.9106 31.5654 24.9106 31.5696 24.9106C31.5738 24.9106 31.578 24.9106 31.5822 24.9106C31.5864 24.9106 31.5905 24.9106 31.5947 24.9106C31.5989 24.9106 31.603 24.9106 31.6072 24.9106C31.6114 24.9106 31.6155 24.9106 31.6197 24.9106C31.6238 24.9106 31.628 24.9106 31.6321 24.9106C31.6363 24.9106 31.6404 24.9106 31.6446 24.9106C31.6487 24.9106 31.6528 24.9106 31.657 24.9106C31.6611 24.9106 31.6652 24.9106 31.6693 24.9106C31.6735 24.9106 31.6776 24.9106 31.6817 24.9106C31.6858 24.9106 31.6899 24.9106 31.694 24.9106C31.6981 24.9106 31.7022 24.9106 31.7063 24.9106C31.7104 24.9106 31.7145 24.9106 31.7186 24.9106C31.7227 24.9106 31.7268 24.9106 31.7309 24.9106C31.735 24.9106 31.739 24.9106 31.7431 24.9106C31.7472 24.9106 31.7513 24.9106 31.7553 24.9106C31.7594 24.9106 31.7635 24.9106 31.7675 24.9106C31.7716 24.9106 31.7756 24.9106 31.7797 24.9106C31.7837 24.9106 31.7878 24.9106 31.7918 24.9106C31.7959 24.9106 31.7999 24.9106 31.8039 24.9106C31.808 24.9106 31.812 24.9106 31.816 24.9106C31.82 24.9106 31.8241 24.9106 31.8281 24.9106C31.8321 24.9106 31.8361 24.9106 31.8401 24.9106C31.8441 24.9106 31.8481 24.9106 31.8521 24.9106C31.8561 24.9106 31.8601 24.9106 31.8641 24.9106C31.8681 24.9106 31.8721 24.9106 31.8761 24.9106C31.88 24.9106 31.884 24.9106 31.888 24.9106C31.892 24.9106 31.8959 24.9106 31.8999 24.9106C31.9039 24.9106 31.9078 24.9106 31.9118 24.9106C31.9157 24.9106 31.9197 24.9106 31.9236 24.9106C31.9276 24.9106 31.9315 24.9106 31.9355 24.9106C31.9394 24.9106 31.9433 24.9106 31.9473 24.9106C31.9512 24.9106 31.9551 24.9106 31.959 24.9106C31.9629 24.9106 31.9669 24.9106 31.9708 24.9106C31.9747 24.9106 31.9786 24.9106 31.9825 24.9106C31.9864 24.9106 31.9903 24.9106 31.9942 24.9106C31.9981 24.9106 32.002 24.9106 32.0059 24.9106C32.0097 24.9106 32.0136 24.9106 32.0175 24.9106C32.0214 24.9106 32.0252 24.9106 32.0291 24.9106C32.033 24.9106 32.0368 24.9106 32.0407 24.9106C32.0445 24.9106 32.0484 24.9106 32.0522 24.9106C32.0561 24.9106 32.0599 24.9106 32.0638 24.9106C32.0676 24.9106 32.0714 24.9106 32.0753 24.9106C32.0791 24.9106 32.0829 24.9106 32.0867 24.9106C32.0906 24.9106 32.0944 24.9106 32.0982 24.9106C32.102 24.9106 32.1058 24.9106 32.1096 24.9106C32.1134 24.9106 32.1172 24.9106 32.121 24.9106C32.1248 24.9106 32.1286 24.9106 32.1323 24.9106C32.1361 24.9106 32.1399 24.9106 32.1437 24.9106C32.1474 24.9106 32.1512 24.9106 32.155 24.9106C32.1587 24.9106 32.1625 24.9106 32.1662 24.9106C32.17 24.9106 32.1737 24.9106 32.1775 24.9106C32.1812 24.9106 32.185 24.9106 32.1887 24.9106C32.1924 24.9106 32.1962 24.9106 32.1999 24.9106C32.2036 24.9106 32.2073 24.9106 32.211 24.9106C32.2147 24.9106 32.2185 24.9106 32.2222 24.9106C32.2259 24.9106 32.2296 24.9106 32.2332 24.9106C32.2369 24.9106 32.2406 24.9106 32.2443 24.9106C32.248 24.9106 32.2517 24.9106 32.2553 24.9106C32.259 24.9106 32.2627 24.9106 32.2664 24.9106C32.27 24.9106 32.2737 24.9106 32.2773 24.9106C32.281 24.9106 32.2846 24.9106 32.2883 24.9106C32.2919 24.9106 32.2956 24.9106 32.2992 24.9106C32.3028 24.9106 32.3064 24.9106 32.3101 24.9106C32.3137 24.9106 32.3173 24.9106 32.3209 24.9106C32.3245 24.9106 32.3281 24.9106 32.3317 24.9106C32.3353 24.9106 32.3389 24.9106 32.3425 24.9106C32.3461 24.9106 32.3497 24.9106 32.3533 24.9106C32.3569 24.9106 32.3605 24.9106 32.364 24.9106C32.3676 24.9106 32.3712 24.9106 32.3747 24.9106C32.3783 24.9106 32.3818 24.9106 32.3854 24.9106C32.3889 24.9106 32.3925 24.9106 32.396 24.9106C32.3996 24.9106 32.4031 24.9106 32.4066 24.9106C32.4102 24.9106 32.4137 24.9106 32.4172 24.9106C32.4207 24.9106 32.4242 24.9106 32.4277 24.9106C32.4312 24.9106 32.4347 24.9106 32.4382 24.9106C32.4417 24.9106 32.4452 24.9106 32.4487 24.9106C32.4522 24.9106 32.4557 24.9106 32.4592 24.9106C32.4626 24.9106 32.4661 24.9106 32.4696 24.9106C32.473 24.9106 32.4765 24.9106 32.48 24.9106C32.4834 24.9106 32.4869 24.9106 32.4903 24.9106C32.4937 24.9106 32.4972 24.9106 32.5006 24.9106C32.504 24.9106 32.5075 24.9106 32.5109 24.9106C32.5143 24.9106 32.5177 24.9106 32.5211 24.9106C32.5245 24.9106 32.528 24.9106 32.5313 24.9106C32.5347 24.9106 32.5381 24.9106 32.5415 24.9106C32.5449 24.9106 32.5483 24.9106 32.5517 24.9106C32.5551 24.9106 32.5584 24.9106 32.5618 24.9106C32.5652 24.9106 32.5685 24.9106 32.5719 24.9106C32.5752 24.9106 32.5786 24.9106 32.5819 24.9106C32.5853 24.9106 32.5886 24.9106 32.5919 24.9106C32.5953 24.9106 32.5986 24.9106 32.6019 24.9106C32.6052 24.9106 32.6085 24.9106 32.6119 24.9106C32.6152 24.9106 32.6185 24.9106 32.6218 24.9106C32.6251 24.9106 32.6283 24.9106 32.6316 24.9106C32.6349 24.9106 32.6382 24.9106 32.6415 24.9106C32.6448 24.9106 32.648 24.9106 32.6513 24.9106C32.6545 24.9106 32.6578 24.9106 32.6611 24.9106C32.6643 24.9106 32.6676 24.9106 32.6708 24.9106C32.674 24.9106 32.6773 24.9106 32.6805 24.9106C32.6837 24.9106 32.6869 24.9106 32.6902 24.9106C32.6934 24.9106 32.6966 24.9106 32.6998 24.9106C32.703 24.9106 32.7062 24.9106 32.7094 24.9106C32.7126 24.9106 32.7158 24.9106 32.7189 24.9106C32.7221 24.9106 32.7253 24.9106 32.7285 24.9106C32.7316 24.9106 32.7348 24.9106 32.738 24.9106C32.7411 24.9106 32.7443 24.9106 32.7474 24.9106C32.7506 24.9106 32.7537 24.9106 32.7568 24.9106C32.76 24.9106 32.7631 24.9106 32.7662 24.9106C32.7693 24.9106 32.7724 24.9106 32.7756 24.9106C32.7787 24.9106 32.7818 24.9106 32.7849 24.9106C32.788 24.9106 32.7911 24.9106 32.7941 24.9106C32.7972 24.9106 32.8003 24.9106 32.8034 24.9106C32.8064 24.9106 32.8095 24.9106 32.8126 24.9106C32.8156 24.9106 32.8187 24.9106 32.8217 24.9106C32.8248 24.9106 32.8278 24.9106 32.8309 24.9106C32.8339 24.9106 32.8369 24.9106 32.8399 24.9106C32.843 24.9106 32.846 24.9106 32.849 24.9106C32.852 24.9106 32.855 24.9106 32.858 24.9106C32.861 24.9106 32.864 24.9106 32.867 24.9106C32.87 24.9106 32.873 24.9106 32.8759 24.9106C32.8789 24.9106 32.8819 24.9106 32.8848 24.9106C32.8878 24.9106 32.8907 24.9106 32.8937 24.9106C32.8966 24.9106 32.8996 24.9106 32.9025 24.9106C32.9055 24.9106 32.9084 24.9106 32.9113 24.9106C32.9142 24.9106 32.9171 24.9106 32.9201 24.9106C32.923 24.9106 32.9259 24.9106 32.9288 24.9106C32.9317 24.9106 32.9346 24.9106 32.9374 24.9106C32.9403 24.9106 32.9432 24.9106 32.9461 24.9106C32.9489 24.9106 32.9518 24.9106 32.9547 24.9106C32.9575 24.9106 32.9604 24.9106 32.9632 24.9106C32.9661 24.9106 32.9689 24.9106 32.9717 24.9106C32.9746 24.9106 32.9774 24.9106 32.9802 24.9106C32.983 24.9106 32.9859 24.9106 32.9887 24.9106C32.9915 24.9106 32.9943 24.9106 32.9971 24.9106C32.9999 24.9106 33.0026 24.9106 33.0054 24.9106C33.0082 24.9106 33.011 24.9106 33.0137 24.9106C33.0165 24.9106 33.0193 24.9106 33.022 24.9106C33.0248 24.9106 33.0275 24.9106 33.0303 24.9106C33.033 24.9106 33.0357 24.9106 33.0385 24.9106C33.0412 24.9106 33.0439 24.9106 33.0466 24.9106C33.0493 24.9106 33.052 24.9106 33.0547 24.9106C33.0574 24.9106 33.0601 24.9106 33.0628 24.9106C33.0655 24.9106 33.0682 24.9106 33.0709 24.9106C33.0735 24.9106 33.0762 24.9106 33.0789 24.9106C33.0815 24.9106 33.0842 24.9106 33.0868 24.9106C33.0895 24.9106 33.0921 24.9106 33.0947 24.9106C33.0974 24.9106 33.1 24.9106 33.1026 24.9106C33.1052 24.9106 33.1079 24.9106 33.1105 24.9106C33.1131 24.9106 33.1157 24.9106 33.1183 24.9106C33.1208 24.9106 33.1234 24.9106 33.126 24.9106C33.1286 24.9106 33.1312 24.9106 33.1337 24.9106C33.1363 24.9106 33.1388 24.9106 33.1414 24.9106C33.1439 24.9106 33.1465 24.9106 33.149 24.9106C33.1516 24.9106 33.1541 24.9106 33.1566 24.9106C33.1591 24.9106 33.1617 24.9106 33.1642 24.9106V22.3567ZM26.559 22.3567C25.2688 22.3567 23.496 22.3321 22.0753 22.9984C21.312 23.3565 20.6276 23.9179 20.1501 24.7645C19.6822 25.5943 19.4633 26.6085 19.4633 27.8012H22.0172C22.0172 26.9101 22.1816 26.3615 22.3747 26.0191C22.5583 25.6936 22.8125 25.4736 23.1598 25.3107C23.9606 24.9351 25.0971 24.9106 26.559 24.9106V22.3567ZM19.4633 27.8012C19.4633 30.0903 19.9194 31.8433 21.5073 32.7601C22.2185 33.1706 23.0351 33.3318 23.8388 33.4072C24.6444 33.4828 25.5757 33.4816 26.559 33.4816V30.9276C25.5372 30.9276 24.7386 30.9264 24.0773 30.8644C23.414 30.8022 23.0265 30.6881 22.7843 30.5482C22.4654 30.3641 22.0172 29.9154 22.0172 27.8012H19.4633ZM26.559 33.4816C27.5773 33.4816 28.4307 33.4826 29.1706 33.5479C29.9121 33.6133 30.4302 33.7363 30.7983 33.9188C31.1289 34.0827 31.3662 34.3067 31.5435 34.6784C31.7377 35.0855 31.8872 35.7312 31.8872 36.7653H34.4411C34.4411 35.519 34.2663 34.4544 33.8486 33.5788C33.4141 32.6678 32.752 32.0367 31.9326 31.6306C31.1507 31.2429 30.2681 31.0809 29.3952 31.0038C28.5207 30.9266 27.5459 30.9276 26.559 30.9276V33.4816ZM31.8872 36.7653C31.8872 37.5752 31.7336 38.0459 31.5616 38.3278C31.4004 38.5922 31.1605 38.7942 30.7682 38.953C30.3509 39.122 29.7913 39.2287 29.0535 39.2847C28.3187 39.3406 27.4952 39.3413 26.559 39.3413V41.8952C27.4708 41.8952 28.3969 41.8959 29.247 41.8314C30.094 41.767 30.9548 41.6329 31.7268 41.3202C32.5238 40.9975 33.2423 40.477 33.742 39.6578C34.231 38.856 34.4411 37.8818 34.4411 36.7653H31.8872ZM26.559 39.3413H20.7402V41.8952H26.559V39.3413Z" fill="#283947"/>
<path opacity="0.5" d="M20.6877 40.6865L33.2025 23.5542" stroke="#283947" stroke-width="2.55396"/>
<path d="M37.1148 37.3627C37.0436 37.3627 36.9822 37.3045 36.9822 37.2394L36.9822 36.1295C36.9822 36.0612 37.0457 35.9969 37.1148 35.9969L40.3154 35.9969C41.2556 35.9969 41.9932 36.2627 42.4955 36.7343C42.9974 37.2056 43.2692 37.8871 43.2692 38.7286C43.2692 39.5653 42.9975 40.2421 42.4956 40.7099C41.9934 41.1781 41.2557 41.4416 40.3154 41.4416L37.1148 41.4416C37.0436 41.4416 36.9822 41.3835 36.9822 41.3183L36.9822 40.2084C36.9822 40.1401 37.0457 40.0759 37.1148 40.0759L40.3607 40.0759C40.8347 40.0759 41.245 39.954 41.5377 39.7222C41.8315 39.4895 42.0035 39.1485 42.0035 38.7193C42.0035 38.2901 41.8315 37.9491 41.5377 37.7163C41.245 37.4845 40.8347 37.3627 40.3607 37.3627L37.1148 37.3627Z" fill="#283947" stroke="#283947" stroke-width="0.0862063"/>
<path d="M38.9507 30.8137L38.9495 30.8137L38.9495 30.8568C38.9495 30.9254 38.9366 30.9636 38.9164 30.9905C38.8953 31.0187 38.8621 31.0405 38.808 31.0679C38.3368 31.2702 38.0432 31.7131 38.0432 32.3739C38.0432 32.6695 38.0947 32.9451 38.1983 33.1484C38.3021 33.3523 38.4623 33.4897 38.6785 33.4897C38.7932 33.4897 38.8933 33.4589 38.9797 33.3947C39.0654 33.331 39.1349 33.2365 39.1929 33.1133C39.3083 32.8682 39.3827 32.499 39.4426 31.9998L39.4426 31.9996C39.5303 31.2429 39.689 30.6553 39.9705 30.2576C40.2495 29.8633 40.6519 29.6516 41.2403 29.6516C41.9013 29.6516 42.4041 29.9405 42.7432 30.4152C43.0833 30.8914 43.26 31.5569 43.26 32.3088C43.26 32.959 43.1018 33.5603 42.7809 34.0196C42.4606 34.478 41.9766 34.7975 41.3185 34.8838L41.318 34.8838C41.2603 34.8921 41.2336 34.8801 41.2195 34.8648C41.2031 34.8471 41.1915 34.8125 41.1915 34.7508L41.1915 33.7328C41.1915 33.6744 41.2041 33.6326 41.2247 33.6021C41.2451 33.572 41.2758 33.549 41.3194 33.5328C41.7856 33.387 42.1351 32.8946 42.1351 32.1971C42.1351 31.892 42.0788 31.6019 41.9597 31.3864C41.8397 31.1695 41.6537 31.0255 41.3986 31.0255C41.25 31.0255 41.1282 31.0622 41.0282 31.1384C40.929 31.214 40.8552 31.3256 40.7969 31.4685C40.681 31.7524 40.6203 32.1749 40.5507 32.728C40.4677 33.3649 40.3345 33.8972 40.0804 34.2697C39.8288 34.6386 39.4564 34.8543 38.8821 34.8543C38.308 34.8543 37.8163 34.6084 37.4671 34.1686C37.1173 33.7282 36.909 33.0909 36.909 32.3076C36.909 30.9 37.666 29.9316 38.7884 29.7324L38.7884 29.7324L38.79 29.7321C38.8508 29.7189 38.8902 29.7238 38.9129 29.738C38.9326 29.7503 38.9507 29.7767 38.9507 29.8377L38.9507 30.8137Z" fill="#283947" stroke="#283947" stroke-width="0.0862063"/>
<path d="M42.021 25.8788L42.0222 25.8788L42.0222 25.8357C42.0222 24.8015 41.2053 23.9986 40.0827 23.9986C38.9599 23.9986 38.1432 24.8028 38.1432 25.845L38.1432 26.8897C38.1432 27.0082 38.248 27.0992 38.362 27.0992L41.8115 27.0992C41.9272 27.0992 42.021 27.0055 42.021 26.8897L42.021 25.8788ZM43.1855 28.351C43.1855 28.4161 43.1241 28.4743 43.0529 28.4743L37.1148 28.4743C37.0436 28.4743 36.9822 28.4161 36.9822 28.351L36.9822 25.8357C36.9822 23.9881 38.2513 22.5584 40.1025 22.5584C41.9254 22.5584 43.1855 23.9692 43.1855 25.8357L43.1855 28.351Z" fill="#283947" stroke="#283947" stroke-width="0.0862063"/>
</g>
<defs>
<filter id="filter0_d" x="-3.05995" y="-2.10403" width="70.1247" height="70.1247" filterUnits="userSpaceOnUse" color-interpolation-filters="sRGB">
<feFlood flood-opacity="0" result="BackgroundImageFix"/>
<feColorMatrix in="SourceAlpha" type="matrix" values="0 0 0 0 0 0 0 0 0 0 0 0 0 0 0 0 0 0 127 0"/>
<feOffset dy="0.96"/>
<feGaussianBlur stdDeviation="1"/>
<feColorMatrix type="matrix" values="0 0 0 0 0 0 0 0 0 0 0 0 0 0 0 0 0 0 0.08 0"/>
<feBlend mode="normal" in2="BackgroundImageFix" result="effect1_dropShadow"/>
<feBlend mode="normal" in="SourceGraphic" in2="effect1_dropShadow" result="shape"/>
</filter>
<linearGradient id="paint0_linear" x1="24.4451" y1="4.91795" x2="33.9242" y2="57.4723" gradientUnits="userSpaceOnUse">
<stop stop-color="#27D3A2"/>
<stop offset="1" stop-color="#9388FD"/>
</linearGradient>
<clipPath id="clip0">
<rect width="64" height="64" fill="white"/>
</clipPath>
</defs>
</svg>
