<svg id="Layer_1" data-name="Layer 1" xmlns="http://www.w3.org/2000/svg" viewBox="0 0 64 64"><defs><style>.cls-1{fill:#141e27;}.cls-2{fill:#045385;}</style></defs><path class="cls-1" d="M32,64.14l-.72-.27a65,65,0,0,1-13.46-7.51C8.78,49.76,4,42,4,34V7.51L32-.07,60,7.51V34c0,8-4.78,15.76-13.82,22.36a65,65,0,0,1-13.46,7.51ZM8,10.57V34C8,48.8,27.93,58.09,32,59.84c4.07-1.75,24-11,24-25.84V10.57L32,4.07Z"/><polygon class="cls-2" points="29.28 40.27 20.43 31.41 23.26 28.59 29.28 34.61 42.74 21.15 45.57 23.98 29.28 40.27"/></svg>