<svg width="96" height="96" viewBox="0 0 96 96" fill="none" xmlns="http://www.w3.org/2000/svg">
<path d="M48 96C74.5097 96 96 74.5097 96 48C96 21.4903 74.5097 0 48 0C21.4903 0 0 21.4903 0 48C0 74.5097 21.4903 96 48 96Z" fill="#050F19"/>
<path d="M58.9614 57.52C56.4814 60 53.1214 61.44 49.4414 61.44C42.0014 61.44 35.9214 55.36 35.9214 47.92C35.9214 40.48 42.0014 34.4 49.4414 34.4C53.2014 34.4 56.5614 35.92 58.9614 38.32L66.4014 30.88C62.0814 26.64 56.0814 24 49.4414 24C36.1614 24 25.4414 34.72 25.4414 48C25.4414 61.28 36.1614 72 49.4414 72C56.0814 72 62.0814 69.28 66.4014 64.96L58.9614 57.52Z" fill="white"/>
</svg>
