<svg width="96" height="96" viewBox="0 0 96 96" fill="none" xmlns="http://www.w3.org/2000/svg">
<circle cx="48" cy="48" r="47" fill="#F9FAFB"/>
<path d="M48.0026 14.5825V37.0149L61.4398 60.2803L80.9294 71.6075C81.0959 71.2744 81.096 70.8857 80.8183 70.386L64.8824 42.7896L48.9465 15.3044C48.6689 14.8046 48.3357 14.5825 48.0026 14.5825Z" fill="#9E1F63"/>
<path d="M15.0758 71.6075L34.5653 60.2803L48.0026 37.0149V14.5825C47.6694 14.5825 47.2807 14.8046 47.0031 15.3044L31.0672 42.9007L15.1313 70.497C14.9092 70.8857 14.9092 71.3299 15.0758 71.6075Z" fill="#FF4724"/>
<path d="M80.8739 71.6075L61.4398 60.2803H34.5653L15.0758 71.6075C15.2424 71.9407 15.6311 72.1073 16.1863 72.1073H79.8189C80.3186 72.1073 80.7073 71.9407 80.8739 71.6075Z" fill="#662D91"/>
<path d="M34.5653 60.2803H61.4398L48.0026 37.015L34.5653 60.2803Z" fill="#F9FAFB"/>
</svg>
