<svg width="35" height="48" viewBox="0 0 35 48" fill="none" xmlns="http://www.w3.org/2000/svg">
<path d="M33.3896 26.1956C33.3896 26.1856 33.3796 26.1756 33.3796 26.1656C33.3796 26.1556 33.3696 26.1456 33.3696 26.1456L17.6396 1.50559C17.4596 1.21559 16.9796 1.21559 16.7996 1.50559L1.07962 26.1556C1.07962 26.1656 1.06961 26.1656 1.06961 26.1756C1.05961 26.1856 1.05962 26.1956 1.04962 26.2156C0.999618 26.3156 0.98961 26.4256 1.00961 26.5256C1.01961 26.5656 1.02961 26.5956 1.03961 26.6356C1.05961 26.6756 1.07962 26.7156 1.10962 26.7556L16.8196 46.7056C16.8296 46.7156 16.8396 46.7256 16.8396 46.7356C16.8496 46.7556 16.8696 46.7656 16.8796 46.7756C16.9696 46.8556 17.0796 46.8956 17.1996 46.8956C17.3296 46.8956 17.4496 46.8456 17.5396 46.7556C17.5496 46.7456 17.5696 46.7256 17.5796 46.7056L33.2896 26.7556C33.3196 26.7256 33.3396 26.6856 33.3596 26.6456C33.3796 26.6056 33.3896 26.5656 33.3996 26.5356C33.4496 26.4056 33.4396 26.2956 33.3896 26.1956ZM16.7196 3.48559V19.2756L6.69961 23.6256C6.44961 23.7356 6.3296 24.0256 6.4396 24.2856C6.5496 24.5356 6.83961 24.6556 7.09961 24.5456L16.7196 20.3756V34.3856L2.19961 26.2456L16.7196 3.48559ZM17.7196 44.9356V38.4456C17.7196 38.1656 17.4996 37.9456 17.2196 37.9456C16.9396 37.9456 16.7196 38.1656 16.7196 38.4456V44.9356L3.4396 28.0856L16.9596 35.6756C17.0296 35.7156 17.1096 35.7456 17.1996 35.7456C17.2096 35.7456 17.2096 35.7456 17.2196 35.7456C17.3096 35.7456 17.3896 35.7156 17.4596 35.6756L30.9796 28.0856L17.7196 44.9356ZM17.7196 34.3856V20.3556L27.3396 24.5256C27.5896 24.6356 27.8896 24.5156 27.9996 24.2656C28.1096 24.0156 27.9896 23.7156 27.7396 23.6056L17.7196 19.2556V3.48559L32.2396 26.2456L17.7196 34.3856Z" fill="#00D395"/>
<path fill-rule="evenodd" clip-rule="evenodd" d="M32.2396 26.2456L17.7196 3.48559V19.2556L27.7396 23.6056C27.9896 23.7156 28.1096 24.0156 27.9996 24.2656C27.8896 24.5156 27.5896 24.6356 27.3396 24.5256L17.7196 20.3556V34.3856L32.2396 26.2456ZM17.4696 1.34854C17.5378 1.38469 17.5971 1.43703 17.6396 1.50559L33.3696 26.1456C33.3696 26.1456 33.3796 26.1556 33.3796 26.1656C33.3796 26.1706 33.3821 26.1756 33.3846 26.1806C33.3871 26.1856 33.3896 26.1906 33.3896 26.1956C33.4396 26.2956 33.4496 26.4056 33.3996 26.5356C33.3973 26.5427 33.3949 26.5503 33.3924 26.5583C33.3844 26.5844 33.3749 26.615 33.3596 26.6456C33.3396 26.6856 33.3196 26.7256 33.2896 26.7556L17.5796 46.7056C17.5744 46.7161 17.5664 46.7265 17.5585 46.7356C17.5514 46.7438 17.5444 46.7508 17.5396 46.7556C17.5179 46.7773 17.4945 46.7966 17.4696 46.8135C17.4188 46.8481 17.3618 46.8723 17.3011 46.8851C17.2683 46.892 17.2343 46.8956 17.1996 46.8956C17.1776 46.8956 17.156 46.8942 17.1347 46.8916C17.0763 46.8842 17.0208 46.8666 16.9696 46.8389C16.9379 46.8217 16.9077 46.8006 16.8796 46.7756C16.8766 46.7726 16.8726 46.7695 16.8683 46.7662C16.8584 46.7586 16.8466 46.7495 16.8396 46.7356C16.8396 46.7256 16.8296 46.7156 16.8196 46.7056L1.10962 26.7556C1.07962 26.7156 1.05961 26.6756 1.03961 26.6356C1.03461 26.6156 1.02962 26.5981 1.02462 26.5806C1.01962 26.5631 1.01461 26.5456 1.00961 26.5256C0.98961 26.4256 0.999618 26.3156 1.04962 26.2156C1.05344 26.2079 1.05581 26.2018 1.05782 26.1965C1.06108 26.1879 1.06343 26.1818 1.06961 26.1756C1.06961 26.1706 1.07212 26.1681 1.07462 26.1656C1.07712 26.1631 1.07962 26.1606 1.07962 26.1556L16.7996 1.50559C16.8422 1.43704 16.9015 1.3847 16.9696 1.34856C17.0421 1.31013 17.1245 1.29002 17.2074 1.28822C17.2155 1.28804 17.2237 1.28804 17.2318 1.28822C17.3147 1.29001 17.3972 1.31012 17.4696 1.34854ZM16.1654 1.10528C16.42 0.699256 16.8532 0.538086 17.2196 0.538086C17.586 0.538086 18.0191 0.699209 18.2738 1.1051L33.9868 25.7185C33.9908 25.7242 33.9949 25.7302 33.999 25.7364C34.0156 25.7613 34.0598 25.8288 34.0922 25.9291C34.2051 26.1959 34.2137 26.49 34.1091 26.7796C34.1089 26.7801 34.1087 26.7807 34.1085 26.7813C34.1059 26.7898 34.1009 26.806 34.0949 26.8241C34.0826 26.8608 34.0623 26.9173 34.0304 26.981C34.0299 26.982 34.0291 26.9837 34.0281 26.9858C34.0148 27.0134 33.9596 27.1284 33.8634 27.2393L18.1928 47.1392C18.1668 47.1776 18.1432 47.2059 18.129 47.2225C18.1022 47.2538 18.0774 47.2785 18.0708 47.285L18.0699 47.2859C17.8385 47.5173 17.5275 47.6456 17.1996 47.6456C16.9095 47.6456 16.6258 47.5472 16.3953 47.3484C16.3902 47.3443 16.3847 47.3399 16.3795 47.3356C16.3457 47.3074 16.2743 47.2446 16.21 47.1437L0.514921 27.2127L0.509622 27.2056C0.437898 27.11 0.391797 27.0172 0.37211 26.9777C0.370906 26.9752 0.369801 26.973 0.368794 26.971L0.331976 26.8974L0.312008 26.8175C0.31044 26.8112 0.308715 26.805 0.303469 26.7866L0.302845 26.7844C0.298014 26.7675 0.290084 26.7398 0.282009 26.7075L0.277681 26.6902L0.274181 26.6727C0.231557 26.4596 0.242448 26.2216 0.329623 25.9923V25.9368L16.1654 1.10528ZM16.2893 47.2359C16.2951 47.2417 16.2929 47.2398 16.2859 47.2326L16.2893 47.2359ZM6.69961 23.6256L16.7196 19.2756V3.48559L2.19961 26.2456L16.7196 34.3856V20.3756L7.09961 24.5456C6.83961 24.6556 6.5496 24.5356 6.4396 24.2856C6.3296 24.0256 6.44961 23.7356 6.69961 23.6256ZM15.9696 21.5181V33.1053L3.25892 25.9796L15.9696 6.05569V18.7836L6.40095 22.9376L6.39756 22.9391C5.77546 23.2128 5.47775 23.937 5.74888 24.5778L5.75312 24.5876C6.02686 25.2098 6.751 25.5074 7.39184 25.2363L15.9696 21.5181ZM17.7196 44.9356V38.4456C17.7196 38.1656 17.4996 37.9456 17.2196 37.9456C16.9396 37.9456 16.7196 38.1656 16.7196 38.4456V44.9356L3.4396 28.0856L16.9596 35.6756C17.0296 35.7156 17.1096 35.7456 17.1996 35.7456H17.2196C17.3096 35.7456 17.3896 35.7156 17.4596 35.6756L30.9796 28.0856L17.7196 44.9356ZM18.4696 42.7698L28.0574 30.5862L17.8317 36.3268C17.8308 36.3273 17.8299 36.3278 17.829 36.3283C17.6877 36.4086 17.4795 36.4956 17.2196 36.4956H17.2001C16.9401 36.4956 16.7314 36.4086 16.5902 36.3283C16.5893 36.3278 16.5884 36.3273 16.5875 36.3268L6.36814 30.5897L15.9696 42.7723V38.4456C15.9696 37.7514 16.5254 37.1956 17.2196 37.1956C17.9138 37.1956 18.4696 37.7514 18.4696 38.4456V42.7698ZM18.4696 33.1053V21.4981L27.0375 25.2121C27.0382 25.2124 27.0389 25.2127 27.0396 25.213C27.676 25.4917 28.413 25.1883 28.6861 24.5676C28.9663 23.9308 28.6631 23.1925 28.0417 22.9191L18.4696 18.7636V6.05569L31.1803 25.9796L18.4696 33.1053Z" fill="#00D395"/>
</svg>
