<svg width="96" height="96" viewBox="0 0 96 96" fill="none" xmlns="http://www.w3.org/2000/svg">
<circle cx="48" cy="48" r="48" fill="#F9FAFB"/>
<path d="M44.3137 47.5211L67.0762 60.5594C67.2591 60.6694 67.4681 60.7286 67.6815 60.7311C67.8949 60.7336 68.1051 60.6792 68.2905 60.5735C68.476 60.4678 68.6299 60.3146 68.7365 60.1297C68.8431 59.9448 68.8986 59.7349 68.8972 59.5214V35.5025C68.8999 35.2887 68.8451 35.0781 68.7385 34.8928C68.6319 34.7074 68.4774 34.5541 68.2913 34.449C68.1051 34.3438 67.8941 34.2906 67.6804 34.2949C67.4666 34.2993 67.2579 34.361 67.0762 34.4736L44.3137 47.5211Z" fill="#31CB9E"/>
<path d="M66.5936 28.701L51.0332 17.2561C50.8721 17.1324 50.683 17.0502 50.4826 17.0168C50.2823 16.9835 50.0768 16.9999 49.8843 17.0646C49.6917 17.1294 49.5181 17.2406 49.3787 17.3883C49.2393 17.536 49.1383 17.7157 49.0847 17.9116L43.4032 43.4056L66.457 30.6586C66.6325 30.5684 66.7816 30.4344 66.8902 30.2697C66.9987 30.105 67.063 29.9151 67.0767 29.7183C67.0904 29.5215 67.0532 29.3245 66.9686 29.1463C66.8839 28.9681 66.7548 28.8148 66.5936 28.701" fill="#31CB9E"/>
<path d="M51.015 77.777L66.5936 66.332C66.757 66.2172 66.8881 66.0623 66.9744 65.8823C67.0607 65.7022 67.0993 65.503 67.0865 65.3038C67.0737 65.1045 67.01 64.9119 66.9013 64.7444C66.7927 64.5769 66.6428 64.4401 66.4662 64.3471L43.4032 51.6001L49.0847 77.0941C49.1318 77.2922 49.2274 77.4754 49.3629 77.6274C49.4984 77.7794 49.6695 77.8954 49.8609 77.9649C50.0523 78.0344 50.2579 78.0553 50.4593 78.0257C50.6608 77.996 50.8517 77.9168 51.015 77.7952" fill="#31CB9E"/>
<path d="M38.3954 47.0476L44.3136 19.3684C44.3588 19.1391 44.3345 18.9014 44.2439 18.6859C44.1533 18.4704 44.0004 18.2869 43.8048 18.1588C43.6092 18.0307 43.3799 17.9639 43.1461 17.9669C42.9124 17.9699 42.6848 18.0426 42.4926 18.1757L27.3328 29.8028C26.9489 30.0973 26.6383 30.4765 26.4251 30.9108C26.2119 31.3451 26.1018 31.8228 26.1036 32.3066V61.8068C26.0962 62.2968 26.2035 62.7817 26.4169 63.2228C26.6303 63.6639 26.944 64.0489 27.3328 64.3471L42.4198 75.9378C42.612 76.0708 42.8395 76.1435 43.0733 76.1465C43.3071 76.1496 43.5364 76.0827 43.732 75.9546C43.9275 75.8265 44.0804 75.643 44.1711 75.4275C44.2617 75.212 44.286 74.9744 44.2408 74.745L38.3954 47.0476Z" fill="#31CB9E"/>
</svg>
