<svg width="16" height="16" viewBox="0 0 16 16" fill="none" xmlns="http://www.w3.org/2000/svg">
<circle cx="8.22295" cy="8.18389" r="6.81279" stroke="#FC773E"/>
<path d="M7.6806 9.54258L8.94059 9.53814C8.94867 9.27711 8.9842 9.14198 9.12763 8.97948C9.3159 8.77181 9.64832 8.60864 10.133 8.22893C10.483 7.94869 10.7965 7.53359 10.7942 6.85859C10.7903 5.7696 9.9058 5.05271 8.50181 5.05766C6.94482 5.06314 6.05715 6.01127 6.0254 7.21739L7.42939 7.21245C7.43643 6.65442 7.83993 6.22999 8.45193 6.22784C8.94693 6.22609 9.30784 6.48582 9.3093 6.89982C9.31114 7.42182 8.76297 7.65775 8.35921 8.01018C7.86567 8.42592 7.67794 8.78658 7.6806 9.54258ZM8.29536 10.3234C7.83636 10.325 7.4956 10.6772 7.49718 11.1272C7.49877 11.5772 7.842 11.927 8.301 11.9254C8.76 11.9238 9.10076 11.5716 9.09917 11.1216C9.09759 10.6716 8.75435 10.3218 8.29536 10.3234Z" fill="#FC773E"/>
</svg>
