<svg width="96" height="97" viewBox="0 0 96 97" fill="none" xmlns="http://www.w3.org/2000/svg">
<path d="M48 95.75C73.9574 95.75 95 74.7074 95 48.75C95 22.7926 73.9574 1.75 48 1.75C22.0426 1.75 1 22.7926 1 48.75C1 74.7074 22.0426 95.75 48 95.75Z" fill="#F9FAFB"/>
<path d="M25.2573 59.1042L31.3458 52.8046L23.7764 42.5903L14.1389 28.9534C10.7341 34.7641 8.78198 41.528 8.78198 48.7491C8.78198 60.7117 14.1389 71.4218 22.5876 78.6149L34.821 69.9693C30.6599 67.377 27.3079 63.6029 25.2573 59.1042Z" fill="black"/>
<path d="M37.6445 26.0079L43.9441 32.0965L54.1585 24.5271L67.7954 14.8895C61.9846 11.4847 55.2208 9.53265 47.9997 9.53265C36.0371 9.53265 25.3268 14.8896 18.1338 23.3383L26.7794 35.5716C29.3717 31.4106 33.1459 28.0585 37.6445 26.0079Z" fill="black"/>
<path d="M64.6552 44.6949L72.2248 54.9092L81.8619 68.546C85.2666 62.7353 87.2192 55.9715 87.2192 48.7503C87.2192 36.7878 81.8619 26.0775 73.4137 18.8845L61.1801 27.5301C65.3411 30.1224 68.6931 33.8965 70.7437 38.3953L64.6552 44.6949Z" fill="black"/>
<path d="M77.8655 74.1622L69.22 61.9286C66.6277 66.0896 62.8536 69.4417 58.3549 71.4922L52.0553 65.4037L41.8409 72.9734L28.2041 82.6104C34.0148 86.0152 40.7787 87.9677 47.9998 87.9677C59.9623 87.9677 70.6725 82.6104 77.8655 74.1622Z" fill="black"/>
</svg>
