<svg width="11" height="11" viewBox="0 0 11 11" fill="none" xmlns="http://www.w3.org/2000/svg">
<path d="M9.05306 9.68135C9.05306 9.99079 8.79988 10.244 8.49044 10.244H1.98012C1.67068 10.244 1.4175 9.99079 1.4175 9.68135V3.17103C1.4175 2.86159 1.67068 2.60841 1.98012 2.60841H5.83808V2.20654H1.98012C1.44965 2.20654 1.01562 2.64056 1.01562 3.17103V9.68135C1.01562 10.2118 1.44965 10.6458 1.98012 10.6458H8.49044C9.02492 10.6458 9.45493 10.2118 9.45493 9.68135V5.82339H9.05306V9.68135Z" fill="#070A0E" stroke="#070A0E" stroke-width="0.369907"/>
<path d="M10.4607 1H7.44668V1.40187H9.97446L4.29199 7.08835L4.57732 7.37368L10.2598 1.6872V4.21497H10.6617V1.20094C10.6617 1.08841 10.5732 1 10.4607 1Z" fill="#070A0E" stroke="#070A0E" stroke-width="0.369907"/>
</svg>
