<svg width="18" height="18" viewBox="0 0 18 18" fill="none" xmlns="http://www.w3.org/2000/svg">
<path d="M16.8268 0.856934H11.5429C11.1192 0.856934 10.7758 1.19747 10.7758 1.61765C10.7758 2.03784 11.1192 2.37837 11.5429 2.37837H15.0603L7.53288 9.84381C7.23318 10.1409 7.23318 10.6226 7.53288 10.9197C7.68264 11.0682 7.87901 11.1425 8.07519 11.1425C8.27137 11.1425 8.46773 11.0682 8.61749 10.9197L16.0598 3.53845V6.85793C16.0598 7.27811 16.4032 7.61865 16.8268 7.61865C17.2505 7.61865 17.5939 7.27811 17.5939 6.85793V1.61765C17.5939 1.19747 17.2505 0.856934 16.8268 0.856934Z" fill="#CCD4D8"/>
<path d="M14.2168 8.68861C13.7717 8.68861 13.411 9.04933 13.411 9.49442V15.8519C13.411 16.1431 13.165 16.3891 12.8738 16.3891H2.59998C2.30874 16.3891 2.06278 16.1431 2.06278 15.8519V5.57802C2.06278 5.28677 2.30874 5.04081 2.59998 5.04081H8.97983C9.42492 5.04081 9.78564 4.6801 9.78564 4.23501C9.78564 3.78992 9.42492 3.4292 8.97983 3.4292H2.59998C1.41508 3.4292 0.451172 4.39311 0.451172 5.57802V15.8519C0.451172 17.0368 1.41508 18.0007 2.59998 18.0007H12.8738C14.0587 18.0007 15.0226 17.0368 15.0226 15.8519V9.49442C15.0226 9.04952 14.6619 8.68861 14.2168 8.68861Z" fill="#CCD4D8"/>
</svg>
