<svg width="16" height="15" viewBox="0 0 16 15" fill="none" xmlns="http://www.w3.org/2000/svg">
<path d="M5.02601 14.3136C11.0636 14.3136 14.3673 9.14583 14.3673 4.6719C14.3673 4.52652 14.3673 4.38113 14.3609 4.23574C15.0012 3.75993 15.5582 3.15856 16 2.47789C15.411 2.74884 14.7771 2.92727 14.1112 3.01318C14.7899 2.59685 15.3085 1.92939 15.5582 1.13638C14.9244 1.52627 14.2201 1.80383 13.471 1.95582C12.8691 1.29498 12.0176 0.885254 11.0764 0.885254C9.26451 0.885254 7.79192 2.4052 7.79192 4.27539C7.79192 4.53973 7.82393 4.79746 7.87515 5.04858C5.14766 4.90981 2.72749 3.55507 1.10764 1.50645C0.825931 2.00869 0.665866 2.59024 0.665866 3.21143C0.665866 4.38774 1.2485 5.42527 2.12565 6.03325C1.58784 6.01342 1.08203 5.86142 0.640256 5.6103C0.640256 5.62352 0.640256 5.63674 0.640256 5.65656C0.640256 7.29546 1.77351 8.67002 3.27171 8.98062C2.9964 9.05992 2.70828 9.09957 2.40736 9.09957C2.19608 9.09957 1.9912 9.07975 1.79272 9.04009C2.20888 10.3882 3.42537 11.3663 4.85954 11.3927C3.73269 12.3047 2.31773 12.8466 0.781113 12.8466C0.518608 12.8466 0.256102 12.8334 0 12.8003C1.44698 13.7519 3.17567 14.3136 5.02601 14.3136Z" fill="#657786"/>
</svg>
