<svg width="23" height="23" viewBox="0 0 23 23" fill="none" xmlns="http://www.w3.org/2000/svg">
<path fill-rule="evenodd" clip-rule="evenodd" d="M11.5612 17.4586C8.26409 17.4586 5.59103 14.7857 5.59103 11.4884C5.59103 8.19131 8.26396 5.51826 11.5612 5.51826C14.8583 5.51826 17.5314 8.19118 17.5314 11.4884C17.5314 14.7855 14.8585 17.4586 11.5612 17.4586ZM12.1067 21.9316C12.1067 22.2327 11.8623 22.4771 11.5612 22.4771C11.2601 22.4771 11.0157 22.2327 11.0157 21.9316V19.3127C11.0157 19.0116 11.2601 18.7672 11.5612 18.7672C11.8623 18.7672 12.1067 19.0116 12.1067 19.3127V21.9316ZM17.2534 20.2621C17.4029 20.5224 17.3132 20.8543 17.0528 21.0038C16.7925 21.1534 16.4606 21.0637 16.3111 20.8032L15.002 18.5351C14.8524 18.2748 14.9421 17.9429 15.2026 17.7934C15.4629 17.6438 15.7948 17.7335 15.9443 17.994L17.2534 20.2621ZM20.8772 16.2394C21.1375 16.3903 21.2259 16.7229 21.0756 16.9833C20.9254 17.2436 20.5922 17.3327 20.3317 17.1817L18.0636 15.872C17.8033 15.7217 17.7149 15.3885 17.8652 15.1281C18.0161 14.8678 18.3486 14.7794 18.6091 14.9297L20.8772 16.2387V16.2394ZM22.0033 10.9434C22.3045 10.9434 22.5488 11.1878 22.5488 11.4889C22.5488 11.79 22.3045 12.0344 22.0033 12.0344H19.3845C19.0833 12.0344 18.839 11.79 18.839 11.4889C18.839 11.1878 19.0834 10.9434 19.3845 10.9434H22.0033ZM20.3339 5.79673C20.5942 5.64717 20.9261 5.73687 21.0756 5.99733C21.2252 6.25762 21.1355 6.58949 20.875 6.73904L18.6069 8.04811C18.3466 8.19767 18.0147 8.10796 17.8651 7.8475C17.7156 7.58721 17.8053 7.25535 18.0658 7.1058L20.3339 5.79673ZM16.3112 2.17287C16.4621 1.91258 16.7947 1.82423 17.0551 1.97447C17.3154 2.12471 17.4044 2.45793 17.2535 2.71839L15.9438 4.98656C15.7935 5.24685 15.4603 5.33519 15.1998 5.18495C14.9395 5.03403 14.8512 4.7015 15.0014 4.44104L16.3105 2.17287H16.3112ZM11.0152 1.04677C11.0152 0.745613 11.2595 0.501282 11.5607 0.501282C11.8618 0.501282 12.1062 0.74563 12.1062 1.04677V3.66561C12.1062 3.96676 11.8618 4.2111 11.5607 4.2111C11.2595 4.2111 11.0152 3.96675 11.0152 3.66561V1.04677ZM5.86851 2.71619C5.71895 2.4559 5.80865 2.12403 6.06911 1.97448C6.3294 1.82492 6.66127 1.91463 6.81081 2.17509L8.11988 4.44326C8.26944 4.70355 8.17974 5.03541 7.91928 5.18496C7.65899 5.33452 7.32713 5.24482 7.17758 4.98436L5.86851 2.71619ZM2.24465 6.7389C1.98436 6.58798 1.89601 6.25544 2.04625 5.99498C2.19649 5.73469 2.52971 5.64567 2.79017 5.79659L5.05834 7.10635C5.31863 7.25659 5.40697 7.58981 5.25673 7.85027C5.10581 8.11056 4.77328 8.1989 4.51282 8.04867L2.24465 6.73959V6.7389ZM1.11855 12.0349C0.817394 12.0349 0.573059 11.7906 0.573059 11.4894C0.573059 11.1883 0.817411 10.9439 1.11855 10.9439H3.73738C4.03854 10.9439 4.28288 11.1883 4.28288 11.4894C4.28288 11.7906 4.03852 12.0349 3.73738 12.0349H1.11855ZM2.78797 17.1816C2.52768 17.3312 2.19581 17.2415 2.04626 16.981C1.8967 16.7207 1.9864 16.3888 2.24686 16.2393L4.51504 14.9302C4.77533 14.7807 5.10719 14.8704 5.25674 15.1308C5.4063 15.3911 5.3166 15.723 5.05614 15.8725L2.78797 17.1816ZM6.81068 20.8055C6.65976 21.0658 6.32722 21.1541 6.06676 21.0039C5.80647 20.8536 5.71745 20.5204 5.86837 20.2599L7.17813 17.9918C7.32837 17.7315 7.66159 17.6431 7.92205 17.7934C8.18234 17.9443 8.27068 18.2768 8.12044 18.5373L6.81137 20.8055H6.81068Z" fill="#F9FAFB"/>
</svg>
