<svg width="24" height="24" viewBox="0 0 24 24" fill="none" xmlns="http://www.w3.org/2000/svg">
  <path
    fill-rule="evenodd"
    clip-rule="evenodd"
    d="M12 22C17.5228 22 22 17.5228 22 12C22 6.47715 17.5228 2 12 2C6.47715 2 2 6.47715 2 12C2 17.5228 6.47715 22 12 22ZM15.7565 8.24351C15.3904 7.8774 14.7968 7.8774 14.4307 8.24351L12 10.6742L9.56932 8.24351C9.2032 7.8774 8.60961 7.8774 8.24349 8.24351C7.87738 8.60963 7.87738 9.20322 8.24349 9.56934L10.6742 12L8.24349 14.4307C7.87738 14.7968 7.87738 15.3904 8.24349 15.7565C8.60961 16.1226 9.2032 16.1226 9.56932 15.7565L12 13.3258L14.4307 15.7565C14.7968 16.1226 15.3904 16.1226 15.7565 15.7565C16.1226 15.3904 16.1226 14.7968 15.7565 14.4307L13.3258 12L15.7565 9.56934C16.1226 9.20322 16.1226 8.60963 15.7565 8.24351Z"
    fill="#6d7e8f"
  />
</svg>
