<svg width="96" height="96" viewBox="0 0 96 96" fill="none" xmlns="http://www.w3.org/2000/svg">
<g clip-path="url(#clip0)">
<path fill-rule="evenodd" clip-rule="evenodd" d="M48 0C74.5056 0 96 21.4944 96 48C96 74.5056 74.5056 96 48 96C21.4944 96 0 74.5056 0 48C0 21.4944 21.4944 0 48 0Z" fill="#006AE3"/>
<path d="M46.0225 68.2368V28.3008H50.3713V68.2368H46.0225Z" fill="white"/>
<path d="M68.1601 41.6063L54.7297 45.1679L51.7345 31.2287L55.7281 30.3263L57.3025 36.9311C57.3025 36.9311 60.9313 30.9791 56.0929 24.8159C53.2417 21.6479 51.8881 21.5135 48.6913 21.0143C45.8785 20.6111 39.3409 21.5615 37.3921 29.1935C36.5665 34.1087 37.4977 37.7471 43.8337 42.5087L43.4785 47.8079C43.4785 47.8079 36.4033 42.8255 34.5793 39.3311C33.1681 36.5663 30.7489 31.1039 35.1169 23.5007C37.4689 19.6991 42.1057 16.0511 50.2753 16.4351C54.3841 16.6079 64.4161 21.6287 62.8609 33.3599C62.5921 35.5583 61.4497 38.4863 61.4497 38.4863L66.9601 37.2575L68.1601 41.6063Z" fill="white"/>
<path d="M60.4896 72.8544C58.032 76.5888 53.2992 80.112 45.1488 79.5168C41.04 79.2384 31.152 73.9488 33.0144 62.2656C33.3408 60.0768 34.56 57.1872 34.56 57.1872L29.0208 58.2624L27.936 53.8944L41.4624 50.688L44.0928 64.704L40.0704 65.5008L38.6688 58.848C38.6688 58.848 34.8864 64.6944 39.552 70.992C42.3168 74.2368 43.6608 74.4 46.8576 74.9856C49.6512 75.4656 56.2176 74.6784 58.368 67.104C59.3184 62.2176 58.4832 58.5504 52.2816 53.616L52.7808 48.3264C52.7808 48.3264 59.7216 53.4912 61.4496 57.0336C62.7744 59.8464 65.0496 65.376 60.4896 72.8544V72.8544Z" fill="white"/>
</g>
<defs>
<clipPath id="clip0">
<rect width="96" height="96" fill="white"/>
</clipPath>
</defs>
</svg>
