<svg id="Layer_1" data-name="Layer 1" xmlns="http://www.w3.org/2000/svg" viewBox="0 0 64 64"><defs><style>.cls-1{fill:#045385;}.cls-2{fill:#141e27;}</style></defs><rect class="cls-1" x="28" y="38" width="21" height="4"/><rect class="cls-1" x="28" y="46" width="28" height="4"/><rect class="cls-1" x="28" y="54" width="21" height="4"/><rect class="cls-1" x="15" y="22" width="21" height="4"/><rect class="cls-1" x="8" y="14" width="28" height="4"/><rect class="cls-1" x="15" y="6" width="21" height="4"/><path class="cls-2" d="M48,32A16,16,0,1,1,64,16,16,16,0,0,1,48,32ZM48,4A12,12,0,1,0,60,16,12,12,0,0,0,48,4Z"/><path class="cls-2" d="M16,64A16,16,0,1,1,32,48,16,16,0,0,1,16,64Zm0-28A12,12,0,1,0,28,48,12,12,0,0,0,16,36Z"/></svg>