<svg width="18" height="18" viewBox="0 0 18 18" fill="none" xmlns="http://www.w3.org/2000/svg">
<path d="M16.5433 0.857422H6.56466C5.9066 0.857422 5.37139 1.39285 5.37139 2.05073V12.0294C5.37139 12.6873 5.9066 13.2227 6.56466 13.2227H16.5433C17.2014 13.2227 17.7366 12.6873 17.7366 12.0294V2.05073C17.7366 1.39285 17.2014 0.857422 16.5433 0.857422ZM16.1801 11.6663H6.92783V2.41391H16.1801V11.6663ZM11.4025 16.4438H2.15019V7.19147H4.76604V5.63499H1.78702C1.12896 5.63499 0.59375 6.17042 0.59375 6.8283V16.807C0.59375 17.4649 1.12896 18.0003 1.78702 18.0003H11.7657C12.4237 18.0003 12.9589 17.4649 12.9589 16.807V13.8281H11.4025V16.4438Z" fill="#657786"/>
</svg>
