<svg width="96" height="96" viewBox="0 0 96 96" fill="none" xmlns="http://www.w3.org/2000/svg">
<path d="M48 96C74.5097 96 96 74.5097 96 48C96 21.4903 74.5097 0 48 0C21.4903 0 0 21.4903 0 48C0 74.5097 21.4903 96 48 96Z" fill="#FFFBFD"/>
<path d="M47.055 45.2819C48.348 47.5684 45.4564 48.2771 44.0995 48.4076C42.0432 48.6084 41.6175 47.4179 42.0193 45.9224C42.151 45.3869 42.4436 44.9052 42.8571 44.5425C43.2707 44.1798 43.7854 43.9537 44.3313 43.8949C44.8693 43.8453 45.4102 43.9491 45.8919 44.1946C46.3738 44.4399 46.7769 44.8168 47.055 45.2819Z" fill="#FF007A"/>
<path d="M55.1265 41.0508C53.6237 52.5978 73.8832 50.1948 73.4975 59.3849C75.4958 56.7753 76.3552 49.6849 70.4719 46.0353C65.2302 42.7812 58.3999 44.5618 55.1265 41.0508Z" fill="#FF007A"/>
<path d="M66.7981 36.6954C66.6662 36.5729 66.5303 36.4525 66.3984 36.332C66.5323 36.4545 66.6662 36.583 66.7981 36.6954Z" fill="#FF007A"/>
<path d="M71.5076 45.1134L71.4956 45.0954C71.3128 44.7541 71.1043 44.4272 70.8722 44.1177C70.1891 43.1882 69.2094 42.522 68.0965 42.2306C67.3556 42.0386 66.598 41.9189 65.8343 41.8734C65.0609 41.8171 64.2716 41.785 63.4742 41.7428C61.8756 41.6545 60.2389 41.4899 58.6402 41.0322C58.2405 40.9178 57.8408 40.7933 57.4552 40.6428C57.2554 40.5705 57.0695 40.4922 56.8717 40.4079C56.6739 40.3236 56.472 40.2272 56.2721 40.1248C55.5204 39.7111 54.8241 39.2033 54.1999 38.6132C52.9688 37.4629 52.0017 36.158 51.0325 34.8933C50.1187 33.6238 49.1382 32.4042 48.0948 31.2398C47.0656 30.099 45.8488 29.1444 44.4978 28.4173C43.0989 27.7095 41.5795 27.2735 40.0195 27.1325C41.6379 26.9559 43.2749 27.1565 44.8036 27.7186C46.3461 28.3202 47.7562 29.2198 48.9542 30.3666C49.7363 31.1034 50.4706 31.8899 51.1524 32.7213C56.2282 31.7175 60.3449 32.6088 63.5082 34.3393L63.5802 34.3754C64.587 34.924 65.5306 35.5825 66.3938 36.3388C66.5317 36.4592 66.6676 36.5797 66.7935 36.7021C67.4673 37.324 68.0945 37.995 68.67 38.7096L68.7139 38.7678C70.5824 41.1446 71.5056 43.6158 71.5076 45.1134Z" fill="#FF007A"/>
<path d="M71.5038 45.1133L71.4922 45.0898L71.5038 45.1133Z" fill="#FF007A"/>
<path d="M40.2741 28.6211C41.569 28.8099 42.8899 29.3277 43.7412 30.3154C44.5926 31.3031 44.9062 32.5879 45.152 33.8105C45.3518 34.758 45.5098 35.7236 45.8815 36.6209C46.0613 37.0586 46.325 37.4419 46.5449 37.8555C46.7268 38.1988 47.0584 38.508 47.1863 38.8753C47.2093 38.928 47.2178 38.9859 47.2111 39.043C47.2045 39.1003 47.1828 39.1545 47.1484 39.2005C46.6968 39.7024 45.4778 39.1443 45.0181 38.9195C44.2236 38.5239 43.5119 37.9787 42.9219 37.3135C41.0774 35.2558 40.1242 32.2948 40.1822 29.5988C40.195 29.2715 40.2257 28.9451 40.2741 28.6211Z" fill="#FF007A"/>
<path d="M61.935 51.8242C59.1373 59.6674 71.8269 64.9289 67.0728 72.9027C71.9508 70.8791 74.2669 64.7664 72.2426 59.9163C70.472 55.6585 65.2363 54.1067 61.935 51.8242Z" fill="#FF007A"/>
<path d="M45.1523 62.0794C45.9147 61.5022 46.7483 61.0265 47.6323 60.6641C48.5266 60.3045 49.4544 60.0355 50.402 59.8611C52.2825 59.5019 54.143 59.4135 55.7057 58.7811C56.4778 58.4783 57.1882 58.036 57.8019 57.4763C58.3959 56.9219 58.8507 56.2339 59.1289 55.4688C59.4138 54.6615 59.5294 53.8038 59.4686 52.9495C59.398 52.0317 59.1911 51.1298 58.8551 50.2734C59.5516 51.0013 60.0588 51.8904 60.3318 52.862C60.6047 53.8337 60.6349 54.858 60.4198 55.8442C60.1753 56.8882 59.6475 57.8437 58.8951 58.6045C58.1503 59.3416 57.2521 59.9038 56.2652 60.2506C55.3234 60.5824 54.3413 60.785 53.3456 60.8529C52.3864 60.9331 51.4591 60.9552 50.5479 61.0095C48.7055 61.0871 46.8859 61.4479 45.1523 62.0794Z" fill="#FF007A"/>
<path d="M63.0487 75.8684C62.767 76.0933 62.4852 76.3322 62.1755 76.5409C61.8637 76.7473 61.5371 76.9298 61.1982 77.087C60.4928 77.4327 59.717 77.6093 58.9321 77.6029C56.8059 77.5628 55.3031 75.9729 54.4239 74.1761C53.8243 72.9516 53.4107 71.6287 52.6992 70.4624C51.682 68.7941 49.9415 67.4511 47.9032 67.7001C47.0719 67.8044 46.2925 68.1798 45.8309 68.9045C44.6158 70.7976 46.3605 73.4494 48.5846 73.074C48.7738 73.0452 48.959 72.9939 49.1362 72.9215C49.3128 72.846 49.4777 72.7451 49.6257 72.6223C49.9364 72.3625 50.1707 72.0224 50.3032 71.6387C50.4493 71.2386 50.4818 70.8057 50.3972 70.3881C50.3058 69.9516 50.0494 69.568 49.6817 69.3181C50.1092 69.5191 50.4423 69.8789 50.611 70.3218C50.7859 70.7775 50.8309 71.2731 50.7408 71.7532C50.6535 72.2533 50.4341 72.7205 50.1054 73.1061C49.9308 73.3046 49.7289 73.4769 49.5058 73.618C49.2848 73.7576 49.0481 73.8701 48.8005 73.9533C48.2985 74.1257 47.7642 74.1813 47.2378 74.1159C46.4986 74.0102 45.8014 73.7064 45.2194 73.2367C44.532 72.6907 44.0204 71.9759 43.3989 71.3617C42.6864 70.6107 41.8459 69.994 40.9169 69.5409C40.2763 69.2583 39.6059 69.0495 38.9186 68.9186C38.5728 68.8464 38.2231 68.7941 37.8735 68.75C37.7136 68.7339 36.9302 68.5592 36.8203 68.6616C37.9012 67.662 39.0795 66.7743 40.3374 66.0118C41.629 65.2419 43.0157 64.6458 44.462 64.2391C45.9615 63.8151 47.5299 63.6944 49.0762 63.8839C49.8722 63.9799 50.6518 64.1824 51.3943 64.4861C52.1723 64.7983 52.8905 65.2439 53.5165 65.803C54.1363 66.3894 54.6371 67.0909 54.9913 67.8687C55.3112 68.5968 55.5498 69.3583 55.7027 70.1391C56.1584 72.4738 55.9905 76.0933 59.0341 76.6273C59.1927 76.6582 59.3528 76.6809 59.5136 76.6955L60.0112 76.7075C60.3533 76.6831 60.6932 76.6341 61.0284 76.561C61.7227 76.397 62.3994 76.165 63.0487 75.8684Z" fill="#FF007A"/>
<path d="M45.365 73.3204L45.2852 73.2578L45.365 73.3204Z" fill="#FF007A"/>
<path d="M42.6349 40.3724C42.5241 40.8002 42.3305 41.202 42.0653 41.5548C41.5718 42.1983 40.9184 42.7002 40.171 43.0102C39.4985 43.3012 38.7866 43.4894 38.0587 43.5682C37.9008 43.5884 37.7369 43.6004 37.5791 43.6125C37.118 43.63 36.6747 43.7955 36.3141 44.0844C35.9534 44.3734 35.6943 44.7708 35.5747 45.2184C35.5199 45.4411 35.4792 45.667 35.4528 45.8949C35.3808 46.4852 35.3689 47.0994 35.3049 47.8422C35.1484 49.1061 34.7844 50.3352 34.2278 51.4797C33.5045 53.0094 32.693 54.242 32.8809 56.0046C33.0048 57.1488 33.5883 57.9157 34.3637 58.7066C35.7625 60.1439 38.894 60.7864 38.1945 64.3275C37.7729 66.4414 34.2838 68.6596 29.3798 69.4346C29.8674 69.3603 28.7543 67.4753 28.6844 67.3548C28.1588 66.5277 27.5833 65.7488 27.1656 64.8514C26.3463 63.1109 25.9666 61.0975 26.3023 59.1904C26.656 57.1829 28.1348 55.6452 29.3638 54.1115C30.8266 52.2867 32.3614 49.8958 32.701 47.527C32.781 46.9529 32.8369 46.2342 32.9648 45.5195C33.0868 44.7277 33.3337 43.9607 33.6962 43.2471C33.9437 42.7791 34.2695 42.3574 34.6595 42.0004C34.8627 41.8109 34.9968 41.5584 35.0403 41.2832C35.0838 41.008 35.0341 40.7262 34.8993 40.4828L27.0817 26.3582L38.3105 40.278C38.4384 40.4393 38.5999 40.5704 38.7839 40.6618C38.9679 40.7534 39.1696 40.8031 39.3748 40.8075C39.58 40.8119 39.7836 40.7709 39.9713 40.6874C40.159 40.6039 40.326 40.4799 40.4606 40.3242C40.6029 40.1576 40.6836 39.9468 40.6891 39.7273C40.6945 39.5079 40.6245 39.2933 40.4907 39.1197C39.7573 38.1783 38.9819 37.2186 38.2305 36.2751L35.4048 32.7621L29.7335 25.7479L22 16L30.4609 25.1196L36.4979 31.8246L39.5095 35.1851C40.5086 36.3153 41.5078 37.4094 42.507 38.5978L42.6708 38.7986L42.7069 39.1097C42.7556 39.5316 42.7312 39.9588 42.6349 40.3724Z" fill="#FF007A"/>
<path d="M45.22 73.2291C44.6774 72.808 44.1946 72.3143 43.7852 71.7617C44.2245 72.2879 44.7042 72.7785 45.22 73.2291Z" fill="#FF007A"/>
</svg>
