<svg width="12" height="12" viewBox="0 0 12 12" fill="none" xmlns="http://www.w3.org/2000/svg">
<path d="M11.3692 0.471802L6.71558 3.92809L7.57614 1.88893L11.3692 0.471802Z" fill="#E2761B" stroke="#E2761B" stroke-width="0.0469786" stroke-linecap="round" stroke-linejoin="round"/>
<path d="M0.626221 0.471832L5.2424 3.96086L4.42393 1.88896L0.626221 0.471832Z" fill="#E4761B" stroke="#E4761B" stroke-width="0.0469786" stroke-linecap="round" stroke-linejoin="round"/>
<path d="M9.6949 8.48349L8.45551 10.3823L11.1074 11.112L11.8697 8.52558L9.6949 8.48349Z" fill="#E4761B" stroke="#E4761B" stroke-width="0.0469786" stroke-linecap="round" stroke-linejoin="round"/>
<path d="M0.135132 8.52558L0.892802 11.112L3.54465 10.3823L2.30525 8.48349L0.135132 8.52558Z" fill="#E4761B" stroke="#E4761B" stroke-width="0.0469786" stroke-linecap="round" stroke-linejoin="round"/>
<path d="M3.39497 5.27509L2.65601 6.39289L5.28915 6.50981L5.19561 3.68024L3.39497 5.27509Z" fill="#E4761B" stroke="#E4761B" stroke-width="0.0469786" stroke-linecap="round" stroke-linejoin="round"/>
<path d="M8.60046 5.27508L6.77644 3.64749L6.71564 6.5098L9.3441 6.39288L8.60046 5.27508Z" fill="#E4761B" stroke="#E4761B" stroke-width="0.0469786" stroke-linecap="round" stroke-linejoin="round"/>
<path d="M3.54468 10.3823L5.1255 9.61063L3.75982 8.54428L3.54468 10.3823Z" fill="#E4761B" stroke="#E4761B" stroke-width="0.0469786" stroke-linecap="round" stroke-linejoin="round"/>
<path d="M6.87 9.61063L8.45549 10.3823L8.23567 8.54428L6.87 9.61063Z" fill="#E4761B" stroke="#E4761B" stroke-width="0.0469786" stroke-linecap="round" stroke-linejoin="round"/>
<path d="M8.45543 10.3823L6.86993 9.61063L6.99621 10.6442L6.98218 11.0792L8.45543 10.3823Z" fill="#D7C1B3" stroke="#D7C1B3" stroke-width="0.0469786" stroke-linecap="round" stroke-linejoin="round"/>
<path d="M3.54462 10.3823L5.01786 11.0792L5.00851 10.6442L5.12544 9.61063L3.54462 10.3823Z" fill="#D7C1B3" stroke="#D7C1B3" stroke-width="0.0469786" stroke-linecap="round" stroke-linejoin="round"/>
<path d="M5.04126 7.86143L3.72235 7.47324L4.65307 7.04764L5.04126 7.86143Z" fill="#233447" stroke="#233447" stroke-width="0.0469786" stroke-linecap="round" stroke-linejoin="round"/>
<path d="M6.9541 7.86143L7.34229 7.04764L8.27769 7.47324L6.9541 7.86143Z" fill="#233447" stroke="#233447" stroke-width="0.0469786" stroke-linecap="round" stroke-linejoin="round"/>
<path d="M3.54464 10.3823L3.76913 8.48349L2.30524 8.52558L3.54464 10.3823Z" fill="#CD6116" stroke="#CD6116" stroke-width="0.0469786" stroke-linecap="round" stroke-linejoin="round"/>
<path d="M8.23096 8.48349L8.45545 10.3823L9.69485 8.52558L8.23096 8.48349Z" fill="#CD6116" stroke="#CD6116" stroke-width="0.0469786" stroke-linecap="round" stroke-linejoin="round"/>
<path d="M9.34404 6.39285L6.71558 6.50978L6.95878 7.86142L7.34697 7.04763L8.28236 7.47323L9.34404 6.39285Z" fill="#CD6116" stroke="#CD6116" stroke-width="0.0469786" stroke-linecap="round" stroke-linejoin="round"/>
<path d="M3.72205 7.47323L4.65745 7.04763L5.04096 7.86142L5.28884 6.50978L2.6557 6.39285L3.72205 7.47323Z" fill="#CD6116" stroke="#CD6116" stroke-width="0.0469786" stroke-linecap="round" stroke-linejoin="round"/>
<path d="M2.65594 6.39285L3.75971 8.54426L3.7223 7.47323L2.65594 6.39285Z" fill="#E4751F" stroke="#E4751F" stroke-width="0.0469786" stroke-linecap="round" stroke-linejoin="round"/>
<path d="M8.28237 7.47323L8.2356 8.54426L9.34404 6.39285L8.28237 7.47323Z" fill="#E4751F" stroke="#E4751F" stroke-width="0.0469786" stroke-linecap="round" stroke-linejoin="round"/>
<path d="M5.28908 6.5098L5.0412 7.86144L5.34988 9.45629L5.42003 7.35633L5.28908 6.5098Z" fill="#E4751F" stroke="#E4751F" stroke-width="0.0469786" stroke-linecap="round" stroke-linejoin="round"/>
<path d="M6.71557 6.5098L6.58929 7.35165L6.64542 9.45629L6.95878 7.86144L6.71557 6.5098Z" fill="#E4751F" stroke="#E4751F" stroke-width="0.0469786" stroke-linecap="round" stroke-linejoin="round"/>
<path d="M6.9588 7.86143L6.64545 9.45628L6.86994 9.61062L8.23562 8.54426L8.28239 7.47324L6.9588 7.86143Z" fill="#F6851B" stroke="#F6851B" stroke-width="0.0469786" stroke-linecap="round" stroke-linejoin="round"/>
<path d="M3.72235 7.47324L3.75977 8.54426L5.12545 9.61062L5.34994 9.45628L5.04126 7.86143L3.72235 7.47324Z" fill="#F6851B" stroke="#F6851B" stroke-width="0.0469786" stroke-linecap="round" stroke-linejoin="round"/>
<path d="M6.9822 11.0792L6.99623 10.6442L6.8793 10.5413H5.11608L5.00851 10.6442L5.01787 11.0792L3.54462 10.3823L4.05908 10.8033L5.10205 11.5282H6.89333L7.94098 10.8033L8.45545 10.3823L6.9822 11.0792Z" fill="#C0AD9E" stroke="#C0AD9E" stroke-width="0.0469786" stroke-linecap="round" stroke-linejoin="round"/>
<path d="M6.86992 9.61064L6.64543 9.4563H5.3499L5.12541 9.61064L5.00848 10.6443L5.11605 10.5414H6.87928L6.9962 10.6443L6.86992 9.61064Z" fill="#161616" stroke="#161616" stroke-width="0.0469786" stroke-linecap="round" stroke-linejoin="round"/>
<path d="M11.5657 4.15258L11.9632 2.24438L11.3692 0.471802L6.87 3.81116L8.60048 5.27506L11.0465 5.99064L11.5891 5.35924L11.3552 5.19087L11.7294 4.84945L11.4394 4.62496L11.8136 4.33966L11.5657 4.15258Z" fill="#763D16" stroke="#763D16" stroke-width="0.0469786" stroke-linecap="round" stroke-linejoin="round"/>
<path d="M0.0368652 2.24438L0.434408 4.15258L0.181852 4.33966L0.55601 4.62496L0.270714 4.84945L0.644872 5.19087L0.411024 5.35924L0.948876 5.99064L3.39494 5.27506L5.12542 3.81116L0.626165 0.471802L0.0368652 2.24438Z" fill="#763D16" stroke="#763D16" stroke-width="0.0469786" stroke-linecap="round" stroke-linejoin="round"/>
<path d="M11.0465 5.99063L8.60046 5.27505L9.3441 6.39285L8.23566 8.54426L9.69487 8.52556H11.8697L11.0465 5.99063Z" fill="#F6851B" stroke="#F6851B" stroke-width="0.0469786" stroke-linecap="round" stroke-linejoin="round"/>
<path d="M3.39492 5.27505L0.948865 5.99063L0.135071 8.52556H2.30519L3.75973 8.54426L2.65596 6.39285L3.39492 5.27505Z" fill="#F6851B" stroke="#F6851B" stroke-width="0.0469786" stroke-linecap="round" stroke-linejoin="round"/>
<path d="M6.71561 6.5098L6.86995 3.81118L7.58085 1.88895H4.42389L5.12544 3.81118L5.28913 6.5098L5.34525 7.36101L5.34993 9.4563H6.64545L6.65481 7.36101L6.71561 6.5098Z" fill="#F6851B" stroke="#F6851B" stroke-width="0.0469786" stroke-linecap="round" stroke-linejoin="round"/>
</svg>
