<svg width="96" height="96" viewBox="0 0 96 96" fill="none" xmlns="http://www.w3.org/2000/svg">
<g filter="url(#filter0_i)">
<path d="M48.0372 95.2513C74.1335 95.2513 95.2887 74.0961 95.2887 47.9999C95.2887 21.9036 74.1335 0.748413 48.0372 0.748413C21.941 0.748413 0.785767 21.9036 0.785767 47.9999C0.785767 74.0961 21.941 95.2513 48.0372 95.2513Z" fill="#00D395"/>
</g>
<path d="M48.0375 91.7292C72.1886 91.7292 91.7669 72.1509 91.7669 47.9998C91.7669 23.8487 72.1886 4.27039 48.0375 4.27039C23.8864 4.27039 4.30804 23.8487 4.30804 47.9998C4.30804 72.1509 23.8864 91.7292 48.0375 91.7292Z" fill="url(#paint0_linear)"/>
<path fill-rule="evenodd" clip-rule="evenodd" d="M28.1019 63.8552C26.6886 62.9908 25.8242 61.4513 25.8242 59.7982V50.5674C25.8242 50.214 25.9188 49.8733 26.0955 49.5705C26.6444 48.624 27.8622 48.3022 28.8086 48.8575L49.6431 61.0033C50.8608 61.7163 51.6117 63.0161 51.6117 64.4294V73.9947C51.6117 74.43 51.4918 74.8654 51.2646 75.2377C50.5769 76.3608 49.1131 76.7141 47.9899 76.0264L28.1019 63.8552ZM59.158 46.3273C60.3758 47.0403 61.1266 48.3401 61.1266 49.7534V69.1616C61.1266 69.7357 60.8174 70.2657 60.319 70.5434L55.7571 73.1113C55.7003 73.1429 55.6372 73.1681 55.5741 73.1871V62.4104C55.5741 61.016 54.8422 59.7225 53.6434 59.0032L35.3454 48.0562V35.8914C35.3454 35.538 35.4401 35.1973 35.6167 34.8945C36.1657 33.948 37.3834 33.6262 38.3299 34.1815L59.158 46.3273ZM68.2754 31.9921C69.4995 32.6987 70.2504 34.0111 70.2504 35.4245V63.7732C70.2504 64.3537 69.9286 64.89 69.4175 65.1676L65.0954 67.5022V47.7659C65.0954 46.3715 64.3635 45.0844 63.1709 44.3651L44.4692 33.1467V21.6066C44.4692 21.2532 44.5638 20.9125 44.7342 20.6097C45.2831 19.6632 46.5009 19.3415 47.4473 19.8904L68.2754 31.9921Z" fill="#F9FAFB"/>
<path d="M48 96C74.5097 96 96 74.5097 96 48C96 21.4903 74.5097 0 48 0C21.4903 0 0 21.4903 0 48C0 74.5097 21.4903 96 48 96Z" fill="#070A0E"/>
<path d="M48.0002 92.4224C72.5339 92.4224 92.4224 72.5339 92.4224 48.0002C92.4224 23.4665 72.5339 3.578 48.0002 3.578C23.4665 3.578 3.578 23.4665 3.578 48.0002C3.578 72.5339 23.4665 92.4224 48.0002 92.4224Z" fill="#070A0E"/>
<path fill-rule="evenodd" clip-rule="evenodd" d="M27.7486 64.1062C26.3128 63.2281 25.4347 61.6642 25.4347 59.9849V50.6078C25.4347 50.2489 25.5308 49.9028 25.7103 49.5951C26.2679 48.6337 27.505 48.3068 28.4664 48.8708L49.6309 61.2091C50.868 61.9334 51.6307 63.2537 51.6307 64.6895V74.4063C51.6307 74.8485 51.5089 75.2908 51.2782 75.6689C50.5796 76.8098 49.0925 77.1688 47.9516 76.4701L27.7486 64.1062ZM59.2966 46.3006C60.5337 47.0249 61.2964 48.3453 61.2964 49.781V69.4966C61.2964 70.0799 60.9823 70.6183 60.476 70.9003L55.8418 73.5089C55.7842 73.541 55.7201 73.5666 55.656 73.5858V62.6384C55.656 61.2219 54.9125 59.908 53.6946 59.1773L35.1068 48.0568V35.6993C35.1068 35.3404 35.2029 34.9943 35.3824 34.6866C35.94 33.7252 37.1771 33.3983 38.1385 33.9624L59.2966 46.3006ZM68.5585 31.7383C69.802 32.4561 70.5647 33.7893 70.5647 35.225V64.0229C70.5647 64.6126 70.2378 65.1574 69.7186 65.4394L65.3281 67.8109V47.762C65.3281 46.3455 64.5845 45.038 63.3731 44.3073L44.3751 32.9112V21.1882C44.3751 20.8293 44.4712 20.4832 44.6443 20.1755C45.2019 19.2141 46.439 18.8872 47.4004 19.4449L68.5585 31.7383Z" fill="#00D395"/>
<defs>
<filter id="filter0_i" x="0.785767" y="0.628444" width="94.5029" height="94.6229" filterUnits="userSpaceOnUse" color-interpolation-filters="sRGB">
<feFlood flood-opacity="0" result="BackgroundImageFix"/>
<feBlend mode="normal" in="SourceGraphic" in2="BackgroundImageFix" result="shape"/>
<feColorMatrix in="SourceAlpha" type="matrix" values="0 0 0 0 0 0 0 0 0 0 0 0 0 0 0 0 0 0 127 0" result="hardAlpha"/>
<feOffset dy="-0.359908"/>
<feGaussianBlur stdDeviation="0.0599846"/>
<feComposite in2="hardAlpha" operator="arithmetic" k2="-1" k3="1"/>
<feColorMatrix type="matrix" values="0 0 0 0 0.0699479 0 0 0 0 0.9875 0 0 0 0 0.717887 0 0 0 1 0"/>
<feBlend mode="normal" in2="shape" result="effect1_innerShadow"/>
</filter>
<linearGradient id="paint0_linear" x1="48.0375" y1="4.27039" x2="48.0375" y2="91.7292" gradientUnits="userSpaceOnUse">
<stop stop-color="#141E27"/>
<stop offset="1" stop-color="#141E27"/>
</linearGradient>
</defs>
</svg>
