<svg width="16" height="15" viewBox="0 0 16 15" fill="none" xmlns="http://www.w3.org/2000/svg">
<g clip-path="url(#clip0)">
<path fill-rule="evenodd" clip-rule="evenodd" d="M8.25 0C4.10625 0 0.75 3.35625 0.75 7.5C0.75 10.8187 2.89687 13.6219 5.87812 14.6156C6.25312 14.6813 6.39375 14.4563 6.39375 14.2594C6.39375 14.0813 6.38438 13.4906 6.38438 12.8625C4.5 13.2094 4.0125 12.4031 3.8625 11.9812C3.77812 11.7656 3.4125 11.1 3.09375 10.9219C2.83125 10.7812 2.45625 10.4344 3.08438 10.425C3.675 10.4156 4.09688 10.9687 4.2375 11.1937C4.9125 12.3281 5.99063 12.0094 6.42188 11.8125C6.4875 11.325 6.68437 10.9969 6.9 10.8094C5.23125 10.6219 3.4875 9.975 3.4875 7.10625C3.4875 6.29062 3.77813 5.61562 4.25625 5.09062C4.18125 4.90312 3.91875 4.13437 4.33125 3.10312C4.33125 3.10312 4.95938 2.90625 6.39375 3.87188C6.99375 3.70313 7.63125 3.61875 8.26875 3.61875C8.90625 3.61875 9.54375 3.70313 10.1438 3.87188C11.5781 2.89688 12.2063 3.10312 12.2063 3.10312C12.6188 4.13437 12.3563 4.90312 12.2813 5.09062C12.7594 5.61562 13.05 6.28125 13.05 7.10625C13.05 9.98437 11.2969 10.6219 9.62813 10.8094C9.9 11.0437 10.1344 11.4938 10.1344 12.1969C10.1344 13.2 10.125 14.0063 10.125 14.2594C10.125 14.4563 10.2656 14.6906 10.6406 14.6156C13.6031 13.6219 15.75 10.8094 15.75 7.5C15.75 3.35625 12.3938 0 8.25 0Z" fill="#657786"/>
</g>
<defs>
<clipPath id="clip0">
<rect x="0.75" width="15" height="15" fill="white"/>
</clipPath>
</defs>
</svg>
