<svg width="96" height="96" viewBox="0 0 96 96" fill="none" xmlns="http://www.w3.org/2000/svg">
<path d="M48 96C74.5097 96 96 74.5097 96 48C96 21.4903 74.5097 0 48 0C21.4903 0 0 21.4903 0 48C0 74.5097 21.4903 96 48 96Z" fill="#F9FAFB"/>
<path d="M30.6623 23.9902L76.5261 55.3059L65.1835 72.0733L19.3196 40.5111L30.6623 23.9902Z" fill="url(#paint0_linear)"/>
<path d="M76.5261 55.3057C72.5808 60.977 59.2655 58.7578 46.6899 49.8809C33.8677 41.2506 26.9635 29.6614 30.6622 23.99C34.6075 18.3187 47.9228 20.5379 60.4984 29.4148C73.3205 37.7985 80.2248 49.6343 76.5261 55.3057Z" fill="url(#paint1_linear)"/>
<path d="M65.1834 71.8269C61.2381 77.4983 47.9228 75.279 35.3472 66.4022C22.7716 57.5253 15.6208 46.1826 19.5661 40.2647C23.5113 34.5933 36.8267 36.8126 49.4022 45.6895C61.9778 54.5663 68.8821 66.1556 65.1834 71.8269Z" fill="url(#paint2_linear)"/>
<path d="M76.5262 55.3058L65.1835 72.0732C61.2383 77.7445 47.9229 75.2787 35.3474 66.6484C32.8816 64.9224 30.6623 63.1963 28.4431 61.2237C30.1692 60.9771 32.3884 59.9908 34.6076 57.525C38.5529 53.3331 40.5255 52.3468 42.2516 52.5934C43.9777 52.5934 45.9503 54.3194 49.1558 58.5113C52.3614 62.7032 56.7998 63.9361 59.5122 61.7168C59.7588 61.4703 60.0054 61.4703 60.2519 61.2237C62.4712 59.4976 63.2109 58.7579 67.4028 50.8673C68.3891 48.8947 71.8412 45.6891 76.5262 47.1686C77.7591 50.3742 77.7591 53.0865 76.5262 55.3058Z" fill="#0E0F23"/>
<path fill-rule="evenodd" clip-rule="evenodd" d="M74.8 54.3197C71.3479 59.2513 59.2655 56.7855 47.6762 48.6483C35.8404 40.5112 28.9361 30.1548 32.3882 25.2232C35.8404 20.2916 47.9228 22.7574 59.512 30.8946C71.1013 39.0317 78.0055 49.3881 74.8 54.3197ZM63.9505 46.9223C62.2244 49.3881 56.3065 48.1552 50.3886 44.2099C44.7172 40.2646 41.2651 35.0864 42.9912 32.6206C44.7172 30.1548 50.6352 31.3877 56.5531 35.333C62.2244 39.2783 65.6765 44.4565 63.9505 46.9223Z" fill="white"/>
<path d="M29.6759 29.6612C29.6759 29.4146 29.4293 29.1681 29.1827 29.4146C28.9362 29.6612 28.6896 29.6612 28.6896 29.9078C28.9362 30.6475 29.1827 31.1407 29.1827 31.6339C29.1827 31.8804 29.4293 32.127 29.6759 31.8804C29.9225 31.8804 30.1691 31.6339 29.9225 31.3873C29.9225 30.8941 29.9225 30.401 29.6759 29.6612Z" fill="white"/>
<path d="M30.9087 33.6068C30.9087 33.3602 30.6621 33.1136 30.4155 33.3602C30.1689 33.6068 30.1689 33.6068 30.1689 33.8534C32.8813 40.0179 38.5527 46.6755 45.9501 51.6071C46.1966 51.8537 46.4432 51.6071 46.6898 51.6071C46.9364 51.3605 46.6898 51.114 46.6898 50.8674C39.0458 45.9358 33.6211 39.5247 30.9087 33.6068Z" fill="white"/>
<path d="M60.745 57.7715C60.4984 57.7715 60.2518 57.7715 60.2518 58.0181C60.2518 58.2646 60.2518 58.5112 60.4984 58.5112C61.2382 58.7578 62.2245 59.0044 62.9642 59.251C63.2108 59.251 63.4574 59.251 63.4574 59.0044C63.4574 58.7578 63.4574 58.5112 63.2108 58.5112C62.4711 58.2646 61.4847 58.0181 60.745 57.7715Z" fill="white"/>
<path d="M65.1833 58.7578C64.9368 58.7578 64.6902 59.0044 64.6902 59.251C64.6902 59.4976 64.9368 59.7441 65.1833 59.7441C67.156 59.9907 69.3752 60.2373 71.1013 59.9907C71.3478 59.9907 71.5944 59.7441 71.5944 59.4976C71.5944 59.251 71.3478 59.0044 71.1013 59.0044C69.1286 59.251 67.156 59.0044 65.1833 58.7578Z" fill="white"/>
<defs>
<linearGradient id="paint0_linear" x1="39.6481" y1="19.5377" x2="48.7435" y2="50.7701" gradientUnits="userSpaceOnUse">
<stop stop-color="#03B8FF"/>
<stop offset="1" stop-color="#FA52A0"/>
</linearGradient>
<linearGradient id="paint1_linear" x1="47.1382" y1="17.356" x2="56.2338" y2="48.5886" gradientUnits="userSpaceOnUse">
<stop stop-color="#03B8FF"/>
<stop offset="1" stop-color="#FA52A0"/>
</linearGradient>
<linearGradient id="paint2_linear" x1="32.1811" y1="21.7123" x2="41.2767" y2="52.9448" gradientUnits="userSpaceOnUse">
<stop stop-color="#03B8FF"/>
<stop offset="1" stop-color="#FA52A0"/>
</linearGradient>
</defs>
</svg>
