<svg width="10" height="10" viewBox="0 0 10 10" fill="none" xmlns="http://www.w3.org/2000/svg">
<path d="M8.77104 1.66231L8.3572 1.24847L5.06397 4.5417L1.77657 1.24847L1.36273 1.66231L4.65596 4.94971L1.36273 8.24294L1.77657 8.65678L5.06397 5.36355L8.3572 8.65678L8.77104 8.24294L5.47781 4.94971L8.77104 1.66231Z" fill="white"/>
<path fill-rule="evenodd" clip-rule="evenodd" d="M9.59574 1.6627L6.30251 4.9501L9.59537 8.24297L8.35723 9.48111L5.06436 6.18825L1.77696 9.48148L0.538451 8.24297L3.83132 4.9501L0.538086 1.6627L1.77696 0.423828L5.06436 3.71706L8.35723 0.424193L9.59574 1.6627ZM1.77657 1.24847L1.36273 1.66231L4.65596 4.94971L4.65271 4.95302L4.65184 4.95388L1.36273 8.24294L1.77657 8.65678L5.06397 5.36355L8.3572 8.65678L8.77104 8.24294L5.47781 4.94971L8.77104 1.66231L8.3572 1.24847L5.06814 4.53759L5.06728 4.53845L5.06397 4.5417L1.77657 1.24847Z" fill="white"/>
</svg>
