<svg width="17" height="17" viewBox="0 0 17 17" fill="none" xmlns="http://www.w3.org/2000/svg">
<circle cx="8.56197" cy="8.14746" r="8" fill="#DD2910"/>
<path d="M5.75707 4.69634L7.54691 10.2049L2.86105 6.80042H8.65309L3.96723 10.2049L5.75707 4.69634Z" fill="#FFDE00"/>
<path d="M11.2294 3.76226L11.0599 5.68548L10.0665 4.02994L11.8433 4.78544L9.96179 5.21856L11.2294 3.76226Z" fill="#FFDE00"/>
<path d="M13.5907 6.01963L12.6882 7.72637L12.4152 5.81509L13.7595 7.20086L11.8574 6.86992L13.5907 6.01963Z" fill="#FFDE00"/>
<path d="M13.8157 9.42336L12.2954 10.6135L12.8258 8.75706L13.4879 10.5707L11.8862 9.49258L13.8157 9.42336Z" fill="#FFDE00"/>
<path d="M11.1903 10.8517L11.1007 12.7803L10.0396 11.1674L11.8461 11.8486L9.9842 12.3593L11.1903 10.8517Z" fill="#FFDE00"/>
</svg>
