<svg width="48" height="48" viewBox="0 0 48 48" fill="none" xmlns="http://www.w3.org/2000/svg">
<path d="M0 8C0 3.58172 3.58172 0 8 0H40C44.4183 0 48 3.58172 48 8V40C48 44.4183 44.4183 48 40 48H8C3.58172 48 0 44.4183 0 40V8Z" fill="#0D67FE"/>
<path fill-rule="evenodd" clip-rule="evenodd" d="M35 14.3447V21.9309L13 30.8965L35 14.3447Z" fill="#2FE9FF"/>
<path fill-rule="evenodd" clip-rule="evenodd" d="M30.875 14V27.1034C30.875 30.9123 27.797 34 24 34C20.203 34 17.125 30.9123 17.125 27.1034V21.5862L21.25 19.3103V27.1034C21.25 28.4365 22.3273 29.5172 23.6562 29.5172C24.9852 29.5172 26.0625 28.4365 26.0625 27.1034V16.6552L30.875 14Z" fill="white"/>
</svg>
