<svg width="28" height="28" viewBox="0 0 28 28" fill="none" xmlns="http://www.w3.org/2000/svg">
<circle cx="13.9999" cy="14.0004" r="12.1826" fill="#EFF0F5" stroke="#C4C7D6"/>
<circle cx="13.9999" cy="14.0004" r="12.1826" fill="#EFF0F5" stroke="#C4C7D6"/>
<circle cx="13.9999" cy="13.2582" r="12.1826" fill="#EFF0F5" stroke="#C4C7D6"/>
<circle cx="13.9999" cy="13.2582" r="12.1826" fill="#EFF0F5" stroke="#C4C7D6"/>
<circle cx="14" cy="13.9995" r="13.7793" fill="#F9FAFB"/>
<mask id="mask0" mask-type="alpha" maskUnits="userSpaceOnUse" x="6" y="6" width="16" height="22">
<path d="M13.9997 15.7945C16.6492 15.7945 18.7971 13.6467 18.7971 10.9972C18.7971 8.34767 16.6492 6.19983 13.9997 6.19983C11.3502 6.19983 9.20239 8.34767 9.20239 10.9972C9.20239 13.6467 11.3502 15.7945 13.9997 15.7945Z" fill="#050F19"/>
<path d="M6.73376 21.6176V25.7593C6.73376 26.2952 7.01881 26.8091 7.5262 27.188C8.0336 27.567 8.72177 27.7798 9.43932 27.7798H18.5606C19.2782 27.7798 19.9663 27.567 20.4737 27.188C20.9811 26.8091 21.2662 26.2952 21.2662 25.7593V21.6176C21.2662 20.5184 20.6817 19.4642 19.6412 18.6868C18.6006 17.9093 17.1893 17.4723 15.7174 17.4718H12.2825C10.8106 17.4723 9.3993 17.9093 8.35878 18.6868C7.31827 19.4642 6.73376 20.5184 6.73376 21.6176V21.6176Z" fill="#050F19"/>
</mask>
<g mask="url(#mask0)">
<circle cx="14.0002" cy="14" r="13.7793" fill="#050F19"/>
</g>
<circle cx="14" cy="13.9995" r="13.7793" fill="#F9FAFB"/>
<mask id="mask1" mask-type="alpha" maskUnits="userSpaceOnUse" x="6" y="6" width="16" height="22">
<path d="M13.9997 15.7945C16.6492 15.7945 18.7971 13.6467 18.7971 10.9972C18.7971 8.34767 16.6492 6.19983 13.9997 6.19983C11.3502 6.19983 9.20239 8.34767 9.20239 10.9972C9.20239 13.6467 11.3502 15.7945 13.9997 15.7945Z" fill="#050F19"/>
<path d="M6.73376 21.6176V25.7593C6.73376 26.2952 7.01881 26.8091 7.5262 27.188C8.0336 27.567 8.72177 27.7798 9.43932 27.7798H18.5606C19.2782 27.7798 19.9663 27.567 20.4737 27.188C20.9811 26.8091 21.2662 26.2952 21.2662 25.7593V21.6176C21.2662 20.5184 20.6817 19.4642 19.6412 18.6868C18.6006 17.9093 17.1893 17.4723 15.7174 17.4718H12.2825C10.8106 17.4723 9.3993 17.9093 8.35878 18.6868C7.31827 19.4642 6.73376 20.5184 6.73376 21.6176V21.6176Z" fill="#050F19"/>
</mask>
<g mask="url(#mask1)">
<circle cx="14.0002" cy="14" r="13.7793" fill="#050F19"/>
</g>
</svg>
