<svg width="28" height="28" viewBox="0 0 28 28" fill="none" xmlns="http://www.w3.org/2000/svg">
<circle cx="13.7793" cy="13.7793" r="13.7793" fill="#F9FAFB"/>
<path d="M8 6V20.0938H19V9.4375H15.9062C15.7263 9.43748 15.5625 9.27373 15.5625 9.09375V6H8ZM16.25 6.34375V8.75H18.6562L16.25 6.34375ZM9.89062 11.5H17.1094C17.2992 11.5 17.4531 11.6539 17.4531 11.8437C17.4531 12.0336 17.2992 12.1875 17.1094 12.1875H9.89062C9.70077 12.1875 9.54688 12.0336 9.54688 11.8437C9.54688 11.6539 9.70077 11.5 9.89062 11.5ZM9.89062 14.25H17.1094C17.2992 14.25 17.4531 14.4039 17.4531 14.5938C17.4531 14.7836 17.2992 14.9375 17.1094 14.9375H9.89062C9.70077 14.9375 9.54688 14.7836 9.54688 14.5938C9.54688 14.4039 9.70077 14.25 9.89062 14.25ZM9.89062 17H17.1094C17.2992 17 17.4531 17.1539 17.4531 17.3438C17.4531 17.5336 17.2992 17.6875 17.1094 17.6875H9.89062C9.70077 17.6875 9.54688 17.5336 9.54688 17.3438C9.54688 17.1539 9.70077 17 9.89062 17Z" fill="#050F19"/>
</svg>
