<svg width="17" height="17" viewBox="0 0 17 17" fill="none" xmlns="http://www.w3.org/2000/svg">
<mask id="mask0" mask-type="alpha" maskUnits="userSpaceOnUse" x="0" y="0" width="17" height="17">
<circle cx="8.65309" cy="8.98291" r="8" fill="#DD2910"/>
</mask>
<g mask="url(#mask0)">
<path d="M28.0774 0.298391H-4.13114V17.2503H28.0774V0.298391Z" fill="#B22234"/>
<path d="M-4.13117 2.25438H28.0774H-4.13117ZM28.0774 4.86236H-4.13117H28.0774ZM-4.13117 7.47034H28.0774H-4.13117ZM28.0774 10.0783H-4.13117H28.0774ZM-4.13117 12.6863H28.0774H-4.13117ZM28.0774 15.2943H-4.13117Z" fill="black"/>
<path d="M28.0774 15.2943H-4.13117M-4.13117 2.25438H28.0774H-4.13117ZM28.0774 4.86236H-4.13117H28.0774ZM-4.13117 7.47034H28.0774H-4.13117ZM28.0774 10.0783H-4.13117H28.0774ZM-4.13117 12.6863H28.0774H-4.13117Z" stroke="white" stroke-width="1.30399"/>
<path d="M8.75228 0.298391H-4.13114V9.42632H8.75228V0.298391Z" fill="#3C3B6E"/>
<path d="M1.20624 0.689592L1.51283 1.63317L0.710173 1.05001H1.70231L0.899653 1.63317L1.20624 0.689592Z" fill="white"/>
<path d="M2.17119 1.75886L2.47777 2.70244L1.67512 2.11928H2.66726L1.8646 2.70244L2.17119 1.75886Z" fill="white"/>
<path d="M3.33814 0.689592L3.64472 1.63317L2.84207 1.05001H3.8342L3.03155 1.63317L3.33814 0.689592Z" fill="white"/>
<path d="M4.30308 1.75886L4.60966 2.70244L3.80701 2.11928H4.79914L3.99649 2.70244L4.30308 1.75886Z" fill="white"/>
<path d="M5.47003 0.689592L5.77662 1.63317L4.97396 1.05001H5.9661L5.16345 1.63317L5.47003 0.689592Z" fill="white"/>
<path d="M6.43498 1.75886L6.74157 2.70244L5.93891 2.11928H6.93105L6.12839 2.70244L6.43498 1.75886Z" fill="white"/>
<path d="M7.60193 0.689592L7.90851 1.63317L7.10586 1.05001H8.098L7.29534 1.63317L7.60193 0.689592Z" fill="white"/>
<path d="M1.20624 2.77596L1.51283 3.71954L0.710173 3.13638H1.70231L0.899653 3.71954L1.20624 2.77596Z" fill="white"/>
<path d="M2.17119 3.84524L2.47777 4.78881L1.67512 4.20565H2.66726L1.8646 4.78881L2.17119 3.84524Z" fill="white"/>
<path d="M3.33814 2.77596L3.64472 3.71954L2.84207 3.13638H3.8342L3.03155 3.71954L3.33814 2.77596Z" fill="white"/>
<path d="M4.30308 3.84524L4.60966 4.78881L3.80701 4.20565H4.79914L3.99649 4.78881L4.30308 3.84524Z" fill="white"/>
<path d="M5.47003 2.77596L5.77662 3.71954L4.97396 3.13638H5.9661L5.16345 3.71954L5.47003 2.77596Z" fill="white"/>
<path d="M6.43498 3.84524L6.74157 4.78881L5.93891 4.20565H6.93105L6.12839 4.78881L6.43498 3.84524Z" fill="white"/>
<path d="M7.60193 2.77596L7.90851 3.71954L7.10586 3.13638H8.098L7.29534 3.71954L7.60193 2.77596Z" fill="white"/>
<path d="M1.20624 4.86236L1.51283 5.80594L0.710173 5.22278H1.70231L0.899653 5.80594L1.20624 4.86236Z" fill="white"/>
<path d="M2.17119 5.93163L2.47777 6.8752L1.67512 6.29204H2.66726L1.8646 6.8752L2.17119 5.93163Z" fill="white"/>
<path d="M3.33814 4.86236L3.64472 5.80594L2.84207 5.22278H3.8342L3.03155 5.80594L3.33814 4.86236Z" fill="white"/>
<path d="M4.30308 5.93163L4.60966 6.8752L3.80701 6.29204H4.79914L3.99649 6.8752L4.30308 5.93163Z" fill="white"/>
<path d="M5.47003 4.86236L5.77662 5.80594L4.97396 5.22278H5.9661L5.16345 5.80594L5.47003 4.86236Z" fill="white"/>
<path d="M6.43498 5.93163L6.74157 6.8752L5.93891 6.29204H6.93105L6.12839 6.8752L6.43498 5.93163Z" fill="white"/>
<path d="M7.60193 4.86236L7.90851 5.80594L7.10586 5.22278H8.098L7.29534 5.80594L7.60193 4.86236Z" fill="white"/>
<path d="M1.20624 6.94874L1.51283 7.89232L0.710173 7.30916H1.70231L0.899653 7.89232L1.20624 6.94874Z" fill="white"/>
<path d="M2.17119 8.01801L2.47777 8.96159L1.67512 8.37843H2.66726L1.8646 8.96159L2.17119 8.01801Z" fill="white"/>
<path d="M3.33814 6.94874L3.64472 7.89232L2.84207 7.30916H3.8342L3.03155 7.89232L3.33814 6.94874Z" fill="white"/>
<path d="M4.30308 8.01801L4.60966 8.96159L3.80701 8.37843H4.79914L3.99649 8.96159L4.30308 8.01801Z" fill="white"/>
<path d="M5.47003 6.94874L5.77662 7.89232L4.97396 7.30916H5.9661L5.16345 7.89232L5.47003 6.94874Z" fill="white"/>
<path d="M6.43498 8.01801L6.74157 8.96159L5.93891 8.37843H6.93105L6.12839 8.96159L6.43498 8.01801Z" fill="white"/>
<path d="M7.60193 6.94874L7.90851 7.89232L7.10586 7.30916H8.098L7.29534 7.89232L7.60193 6.94874Z" fill="white"/>
</g>
</svg>
