<svg width="96" height="96" viewBox="0 0 96 96" fill="none" xmlns="http://www.w3.org/2000/svg">
<circle cx="48" cy="48" r="46.5" fill="#F9FAFB" stroke="url(#paint0_linear)" stroke-width="3"/>
<mask id="mask0" mask-type="alpha" maskUnits="userSpaceOnUse" x="0" y="0" width="96" height="96">
<circle cx="48" cy="48" r="48" fill="#F9FAFB"/>
</mask>
<g mask="url(#mask0)">
<path opacity="0.18" d="M122 -19H-11V135H122V-19Z" fill="url(#paint1_radial)"/>
</g>
<path d="M40.09 26.7541C39.3905 26.6456 39.361 26.6329 39.6902 26.5823C40.3211 26.4853 41.8108 26.6175 42.8373 26.8616C45.2336 27.4313 47.4142 28.8905 49.7419 31.4822L50.3604 32.1707L51.2451 32.0284C54.972 31.4295 58.7632 31.9055 61.9345 33.3705C62.8068 33.7735 64.1823 34.5757 64.3542 34.7819C64.4087 34.8476 64.5094 35.2705 64.5773 35.7218C64.8131 37.2831 64.695 38.4799 64.2177 39.3738C63.9578 39.8603 63.9431 40.0145 64.1177 40.4306C64.2575 40.7627 64.6462 41.0086 65.0312 41.0083C65.8193 41.0073 66.6675 39.7332 67.0606 37.9607L67.2164 37.2566L67.5259 37.6069C69.2221 39.5288 70.5547 42.1499 70.7835 44.0153L70.843 44.502L70.558 44.0598C70.067 43.2989 69.5739 42.7807 68.9428 42.3629C67.8045 41.61 66.6013 41.3534 63.4139 41.1855C60.5356 41.034 58.9067 40.7882 57.2911 40.2613C54.5429 39.3653 53.1574 38.1719 49.8924 33.8886C48.4424 31.986 47.5463 30.9334 46.6545 30.0857C44.6289 28.1595 42.6383 27.1494 40.09 26.7541Z" fill="#FF007A"/>
<path d="M65.0034 31.0021C65.0756 29.7272 65.2485 28.8863 65.5961 28.1184C65.7336 27.8145 65.8627 27.5657 65.8824 27.5657C65.9025 27.5657 65.8426 27.7901 65.7496 28.0642C65.4967 28.8095 65.4553 29.8288 65.6295 31.0149C65.8503 32.5197 65.9761 32.7368 67.5666 34.3623C68.3125 35.1248 69.1802 36.0864 69.4949 36.4992L70.0669 37.2499L69.4949 36.7134C68.7955 36.0574 67.1869 34.7779 66.8314 34.595C66.5932 34.4723 66.5577 34.4745 66.4109 34.6207C66.2754 34.7555 66.247 34.958 66.2279 35.9155C66.1988 37.4078 65.9955 38.3656 65.5044 39.3233C65.2392 39.8413 65.197 39.7306 65.4375 39.1461C65.6168 38.7095 65.6352 38.5176 65.6339 37.073C65.6309 34.1705 65.2863 33.4727 63.2657 32.2773C62.7536 31.9745 61.91 31.5378 61.3912 31.3068C60.8721 31.0758 60.46 30.8746 60.475 30.8596C60.5322 30.8026 62.503 31.3778 63.2961 31.6829C64.4759 32.1368 64.6709 32.1956 64.814 32.1409C64.91 32.1042 64.9565 31.8244 65.0034 31.0021Z" fill="#FF007A"/>
<path d="M41.4488 35.9673C40.0286 34.0121 39.15 31.0144 39.3402 28.7735L39.399 28.0801L39.7223 28.139C40.3294 28.2498 41.3762 28.6393 41.8662 28.937C43.2112 29.7539 43.7932 30.8293 44.3856 33.5909C44.5592 34.3997 44.787 35.3151 44.8917 35.625C45.0603 36.1238 45.6975 37.2889 46.2156 38.0456C46.5889 38.5906 46.341 38.8488 45.5162 38.7744C44.2562 38.6606 42.5496 37.4829 41.4488 35.9673Z" fill="#FF007A"/>
<path d="M63.2809 50.5186C56.6442 47.8466 54.3068 45.5269 54.3068 41.6134C54.3068 41.0377 54.3265 40.5664 54.3506 40.5664C54.3747 40.5664 54.6316 40.7564 54.9212 40.9889C56.2669 42.0683 57.7741 42.5292 61.9462 43.138C64.4011 43.4959 65.7825 43.7852 67.0573 44.208C71.108 45.5513 73.614 48.2778 74.2117 51.991C74.3853 53.0701 74.2836 55.0934 74.002 56.1598C73.7796 57.002 73.1012 58.5203 72.9216 58.5785C72.8717 58.5949 72.8226 58.4035 72.8099 58.1433C72.7416 56.7491 72.0369 55.3914 70.8538 54.3746C69.5081 53.2186 67.7005 52.298 63.2809 50.5186Z" fill="#FF007A"/>
<path d="M58.6217 51.6287C58.5384 51.134 58.3942 50.5018 58.3012 50.2245L58.1316 49.7197L58.4464 50.073C58.8816 50.5613 59.2254 51.1865 59.5171 52.0194C59.7395 52.6549 59.7646 52.8439 59.7629 53.8765C59.7613 54.8903 59.7335 55.103 59.5278 55.675C59.204 56.5772 58.8019 57.2167 58.1273 57.9031C56.9151 59.137 55.3563 59.8201 53.1072 60.1034C52.7162 60.1525 51.5766 60.2355 50.5748 60.2877C48.05 60.4191 46.3883 60.6904 44.8954 61.2146C44.6807 61.2898 44.489 61.3356 44.4696 61.3162C44.4091 61.2564 45.4256 60.6503 46.2655 60.2459C47.4493 59.6756 48.628 59.3641 51.2685 58.9246C52.573 58.7072 53.92 58.4436 54.2622 58.3386C57.4924 57.3482 59.1532 54.7923 58.6217 51.6287Z" fill="#FF007A"/>
<path d="M61.6638 57.0319C60.7821 55.1363 60.5797 53.3063 61.0627 51.5994C61.1142 51.4171 61.1975 51.2676 61.2473 51.2676C61.2975 51.2676 61.5056 51.3803 61.7099 51.5178C62.116 51.7911 62.9312 52.252 65.1024 53.4358C67.8114 54.9129 69.3561 56.0565 70.4067 57.3634C71.3266 58.508 71.8959 59.8112 72.1698 61.4007C72.325 62.3011 72.2341 64.4673 72.0033 65.3741C71.2747 68.2327 69.5819 70.4778 67.1672 71.7883C66.8133 71.98 66.4955 72.1375 66.4614 72.1385C66.4269 72.1392 66.5557 71.8114 66.7477 71.41C67.5602 69.7118 67.6525 68.0601 67.0384 66.2217C66.6624 65.0962 65.8958 63.7224 64.3477 61.401C62.5478 58.702 62.1066 57.9838 61.6638 57.0319Z" fill="#FF007A"/>
<path d="M36.7357 67.2592C39.1985 65.1796 42.2629 63.7025 45.0543 63.2489C46.2571 63.0536 48.2614 63.1312 49.3752 63.4162C51.1608 63.8731 52.758 64.8966 53.5888 66.1162C54.4006 67.308 54.7489 68.3466 55.1114 70.6573C55.2546 71.5688 55.4101 72.4843 55.4573 72.6913C55.7296 73.8891 56.2594 74.8464 56.9164 75.3271C57.9593 76.0904 59.7555 76.1379 61.5223 75.4489C61.822 75.3318 62.0826 75.2508 62.1007 75.2692C62.1649 75.3328 61.2751 75.9282 60.6476 76.242C59.803 76.6637 59.1314 76.827 58.2389 76.827C56.6207 76.827 55.2774 76.0038 54.1561 74.325C53.9357 73.9948 53.44 73.0054 53.0543 72.1264C51.8709 69.4267 51.2862 68.6045 49.9121 67.7044C48.716 66.9213 47.1736 66.7808 46.0133 67.3498C44.489 68.0971 44.0638 70.0448 45.1556 71.2794C45.5895 71.7698 46.3986 72.1929 47.0602 72.2752C48.2978 72.4294 49.3615 71.4878 49.3615 70.2381C49.3615 69.4267 49.0498 68.9637 48.2644 68.6092C47.1923 68.1255 46.0397 68.6911 46.045 69.6983C46.0474 70.1278 46.2347 70.3977 46.6652 70.5924C46.9415 70.7175 46.9478 70.7275 46.7224 70.6807C45.7386 70.4766 45.5082 69.2905 46.2992 68.5031C47.2489 67.5579 49.213 67.975 49.8873 69.2651C50.1707 69.807 50.2034 70.8864 49.9566 71.5383C49.4037 72.997 47.7918 73.7644 46.1564 73.3469C45.0432 73.0626 44.5897 72.7549 43.2473 71.3721C40.915 68.9694 40.0095 68.5038 36.6468 67.979L36.0024 67.8783L36.7357 67.2592Z" fill="#FF007A"/>
<path fill-rule="evenodd" clip-rule="evenodd" d="M23.1472 20.4371C30.9366 29.8912 38.9457 37.6107 39.5419 38.4348C40.0341 39.1153 39.8489 39.7271 39.0056 40.2064C38.5366 40.473 37.5724 40.7432 37.0897 40.7432C36.5437 40.7432 35.9286 40.4803 35.4807 40.0552C35.1641 39.7552 33.8863 37.8469 30.9364 33.2699C28.6794 29.7677 26.7905 26.8624 26.739 26.8138C26.6198 26.7013 26.6219 26.705 30.7063 34.0132C33.271 38.6021 34.1368 40.2245 34.1368 40.4415C34.1368 40.8827 34.0163 41.1149 33.4719 41.722C32.5644 42.7345 32.1587 43.8721 31.8658 46.2266C31.5375 48.8657 30.6143 50.7298 28.0559 53.9206C26.5582 55.7884 26.3132 56.1309 25.9353 56.8835C25.4593 57.8318 25.3285 58.3626 25.2754 59.5598C25.2193 60.8255 25.3285 61.643 25.7152 62.8532C26.0538 63.9125 26.4071 64.6123 27.3105 66.0115C28.0901 67.219 28.539 68.1161 28.539 68.4673C28.539 68.7466 28.5923 68.7469 29.8003 68.474C32.6914 67.8214 35.0389 66.6731 36.3592 65.2659C37.1763 64.3949 37.3681 63.9142 37.3743 62.7204C37.3784 61.94 37.3509 61.7764 37.1399 61.3272C36.7964 60.5964 36.171 59.9886 34.7928 59.0463C32.9868 57.8117 32.2155 56.8179 32.0024 55.4512C31.8276 54.3297 32.0304 53.5382 33.0295 51.4443C34.0635 49.2771 34.3198 48.3533 34.4931 46.1687C34.6051 44.7575 34.7602 44.2006 35.1657 43.754C35.5886 43.2881 35.9693 43.1302 37.016 42.9874C38.7225 42.7542 39.8091 42.3127 40.7022 41.4895C41.4772 40.7757 41.8013 40.0876 41.8511 39.052L41.8889 38.267L41.4558 37.7622C39.8878 35.9339 22.0971 19 22.0006 19C21.98 19 22.496 19.6467 23.1472 20.4371ZM29.4192 60.9917C29.7737 60.3639 29.5853 59.5568 28.9923 59.1627C28.432 58.7901 27.5616 58.9654 27.5616 59.4511C27.5616 59.5992 27.6435 59.7069 27.8281 59.8019C28.1391 59.9618 28.1616 60.1418 27.917 60.5094C27.6693 60.882 27.6893 61.2092 27.9734 61.4316C28.4314 61.7902 29.0796 61.5932 29.4192 60.9917Z" fill="#FF007A"/>
<path fill-rule="evenodd" clip-rule="evenodd" d="M42.9658 43.3992C42.1647 43.645 41.386 44.494 41.1449 45.3844C40.9978 45.9276 41.0813 46.8802 41.3017 47.1742C41.6576 47.6496 42.0014 47.7747 42.9333 47.7683C44.7576 47.7556 46.3438 46.9732 46.5281 45.9948C46.6793 45.193 45.9825 44.0819 45.0232 43.5942C44.5282 43.3426 43.4752 43.2426 42.9658 43.3992ZM45.0985 45.0666C45.3798 44.6669 45.2567 44.2347 44.7784 43.9427C43.8669 43.3861 42.4891 43.8467 42.4891 44.7074C42.4891 45.1358 43.2076 45.6035 43.8662 45.6035C44.3047 45.6035 44.9048 45.3419 45.0985 45.0666Z" fill="#FF007A"/>
<defs>
<linearGradient id="paint0_linear" x1="81" y1="78.5" x2="21.5" y2="12" gradientUnits="userSpaceOnUse">
<stop stop-color="#FCC0DB"/>
<stop offset="1" stop-color="#FAF0F5"/>
</linearGradient>
<radialGradient id="paint1_radial" cx="0" cy="0" r="1" gradientUnits="userSpaceOnUse" gradientTransform="translate(55.4998 58.0001) rotate(90) scale(77.0002 66.4998)">
<stop stop-color="#FF64A5"/>
<stop offset="1" stop-color="#F7F8FA"/>
</radialGradient>
</defs>
</svg>
