<svg width="35" height="40" viewBox="0 0 35 40" fill="none" xmlns="http://www.w3.org/2000/svg">
<rect width="35" height="40" fill="white"/>
<path d="M34.8796 10.1468C34.8796 10.128 34.8702 10.1093 34.8702 10.0905C34.8326 9.9871 34.7668 9.90254 34.6729 9.83676L34.6635 9.82737L17.7502 0.0646455C17.6093 -0.0199209 17.4213 -0.0199209 17.2804 0.0646455L0.367103 9.82737L0.357706 9.83676C0.263744 9.89314 0.19797 9.9871 0.160385 10.0905C0.150988 10.1093 0.150988 10.128 0.150988 10.1468C0.113403 10.175 0.113403 10.2126 0.113403 10.2408V29.7662C0.113403 29.9354 0.207366 30.0857 0.34831 30.1703L17.2616 39.933C17.3274 39.9706 17.4119 39.9988 17.4965 39.9988C17.5811 39.9988 17.6656 39.9706 17.7314 39.933L34.6447 30.1703C34.7856 30.0857 34.8796 29.9354 34.8796 29.7662V10.2408C34.889 10.2126 34.889 10.175 34.8796 10.1468ZM33.9494 29.5031L17.9757 38.7303V20.821L26.8646 25.9514C27.0901 26.0829 27.372 26.0077 27.5035 25.7822C27.6351 25.5567 27.5599 25.2748 27.3344 25.1433L17.7502 19.6089C17.6844 19.5713 17.5999 19.5431 17.5153 19.5431C17.5059 19.5431 17.5059 19.5431 17.4965 19.5431C17.4119 19.5431 17.3368 19.5713 17.2616 19.6089L7.6774 25.1433C7.45189 25.2748 7.37672 25.5567 7.50826 25.7822C7.63042 26.0077 7.9123 26.0735 8.13781 25.9514L17.0267 20.821V38.7303L1.05303 29.5031V11.0489L13.5031 18.237C13.7286 18.3686 14.0199 18.2934 14.142 18.0679C14.2736 17.8424 14.1984 17.5605 13.9729 17.4289L1.52284 10.2314L17.4965 1.00427L33.4701 10.2314L21.0201 17.4195C20.7946 17.5511 20.7194 17.833 20.851 18.0585C20.9825 18.284 21.2644 18.3592 21.4899 18.2276L33.94 11.0395V29.5031H33.9494Z" fill="url(#paint0_linear)"/>
<defs>
<linearGradient id="paint0_linear" x1="17.5012" y1="-5.52322" x2="17.5012" y2="57.7574" gradientUnits="userSpaceOnUse">
<stop stop-color="#40DCAF"/>
<stop offset="1" stop-color="#9489FE"/>
</linearGradient>
</defs>
</svg>
