<svg width="29" height="40" viewBox="0 0 29 40" fill="none" xmlns="http://www.w3.org/2000/svg">
<rect width="29" height="40" fill="white"/>
<path d="M28.6946 21.8546C28.6858 21.8546 28.6858 21.8546 28.6946 21.8546C28.6946 21.8458 28.6858 21.837 28.6858 21.8282C28.6858 21.8195 28.677 21.8107 28.677 21.8107L14.8758 0.192051C14.7179 -0.0623893 14.2968 -0.0623893 14.1388 0.192051L0.337651 21.8107C0.337651 21.8195 0.328877 21.8195 0.328877 21.8282C0.320103 21.837 0.320103 21.8458 0.31133 21.8633C0.267461 21.9511 0.258687 22.0476 0.276234 22.1353C0.285008 22.1704 0.293782 22.1967 0.302556 22.2318C0.320103 22.2669 0.337651 22.302 0.363972 22.3371L14.1564 39.8321C14.1652 39.8409 14.1739 39.8496 14.1739 39.8584C14.1827 39.8759 14.2003 39.8847 14.209 39.8935C14.288 39.9637 14.3845 39.9988 14.4898 39.9988C14.6038 39.9988 14.7091 39.9549 14.7881 39.8759C14.7969 39.8672 14.8144 39.8496 14.8232 39.8321L28.6068 22.3283C28.6332 22.302 28.6507 22.2669 28.6682 22.2318C28.6858 22.1967 28.6946 22.1616 28.7033 22.1353C28.7472 22.0388 28.7384 21.9423 28.6946 21.8546ZM14.0599 1.92926V15.7831L5.26853 19.5909C5.04918 19.6874 4.9439 19.9419 5.04041 20.17C5.13692 20.3893 5.39136 20.4946 5.61948 20.3981L14.0599 16.7394V29.0403L1.32909 21.8984L14.0599 1.92926ZM14.9373 38.2967V32.6025C14.9373 32.3568 14.7442 32.1638 14.4986 32.1638C14.2529 32.1638 14.0599 32.3568 14.0599 32.6025V38.2967L2.41704 23.5128L14.2792 30.1721C14.3406 30.2072 14.4108 30.2335 14.4898 30.2335C14.4986 30.2335 14.4986 30.2335 14.5073 30.2335C14.5863 30.2335 14.6565 30.2072 14.7179 30.1721L26.5889 23.5128L14.9373 38.2967ZM14.9373 29.0403V16.7307L23.3776 20.3893C23.597 20.4858 23.8602 20.3806 23.9567 20.1612C24.0532 19.9419 23.9479 19.6787 23.7286 19.5821L14.9373 15.7655V1.92926L27.6768 21.8984L14.9373 29.0403Z" fill="url(#paint0_linear)"/>
<defs>
<linearGradient id="paint0_linear" x1="14.5018" y1="-2.45158" x2="14.5018" y2="52.8265" gradientUnits="userSpaceOnUse">
<stop stop-color="#40DCAF"/>
<stop offset="1" stop-color="#9489FE"/>
</linearGradient>
</defs>
</svg>
