<svg width="12" height="12" viewBox="0 0 12 12" fill="none" xmlns="http://www.w3.org/2000/svg">
<circle cx="6.00033" cy="6.00033" r="6.00033" fill="white"/>
<path d="M6.00018 6.78162C7.15393 6.78162 8.08923 5.84632 8.08923 4.69257C8.08923 3.53882 7.15393 2.60352 6.00018 2.60352C4.84643 2.60352 3.91113 3.53882 3.91113 4.69257C3.91113 5.84632 4.84643 6.78162 6.00018 6.78162Z" fill="#AAB8C1"/>
<path d="M2.83594 9.31755V11.1211C2.83594 11.3545 2.96007 11.5782 3.18101 11.7433C3.40196 11.9083 3.70163 12.001 4.0141 12.001H7.98605C8.29852 12.001 8.59819 11.9083 8.81914 11.7433C9.04009 11.5782 9.16422 11.3545 9.16422 11.1211V9.31755C9.16422 8.8389 8.90968 8.37984 8.45658 8.0413C8.00348 7.70275 7.3889 7.51244 6.74796 7.51221H5.25219C4.61125 7.51244 3.99667 7.70275 3.54357 8.0413C3.09047 8.37984 2.83594 8.8389 2.83594 9.31755V9.31755Z" fill="#AAB8C1"/>
</svg>
