<svg width="40" height="40" viewBox="0 0 40 40" fill="none" xmlns="http://www.w3.org/2000/svg">
<rect width="40" height="40" fill="white"/>
<path d="M5.37677 16.0825C6.06077 13.5227 7.41843 11.1805 9.29427 9.29427C12.1547 6.43387 15.9582 4.85858 20 4.85858C24.0419 4.85858 27.8454 6.43387 30.7058 9.29427C32.592 11.1805 33.9393 13.5227 34.6233 16.0825C34.6958 16.3624 34.53 16.6422 34.2606 16.7147C34.2191 16.7251 34.1673 16.7354 34.1258 16.7354C33.8978 16.7354 33.6906 16.58 33.6284 16.352C32.9962 13.9683 31.7318 11.7816 29.9803 10.0301C27.3168 7.36661 23.7724 5.89495 20.0104 5.89495C16.2483 5.89495 12.7039 7.36661 10.0405 10.0301C8.28898 11.7816 7.0246 13.9683 6.39241 16.352C6.31987 16.6318 6.02968 16.7976 5.76022 16.7147C5.47004 16.6422 5.30422 16.3624 5.37677 16.0825ZM39.7534 20C39.7534 25.2752 37.7013 30.2394 33.9704 33.9704C30.2394 37.7013 25.2752 39.7534 20 39.7534C14.7249 39.7534 9.76064 37.7013 6.02968 33.9704C2.29873 30.2394 0.246704 25.2752 0.246704 20C0.246704 14.7249 2.29873 9.76064 6.02968 6.02968C9.76064 2.29873 14.7249 0.246704 20 0.246704C25.2752 0.246704 30.2394 2.29873 33.9704 6.02968C37.7013 9.76064 39.7534 14.7249 39.7534 20ZM38.717 20C38.717 15.0047 36.7686 10.2996 33.2346 6.76551C29.7005 3.23147 25.0057 1.28308 20 1.28308C14.9943 1.28308 10.2996 3.23147 6.76551 6.76551C3.23147 10.2996 1.28308 15.0047 1.28308 20C1.28308 24.9954 3.23147 29.7005 6.76551 33.2346C10.2996 36.7686 15.0047 38.717 20 38.717C24.9954 38.717 29.7005 36.7686 33.2346 33.2346C36.7686 29.7005 38.717 25.0057 38.717 20ZM34.2606 23.2853C33.9911 23.2128 33.7009 23.3786 33.6284 23.6481C32.9962 26.0317 31.7318 28.2185 29.9803 29.97C27.3168 32.6335 23.7724 34.1051 20.0104 34.1051C16.2483 34.1051 12.7039 32.6335 10.0405 29.97C8.25789 28.1874 6.98315 25.9592 6.36132 23.5341C6.28878 23.2543 6.00895 23.0884 5.72913 23.161C5.44931 23.2335 5.28349 23.5133 5.35604 23.7932C6.02968 26.3945 7.3977 28.7885 9.30463 30.6954C12.165 33.5558 15.9685 35.1311 20.0104 35.1311C24.0523 35.1311 27.8558 33.5558 30.7162 30.6954C32.6024 28.8092 33.9497 26.467 34.6337 23.9072C34.7062 23.6481 34.5404 23.3579 34.2606 23.2853Z" fill="url(#paint0_linear)"/>
<defs>
<linearGradient id="paint0_linear" x1="20.0026" y1="-0.721478" x2="20.0026" y2="62.9287" gradientUnits="userSpaceOnUse">
<stop stop-color="#40DCAF"/>
<stop offset="1" stop-color="#9489FE"/>
</linearGradient>
</defs>
</svg>
