<svg xmlns="http://www.w3.org/2000/svg" viewBox="23.709999999999994 130.91950170898437 527.5800170898438 313.16149813842776"><rect height="100%" width="100%" x="23.709999999999994" y="130.91950170898437" fill="rgba(166, 166, 166, 1)"/> <svg xmlns="http://www.w3.org/2000/svg" xmlns:xlink="http://www.w3.org/1999/xlink" version="1.1" id="Layer_1" x="219.011" y="200.91950170898437" viewBox="176.77999877929688 177 1646.43994140625 1646" xml:space="preserve" height="136.94196038647374" width="136.9785323637713" preserveAspectRatio="xMinYMin" enable-background="new 0 0 2000 2000" fill="#000000" style="overflow: visible;"><rect class="st0" width="2000" height="2000" style="display: none; fill: #000000;"></rect><path class="st1" d="M1823.22,1018.32l-141.75-35.76l-370.72-93.77l-19.63,32.28l239.44,60.62h-307.99h-58.8l175.76-296.58  l36.64-61.06l-61.06,36.2l-221.56,131.28v42.31l178.82-105.98l-150.7,253.83h-103.52V777.44h-0.04V341.69  c174.99,4.76,332.42,77.45,447.48,192.51c105.98,105.55,175.77,246.86,190.16,404.3l37.51,9.6  c-12.65-171.4-87.66-325.36-201.93-439.63c-121.61-121.61-288.19-198.65-473.21-203.44V177l-35.76,141.75l-93.77,370.72l32.71,19.19  l60.62-239.44v308.22h-0.1v58.95L684.89,660.25l-61.06-36.2l36.2,61.06l131.71,221.56h41.87L727.63,727.85l254.17,150.9v102.93  h-81.89h-31.84h-90.72H341.47c4.77-174.6,77.45-332.42,192.51-447.48c105.98-105.55,247.29-175.33,404.3-190.16l9.6-37.07  c-170.97,12.65-324.92,87.23-439.63,201.5c-121.6,122.02-198.23,288.6-203,473.21H176.78l141.75,35.76l370.72,94.21l19.63-32.71  l-239.44-60.62h366.79l-176.2,296.58l-36.2,61.06l61.06-36.2l221.56-131.28v-42.31l-178.82,105.98l150.87-254.13h103.3v204.64h0.1  v436.1c-174.75-4.69-332.34-77.81-447.92-192.96c-105.55-105.55-175.33-246.86-189.72-404.3l-37.51-9.6  c12.65,171.4,87.23,325.36,201.5,439.63c122.12,121.7,288.86,198.77,473.65,203.45V1823l35.76-141.75l93.77-370.72l-32.71-19.19  l-60.62,239.44v-308.12h0.04v-58.65l296.97,175.74l61.06,36.2l-36.64-61.06l-131.28-221.12h-41.87l105.98,178.38l-254.23-150.51  v-103.61h82.12l-0.17,0.29h31.84h526.59c-4.77,174.61-77.47,332.43-192.95,447.48c-105.55,105.55-246.86,175.77-404.3,190.16  l-9.16,37.07c170.97-12.65,324.93-87.23,439.19-201.5c122.02-121.6,198.67-288.57,203.44-473.21H1823.22z" style="fill: #284389; fill-opacity: 1;"></path></svg> <svg y="350.921" viewBox="3.8400001525878906 6.659999847412109 387.58001708984375 23.15999984741211" x="93.71" height="23.15999984741211" width="387.58001708984375" style="overflow: visible;"><g fill="#284389" fill-opacity="1" style=""><path d="M18.30 29.44L3.84 29.44L3.84 7.04L6.75 7.04L6.75 27.68L18.30 27.68L18.30 29.44ZM24.38 18.24L24.38 18.24Q24.38 20.03 25.07 22.06Q25.76 24.10 27.23 25.82Q28.70 27.55 30.98 28.69Q33.25 29.82 36.42 29.82L36.42 29.82Q38.56 29.82 40.30 29.30Q42.05 28.77 43.44 27.87Q44.83 26.98 45.86 25.81Q46.88 24.64 47.54 23.34Q48.19 22.05 48.53 20.74Q48.86 19.42 48.86 18.24L48.86 18.24Q48.86 16.45 48.13 14.42Q47.39 12.38 45.86 10.66Q44.32 8.93 41.97 7.79Q39.62 6.66 36.42 6.66L36.42 6.66Q33.25 6.66 30.98 7.78Q28.70 8.90 27.23 10.61Q25.76 12.32 25.07 14.37Q24.38 16.42 24.38 18.24ZM27.52 18.24L27.52 18.24Q27.52 16 28.21 14.13Q28.90 12.26 30.10 10.91Q31.30 9.57 32.93 8.82Q34.56 8.06 36.48 8.06L36.48 8.06Q38.37 8.06 40.05 8.82Q41.73 9.57 42.99 10.91Q44.26 12.26 44.99 14.13Q45.73 16 45.73 18.24L45.73 18.24Q45.73 20.48 44.99 22.35Q44.26 24.22 42.99 25.57Q41.73 26.91 40.05 27.66Q38.37 28.42 36.48 28.42L36.48 28.42Q34.56 28.42 32.93 27.66Q31.30 26.91 30.10 25.57Q28.90 24.22 28.21 22.35Q27.52 20.48 27.52 18.24ZM65.89 29.44L58.14 29.44L58.14 7.04L65.50 7.04Q68.16 7.04 70.37 7.89Q72.58 8.74 74.16 10.22Q75.74 11.71 76.62 13.76Q77.50 15.81 77.50 18.18L77.50 18.18Q77.50 20.64 76.59 22.70Q75.68 24.77 74.10 26.27Q72.51 27.78 70.40 28.61Q68.29 29.44 65.89 29.44L65.89 29.44ZM61.06 8.45L61.06 28.03L64.58 28.03Q67.20 28.03 69.04 27.15Q70.88 26.27 72.06 24.86Q73.25 23.46 73.79 21.71Q74.34 19.97 74.34 18.24L74.34 18.24Q74.34 16.32 73.70 14.54Q73.06 12.77 71.82 11.41Q70.59 10.05 68.77 9.25Q66.94 8.45 64.58 8.45L64.58 8.45L61.06 8.45ZM100.29 7.04L85.82 7.04L85.82 29.44L100.29 29.44L100.29 27.68L88.74 27.68L88.74 18.30L98.66 18.30L98.66 16.83L88.74 16.83L88.74 8.80L100.29 8.80L100.29 7.04ZM108.13 23.78L105.95 23.78Q106.02 25.15 106.67 26.27Q107.33 27.39 108.46 28.18Q109.60 28.96 111.14 29.39Q112.67 29.82 114.50 29.82L114.50 29.82Q116.35 29.82 117.84 29.38Q119.33 28.93 120.38 28.10Q121.44 27.26 122.02 26.08Q122.59 24.90 122.59 23.46L122.59 23.46Q122.59 21.47 121.60 20.21Q120.61 18.94 119.12 18.10Q117.63 17.25 115.89 16.67Q114.14 16.10 112.66 15.46Q111.17 14.82 110.18 13.98Q109.18 13.15 109.18 11.78L109.18 11.78Q109.18 11.01 109.52 10.34Q109.86 9.66 110.51 9.17Q111.17 8.67 112.13 8.37Q113.09 8.06 114.34 8.06L114.34 8.06Q116.42 8.06 117.87 8.94Q119.33 9.82 119.58 11.71L119.58 11.71L121.76 11.71Q121.57 10.53 120.90 9.58Q120.22 8.64 119.20 7.98Q118.18 7.33 116.88 6.99Q115.58 6.66 114.18 6.66L114.18 6.66Q112.70 6.66 111.38 7.04Q110.05 7.42 109.04 8.16Q108.03 8.90 107.44 10.02Q106.85 11.14 106.85 12.58L106.85 12.58Q106.85 14.46 107.81 15.62Q108.77 16.77 110.22 17.54Q111.68 18.30 113.38 18.85Q115.07 19.39 116.53 20.08Q117.98 20.77 118.94 21.76Q119.90 22.75 119.90 24.42L119.90 24.42Q119.90 26.50 118.38 27.46Q116.86 28.42 114.34 28.42L114.34 28.42Q112.32 28.42 111.10 27.89Q109.89 27.36 109.25 26.62Q108.61 25.89 108.38 25.10Q108.16 24.32 108.13 23.78L108.13 23.78ZM137.50 29.44L140.42 29.44L140.42 8.80L148.99 8.80L148.99 7.04L128.93 7.04L128.93 8.80L137.50 8.80L137.50 29.44ZM154.56 22.85L165.60 22.85L168.67 29.44L171.78 29.44L161.34 7.04L159.74 7.04L150.27 29.44L151.74 29.44L154.56 22.85ZM159.90 10.62L164.93 21.41L155.17 21.41L159.78 10.62L159.90 10.62ZM187.36 7.04L180.10 7.04L180.10 29.44L183.01 29.44L183.01 19.55L184.42 19.55Q185.31 19.55 185.90 19.71Q186.50 19.87 186.98 20.26Q187.46 20.64 187.87 21.25Q188.29 21.86 188.86 22.75L188.86 22.75L191.39 26.50Q191.87 27.23 192.34 27.84Q192.80 28.45 193.34 28.88Q193.89 29.31 194.58 29.57Q195.26 29.82 196.22 29.82L196.22 29.82Q196.93 29.82 197.38 29.76Q197.82 29.70 198.27 29.44L198.27 29.44L198.27 28.26Q198.11 28.29 197.95 28.30Q197.79 28.32 197.63 28.32L197.63 28.32Q196.96 28.32 196.45 28.13Q195.94 27.94 195.49 27.57Q195.04 27.20 194.62 26.67Q194.21 26.14 193.76 25.47L193.76 25.47Q192.42 23.52 191.68 22.35Q190.94 21.18 190.51 20.54Q190.08 19.90 189.81 19.62Q189.54 19.33 189.15 19.14L189.15 19.14L188.83 18.98L188.83 18.85Q190.37 18.75 191.47 18.18Q192.58 17.60 193.28 16.74Q193.98 15.87 194.30 14.86Q194.62 13.86 194.62 12.90L194.62 12.90Q194.62 12.03 194.29 11.01Q193.95 9.98 193.14 9.10Q192.32 8.22 190.91 7.63Q189.50 7.04 187.36 7.04L187.36 7.04ZM183.01 18.11L183.01 8.45L186.24 8.45Q187.46 8.45 188.43 8.80Q189.41 9.15 190.11 9.78Q190.82 10.40 191.18 11.26Q191.55 12.13 191.55 13.15L191.55 13.15Q191.55 14.02 191.22 14.90Q190.88 15.78 190.21 16.50Q189.54 17.22 188.56 17.66Q187.58 18.11 186.30 18.11L186.30 18.11L183.01 18.11ZM235.78 7.04L221.31 7.04L221.31 29.44L224.22 29.44L224.22 18.30L234.14 18.30L234.14 16.83L224.22 16.83L224.22 8.80L235.78 8.80L235.78 7.04ZM248.29 7.04L245.38 7.04L245.38 29.44L248.29 29.44L248.29 7.04ZM280.29 7.04L278.82 7.04L278.82 24.16L278.69 24.16L260.93 6.66L260.77 6.66L260.77 29.44L262.24 29.44L262.24 12.32L262.37 12.32L280.13 29.82L280.29 29.82L280.29 7.04ZM292.90 22.85L303.94 22.85L307.01 29.44L310.11 29.44L299.68 7.04L298.08 7.04L288.61 29.44L290.08 29.44L292.90 22.85ZM298.24 10.62L303.26 21.41L293.50 21.41L298.11 10.62L298.24 10.62ZM337.95 7.04L336.48 7.04L336.48 24.16L336.35 24.16L318.59 6.66L318.43 6.66L318.43 29.44L319.90 29.44L319.90 12.32L320.03 12.32L337.79 29.82L337.95 29.82L337.95 7.04ZM368.96 26.18L368.00 25.31Q364.74 28.38 360.26 28.38L360.26 28.38Q357.76 28.38 355.84 27.52Q353.92 26.66 352.64 25.22Q351.36 23.78 350.70 21.89Q350.05 20 350.05 17.95L350.05 17.95Q350.05 15.78 350.74 13.97Q351.42 12.16 352.67 10.85Q353.92 9.54 355.63 8.80Q357.34 8.06 359.36 8.06L359.36 8.06Q360.74 8.06 361.87 8.38Q363.01 8.70 363.89 9.22Q364.77 9.73 365.33 10.38Q365.89 11.04 366.11 11.71L366.11 11.71L368.48 11.71Q368.00 10.62 367.25 9.70Q366.50 8.77 365.38 8.10Q364.26 7.42 362.75 7.04Q361.25 6.66 359.33 6.66L359.33 6.66Q356.54 6.66 354.26 7.46Q351.97 8.26 350.34 9.74Q348.70 11.23 347.81 13.33Q346.91 15.42 346.91 18.02L346.91 18.02Q346.91 20.26 347.63 22.38Q348.35 24.51 349.86 26.16Q351.36 27.81 353.70 28.82Q356.03 29.82 359.26 29.82L359.26 29.82Q361.31 29.82 362.93 29.44Q364.54 29.06 365.74 28.50Q366.94 27.94 367.74 27.30Q368.54 26.66 368.96 26.18L368.96 26.18ZM391.42 7.04L376.96 7.04L376.96 29.44L391.42 29.44L391.42 27.68L379.87 27.68L379.87 18.30L389.79 18.30L389.79 16.83L379.87 16.83L379.87 8.80L391.42 8.80L391.42 7.04Z" transform="translate(0, 0)"></path></g></svg></svg>