<svg width="1083" height="1467" viewBox="0 0 1083 1467" fill="none" xmlns="http://www.w3.org/2000/svg">
<g opacity="0.4">
<circle cx="1.5" cy="1.5" r="1.5" fill="white"/>
<circle cx="1.5" cy="184.5" r="1.5" fill="white"/>
<circle cx="1.5" cy="367.5" r="1.5" fill="white"/>
<circle cx="1.5" cy="550.5" r="1.5" fill="white"/>
<circle cx="1.5" cy="733.5" r="1.5" fill="white"/>
<circle cx="1.5" cy="916.5" r="1.5" fill="white"/>
<circle cx="1.5" cy="1099.5" r="1.5" fill="white"/>
<circle cx="1.5" cy="1282.5" r="1.5" fill="white"/>
<ellipse cx="1.5" cy="1424" rx="1.5" ry="2" fill="white"/>
</g>
<g opacity="0.4">
<circle cx="181.5" cy="1.5" r="1.5" fill="white"/>
<circle cx="181.5" cy="184.5" r="1.5" fill="white"/>
<circle cx="181.5" cy="367.5" r="1.5" fill="white"/>
<circle cx="181.5" cy="550.5" r="1.5" fill="white"/>
<circle cx="181.5" cy="733.5" r="1.5" fill="white"/>
<circle cx="181.5" cy="916.5" r="1.5" fill="white"/>
<circle cx="181.5" cy="1099.5" r="1.5" fill="white"/>
<circle cx="181.5" cy="1282.5" r="1.5" fill="white"/>
<circle cx="181.5" cy="1465.5" r="1.5" fill="white"/>
</g>
<g opacity="0.4">
<circle cx="361.5" cy="1.5" r="1.5" fill="white"/>
<circle cx="361.5" cy="184.5" r="1.5" fill="white"/>
<circle cx="361.5" cy="367.5" r="1.5" fill="white"/>
<circle cx="361.5" cy="550.5" r="1.5" fill="white"/>
<circle cx="361.5" cy="733.5" r="1.5" fill="white"/>
<circle cx="361.5" cy="916.5" r="1.5" fill="white"/>
<circle cx="361.5" cy="1099.5" r="1.5" fill="white"/>
<circle cx="361.5" cy="1282.5" r="1.5" fill="white"/>
<circle cx="361.5" cy="1465.5" r="1.5" fill="white"/>
</g>
<g opacity="0.4">
<circle cx="541.5" cy="1.5" r="1.5" fill="white"/>
<circle cx="541.5" cy="184.5" r="1.5" fill="white"/>
<circle cx="541.5" cy="367.5" r="1.5" fill="white"/>
<circle cx="541.5" cy="550.5" r="1.5" fill="white"/>
<circle cx="541.5" cy="733.5" r="1.5" fill="white"/>
<circle cx="541.5" cy="916.5" r="1.5" fill="white"/>
<circle cx="541.5" cy="1099.5" r="1.5" fill="white"/>
<circle cx="541.5" cy="1282.5" r="1.5" fill="white"/>
<circle cx="541.5" cy="1465.5" r="1.5" fill="white"/>
</g>
<g opacity="0.4">
<circle cx="721.5" cy="1.5" r="1.5" fill="white"/>
<circle cx="721.5" cy="184.5" r="1.5" fill="white"/>
<circle cx="721.5" cy="367.5" r="1.5" fill="white"/>
<circle cx="721.5" cy="550.5" r="1.5" fill="white"/>
<circle cx="721.5" cy="733.5" r="1.5" fill="white"/>
<circle cx="721.5" cy="916.5" r="1.5" fill="white"/>
<circle cx="721.5" cy="1099.5" r="1.5" fill="white"/>
<circle cx="721.5" cy="1282.5" r="1.5" fill="white"/>
<circle cx="721.5" cy="1465.5" r="1.5" fill="white"/>
</g>
<g opacity="0.2">
<circle cx="901.5" cy="1.5" r="1.5" fill="white"/>
<circle cx="901.5" cy="184.5" r="1.5" fill="white"/>
<circle cx="901.5" cy="367.5" r="1.5" fill="white"/>
<circle cx="901.5" cy="550.5" r="1.5" fill="white"/>
<circle cx="901.5" cy="733.5" r="1.5" fill="white"/>
<circle cx="901.5" cy="916.5" r="1.5" fill="white"/>
<circle cx="901.5" cy="1099.5" r="1.5" fill="white"/>
<circle cx="901.5" cy="1282.5" r="1.5" fill="white"/>
<circle cx="901.5" cy="1465.5" r="1.5" fill="white"/>
</g>
<g opacity="0.1">
<circle cx="1081.5" cy="1.5" r="1.5" fill="white"/>
<circle cx="1081.5" cy="184.5" r="1.5" fill="white"/>
<circle cx="1081.5" cy="367.5" r="1.5" fill="white"/>
<circle cx="1081.5" cy="550.5" r="1.5" fill="white"/>
<circle cx="1081.5" cy="733.5" r="1.5" fill="white"/>
<circle cx="1081.5" cy="916.5" r="1.5" fill="white"/>
<circle cx="1081.5" cy="1099.5" r="1.5" fill="white"/>
<circle cx="1081.5" cy="1282.5" r="1.5" fill="white"/>
<circle cx="1081.5" cy="1465.5" r="1.5" fill="white"/>
</g>
</svg>
