<svg width="39" height="40" viewBox="0 0 39 40" fill="none" xmlns="http://www.w3.org/2000/svg">
<path d="M5.56914 16.203C6.22914 13.733 7.53914 11.473 9.34914 9.65297C12.1091 6.89297 15.7791 5.37297 19.6791 5.37297C23.5791 5.37297 27.2491 6.89297 30.0091 9.65297C31.8291 11.473 33.1291 13.733 33.7891 16.203C33.8591 16.473 33.6991 16.743 33.4391 16.813C33.3991 16.823 33.3491 16.833 33.3091 16.833C33.0891 16.833 32.8891 16.683 32.8291 16.463C32.2191 14.163 30.9991 12.053 29.3091 10.363C26.7391 7.79297 23.3191 6.37297 19.6891 6.37297C16.0591 6.37297 12.6391 7.79297 10.0691 10.363C8.37914 12.053 7.15914 14.163 6.54914 16.463C6.47914 16.733 6.19914 16.893 5.93914 16.813C5.65914 16.743 5.49914 16.473 5.56914 16.203ZM38.7391 19.983C38.7391 25.073 36.7591 29.863 33.1591 33.463C29.5591 37.063 24.7691 39.043 19.6791 39.043C14.5891 39.043 9.79914 37.063 6.19914 33.463C2.59914 29.863 0.619141 25.073 0.619141 19.983C0.619141 14.893 2.59914 10.103 6.19914 6.50297C9.79914 2.90297 14.5891 0.922974 19.6791 0.922974C24.7691 0.922974 29.5591 2.90297 33.1591 6.50297C36.7591 10.103 38.7391 14.893 38.7391 19.983ZM37.7391 19.983C37.7391 15.163 35.8591 10.623 32.4491 7.21297C29.0391 3.80297 24.5091 1.92297 19.6791 1.92297C14.8491 1.92297 10.3191 3.80297 6.90914 7.21297C3.49914 10.623 1.61914 15.163 1.61914 19.983C1.61914 24.803 3.49914 29.343 6.90914 32.753C10.3191 36.163 14.8591 38.043 19.6791 38.043C24.4991 38.043 29.0391 36.163 32.4491 32.753C35.8591 29.343 37.7391 24.813 37.7391 19.983ZM33.4391 23.153C33.1791 23.083 32.8991 23.243 32.8291 23.503C32.2191 25.803 30.9991 27.913 29.3091 29.603C26.7391 32.173 23.3191 33.593 19.6891 33.593C16.0591 33.593 12.6391 32.173 10.0691 29.603C8.34914 27.883 7.11914 25.733 6.51914 23.393C6.44914 23.123 6.17914 22.963 5.90914 23.033C5.63914 23.103 5.47914 23.373 5.54914 23.643C6.19914 26.153 7.51914 28.463 9.35914 30.303C12.1191 33.063 15.7891 34.583 19.6891 34.583C23.5891 34.583 27.2591 33.063 30.0191 30.303C31.8391 28.483 33.1391 26.223 33.7991 23.753C33.8691 23.503 33.7091 23.223 33.4391 23.153Z" fill="url(#paint0_linear)"/>
<defs>
<linearGradient id="paint0_linear" x1="19.6816" y1="-0.0112264" x2="19.6816" y2="61.4049" gradientUnits="userSpaceOnUse">
<stop stop-color="#40DCAF"/>
<stop offset="1" stop-color="#9489FE"/>
</linearGradient>
</defs>
</svg>
