<svg width="96" height="96" viewBox="0 0 96 96" fill="none" xmlns="http://www.w3.org/2000/svg">
<mask id="mask0" mask-type="alpha" maskUnits="userSpaceOnUse" x="0" y="0" width="96" height="96">
<path d="M0 0H95.9999V96H0V0Z" fill="white"/>
</mask>
<g mask="url(#mask0)">
<path d="M81.941 14.0589L82.095 14.2133C82.1226 14.2409 82.1506 14.2685 82.1786 14.2961L82.4506 14.5769L82.4978 14.6249C100.684 33.4105 100.499 63.3833 81.941 81.9413C63.3674 100.514 33.3598 100.685 14.5766 82.4513C14.4822 82.3617 14.3886 82.2709 14.2962 82.1785L14.2134 82.0949C14.1618 82.0437 14.1102 81.9925 14.0586 81.9413C-4.6862 63.1957 -4.6862 32.8041 14.0586 14.0589C32.8038 -4.6863 63.1958 -4.6863 81.941 14.0589ZM62.4978 70.2909C53.527 78.2213 43.8282 83.5377 35.1982 85.7013C34.4162 85.8969 34.3698 86.9909 35.1358 87.2413C47.6466 91.3309 61.7246 89.2885 72.6694 81.1125C73.6834 80.3553 73.7898 78.8729 72.895 77.9777L65.2962 70.3793C64.5326 69.6157 63.3062 69.5757 62.4978 70.2909ZM46.6042 54.5965L22.8742 78.3265C22.4362 78.7645 22.6394 79.5173 23.2402 79.6669C26.3074 80.4309 30.3846 80.1841 35.2314 78.7301C42.4154 76.5753 50.2554 72.0353 57.5186 65.7269C58.4234 64.9417 58.4662 63.5489 57.619 62.7017L49.5142 54.5965C48.7106 53.7929 47.4078 53.7929 46.6042 54.5965ZM87.2454 35.1497C86.9966 34.3877 85.8974 34.4189 85.7014 35.1961C83.5274 43.8345 78.0374 53.8477 69.991 62.8353C69.2642 63.6489 69.301 64.8901 70.0726 65.6613L77.7034 73.2921C78.5842 74.1725 80.0394 74.0745 80.7978 73.0861C89.2322 62.0869 91.3818 47.8161 87.2454 35.1497ZM33.7662 38.8489C32.9226 38.0053 31.5362 38.0485 30.7534 38.9489C24.4422 46.2145 19.9002 54.0573 17.7442 61.2433C16.2946 66.0753 16.0454 70.1421 16.8006 73.2065C16.9482 73.8057 17.6986 74.0089 18.1346 73.5725L41.8526 49.8545C42.659 49.0481 42.6586 47.7413 41.8526 46.9353L33.7662 38.8489ZM14.891 23.3257C6.4882 34.5709 4.561 49.1249 9.1086 61.8881C9.3774 62.6421 10.4626 62.5705 10.6474 61.7913C12.7254 53.0357 18.0926 43.1313 26.1778 33.9837C26.8962 33.1709 26.8554 31.9385 26.0886 31.1717L18.0158 23.0989C17.1234 22.2065 15.6462 22.3145 14.891 23.3257ZM78.3302 22.8705L54.2678 46.9333C53.461 47.7405 53.461 49.0493 54.2678 49.8565L62.3958 57.9841C63.2358 58.8245 64.6158 58.7849 65.4006 57.8921C71.8786 50.5249 76.5378 42.5389 78.7302 35.2313C80.185 30.3821 80.4314 26.3033 79.6658 23.2353C79.5162 22.6362 78.7662 22.4341 78.3302 22.8705ZM61.2434 17.7445C53.9354 19.9369 45.9486 24.5969 38.5806 31.0757C37.689 31.8593 37.6494 33.2377 38.489 34.0773L46.6058 42.1941C47.4082 42.9969 48.7098 42.9969 49.5126 42.1941L73.5614 18.1461C74.0026 17.7049 73.7974 16.9453 73.191 16.7969C70.129 16.0461 66.067 16.2973 61.2434 17.7445ZM22.7082 18.2965L30.8158 26.4041C31.5854 27.1741 32.8242 27.2121 33.6362 26.4869C42.8866 18.2233 52.939 12.7437 61.811 10.6433C62.5858 10.4597 62.657 9.3801 61.907 9.1121C49.1502 4.5581 34.1702 6.5405 22.9146 15.1949C21.9246 15.9561 21.8254 17.4137 22.7082 18.2965Z" fill="white"/>
</g>
</svg>
