<svg width="96" height="96" viewBox="0 0 96 96" fill="none" xmlns="http://www.w3.org/2000/svg">
<path d="M48 95C57.2957 95 66.3827 92.2435 74.1118 87.0791C81.8409 81.9146 87.865 74.5743 91.4223 65.9861C94.9796 57.398 95.9104 47.9479 94.0969 38.8308C92.2834 29.7137 87.8071 21.3391 81.234 14.766C74.6609 8.19293 66.2863 3.71662 57.1692 1.90311C48.0521 0.0896077 38.602 1.02036 30.0139 4.57768C21.4257 8.135 14.0854 14.1591 8.92093 21.8882C3.7565 29.6173 1 38.7043 1 48C1 60.4652 5.95177 72.4198 14.766 81.234C23.5802 90.0482 35.5348 95 48 95Z" fill="white"/>
<path d="M58.7093 46.1431C61.2254 44.7812 62.7997 42.3828 62.432 38.3871C61.9368 32.9266 57.499 31.0956 51.897 30.5741L51.896 23H47.5555L47.5543 30.375C46.4123 30.375 45.2481 30.3988 44.0892 30.4235L44.0883 23.001L39.7517 23.0006L39.7509 30.5728C38.8111 30.5932 37.8881 30.6126 36.9869 30.6126V30.5902L31 30.5876L31.0008 35.5109C31.0008 35.5109 34.2062 35.4468 34.1534 35.509C35.9108 35.5103 36.4846 36.5946 36.6497 37.5305L36.651 46.159V58.2793C36.5736 58.8666 36.248 59.8051 35.0192 59.8068C35.0751 59.8591 31.8618 59.8063 31.8618 59.8063L31.0008 65.3115H36.6483C37.7007 65.3128 38.7346 65.3302 39.749 65.3388L39.7528 72.9987L44.0883 73L44.0871 65.4204C45.2798 65.4463 46.4312 65.4575 47.5558 65.4559L47.5545 73H51.8949L51.8973 65.3529C59.1932 64.9077 64.3009 62.9551 64.9359 55.6757C65.4477 49.8152 62.8515 47.1992 58.7093 46.1431ZM44.1929 35.8432C46.6409 35.8432 54.3397 35.015 54.3408 40.4479C54.3397 45.6565 46.6433 45.048 44.1929 45.048V35.8432ZM44.191 59.8442L44.1929 49.695C47.1341 49.6941 56.3592 48.7958 56.3604 54.7673C56.3616 60.4939 47.1341 59.8419 44.191 59.8442Z" fill="#F6941A"/>
<circle cx="48" cy="48" r="37" stroke="#657786" stroke-width="4"/>
<circle cx="48" cy="48" r="45" stroke="#283947" stroke-width="4"/>
<path d="M77.0648 79L63.6765 66.0483M27.4783 31.0308L16 20M19.0486 79L32.4369 66.0483M68.6351 31.0308L80 20" stroke="white" stroke-width="4"/>
</svg>
