<svg width="96" height="97" viewBox="0 0 96 97" fill="none" xmlns="http://www.w3.org/2000/svg">
<path d="M48 95.75C73.9574 95.75 95 74.7074 95 48.75C95 22.7926 73.9574 1.75 48 1.75C22.0426 1.75 1 22.7926 1 48.75C1 74.7074 22.0426 95.75 48 95.75Z" fill="#F9FAFB"/>
<path d="M25.2572 59.1042L31.3457 52.8046L23.7764 42.5903L14.1388 28.9534C10.734 34.7641 8.78192 41.528 8.78192 48.7491C8.78192 60.7117 14.1388 71.4218 22.5876 78.6149L34.8209 69.9694C30.6599 67.377 27.3078 63.6029 25.2572 59.1042Z" fill="black"/>
<path d="M37.6445 26.008L43.9441 32.0965L54.1585 24.5271L67.7953 14.8895C61.9846 11.4847 55.2207 9.53265 47.9996 9.53265C36.0371 9.53265 25.3267 14.8896 18.1337 23.3383L26.7794 35.5716C29.3716 31.4106 33.1458 28.0585 37.6445 26.008Z" fill="black"/>
<path d="M64.6552 44.6949L72.2248 54.9092L81.8619 68.546C85.2666 62.7353 87.2192 55.9715 87.2192 48.7503C87.2192 36.7878 81.8619 26.0775 73.4137 18.8845L61.1801 27.5301C65.3411 30.1224 68.6931 33.8965 70.7437 38.3953L64.6552 44.6949Z" fill="black"/>
<path d="M77.8656 74.1622L69.2201 61.9286C66.6278 66.0896 62.8537 69.4417 58.3549 71.4922L52.0553 65.4037L41.8409 72.9734L28.2042 82.6104C34.0148 86.0152 40.7787 87.9677 47.9999 87.9677C59.9624 87.9677 70.6725 82.6104 77.8656 74.1622Z" fill="black"/>
</svg>
