<svg xmlns="http://www.w3.org/2000/svg" xmlns:xlink="http://www.w3.org/1999/xlink" width="96px" height="96px" viewBox="0 0 128 96" version="1.1">
<g id="surface1">
<path style=" stroke:none;fill-rule:nonzero;fill:rgb(89.411765%,0%,23.529412%);fill-opacity:1;" d="M 56.027344 80.117188 C 55.925781 80.089844 55.84375 80.015625 55.808594 79.914062 C 42.535156 53.355469 29.265625 26.796875 16 0.234375 C 15.976562 0.195312 16.007812 0.128906 16.015625 0.0703125 C 16.0625 0.0429688 16.113281 0.0234375 16.167969 0.0117188 C 26.804688 0.0117188 37.445312 0.0117188 48.082031 0.0117188 C 48.144531 0.105469 48.203125 0.175781 48.246094 0.253906 C 48.574219 0.84375 71.960938 47.667969 72.097656 48.023438 C 72.097656 48.035156 72.097656 48.050781 72.097656 48.070312 C 72.097656 48.089844 72.09375 48.105469 72.089844 48.125 L 56.292969 79.75 C 56.25 79.832031 56.210938 79.914062 56.164062 79.992188 C 56.144531 80.023438 56.117188 80.050781 56.089844 80.074219 C 56.070312 80.089844 56.050781 80.101562 56.027344 80.117188 Z M 56.027344 80.117188 "/>
<path style=" stroke:none;fill-rule:nonzero;fill:rgb(89.411765%,0%,23.529412%);fill-opacity:1;" d="M 87.902344 80.117188 C 87.867188 80.054688 87.84375 79.984375 87.828125 79.917969 C 87.820312 53.410156 87.816406 26.90625 87.8125 0.402344 C 87.800781 0.292969 87.820312 0.179688 87.871094 0.0820312 C 87.953125 -0.015625 88.070312 0.00390625 88.175781 0 C 88.332031 0 88.472656 0 88.617188 0 L 127.277344 0 C 127.457031 0 127.640625 0 127.824219 0 C 127.898438 0 127.964844 0.0546875 127.976562 0.128906 C 127.953125 0.238281 127.871094 0.265625 127.773438 0.265625 C 127.3125 0.273438 126.863281 0.316406 126.410156 0.359375 C 123.183594 0.636719 120.125 1.917969 117.667969 4.03125 C 115.152344 6.132812 113.359375 8.972656 112.546875 12.148438 C 112.242188 13.316406 112.074219 14.511719 112.039062 15.71875 C 112.039062 15.902344 112.039062 16.085938 112.039062 16.265625 C 112.039062 32.117188 112.039062 47.964844 112.039062 63.8125 C 112.027344 65.789062 112.378906 67.75 113.074219 69.601562 C 114.996094 74.664062 119.378906 78.332031 124.390625 79.429688 C 125.050781 79.582031 125.71875 79.691406 126.390625 79.753906 C 126.863281 79.789062 127.335938 79.835938 127.8125 79.847656 C 127.859375 79.855469 127.90625 79.871094 127.949219 79.894531 C 127.984375 79.941406 127.984375 80.007812 127.949219 80.058594 C 127.917969 80.074219 127.886719 80.105469 127.855469 80.105469 C 114.546875 80.113281 101.230469 80.117188 87.902344 80.117188 Z M 87.902344 80.117188 "/>
<path style=" stroke:none;fill-rule:nonzero;fill:rgb(89.411765%,0%,23.529412%);fill-opacity:1;" d="M 32.140625 79.882812 L 32.140625 80.078125 C 32.074219 80.101562 32.003906 80.117188 31.933594 80.125 C 31.457031 80.132812 30.988281 80.175781 30.511719 80.21875 C 29.476562 80.308594 28.453125 80.507812 27.460938 80.816406 C 22.085938 82.460938 17.976562 86.824219 16.660156 92.289062 C 16.433594 93.195312 16.300781 94.125 16.261719 95.058594 C 16.261719 95.3125 16.222656 95.566406 16.203125 95.828125 C 16.210938 95.902344 16.171875 95.972656 16.109375 96.011719 C 16.011719 96.023438 15.984375 95.949219 15.972656 95.878906 C 15.941406 95.699219 15.921875 95.519531 15.914062 95.335938 C 15.714844 88.664062 11.019531 82.402344 3.921875 80.609375 C 3.179688 80.421875 2.421875 80.292969 1.660156 80.226562 C 1.1875 80.1875 0.714844 80.144531 0.238281 80.136719 C 0.164062 80.125 0.09375 80.105469 0.0234375 80.078125 L 0.03125 79.914062 C 0.128906 79.855469 0.246094 79.832031 0.359375 79.847656 C 1.070312 79.828125 1.78125 79.761719 2.484375 79.652344 C 4.003906 79.449219 5.480469 79 6.859375 78.320312 C 11.347656 76.109375 14.238281 72.578125 15.496094 67.726562 C 15.753906 66.75 15.894531 65.746094 15.910156 64.738281 C 15.90625 64.457031 15.941406 64.175781 16.011719 63.902344 C 16.164062 63.890625 16.1875 63.964844 16.195312 64.035156 C 16.222656 64.289062 16.246094 64.542969 16.261719 64.800781 C 16.390625 68.039062 17.542969 71.152344 19.550781 73.695312 C 21.601562 76.371094 24.464844 78.3125 27.710938 79.222656 C 28.65625 79.496094 29.625 79.679688 30.605469 79.765625 C 31.117188 79.808594 31.628906 79.808594 32.140625 79.882812 Z M 32.140625 79.882812 "/>
</g>
</svg>