<svg width="96" height="96" viewBox="0 0 96 96" fill="none" xmlns="http://www.w3.org/2000/svg">
<g clip-path="url(#clip0)">
<path d="M48 96C74.5097 96 96 74.5097 96 48C96 21.4903 74.5097 0 48 0C21.4903 0 0 21.4903 0 48C0 74.5097 21.4903 96 48 96Z" fill="url(#paint0_linear)"/>
<path d="M69.0062 67.1258L52.7753 27.8845C51.8598 25.8557 50.499 24.866 48.7052 24.866H47.2701C45.4763 24.866 44.1155 25.8557 43.2 27.8845L36.1361 44.9814H30.7918C29.1959 44.9938 27.8969 46.2804 27.8846 47.8886V47.9258C27.8969 49.5216 29.1959 50.8206 30.7918 50.833H33.6619L26.9196 67.1258C26.7959 67.4845 26.7217 67.8557 26.7217 68.2392C26.7217 69.1546 27.0062 69.8722 27.5134 70.4289C28.0206 70.9856 28.7505 71.2577 29.666 71.2577C30.2722 71.2454 30.8536 71.0598 31.3361 70.701C31.8557 70.3423 32.2145 69.8227 32.499 69.2289L39.9217 50.8206H45.0681C46.6639 50.8082 47.9629 49.5216 47.9753 47.9134V47.8392C47.9629 46.2433 46.6639 44.9443 45.0681 44.9319H42.3217L47.9877 30.8165L63.4268 69.2165C63.7114 69.8103 64.0701 70.3299 64.5897 70.6887C65.0722 71.0474 65.666 71.233 66.2598 71.2454C67.1753 71.2454 67.8928 70.9732 68.4124 70.4165C68.932 69.8598 69.2042 69.1423 69.2042 68.2268C69.2165 67.8557 69.1547 67.4722 69.0062 67.1258Z" fill="white"/>
</g>
<defs>
<linearGradient id="paint0_linear" x1="83.7881" y1="17.887" x2="12.3641" y2="77.983" gradientUnits="userSpaceOnUse">
<stop stop-color="#B6509E"/>
<stop offset="1" stop-color="#2EBAC6"/>
</linearGradient>
<clipPath id="clip0">
<rect width="96" height="96" fill="white"/>
</clipPath>
</defs>
</svg>
