<svg width="96" height="96" viewBox="0 0 96 96" fill="none" xmlns="http://www.w3.org/2000/svg">
<path d="M48 95C57.2957 95 66.3827 92.2435 74.1118 87.0791C81.8409 81.9146 87.865 74.5743 91.4223 65.9861C94.9796 57.398 95.9104 47.9479 94.0969 38.8308C92.2834 29.7137 87.8071 21.3391 81.234 14.766C74.6609 8.19293 66.2863 3.71662 57.1692 1.90311C48.0521 0.0896077 38.602 1.02036 30.0139 4.57768C21.4257 8.135 14.0854 14.1591 8.92093 21.8882C3.7565 29.6173 1 38.7043 1 48C1 60.4652 5.95177 72.4198 14.766 81.234C23.5802 90.0482 35.5348 95 48 95Z" fill="#F9FAFB"/>
<mask id="path-2-outside-1" maskUnits="userSpaceOnUse" x="18.045" y="12.2164" width="61" height="71" fill="black">
<rect fill="white" x="18.045" y="12.2164" width="61" height="71"/>
<path d="M77.6016 62.0429L50.8223 14.592C50.595 14.176 50.258 13.8286 49.8472 13.5864C49.4363 13.3442 48.9667 13.2164 48.4883 13.2164C48.0098 13.2164 47.5403 13.3442 47.1294 13.5864C46.7185 13.8286 46.3816 14.176 46.1543 14.592L19.3852 62.0429C18.6891 63.2666 19.0883 64.8544 20.3372 65.5826L47.1473 81.4198C47.5715 81.6583 48.0513 81.7837 48.5395 81.7837C49.0276 81.7837 49.5074 81.6583 49.9317 81.4198L76.7008 65.6129C77.8882 64.8544 78.3284 63.2666 77.6016 62.0429ZM57.3635 42.9189L56.7084 42.3728L56.6674 42.3324C56.459 42.1641 56.2402 42.0088 56.0123 41.8672L55.9713 41.8267C55.7564 41.6851 55.5312 41.5334 55.2752 41.3919C55.2343 41.3919 55.2343 41.3514 55.2036 41.3514C54.9886 41.2098 54.7327 41.0986 54.5075 40.9873C54.4665 40.9873 54.4665 40.9469 54.4358 40.9469C54.2209 40.8356 53.9649 40.7345 53.709 40.6233C53.6681 40.6233 53.6681 40.5828 53.6374 40.5828C53.4224 40.512 53.1972 40.4008 52.9822 40.33C52.3904 40.1109 51.7808 39.9417 51.1601 39.8243C50.6892 40.7244 50.0238 41.5233 49.297 42.2009C50.4333 42.2717 51.5286 42.565 52.5113 42.9594C53.0926 43.2066 53.6538 43.4973 54.1901 43.8291C54.2043 43.8306 54.218 43.8349 54.2303 43.8419C54.2426 43.8489 54.2534 43.8583 54.2618 43.8696C54.4051 43.9404 54.5177 44.0516 54.661 44.1629C54.7296 44.2003 54.7917 44.2481 54.8453 44.3045C54.9778 44.3897 55.1013 44.4879 55.2138 44.5977C55.2855 44.6685 55.3571 44.709 55.4288 44.7798C55.5414 44.891 55.6438 44.9618 55.7564 45.073L55.9713 45.2854L56.2682 45.5787L56.4832 45.7911C56.5608 45.8952 56.6463 45.9932 56.7391 46.0844C56.8108 46.1653 56.8824 46.2664 56.9541 46.3372L57.169 46.6608C57.2407 46.7721 57.3124 46.8429 57.3533 46.9541L57.5683 47.2777C57.6399 47.389 57.6809 47.4901 57.7525 47.571C57.8242 47.6823 57.8651 47.7834 57.9368 47.8946C58.0085 48.0059 58.0494 48.107 58.1211 48.2182C58.162 48.3295 58.2337 48.4306 58.2644 48.5419C58.336 48.6834 58.377 48.8352 58.4486 48.9363C58.756 49.6753 58.9659 50.4502 59.0731 51.2421L59.4007 52.5062C59.544 53.0523 60.8645 57.6639 63.9253 59.2214C67.4365 61.0215 72.0738 63.2666 73.8959 64.1263L49.8395 78.3454V68.6064C49.8395 67.0591 52.9413 65.2488 54.3642 64.642L54.4358 64.6016C54.7327 64.46 55.0193 64.3083 55.3162 64.1364L55.4288 64.0656C56.052 63.7007 56.6382 63.2774 57.1793 62.8014C57.2202 62.761 57.2919 62.7306 57.3226 62.6598C57.3943 62.6194 57.4352 62.5486 57.5069 62.5183C57.6911 62.3767 57.8344 62.1946 58.0187 62.0531L58.0904 61.9823C58.2797 61.8072 58.4512 61.6141 58.6022 61.4058C58.6431 61.335 58.7148 61.2946 58.7455 61.2238C58.8888 61.0822 59.0014 60.9002 59.1447 60.7181C59.1857 60.6777 59.2164 60.6069 59.2573 60.5765L59.6975 59.9293C59.6975 59.8888 59.7385 59.8888 59.7385 59.8585C59.9227 59.5652 60.107 59.2416 60.2913 58.9584C59.5644 58.0887 59.0117 57.1583 58.5715 56.2886C58.385 56.8232 58.1521 57.3409 57.8754 57.8359C57.7628 58.0482 57.6195 58.2707 57.5069 58.4831C57.4659 58.5236 57.4659 58.5539 57.4352 58.5539C57.3222 58.7292 57.1991 58.8981 57.0667 59.0596C57.0257 59.1 56.995 59.1708 56.9541 59.2011C56.8405 59.3716 56.7065 59.5278 56.5548 59.6664C56.5139 59.7068 56.5139 59.7371 56.4832 59.7371C55.6028 60.708 54.5484 61.5373 53.3405 62.1137L53.1255 62.225C52.5011 62.4778 47.137 64.8949 47.137 68.5356V78.2746L23.0295 64.0959C24.5957 63.1554 29.1306 60.4855 32.8567 59.3326C34.3206 58.8674 37.4223 60.8091 39.1728 62.2149L39.2854 62.3261C39.511 62.5502 39.7541 62.7564 40.0122 62.943L40.0839 63.0138C40.6367 63.4487 41.2202 63.8835 41.8753 64.2072L42.3155 64.4195C42.3296 64.421 42.3433 64.4254 42.3556 64.4323C42.368 64.4393 42.3787 64.4487 42.3872 64.46C42.7864 64.6724 43.1856 64.8544 43.6258 65.0364C43.6854 65.0644 43.747 65.0881 43.8101 65.1072C43.851 65.1072 43.8817 65.1477 43.9534 65.1477C44.5778 65.3601 45.192 65.5421 45.8165 65.6938C46.2874 64.7937 46.9835 63.9948 47.7205 63.3172C46.694 63.2483 45.6833 63.0302 44.7211 62.67C44.6802 62.6295 44.6085 62.6295 44.5778 62.5992C44.4634 62.5649 44.3534 62.5174 44.2503 62.4576C44.2093 62.4171 44.1376 62.4171 44.1069 62.3868C43.9943 62.3463 43.892 62.2756 43.8101 62.2452C43.0833 61.8811 42.4179 61.4867 41.8037 60.9811L40.8516 60.1113C39.9718 59.3474 39.0187 58.67 38.0058 58.0887C35.6309 56.7538 33.6245 56.3189 32.089 56.7942C28.9156 57.8055 25.2918 59.7169 23.1011 60.9811L47.1677 18.263V36.9926C47.1677 37.6399 46.185 39.3692 42.8581 40.8559L42.6431 40.9671C42.3155 41.1087 42.0186 41.2907 41.6911 41.4728L41.6194 41.5132C40.9896 41.8875 40.3906 42.3102 39.828 42.7774C39.4735 43.0622 39.1447 43.3769 38.8452 43.7179L38.8043 43.7583C38.4807 44.0687 38.1861 44.4071 37.9239 44.7697L37.883 44.8101C37.7397 44.9921 37.6271 45.1742 37.4838 45.3562C37.4838 45.3967 37.4428 45.3967 37.4428 45.427C37.3302 45.609 37.2278 45.7506 37.1152 45.9327C37.1152 45.9731 37.0743 45.9731 37.0743 46.0035L36.7467 46.5496C36.7058 46.59 36.7058 46.6204 36.6751 46.6912C36.5624 46.8732 36.4908 47.0552 36.4191 47.1968C36.4177 47.2108 36.4132 47.2243 36.4062 47.2365C36.3992 47.2487 36.3896 47.2593 36.3782 47.2676C36.3065 47.4496 36.2349 47.5912 36.1632 47.7733C36.1349 47.8322 36.111 47.893 36.0916 47.9553L35.8766 48.5014C35.8483 48.5603 35.8243 48.6211 35.8049 48.6835C35.7709 48.8194 35.7229 48.9516 35.6616 49.0779C35.6207 49.1487 35.6207 49.2195 35.59 49.2902C35.549 49.4723 35.4774 49.6543 35.4466 49.7959C35.4057 49.8667 35.4057 49.9779 35.375 50.0487C35.334 50.16 35.334 50.3016 35.3033 50.4128C35.2624 50.524 35.2624 50.6252 35.2317 50.7364C35.1907 50.878 35.1907 51.0297 35.16 51.1713C35.16 51.2825 35.1191 51.3533 35.1191 51.4646C35.1191 51.6062 35.0781 51.7174 35.0781 51.859C35.0848 51.9917 35.071 52.1247 35.0372 52.2534V52.7995C35.0328 53.4528 35.0808 54.1055 35.1805 54.7514C36.1325 54.9637 37.1152 55.3683 38.1799 55.8739C37.883 54.9334 37.7397 53.9625 37.709 52.9512V52.7692C37.7022 52.5291 37.7159 52.2889 37.7499 52.0511V51.8691C37.7499 51.6567 37.7909 51.4747 37.8216 51.2522V51.1814C37.8625 50.969 37.8932 50.7465 37.9342 50.4937C37.9342 50.4229 37.9751 50.3825 37.9751 50.3117C38.0161 50.1296 38.0877 49.9476 38.1184 49.7656C38.1184 49.7251 38.1594 49.6948 38.1594 49.6543L38.3744 49.0071C38.4153 48.9666 38.4153 48.8958 38.446 48.8655C38.5177 48.6835 38.5893 48.5014 38.661 48.3598C38.7019 48.3194 38.7019 48.289 38.7326 48.2182C38.8452 48.0059 38.9169 47.8238 39.0602 47.6418C39.0877 47.6071 39.1117 47.5698 39.1319 47.5305C39.2445 47.3485 39.3161 47.2069 39.4287 47.0249C39.4562 46.9902 39.4802 46.9529 39.5004 46.9136C39.6233 46.7245 39.7566 46.5422 39.8996 46.3675C39.8995 46.3622 39.9005 46.3569 39.9025 46.3519C39.9045 46.3469 39.9075 46.3424 39.9113 46.3386C39.9151 46.3348 39.9197 46.3319 39.9247 46.3299C39.9298 46.3279 39.9352 46.3269 39.9406 46.3271C40.0839 46.1451 40.1965 46.0035 40.3398 45.8214C40.3673 45.7867 40.3913 45.7495 40.4115 45.7102C41.0705 44.9911 41.8205 44.3589 42.6431 43.8291L43.7794 43.283C44.4038 43.0302 49.7372 40.5423 49.7372 36.8915V18.2327L74.029 61.3148C71.869 60.2731 68.0405 58.3921 65.0821 56.8751C63.3623 56.0054 62.2362 52.9411 61.9087 51.8185L61.5811 50.524C61.5811 49.8363 61.3968 49.1487 61.1819 48.4711C60.4106 46.3283 59.0959 44.4167 57.3635 42.9189Z"/>
</mask>
<path d="M77.6016 62.0429L50.8223 14.592C50.595 14.176 50.258 13.8286 49.8472 13.5864C49.4363 13.3442 48.9667 13.2164 48.4883 13.2164C48.0098 13.2164 47.5403 13.3442 47.1294 13.5864C46.7185 13.8286 46.3816 14.176 46.1543 14.592L19.3852 62.0429C18.6891 63.2666 19.0883 64.8544 20.3372 65.5826L47.1473 81.4198C47.5715 81.6583 48.0513 81.7837 48.5395 81.7837C49.0276 81.7837 49.5074 81.6583 49.9317 81.4198L76.7008 65.6129C77.8882 64.8544 78.3284 63.2666 77.6016 62.0429ZM57.3635 42.9189L56.7084 42.3728L56.6674 42.3324C56.459 42.1641 56.2402 42.0088 56.0123 41.8672L55.9713 41.8267C55.7564 41.6851 55.5312 41.5334 55.2752 41.3919C55.2343 41.3919 55.2343 41.3514 55.2036 41.3514C54.9886 41.2098 54.7327 41.0986 54.5075 40.9873C54.4665 40.9873 54.4665 40.9469 54.4358 40.9469C54.2209 40.8356 53.9649 40.7345 53.709 40.6233C53.6681 40.6233 53.6681 40.5828 53.6374 40.5828C53.4224 40.512 53.1972 40.4008 52.9822 40.33C52.3904 40.1109 51.7808 39.9417 51.1601 39.8243C50.6892 40.7244 50.0238 41.5233 49.297 42.2009C50.4333 42.2717 51.5286 42.565 52.5113 42.9594C53.0926 43.2066 53.6538 43.4973 54.1901 43.8291C54.2043 43.8306 54.218 43.8349 54.2303 43.8419C54.2426 43.8489 54.2534 43.8583 54.2618 43.8696C54.4051 43.9404 54.5177 44.0516 54.661 44.1629C54.7296 44.2003 54.7917 44.2481 54.8453 44.3045C54.9778 44.3897 55.1013 44.4879 55.2138 44.5977C55.2855 44.6685 55.3571 44.709 55.4288 44.7798C55.5414 44.891 55.6438 44.9618 55.7564 45.073L55.9713 45.2854L56.2682 45.5787L56.4832 45.7911C56.5608 45.8952 56.6463 45.9932 56.7391 46.0844C56.8108 46.1653 56.8824 46.2664 56.9541 46.3372L57.169 46.6608C57.2407 46.7721 57.3124 46.8429 57.3533 46.9541L57.5683 47.2777C57.6399 47.389 57.6809 47.4901 57.7525 47.571C57.8242 47.6823 57.8651 47.7834 57.9368 47.8946C58.0085 48.0059 58.0494 48.107 58.1211 48.2182C58.162 48.3295 58.2337 48.4306 58.2644 48.5419C58.336 48.6834 58.377 48.8352 58.4486 48.9363C58.756 49.6753 58.9659 50.4502 59.0731 51.2421L59.4007 52.5062C59.544 53.0523 60.8645 57.6639 63.9253 59.2214C67.4365 61.0215 72.0738 63.2666 73.8959 64.1263L49.8395 78.3454V68.6064C49.8395 67.0591 52.9413 65.2488 54.3642 64.642L54.4358 64.6016C54.7327 64.46 55.0193 64.3083 55.3162 64.1364L55.4288 64.0656C56.052 63.7007 56.6382 63.2774 57.1793 62.8014C57.2202 62.761 57.2919 62.7306 57.3226 62.6598C57.3943 62.6194 57.4352 62.5486 57.5069 62.5183C57.6911 62.3767 57.8344 62.1946 58.0187 62.0531L58.0904 61.9823C58.2797 61.8072 58.4512 61.6141 58.6022 61.4058C58.6431 61.335 58.7148 61.2946 58.7455 61.2238C58.8888 61.0822 59.0014 60.9002 59.1447 60.7181C59.1857 60.6777 59.2164 60.6069 59.2573 60.5765L59.6975 59.9293C59.6975 59.8888 59.7385 59.8888 59.7385 59.8585C59.9227 59.5652 60.107 59.2416 60.2913 58.9584C59.5644 58.0887 59.0117 57.1583 58.5715 56.2886C58.385 56.8232 58.1521 57.3409 57.8754 57.8359C57.7628 58.0482 57.6195 58.2707 57.5069 58.4831C57.4659 58.5236 57.4659 58.5539 57.4352 58.5539C57.3222 58.7292 57.1991 58.8981 57.0667 59.0596C57.0257 59.1 56.995 59.1708 56.9541 59.2011C56.8405 59.3716 56.7065 59.5278 56.5548 59.6664C56.5139 59.7068 56.5139 59.7371 56.4832 59.7371C55.6028 60.708 54.5484 61.5373 53.3405 62.1137L53.1255 62.225C52.5011 62.4778 47.137 64.8949 47.137 68.5356V78.2746L23.0295 64.0959C24.5957 63.1554 29.1306 60.4855 32.8567 59.3326C34.3206 58.8674 37.4223 60.8091 39.1728 62.2149L39.2854 62.3261C39.511 62.5502 39.7541 62.7564 40.0122 62.943L40.0839 63.0138C40.6367 63.4487 41.2202 63.8835 41.8753 64.2072L42.3155 64.4195C42.3296 64.421 42.3433 64.4254 42.3556 64.4323C42.368 64.4393 42.3787 64.4487 42.3872 64.46C42.7864 64.6724 43.1856 64.8544 43.6258 65.0364C43.6854 65.0644 43.747 65.0881 43.8101 65.1072C43.851 65.1072 43.8817 65.1477 43.9534 65.1477C44.5778 65.3601 45.192 65.5421 45.8165 65.6938C46.2874 64.7937 46.9835 63.9948 47.7205 63.3172C46.694 63.2483 45.6833 63.0302 44.7211 62.67C44.6802 62.6295 44.6085 62.6295 44.5778 62.5992C44.4634 62.5649 44.3534 62.5174 44.2503 62.4576C44.2093 62.4171 44.1376 62.4171 44.1069 62.3868C43.9943 62.3463 43.892 62.2756 43.8101 62.2452C43.0833 61.8811 42.4179 61.4867 41.8037 60.9811L40.8516 60.1113C39.9718 59.3474 39.0187 58.67 38.0058 58.0887C35.6309 56.7538 33.6245 56.3189 32.089 56.7942C28.9156 57.8055 25.2918 59.7169 23.1011 60.9811L47.1677 18.263V36.9926C47.1677 37.6399 46.185 39.3692 42.8581 40.8559L42.6431 40.9671C42.3155 41.1087 42.0186 41.2907 41.6911 41.4728L41.6194 41.5132C40.9896 41.8875 40.3906 42.3102 39.828 42.7774C39.4735 43.0622 39.1447 43.3769 38.8452 43.7179L38.8043 43.7583C38.4807 44.0687 38.1861 44.4071 37.9239 44.7697L37.883 44.8101C37.7397 44.9921 37.6271 45.1742 37.4838 45.3562C37.4838 45.3967 37.4428 45.3967 37.4428 45.427C37.3302 45.609 37.2278 45.7506 37.1152 45.9327C37.1152 45.9731 37.0743 45.9731 37.0743 46.0035L36.7467 46.5496C36.7058 46.59 36.7058 46.6204 36.6751 46.6912C36.5624 46.8732 36.4908 47.0552 36.4191 47.1968C36.4177 47.2108 36.4132 47.2243 36.4062 47.2365C36.3992 47.2487 36.3896 47.2593 36.3782 47.2676C36.3065 47.4496 36.2349 47.5912 36.1632 47.7733C36.1349 47.8322 36.111 47.893 36.0916 47.9553L35.8766 48.5014C35.8483 48.5603 35.8243 48.6211 35.8049 48.6835C35.7709 48.8194 35.7229 48.9516 35.6616 49.0779C35.6207 49.1487 35.6207 49.2195 35.59 49.2902C35.549 49.4723 35.4774 49.6543 35.4466 49.7959C35.4057 49.8667 35.4057 49.9779 35.375 50.0487C35.334 50.16 35.334 50.3016 35.3033 50.4128C35.2624 50.524 35.2624 50.6252 35.2317 50.7364C35.1907 50.878 35.1907 51.0297 35.16 51.1713C35.16 51.2825 35.1191 51.3533 35.1191 51.4646C35.1191 51.6062 35.0781 51.7174 35.0781 51.859C35.0848 51.9917 35.071 52.1247 35.0372 52.2534V52.7995C35.0328 53.4528 35.0808 54.1055 35.1805 54.7514C36.1325 54.9637 37.1152 55.3683 38.1799 55.8739C37.883 54.9334 37.7397 53.9625 37.709 52.9512V52.7692C37.7022 52.5291 37.7159 52.2889 37.7499 52.0511V51.8691C37.7499 51.6567 37.7909 51.4747 37.8216 51.2522V51.1814C37.8625 50.969 37.8932 50.7465 37.9342 50.4937C37.9342 50.4229 37.9751 50.3825 37.9751 50.3117C38.0161 50.1296 38.0877 49.9476 38.1184 49.7656C38.1184 49.7251 38.1594 49.6948 38.1594 49.6543L38.3744 49.0071C38.4153 48.9666 38.4153 48.8958 38.446 48.8655C38.5177 48.6835 38.5893 48.5014 38.661 48.3598C38.7019 48.3194 38.7019 48.289 38.7326 48.2182C38.8452 48.0059 38.9169 47.8238 39.0602 47.6418C39.0877 47.6071 39.1117 47.5698 39.1319 47.5305C39.2445 47.3485 39.3161 47.2069 39.4287 47.0249C39.4562 46.9902 39.4802 46.9529 39.5004 46.9136C39.6233 46.7245 39.7566 46.5422 39.8996 46.3675C39.8995 46.3622 39.9005 46.3569 39.9025 46.3519C39.9045 46.3469 39.9075 46.3424 39.9113 46.3386C39.9151 46.3348 39.9197 46.3319 39.9247 46.3299C39.9298 46.3279 39.9352 46.3269 39.9406 46.3271C40.0839 46.1451 40.1965 46.0035 40.3398 45.8214C40.3673 45.7867 40.3913 45.7495 40.4115 45.7102C41.0705 44.9911 41.8205 44.3589 42.6431 43.8291L43.7794 43.283C44.4038 43.0302 49.7372 40.5423 49.7372 36.8915V18.2327L74.029 61.3148C71.869 60.2731 68.0405 58.3921 65.0821 56.8751C63.3623 56.0054 62.2362 52.9411 61.9087 51.8185L61.5811 50.524C61.5811 49.8363 61.3968 49.1487 61.1819 48.4711C60.4106 46.3283 59.0959 44.4167 57.3635 42.9189Z" fill="#553580"/>
<path d="M50.8223 14.592L50.3834 14.8317L50.3868 14.8377L50.8223 14.592ZM48.4883 13.2164V13.7164V13.2164ZM46.1543 14.592L46.5898 14.8377L46.5931 14.8317L46.1543 14.592ZM19.3852 62.0429L19.8198 62.2902L19.8206 62.2886L19.3852 62.0429ZM20.3372 65.5826L20.5915 65.1521L20.589 65.1506L20.3372 65.5826ZM47.1473 81.4198L46.8929 81.8504L46.9023 81.8556L47.1473 81.4198ZM49.9317 81.4198L50.1767 81.8557L50.1859 81.8503L49.9317 81.4198ZM76.7008 65.6129L76.955 66.0434L76.9626 66.039L76.9699 66.0343L76.7008 65.6129ZM56.7084 42.3728L56.357 42.7286L56.372 42.7434L56.3882 42.7569L56.7084 42.3728ZM56.6674 42.3324L57.0188 41.9767L57.001 41.9591L56.9815 41.9433L56.6674 42.3324ZM56.0123 41.8672L55.6609 42.2229L55.7008 42.2623L55.7484 42.2919L56.0123 41.8672ZM55.9713 41.8267L56.3227 41.471L56.2876 41.4363L56.2464 41.4092L55.9713 41.8267ZM55.2752 41.3919L55.5173 40.9543L55.4043 40.8919H55.2752V41.3919ZM55.2036 41.3514L54.9286 41.769L55.0537 41.8514H55.2036V41.3514ZM54.5075 40.9873L54.7289 40.539L54.6242 40.4873H54.5075V40.9873ZM54.4358 40.9469L54.206 41.3909L54.3141 41.4469H54.4358V40.9469ZM53.709 40.6233L53.9084 40.1647L53.813 40.1233H53.709V40.6233ZM53.6374 40.5828L53.481 41.0577L53.5572 41.0828H53.6374V40.5828ZM52.9822 40.33L52.8086 40.7989L52.8172 40.802L52.8258 40.8049L52.9822 40.33ZM51.1601 39.8243L51.253 39.333L50.8888 39.2641L50.717 39.5925L51.1601 39.8243ZM49.297 42.2009L48.956 41.8352L48.106 42.6277L49.2659 42.6999L49.297 42.2009ZM52.5113 42.9594L52.707 42.4992L52.6976 42.4954L52.5113 42.9594ZM54.1901 43.8291L53.9271 44.2543L54.0246 44.3147L54.1387 44.3265L54.1901 43.8291ZM54.2618 43.8696L53.8615 44.1692L53.9332 44.2649L54.0404 44.3179L54.2618 43.8696ZM54.661 44.1629L54.3545 44.5578L54.3861 44.5824L54.4214 44.6017L54.661 44.1629ZM54.8453 44.3045L54.4828 44.6489L54.5243 44.6925L54.5749 44.725L54.8453 44.3045ZM55.2138 44.5977L55.5652 44.242L55.563 44.2399L55.2138 44.5977ZM55.4288 44.7798L55.0774 45.1355L55.4288 44.7798ZM56.4832 45.7911L56.8841 45.4923L56.8615 45.462L56.8346 45.4354L56.4832 45.7911ZM56.7391 46.0844L57.1134 45.7529L57.1019 45.7398L57.0895 45.7276L56.7391 46.0844ZM56.9541 46.3372L57.3706 46.0605L57.3421 46.0177L57.3055 45.9815L56.9541 46.3372ZM57.169 46.6608L57.5894 46.39L57.5855 46.3842L57.169 46.6608ZM57.3533 46.9541L56.8841 47.1268L56.9044 47.1819L56.9368 47.2308L57.3533 46.9541ZM57.5683 47.2777L57.9887 47.0069L57.9848 47.0011L57.5683 47.2777ZM57.7525 47.571L58.1729 47.3002L58.1522 47.2681L58.1268 47.2395L57.7525 47.571ZM58.1211 48.2182L58.5903 48.0455L58.5713 47.9938L58.5414 47.9475L58.1211 48.2182ZM58.2644 48.5419L57.7824 48.6749L57.7957 48.7231L57.8183 48.7677L58.2644 48.5419ZM58.4486 48.9363L58.9103 48.7443L58.8889 48.6927L58.8566 48.6472L58.4486 48.9363ZM59.0731 51.2421L58.5776 51.3092L58.5816 51.3387L58.5891 51.3675L59.0731 51.2421ZM59.4007 52.5062L58.9166 52.6317L58.917 52.6331L59.4007 52.5062ZM63.9253 59.2214L64.1534 58.7764L64.1521 58.7757L63.9253 59.2214ZM73.8959 64.1263L74.1503 64.5567L74.9625 64.0766L74.1092 63.6741L73.8959 64.1263ZM49.8395 78.3454H49.3395V79.2217L50.0939 78.7758L49.8395 78.3454ZM54.3642 64.642L54.5603 65.102L54.5858 65.0911L54.61 65.0774L54.3642 64.642ZM54.4358 64.6016L54.2206 64.1503L54.205 64.1577L54.19 64.1662L54.4358 64.6016ZM55.3162 64.1364L55.5668 64.5691L55.5746 64.5645L55.5823 64.5597L55.3162 64.1364ZM55.4288 64.0656L55.1762 63.6341L55.1694 63.6381L55.1627 63.6423L55.4288 64.0656ZM57.1793 62.8014L57.5095 63.1769L57.5204 63.1673L57.5307 63.1571L57.1793 62.8014ZM57.3226 62.6598L57.0768 62.2244L56.9307 62.3069L56.8639 62.4609L57.3226 62.6598ZM57.5069 62.5183L57.7018 62.9787L57.7607 62.9537L57.8115 62.9147L57.5069 62.5183ZM58.0187 62.0531L58.3233 62.4495L58.348 62.4306L58.3701 62.4088L58.0187 62.0531ZM58.0904 61.9823L57.751 61.6151L57.7449 61.6207L57.739 61.6266L58.0904 61.9823ZM58.6022 61.4058L59.007 61.6993L59.0221 61.6784L59.035 61.6562L58.6022 61.4058ZM58.7455 61.2238L58.3941 60.8681L58.3253 60.9361L58.2868 61.0248L58.7455 61.2238ZM59.1447 60.7181L58.7933 60.3624L58.7712 60.3843L58.7519 60.4088L59.1447 60.7181ZM59.2573 60.5765L59.555 60.9783L59.6231 60.9278L59.6708 60.8577L59.2573 60.5765ZM59.6975 59.9293L60.111 60.2105L60.1975 60.0832V59.9293H59.6975ZM59.7385 59.8585L59.3151 59.5925L59.2385 59.7145V59.8585H59.7385ZM60.2913 58.9584L60.7103 59.2311L60.9119 58.9214L60.6749 58.6378L60.2913 58.9584ZM58.5715 56.2886L59.0176 56.0628L58.4866 55.0136L58.0994 56.1239L58.5715 56.2886ZM57.8754 57.8359L57.4389 57.5918L57.4336 57.6017L57.8754 57.8359ZM57.5069 58.4831L57.8583 58.8388L57.9127 58.785L57.9486 58.7173L57.5069 58.4831ZM57.4352 58.5539V58.0539H57.1626L57.0149 58.283L57.4352 58.5539ZM57.0667 59.0596L57.4181 59.4153L57.4367 59.3969L57.4533 59.3766L57.0667 59.0596ZM56.9541 59.2011L56.6564 58.7994L56.5863 58.8513L56.538 58.9239L56.9541 59.2011ZM56.5548 59.6664L56.2176 59.2972L56.2104 59.3038L56.2034 59.3107L56.5548 59.6664ZM56.4832 59.7371V59.2371H56.2616L56.1128 59.4013L56.4832 59.7371ZM53.3405 62.1137L53.1252 61.6625L53.1179 61.666L53.1107 61.6697L53.3405 62.1137ZM53.1255 62.225L53.3132 62.6884L53.3347 62.6797L53.3553 62.669L53.1255 62.225ZM47.137 78.2746L46.8835 78.7056L47.637 79.1487V78.2746H47.137ZM23.0295 64.0959L22.772 63.6673L22.0508 64.1004L22.776 64.5269L23.0295 64.0959ZM32.8567 59.3326L33.0045 59.8103L33.0082 59.8091L32.8567 59.3326ZM39.1728 62.2149L39.5242 61.8592L39.5059 61.8411L39.4859 61.825L39.1728 62.2149ZM39.2854 62.3261L39.6377 61.9713L39.6368 61.9704L39.2854 62.3261ZM40.0122 62.943L40.3636 62.5873L40.3363 62.5603L40.3051 62.5378L40.0122 62.943ZM40.0839 63.0138L39.7325 63.3695L39.7526 63.3893L39.7747 63.4068L40.0839 63.0138ZM41.8753 64.2072L41.6539 64.6555L41.6581 64.6575L41.8753 64.2072ZM42.3155 64.4195L42.0982 64.8699L42.1771 64.9079L42.2641 64.9169L42.3155 64.4195ZM42.3872 64.46L41.9869 64.7596L42.0538 64.849L42.1523 64.9014L42.3872 64.46ZM43.6258 65.0364L43.8381 64.5838L43.8276 64.5788L43.8169 64.5744L43.6258 65.0364ZM43.8101 65.1072L43.6647 65.5856L43.7358 65.6072H43.8101V65.1072ZM43.9534 65.1477L44.1144 64.6743L44.0361 64.6477H43.9534V65.1477ZM45.8165 65.6938L45.6984 66.1797L46.0783 66.2719L46.2595 65.9256L45.8165 65.6938ZM47.7205 63.3172L48.0589 63.6853L48.9171 62.8964L47.754 62.8183L47.7205 63.3172ZM44.7211 62.67L44.3697 63.0257L44.4458 63.1007L44.5458 63.1382L44.7211 62.67ZM44.5778 62.5992L44.9292 62.2435L44.8406 62.1559L44.7213 62.1202L44.5778 62.5992ZM44.2503 62.4576L43.8989 62.8133L43.9443 62.8582L43.9996 62.8902L44.2503 62.4576ZM44.1069 62.3868L44.4583 62.0311L44.3798 61.9535L44.276 61.9162L44.1069 62.3868ZM43.8101 62.2452L43.5861 62.6923L43.6107 62.7045L43.6364 62.7141L43.8101 62.2452ZM41.8037 60.9811L41.4664 61.3502L41.4759 61.3589L41.4859 61.3671L41.8037 60.9811ZM40.8516 60.1113L41.189 59.7421L41.1795 59.7338L40.8516 60.1113ZM38.0058 58.0887L38.2547 57.655L38.2508 57.6528L38.0058 58.0887ZM32.089 56.7942L31.9411 56.3166L31.9372 56.3178L32.089 56.7942ZM23.1011 60.9811L22.6655 60.7356L21.7689 62.3271L23.351 61.4141L23.1011 60.9811ZM47.1677 18.263H47.6677V16.3569L46.7321 18.0176L47.1677 18.263ZM42.8581 40.8559L42.6541 40.3994L42.641 40.4052L42.6283 40.4118L42.8581 40.8559ZM42.6431 40.9671L42.8415 41.4261L42.8574 41.4192L42.8729 41.4112L42.6431 40.9671ZM41.6911 41.4728L41.4482 41.0357L41.4453 41.0373L41.6911 41.4728ZM41.6194 41.5132L41.3736 41.0777L41.3639 41.0834L41.6194 41.5132ZM39.828 42.7774L40.1412 43.1672L40.1474 43.1621L39.828 42.7774ZM38.8452 43.7179L39.1966 44.0736L39.2092 44.0611L39.2209 44.0478L38.8452 43.7179ZM38.8043 43.7583L39.1504 44.1192L39.1557 44.114L38.8043 43.7583ZM37.9239 44.7697L38.2753 45.1253L38.3048 45.0962L38.3291 45.0626L37.9239 44.7697ZM37.883 44.8101L37.5316 44.4544L37.5094 44.4763L37.4901 44.5008L37.883 44.8101ZM37.4838 45.3562L37.0909 45.0469L36.9838 45.183V45.3562H37.4838ZM37.4428 45.427L37.868 45.69L37.9428 45.5692V45.427H37.4428ZM37.1152 45.9327L36.69 45.6696L36.6152 45.7905V45.9327H37.1152ZM37.0743 46.0035L37.5031 46.2607L37.5743 46.1419V46.0035H37.0743ZM36.7467 46.5496L37.0981 46.9053L37.143 46.8609L37.1755 46.8068L36.7467 46.5496ZM36.6751 46.6912L37.1003 46.9542L37.1193 46.9234L37.1338 46.8901L36.6751 46.6912ZM36.4191 47.1968L35.973 46.971L35.9316 47.0529L35.9219 47.1442L36.4191 47.1968ZM36.3782 47.2676L36.0832 46.8639L35.9661 46.9495L35.9129 47.0845L36.3782 47.2676ZM36.1632 47.7733L36.6139 47.9898L36.6218 47.9734L36.6285 47.9564L36.1632 47.7733ZM36.0916 47.9553L36.5568 48.1384L36.5635 48.1214L36.5689 48.104L36.0916 47.9553ZM35.8766 48.5014L36.3273 48.718L36.3352 48.7015L36.3418 48.6846L35.8766 48.5014ZM35.8049 48.6835L35.3276 48.5347L35.3233 48.5483L35.3199 48.562L35.8049 48.6835ZM35.6616 49.0779L36.0944 49.3282L36.1035 49.3124L36.1115 49.296L35.6616 49.0779ZM35.59 49.2902L35.1313 49.0913L35.1125 49.1345L35.1021 49.1805L35.59 49.2902ZM35.4466 49.7959L35.8795 50.0462L35.9187 49.9784L35.9353 49.9019L35.4466 49.7959ZM35.375 50.0487L34.9163 49.8497L34.9106 49.8627L34.9058 49.876L35.375 50.0487ZM35.3033 50.4128L35.7726 50.5855L35.7798 50.566L35.7853 50.5459L35.3033 50.4128ZM35.2317 50.7364L35.712 50.8753L35.7136 50.8695L35.2317 50.7364ZM35.16 51.1713L34.6714 51.0653L34.66 51.1177V51.1713H35.16ZM35.0781 51.859H34.5781V51.8716L34.5788 51.8842L35.0781 51.859ZM35.0372 52.2534L34.5536 52.1262L34.5372 52.1888V52.2534H35.0372ZM35.0372 52.7995L35.5372 52.8028V52.7995H35.0372ZM35.1805 54.7514L34.6863 54.8277L34.7384 55.165L35.0716 55.2394L35.1805 54.7514ZM38.1799 55.8739L37.9653 56.3256L39.0022 56.818L38.6567 55.7234L38.1799 55.8739ZM37.709 52.9512H37.209V52.9588L37.2092 52.9664L37.709 52.9512ZM37.709 52.7692H38.2092L38.2088 52.755L37.709 52.7692ZM37.7499 52.0511L38.2449 52.122L38.2499 52.0867V52.0511H37.7499ZM37.8216 51.2522L38.3169 51.3206L38.3216 51.2865V51.2522H37.8216ZM37.8216 51.1814L37.3306 51.0867L37.3216 51.1336V51.1814H37.8216ZM37.9342 50.4937L38.4277 50.5736L38.4342 50.5339V50.4937H37.9342ZM37.9751 50.3117L37.4873 50.2019L37.4751 50.2561V50.3117H37.9751ZM38.1184 49.7656L38.6115 49.8487L38.6184 49.8074V49.7656H38.1184ZM38.1594 49.6543L37.6849 49.4967L37.6594 49.5735V49.6543H38.1594ZM38.3744 49.0071L38.023 48.6514L37.9376 48.7357L37.8998 48.8495L38.3744 49.0071ZM38.446 48.8655L38.7974 49.2212L38.8726 49.1469L38.9113 49.0486L38.446 48.8655ZM38.661 48.3598L38.3096 48.0041L38.2516 48.0614L38.2149 48.134L38.661 48.3598ZM38.7326 48.2182L38.2909 47.984L38.2817 48.0013L38.2739 48.0193L38.7326 48.2182ZM39.0602 47.6418L38.6682 47.3314L38.6674 47.3325L39.0602 47.6418ZM39.1319 47.5305L38.7067 47.2675L38.6962 47.2844L38.6871 47.302L39.1319 47.5305ZM39.4287 47.0249L39.0367 46.7145L39.0187 46.7372L39.0035 46.7619L39.4287 47.0249ZM39.5004 46.9136L39.0811 46.6412L39.0673 46.6625L39.0557 46.6851L39.5004 46.9136ZM39.8996 46.3675L40.2865 46.6843L40.4044 46.5404L40.3995 46.3544L39.8996 46.3675ZM39.9406 46.3271L39.9277 46.8269L40.1784 46.8334L40.3334 46.6364L39.9406 46.3271ZM40.3398 45.8214L39.9478 45.5111L39.947 45.5121L40.3398 45.8214ZM40.4115 45.7102L40.0428 45.3724L39.9974 45.4219L39.9667 45.4817L40.4115 45.7102ZM42.6431 43.8291L42.4265 43.3785L42.3985 43.3919L42.3724 43.4088L42.6431 43.8291ZM43.7794 43.283L43.5917 42.8196L43.577 42.8255L43.5628 42.8324L43.7794 43.283ZM49.7372 18.2327L50.1727 17.9871L49.2372 16.3279V18.2327H49.7372ZM74.029 61.3148L73.8118 61.7652L75.2473 62.4574L74.4645 61.0692L74.029 61.3148ZM65.0821 56.8751L65.3102 56.4302L65.3077 56.4289L65.0821 56.8751ZM61.9087 51.8185L61.4239 51.9412L61.4262 51.9499L61.4287 51.9586L61.9087 51.8185ZM61.5811 50.524H61.0811V50.5863L61.0964 50.6467L61.5811 50.524ZM61.1819 48.4711L61.6584 48.3199L61.6556 48.3107L61.6523 48.3017L61.1819 48.4711ZM78.0371 61.7972L51.2577 14.3462L50.3868 14.8377L77.1662 62.2887L78.0371 61.7972ZM51.261 14.3522C50.9902 13.8566 50.5891 13.4433 50.101 13.1556L49.5933 14.0171C49.9269 14.2138 50.1998 14.4955 50.3835 14.8317L51.261 14.3522ZM50.101 13.1556C49.613 12.868 49.0557 12.7164 48.4883 12.7164V13.7164C48.8777 13.7164 49.2596 13.8205 49.5933 14.0171L50.101 13.1556ZM48.4883 12.7164C47.9208 12.7164 47.3636 12.868 46.8755 13.1556L47.3833 14.0171C47.717 13.8205 48.0988 13.7164 48.4883 13.7164V12.7164ZM46.8755 13.1556C46.3874 13.4433 45.9864 13.8566 45.7155 14.3522L46.5931 14.8317C46.7768 14.4955 47.0496 14.2138 47.3833 14.0171L46.8755 13.1556ZM45.7188 14.3463L18.9497 61.7973L19.8206 62.2886L46.5898 14.8376L45.7188 14.3463ZM18.9506 61.7957C18.1214 63.2534 18.5955 65.1459 20.0853 66.0145L20.589 65.1506C19.5811 64.563 19.2568 63.2799 19.8198 62.2902L18.9506 61.7957ZM20.0829 66.0131L46.893 81.8503L47.4016 80.9893L20.5915 65.1521L20.0829 66.0131ZM46.9023 81.8556C47.4016 82.1363 47.9657 82.2837 48.5395 82.2837V81.2837C48.1369 81.2837 47.7415 81.1802 47.3923 80.9839L46.9023 81.8556ZM48.5395 82.2837C49.1132 82.2837 49.6773 82.1363 50.1767 81.8556L49.6866 80.9839C49.3374 81.1802 48.9421 81.2837 48.5395 81.2837V82.2837ZM50.1859 81.8503L76.955 66.0434L76.4465 65.1824L49.6774 80.9892L50.1859 81.8503ZM76.9699 66.0343C78.3681 65.1412 78.906 63.26 78.0315 61.7876L77.1717 62.2983C77.7508 63.2733 77.4084 64.5676 76.4316 65.1915L76.9699 66.0343ZM57.6837 42.5349L57.0285 41.9888L56.3882 42.7569L57.0434 43.303L57.6837 42.5349ZM57.0598 42.0171L57.0188 41.9767L56.3161 42.6881L56.357 42.7286L57.0598 42.0171ZM56.9815 41.9433C56.757 41.7621 56.5215 41.5949 56.2762 41.4425L55.7484 42.2919C55.9589 42.4226 56.1609 42.5661 56.3534 42.7215L56.9815 41.9433ZM56.3637 41.5115L56.3227 41.471L55.62 42.1824L55.6609 42.2229L56.3637 41.5115ZM56.2464 41.4092C56.0374 41.2715 55.7939 41.1074 55.5173 40.9543L55.0332 41.8294C55.2684 41.9595 55.4754 42.0988 55.6963 42.2443L56.2464 41.4092ZM55.2752 40.8919C55.3119 40.8919 55.3527 40.8965 55.3956 40.9084C55.4387 40.9204 55.4773 40.9379 55.5108 40.9583C55.5435 40.9782 55.5678 40.9986 55.5838 41.0135C55.5989 41.0276 55.6091 41.0393 55.6099 41.0401C55.6102 41.0405 55.6104 41.0407 55.6099 41.0401C55.6096 41.0398 55.6084 41.0385 55.6073 41.0372C55.605 41.0345 55.6001 41.029 55.5939 41.0224C55.5821 41.0098 55.5587 40.9858 55.5257 40.9606C55.4912 40.9342 55.4447 40.9052 55.3858 40.8837C55.326 40.8617 55.2642 40.8514 55.2036 40.8514V41.8514C55.1506 41.8514 55.0956 41.8423 55.0418 41.8226C54.9889 41.8033 54.9478 41.7775 54.9182 41.7549C54.8902 41.7334 54.8714 41.7138 54.864 41.706C54.8601 41.7018 54.8574 41.6987 54.8572 41.6985C54.8572 41.6985 54.8571 41.6984 54.858 41.6994C54.8586 41.7001 54.8598 41.7015 54.8613 41.7032C54.8665 41.7091 54.8813 41.7258 54.9015 41.7446C54.9226 41.7643 54.9524 41.7891 54.9914 41.8128C55.0311 41.8369 55.0767 41.8576 55.1278 41.8718C55.1786 41.886 55.2283 41.8919 55.2752 41.8919V40.8919ZM55.4786 40.9338C55.2293 40.7696 54.9222 40.6345 54.7289 40.539L54.286 41.4356C54.5432 41.5627 54.748 41.65 54.9286 41.769L55.4786 40.9338ZM54.5075 40.4873C54.5442 40.4873 54.585 40.4919 54.6278 40.5039C54.671 40.5158 54.7096 40.5334 54.7431 40.5538C54.7758 40.5736 54.8 40.594 54.8161 40.609C54.8312 40.6231 54.8414 40.6347 54.8421 40.6356C54.8424 40.636 54.8426 40.6361 54.8421 40.6356C54.8418 40.6353 54.8407 40.6339 54.8395 40.6326C54.8372 40.63 54.8323 40.6245 54.8262 40.6179C54.8144 40.6053 54.791 40.5813 54.758 40.556C54.7234 40.5296 54.677 40.5007 54.618 40.4791C54.5582 40.4572 54.4965 40.4469 54.4358 40.4469V41.4469C54.3829 41.4469 54.3279 41.4378 54.2741 41.4181C54.2212 41.3987 54.1801 41.373 54.1505 41.3504C54.1224 41.3289 54.1036 41.3093 54.0962 41.3014C54.0923 41.2972 54.0896 41.2942 54.0895 41.294C54.0894 41.294 54.0894 41.2939 54.0902 41.2949C54.0908 41.2955 54.0921 41.297 54.0935 41.2986C54.0988 41.3045 54.1136 41.3212 54.1338 41.3401C54.1549 41.3598 54.1847 41.3846 54.2236 41.4083C54.2633 41.4324 54.3089 41.4531 54.36 41.4673C54.4108 41.4814 54.4606 41.4873 54.5075 41.4873V40.4873ZM54.6656 40.5028C54.4307 40.3812 54.1411 40.2659 53.9084 40.1647L53.5097 41.0818C53.7888 41.2031 54.011 41.29 54.206 41.3909L54.6656 40.5028ZM53.709 40.1233C53.7457 40.1233 53.7865 40.1279 53.8294 40.1398C53.8725 40.1518 53.9111 40.1693 53.9446 40.1897C53.9773 40.2096 54.0016 40.23 54.0176 40.245C54.0327 40.259 54.0429 40.2707 54.0437 40.2715C54.044 40.2719 54.0442 40.2721 54.0437 40.2715C54.0434 40.2712 54.0422 40.2699 54.0411 40.2686C54.0388 40.266 54.0339 40.2604 54.0277 40.2539C54.0159 40.2413 53.9925 40.2172 53.9595 40.192C53.925 40.1656 53.8785 40.1366 53.8196 40.1151C53.7597 40.0931 53.698 40.0828 53.6374 40.0828V41.0828C53.5844 41.0828 53.5294 41.0737 53.4756 41.054C53.4227 41.0346 53.3816 41.0089 53.352 40.9863C53.3239 40.9648 53.3051 40.9452 53.2977 40.9373C53.2938 40.9331 53.2911 40.93 53.291 40.9299C53.291 40.9299 53.2909 40.9298 53.2917 40.9308C53.2923 40.9314 53.2936 40.9329 53.2951 40.9345C53.3003 40.9404 53.3151 40.9571 53.3353 40.976C53.3564 40.9957 53.3862 41.0205 53.4251 41.0442C53.4648 41.0683 53.5104 41.089 53.5615 41.1032C53.6123 41.1174 53.6621 41.1233 53.709 41.1233V40.1233ZM53.7938 40.1079C53.707 40.0793 53.6144 40.0413 53.5009 39.9943C53.3943 39.9503 53.2668 39.8973 53.1386 39.8551L52.8258 40.8049C52.9126 40.8335 53.0051 40.8715 53.1187 40.9184C53.2252 40.9625 53.3528 41.0155 53.481 41.0577L53.7938 40.1079ZM53.1558 39.8611C52.5377 39.6323 51.9012 39.4556 51.253 39.333L51.0671 40.3156C51.6604 40.4278 52.243 40.5895 52.8086 40.7989L53.1558 39.8611ZM50.717 39.5925C50.2786 40.4306 49.6526 41.1858 48.956 41.8352L49.6379 42.5666C50.3949 41.8609 51.0998 41.0182 51.6031 40.0561L50.717 39.5925ZM49.2659 42.6999C50.3378 42.7667 51.3804 43.0443 52.3251 43.4234L52.6976 42.4954C51.6768 42.0857 50.5287 41.7767 49.3281 41.7019L49.2659 42.6999ZM52.3157 43.4195C52.8736 43.6568 53.4123 43.9359 53.9271 44.2543L54.4532 43.4039C53.8953 43.0588 53.3115 42.7563 52.707 42.4993L52.3157 43.4195ZM54.1387 44.3265C54.0847 44.3209 54.0322 44.3042 53.9845 44.2773L54.4761 43.4065C54.4037 43.3656 54.3238 43.3403 54.2415 43.3318L54.1387 44.3265ZM53.9845 44.2773C53.9368 44.2504 53.8948 44.2137 53.8615 44.1692L54.6621 43.57C54.6119 43.5029 54.5485 43.4473 54.4761 43.4065L53.9845 44.2773ZM54.0404 44.3179C54.0663 44.3307 54.0986 44.3516 54.1514 44.3933C54.1782 44.4146 54.2053 44.437 54.2402 44.4658C54.2734 44.4932 54.3123 44.5251 54.3545 44.5578L54.9676 43.7679C54.9382 43.745 54.9092 43.7213 54.8765 43.6944C54.8455 43.6688 54.8086 43.6381 54.7715 43.6088C54.6963 43.5494 54.6007 43.4793 54.4832 43.4213L54.0404 44.3179ZM54.4214 44.6017C54.4444 44.6143 54.4651 44.6302 54.4828 44.6489L55.2078 43.96C55.1183 43.8659 55.0147 43.7863 54.9007 43.7241L54.4214 44.6017ZM54.5749 44.725C54.6792 44.7921 54.7762 44.8693 54.8646 44.9556L55.563 44.2399C55.4264 44.1065 55.2765 43.9873 55.1157 43.8839L54.5749 44.725ZM54.8624 44.9534C54.9224 45.0127 54.981 45.0575 55.0147 45.0837C55.0527 45.1132 55.0658 45.124 55.0774 45.1355L55.7802 44.4241C55.7202 44.3648 55.6616 44.32 55.6279 44.2938C55.59 44.2643 55.5769 44.2535 55.5652 44.242L54.8624 44.9534ZM55.0774 45.1355C55.1492 45.2064 55.2169 45.2634 55.2695 45.308C55.3244 45.3545 55.3642 45.3884 55.405 45.4287L56.1078 44.7174C56.036 44.6464 55.9683 44.5894 55.9157 44.5448C55.8608 44.4984 55.821 44.4644 55.7802 44.4241L55.0774 45.1355ZM55.405 45.4287L55.6199 45.6411L56.3227 44.9297L56.1078 44.7174L55.405 45.4287ZM55.6199 45.6411L55.9168 45.9344L56.6196 45.223L56.3227 44.9297L55.6199 45.6411ZM55.9168 45.9344L56.1318 46.1468L56.8346 45.4354L56.6196 45.223L55.9168 45.9344ZM56.0823 46.0898C56.1752 46.2146 56.2777 46.332 56.3887 46.4411L57.0895 45.7276C57.015 45.6545 56.9463 45.5758 56.8841 45.4923L56.0823 46.0898ZM56.3648 46.4159C56.391 46.4454 56.4157 46.477 56.458 46.5292C56.494 46.5736 56.5451 46.636 56.6027 46.6929L57.3055 45.9815C57.2914 45.9676 57.2709 45.944 57.2352 45.8999C57.2058 45.8636 57.1589 45.8042 57.1134 45.7529L56.3648 46.4159ZM56.5376 46.6139L56.7526 46.9375L57.5855 46.3842L57.3706 46.0605L56.5376 46.6139ZM56.7487 46.9316C56.774 46.9708 56.7981 47.0046 56.8177 47.0316C56.8402 47.0627 56.8504 47.0762 56.8636 47.095C56.8848 47.125 56.8852 47.1298 56.8841 47.1268L57.8225 46.7814C57.7805 46.6671 57.7246 46.5809 57.6817 46.5199C57.6282 46.4437 57.62 46.4375 57.5894 46.3901L56.7487 46.9316ZM56.9368 47.2308L57.1518 47.5544L57.9848 47.0011L57.7698 46.6774L56.9368 47.2308ZM57.1479 47.5485C57.1741 47.5891 57.1886 47.6178 57.2262 47.6837C57.2579 47.7392 57.3068 47.8218 57.3782 47.9025L58.1268 47.2395C58.1275 47.2403 58.1254 47.238 58.1199 47.2297C58.114 47.2209 58.1064 47.2084 58.0946 47.1878C58.0759 47.1551 58.0341 47.0775 57.9886 47.007L57.1479 47.5485ZM57.3322 47.8418C57.3549 47.8771 57.3738 47.9122 57.4029 47.967C57.4301 48.0184 57.4675 48.0894 57.5165 48.1654L58.3571 47.6239C58.3344 47.5886 58.3155 47.5535 58.2864 47.4986C58.2592 47.4473 58.2218 47.3762 58.1729 47.3002L57.3322 47.8418ZM57.5165 48.1654C57.5392 48.2007 57.5581 48.2358 57.5872 48.2907C57.6144 48.342 57.6518 48.4131 57.7007 48.489L58.5414 47.9475C58.5187 47.9122 58.4998 47.8771 58.4707 47.8222C58.4435 47.7709 58.4061 47.6998 58.3571 47.6239L57.5165 48.1654ZM57.6518 48.391C57.6849 48.4809 57.7305 48.5663 57.7504 48.6058C57.763 48.6306 57.7706 48.6465 57.7762 48.6593C57.7816 48.6716 57.7827 48.676 57.7824 48.6749L58.7464 48.4088C58.7163 48.3001 58.6696 48.2074 58.6427 48.1543C58.6089 48.0876 58.5981 48.0669 58.5903 48.0455L57.6518 48.391ZM57.8183 48.7677C57.8426 48.8158 57.8598 48.8614 57.8943 48.9449C57.9219 49.012 57.9685 49.1235 58.0407 49.2253L58.8566 48.6472C58.8571 48.648 58.8474 48.633 58.8188 48.5636C58.7969 48.5106 58.7578 48.4095 58.7105 48.3161L57.8183 48.7677ZM57.987 49.1283C58.2777 49.8273 58.4762 50.5603 58.5776 51.3092L59.5686 51.175C59.4555 50.3401 59.2343 49.5232 58.9103 48.7443L57.987 49.1283ZM58.5891 51.3675L58.9166 52.6317L59.8847 52.3808L59.5571 51.1167L58.5891 51.3675ZM58.917 52.6331C58.994 52.9264 59.3712 54.2539 60.1246 55.7139C60.8714 57.1609 62.0275 58.8167 63.6986 59.667L64.1521 58.7757C62.7623 58.0686 61.7278 56.6399 61.0133 55.2553C60.3054 53.8835 59.9506 52.6321 59.8843 52.3793L58.917 52.6331ZM63.6972 59.6663C67.2145 61.4695 71.8568 63.7171 73.6826 64.5785L74.1092 63.6741C72.2907 62.8161 67.6586 60.5735 64.1534 58.7764L63.6972 59.6663ZM73.6415 63.6958L49.5851 77.9149L50.0939 78.7758L74.1503 64.5567L73.6415 63.6958ZM50.3395 78.3454V68.6064H49.3395V78.3454H50.3395ZM50.3395 68.6064C50.3395 68.3824 50.456 68.0879 50.739 67.7292C51.0158 67.3783 51.4118 67.0172 51.8701 66.6701C52.7864 65.9763 53.8811 65.3916 54.5603 65.102L54.168 64.1821C53.4244 64.4992 52.2567 65.1231 51.2664 65.8729C50.7714 66.2477 50.303 66.6672 49.9539 67.1098C49.6108 67.5447 49.3395 68.0567 49.3395 68.6064H50.3395ZM54.61 65.0774L54.6816 65.037L54.19 64.1662L54.1184 64.2066L54.61 65.0774ZM54.6511 65.0529C54.9607 64.9052 55.2591 64.7472 55.5668 64.5691L55.0656 63.7037C54.7795 63.8694 54.5047 64.0148 54.2206 64.1503L54.6511 65.0529ZM55.5823 64.5597L55.6949 64.4889L55.1627 63.6423L55.0501 63.7131L55.5823 64.5597ZM55.6814 64.4971C56.3322 64.1161 56.9444 63.674 57.5095 63.1769L56.849 62.426C56.3321 62.8808 55.7719 63.2853 55.1762 63.6341L55.6814 64.4971ZM57.5307 63.1571C57.5144 63.1732 57.5025 63.1812 57.5131 63.1734C57.5151 63.1719 57.5446 63.1505 57.5671 63.1325C57.6197 63.0904 57.7185 63.0036 57.7813 62.8588L56.8639 62.4609C56.8798 62.4242 56.8995 62.3967 56.9157 62.3781C56.9235 62.3691 56.9302 62.3625 56.9348 62.3583C56.9393 62.3541 56.9422 62.3517 56.9425 62.3515C56.9426 62.3514 56.9413 62.3525 56.9367 62.3559C56.9343 62.3577 56.9319 62.3594 56.9283 62.3621C56.9251 62.3645 56.9207 62.3677 56.9162 62.371C56.9073 62.3777 56.8943 62.3874 56.8801 62.3991C56.8657 62.4107 56.8475 62.4264 56.8279 62.4457L57.5307 63.1571ZM57.5684 63.0953C57.6228 63.0646 57.6653 63.0315 57.6957 63.0057C57.7231 62.9823 57.7497 62.9566 57.7578 62.949C57.7709 62.9366 57.7691 62.939 57.7623 62.9442C57.7535 62.9509 57.7329 62.9655 57.7018 62.9787L57.3119 62.0578C57.184 62.112 57.0976 62.197 57.0717 62.2215C57.0617 62.2309 57.0586 62.234 57.053 62.2391C57.0487 62.2431 57.0473 62.2443 57.0474 62.2442C57.0477 62.2439 57.0583 62.2349 57.0768 62.2244L57.5684 63.0953ZM57.8115 62.9147C57.9323 62.8219 58.0359 62.7187 58.1142 62.6414C58.1996 62.5569 58.2599 62.4983 58.3233 62.4495L57.7141 61.6566C57.5932 61.7494 57.4897 61.8526 57.4114 61.93C57.3259 62.0144 57.2656 62.0731 57.2022 62.1218L57.8115 62.9147ZM58.3701 62.4088L58.4417 62.338L57.739 61.6266L57.6673 61.6973L58.3701 62.4088ZM58.4298 62.3494C58.6433 62.1521 58.8366 61.9343 59.007 61.6993L58.1974 61.1123C58.0657 61.2939 57.9162 61.4623 57.751 61.6151L58.4298 62.3494ZM59.035 61.6562C59.0241 61.6751 59.0146 61.6858 59.0144 61.6861C59.0142 61.6863 59.0154 61.6849 59.0194 61.6807C59.0247 61.6752 59.0277 61.6721 59.0373 61.6622C59.0616 61.637 59.1486 61.551 59.2042 61.4228L58.2868 61.0248C58.3006 60.9929 58.3159 60.9719 58.3228 60.9631C58.3282 60.9562 58.3307 60.9544 58.3181 60.9674C58.3105 60.9753 58.2844 61.0016 58.2607 61.0288C58.2345 61.0588 58.2008 61.1012 58.1694 61.1555L59.035 61.6562ZM59.0969 61.5795C59.1963 61.4813 59.2784 61.3757 59.3462 61.2847C59.4214 61.1836 59.4709 61.1122 59.5376 61.0274L58.7519 60.4088C58.6753 60.5061 58.5968 60.6167 58.544 60.6876C58.4838 60.7685 58.438 60.8247 58.3941 60.8681L59.0969 61.5795ZM59.4961 61.0738C59.5341 61.0363 59.562 60.9997 59.5787 60.9766C59.5945 60.9549 59.6108 60.9301 59.6155 60.9232C59.6239 60.9107 59.6228 60.913 59.6179 60.9191C59.6135 60.9246 59.5926 60.9505 59.555 60.9783L58.9597 60.1748C58.9017 60.2178 58.8615 60.2639 58.8386 60.2924C58.8151 60.3217 58.7961 60.3498 58.7866 60.3639C58.7733 60.3835 58.7718 60.3859 58.769 60.3898C58.7672 60.3923 58.7758 60.3797 58.7933 60.3624L59.4961 61.0738ZM59.6708 60.8577L60.111 60.2105L59.2841 59.6481L58.8439 60.2954L59.6708 60.8577ZM60.1975 59.9293C60.1975 59.9671 60.1926 60.009 60.1802 60.0528C60.1676 60.0969 60.1493 60.1361 60.1283 60.1698C60.1079 60.2026 60.087 60.2269 60.0718 60.2427C60.0575 60.2576 60.0458 60.2677 60.045 60.2684C60.0446 60.2687 60.0444 60.2689 60.045 60.2684C60.0453 60.2681 60.0466 60.267 60.0479 60.2658C60.0506 60.2636 60.0562 60.2587 60.0628 60.2527C60.0755 60.2411 60.0999 60.2179 60.1256 60.1851C60.1525 60.1507 60.1824 60.104 60.2048 60.0443C60.2276 59.9835 60.2385 59.9206 60.2385 59.8585H59.2385C59.2385 59.804 59.248 59.7477 59.2686 59.6929C59.2888 59.6391 59.3155 59.5977 59.3385 59.5683C59.3604 59.5403 59.3804 59.5217 59.3882 59.5145C59.3925 59.5106 59.3956 59.5079 59.3957 59.5078C59.3957 59.5078 59.3958 59.5077 59.3948 59.5086C59.3941 59.5091 59.3927 59.5104 59.391 59.5118C59.3851 59.517 59.3682 59.5316 59.3491 59.5515C59.3292 59.5724 59.3038 59.6021 59.2795 59.6411C59.2547 59.6809 59.2332 59.727 59.2184 59.7789C59.2037 59.8306 59.1975 59.8814 59.1975 59.9293H60.1975ZM60.1618 60.1245C60.3702 59.7929 60.5209 59.5223 60.7103 59.2311L59.8722 58.6857C59.6931 58.9609 59.4753 59.3376 59.3151 59.5925L60.1618 60.1245ZM60.6749 58.6378C59.9801 57.8063 59.447 56.9111 59.0176 56.0628L58.1254 56.5143C58.5764 57.4054 59.1488 58.3711 59.9076 59.2791L60.6749 58.6378ZM58.0994 56.1239C57.9225 56.631 57.7015 57.1222 57.439 57.5919L58.3118 58.0799C58.6027 57.5596 58.8476 57.0153 59.0436 56.4532L58.0994 56.1239ZM57.4336 57.6017C57.3835 57.6963 57.3253 57.7952 57.2602 57.9059C57.1974 58.0127 57.1275 58.1311 57.0651 58.2489L57.9486 58.7173C57.9988 58.6227 58.0569 58.5237 58.122 58.4131C58.1849 58.3063 58.2547 58.1878 58.3171 58.0701L57.4336 57.6017ZM57.1555 58.1274C57.094 58.1882 57.0453 58.2642 57.0592 58.2446C57.0605 58.2428 57.0973 58.1877 57.1666 58.1391C57.2051 58.1121 57.2503 58.0891 57.3013 58.0737C57.3514 58.0587 57.3974 58.0539 57.4352 58.0539V59.0539C57.536 59.0539 57.6441 59.0256 57.7406 58.9579C57.8198 58.9024 57.8649 58.8372 57.8752 58.8227C57.907 58.7778 57.8788 58.8185 57.8583 58.8388L57.1555 58.1274ZM57.0149 58.283C56.9123 58.4423 56.8005 58.5957 56.6801 58.7425L57.4533 59.3766C57.5978 59.2004 57.7321 59.0162 57.8555 58.8248L57.0149 58.283ZM56.7153 58.7039C56.6773 58.7414 56.6494 58.778 56.6327 58.801C56.617 58.8228 56.6006 58.8475 56.5959 58.8545C56.5875 58.8669 56.5886 58.8647 56.5936 58.8586C56.598 58.8531 56.6189 58.8272 56.6564 58.7994L57.2517 59.6029C57.3097 59.5599 57.3499 59.5138 57.3728 59.4853C57.3963 59.456 57.4153 59.4279 57.4248 59.4138C57.4381 59.3942 57.4396 59.3918 57.4424 59.3879C57.4442 59.3854 57.4356 59.398 57.4181 59.4153L56.7153 58.7039ZM56.538 58.9239C56.4469 59.0606 56.3394 59.1859 56.2176 59.2972L56.8921 60.0355C57.0736 59.8697 57.2341 59.6826 57.3702 59.4784L56.538 58.9239ZM56.2034 59.3107C56.142 59.3714 56.0933 59.4475 56.1072 59.4278C56.1085 59.426 56.1453 59.3709 56.2145 59.3224C56.2531 59.2954 56.2983 59.2723 56.3493 59.257C56.3994 59.2419 56.4454 59.2371 56.4832 59.2371V60.2371C56.584 60.2371 56.6921 60.2089 56.7886 60.1412C56.8678 60.0856 56.9129 60.0205 56.9231 60.006C56.955 59.9611 56.9268 60.0018 56.9062 60.022L56.2034 59.3107ZM56.1128 59.4013C55.2702 60.3305 54.2669 61.1176 53.1252 61.6625L53.5558 62.565C54.8299 61.957 55.9354 61.0855 56.8536 60.073L56.1128 59.4013ZM53.1107 61.6697L52.8957 61.7809L53.3553 62.669L53.5703 62.5578L53.1107 61.6697ZM52.9379 61.7615C52.6007 61.8981 51.0593 62.5857 49.5924 63.7134C48.149 64.823 46.637 66.4676 46.637 68.5356H47.637C47.637 66.9629 48.807 65.5785 50.2019 64.5062C51.5731 63.4521 53.0259 62.8047 53.3132 62.6884L52.9379 61.7615ZM46.637 68.5356V78.2746H47.637V68.5356H46.637ZM47.3905 77.8436L23.2829 63.6649L22.776 64.5269L46.8835 78.7056L47.3905 77.8436ZM23.2869 64.5246C24.8593 63.5803 29.3447 60.9426 33.0045 59.8103L32.709 58.855C28.9164 60.0284 24.332 62.7305 22.772 63.6673L23.2869 64.5246ZM33.0082 59.8091C33.2408 59.7352 33.599 59.7433 34.0872 59.8724C34.5642 59.9986 35.1088 60.2249 35.6793 60.5172C36.8196 61.1012 38.0043 61.9177 38.8597 62.6047L39.4859 61.825C38.5909 61.1063 37.3494 60.249 36.1352 59.6271C35.5286 59.3164 34.9139 59.0567 34.3429 58.9057C33.7831 58.7576 33.2046 58.6974 32.7053 58.8561L33.0082 59.8091ZM38.8214 62.5706L38.934 62.6818L39.6368 61.9704L39.5242 61.8592L38.8214 62.5706ZM38.9331 62.6809C39.1772 62.9233 39.4401 63.1465 39.7194 63.3483L40.3051 62.5378C40.068 62.3664 39.8449 62.177 39.6377 61.9713L38.9331 62.6809ZM39.6608 63.2987L39.7325 63.3695L40.4353 62.6581L40.3636 62.5873L39.6608 63.2987ZM39.7747 63.4068C40.3309 63.8443 40.9489 64.3072 41.6539 64.6555L42.0968 63.7589C41.4915 63.4599 40.9425 63.0531 40.393 62.6208L39.7747 63.4068ZM41.6581 64.6575L42.0982 64.8699L42.5328 63.9692L42.0926 63.7568L41.6581 64.6575ZM42.2641 64.9169C42.21 64.9113 42.1575 64.8946 42.1098 64.8677L42.6014 63.9969C42.5291 63.9561 42.4492 63.9307 42.3669 63.9222L42.2641 64.9169ZM42.1098 64.8677C42.0621 64.8408 42.0201 64.8041 41.9869 64.7596L42.7874 64.1604C42.7373 64.0934 42.6739 64.0378 42.6014 63.9969L42.1098 64.8677ZM42.1523 64.9014C42.5696 65.1234 42.9842 65.3122 43.4347 65.4985L43.8169 64.5744C43.3871 64.3967 43.0032 64.2214 42.622 64.0186L42.1523 64.9014ZM43.4135 65.4891C43.4948 65.5272 43.5787 65.5595 43.6647 65.5856L43.9555 64.6288C43.9153 64.6166 43.8761 64.6016 43.8381 64.5838L43.4135 65.4891ZM43.8101 65.6072C43.7359 65.6072 43.681 65.5883 43.6585 65.5796C43.6478 65.5754 43.6408 65.5721 43.6424 65.5728C43.6431 65.5731 43.6438 65.5735 43.6471 65.5751C43.6498 65.5763 43.6544 65.5785 43.6594 65.5809C43.6801 65.5905 43.7203 65.6085 43.7722 65.623C43.826 65.638 43.8866 65.6477 43.9534 65.6477V64.6477C43.9844 64.6477 44.0142 64.6523 44.0409 64.6598C44.0656 64.6666 44.082 64.6746 44.081 64.6741C44.0806 64.6739 44.0799 64.6735 44.0773 64.6723C44.0754 64.6714 44.071 64.6693 44.0667 64.6673C44.0581 64.6633 44.0413 64.6555 44.0208 64.6475C43.9788 64.6312 43.9047 64.6072 43.8101 64.6072V65.6072ZM43.7924 65.6211C44.4291 65.8376 45.0577 66.024 45.6984 66.1797L45.9345 65.2079C45.3263 65.0602 44.7265 64.8825 44.1144 64.6743L43.7924 65.6211ZM46.2595 65.9256C46.6947 65.0938 47.3473 64.3395 48.0589 63.6853L47.3821 62.9491C46.6196 63.6501 45.88 64.4937 45.3734 65.462L46.2595 65.9256ZM47.754 62.8183C46.7759 62.7527 45.813 62.5449 44.8965 62.2017L44.5458 63.1382C45.5536 63.5156 46.612 63.7439 47.687 63.8161L47.754 62.8183ZM45.0725 62.3143C45.0105 62.253 44.9464 62.2164 44.9006 62.1946C44.8567 62.1737 44.8167 62.1607 44.802 62.1559C44.7906 62.1521 44.7905 62.1521 44.7875 62.1511C44.7862 62.1506 44.7919 62.1525 44.8009 62.1563C44.8139 62.1618 44.871 62.1859 44.9292 62.2435L44.2264 62.9549C44.3 63.0276 44.3776 63.0631 44.414 63.0784C44.4346 63.0871 44.4527 63.0934 44.4642 63.0974C44.4741 63.1008 44.4872 63.105 44.4893 63.1057C44.5015 63.1097 44.489 63.1062 44.471 63.0976C44.4511 63.0882 44.4113 63.0667 44.3697 63.0257L45.0725 62.3143ZM44.7213 62.1202C44.6442 62.0971 44.5702 62.0651 44.5009 62.0249L43.9996 62.8902C44.1366 62.9696 44.2826 63.0327 44.4343 63.0781L44.7213 62.1202ZM44.6017 62.1019C44.5396 62.0406 44.4755 62.004 44.4297 61.9822C44.3858 61.9613 44.3458 61.9483 44.3311 61.9435C44.3197 61.9397 44.3196 61.9397 44.3166 61.9387C44.3153 61.9383 44.321 61.9401 44.3299 61.9439C44.343 61.9494 44.4001 61.9735 44.4583 62.0311L43.7555 62.7425C43.8292 62.8152 43.9067 62.8508 43.9431 62.866C43.9637 62.8747 43.9818 62.8811 43.9934 62.885C44.0032 62.8884 44.0164 62.8927 44.0184 62.8933C44.0306 62.8973 44.0181 62.8938 44.0001 62.8853C43.9803 62.8758 43.9404 62.8543 43.8989 62.8133L44.6017 62.1019ZM44.276 61.9162C44.2572 61.9095 44.2319 61.8974 44.1818 61.8708C44.1611 61.8597 44.1296 61.8428 44.1003 61.828C44.0704 61.8129 44.0297 61.7934 43.9838 61.7764L43.6364 62.7141C43.6314 62.7122 43.6342 62.7129 43.65 62.7209C43.6665 62.7292 43.683 62.7381 43.7122 62.7536C43.7619 62.7801 43.8441 62.8236 43.9379 62.8574L44.276 61.9162ZM44.034 61.7982C43.3269 61.4439 42.6969 61.0688 42.1215 60.5951L41.4859 61.3671C42.1389 61.9047 42.8396 62.3183 43.5861 62.6923L44.034 61.7982ZM42.1409 60.6119L41.1889 59.7422L40.5144 60.4805L41.4664 61.3502L42.1409 60.6119ZM41.1795 59.7338C40.2751 58.9486 39.2956 58.2524 38.2547 57.655L37.757 58.5224C38.7418 59.0875 39.6685 59.7462 40.5238 60.4889L41.1795 59.7338ZM38.2508 57.6528C35.8337 56.2942 33.6736 55.7803 31.9411 56.3166L32.2368 57.2719C33.5754 56.8575 35.4281 57.2133 37.7608 58.5246L38.2508 57.6528ZM31.9372 56.3178C28.7111 57.3459 25.0497 59.2793 22.8512 60.548L23.351 61.4141C25.5338 60.1545 29.1201 58.2651 32.2408 57.2706L31.9372 56.3178ZM23.5367 61.2265L47.6034 18.5085L46.7321 18.0176L22.6655 60.7356L23.5367 61.2265ZM46.6677 18.263V36.9926H47.6677V18.263H46.6677ZM46.6677 36.9926C46.6677 37.0437 46.6428 37.1913 46.5189 37.4291C46.3995 37.6581 46.2017 37.9442 45.8973 38.2658C45.2893 38.9083 44.2698 39.6774 42.6541 40.3994L43.062 41.3124C44.7732 40.5477 45.9086 39.7088 46.6237 38.9531C46.9809 38.5756 47.2367 38.2152 47.4055 37.8914C47.5698 37.5764 47.6677 37.2651 47.6677 36.9926H46.6677ZM42.6283 40.4118L42.4133 40.523L42.8729 41.4112L43.0879 41.2999L42.6283 40.4118ZM42.4447 40.5081C42.0868 40.6628 41.7513 40.8673 41.4482 41.0357L41.9339 41.9098C42.286 41.7142 42.5442 41.5546 42.8415 41.4261L42.4447 40.5081ZM41.4453 41.0373L41.3736 41.0778L41.8652 41.9486L41.9368 41.9082L41.4453 41.0373ZM41.3639 41.0834C40.7118 41.4711 40.0914 41.9088 39.5086 42.3927L40.1474 43.1621C40.6899 42.7116 41.2675 42.304 41.8749 41.943L41.3639 41.0834ZM39.5148 42.3876C39.1378 42.6905 38.7881 43.0252 38.4696 43.3879L39.2209 44.0478C39.5013 43.7286 39.8092 43.4339 40.1412 43.1671L39.5148 42.3876ZM38.4938 43.3622L38.4529 43.4026L39.1557 44.114L39.1966 44.0736L38.4938 43.3622ZM38.4582 43.3975C38.113 43.7286 37.7986 44.0897 37.5188 44.4767L38.3291 45.0626C38.5736 44.7245 38.8485 44.4088 39.1504 44.1192L38.4582 43.3975ZM37.5725 44.414L37.5316 44.4544L38.2344 45.1658L38.2753 45.1253L37.5725 44.414ZM37.4901 44.5008C37.4088 44.6042 37.3372 44.7061 37.2743 44.7956C37.2093 44.8882 37.1529 44.9682 37.0909 45.0469L37.8766 45.6655C37.958 45.5622 38.0295 45.4602 38.0924 45.3707C38.1575 45.2782 38.2139 45.1981 38.2758 45.1194L37.4901 44.5008ZM36.9838 45.3562C36.9838 45.3184 36.9886 45.2765 37.0011 45.2327C37.0137 45.1886 37.032 45.1494 37.053 45.1157C37.0734 45.0829 37.0943 45.0586 37.1095 45.0428C37.1237 45.0279 37.1355 45.0179 37.1363 45.0172C37.1367 45.0168 37.1369 45.0167 37.1363 45.0172C37.136 45.0174 37.1346 45.0186 37.1333 45.0197C37.1307 45.022 37.1251 45.0268 37.1185 45.0329C37.1058 45.0444 37.0814 45.0676 37.0556 45.1004C37.0287 45.1348 36.9989 45.1815 36.9765 45.2412C36.9537 45.302 36.9428 45.3649 36.9428 45.427H37.9428C37.9428 45.4815 37.9332 45.5378 37.9127 45.5926C37.8925 45.6464 37.8658 45.6878 37.8428 45.7172C37.8209 45.7452 37.8009 45.7638 37.7931 45.771C37.7888 45.7749 37.7857 45.7776 37.7856 45.7777C37.7856 45.7777 37.7855 45.7778 37.7865 45.7769C37.7872 45.7763 37.7886 45.7751 37.7903 45.7737C37.7962 45.7685 37.8131 45.7539 37.8321 45.734C37.8521 45.7131 37.8775 45.6834 37.9018 45.6444C37.9266 45.6046 37.9481 45.5586 37.9629 45.5066C37.9776 45.4549 37.9838 45.4041 37.9838 45.3562H36.9838ZM37.0176 45.164C36.9661 45.2471 36.9167 45.3216 36.8625 45.4032C36.8092 45.4835 36.7512 45.5708 36.69 45.6696L37.5405 46.1957C37.5919 46.1125 37.6413 46.038 37.6955 45.9565C37.7488 45.8762 37.8069 45.7889 37.868 45.69L37.0176 45.164ZM36.6152 45.9327C36.6152 45.8949 36.6201 45.8529 36.6326 45.8091C36.6452 45.765 36.6635 45.7258 36.6844 45.6922C36.7049 45.6593 36.7258 45.6351 36.7409 45.6193C36.7552 45.6043 36.767 45.5943 36.7678 45.5936C36.7681 45.5933 36.7683 45.5931 36.7677 45.5936C36.7674 45.5939 36.7661 45.595 36.7648 45.5961C36.7622 45.5984 36.7566 45.6032 36.7499 45.6093C36.7373 45.6209 36.7129 45.6441 36.6871 45.6769C36.6602 45.7112 36.6303 45.758 36.6079 45.8176C36.5851 45.8784 36.5743 45.9414 36.5743 46.0035H37.5743C37.5743 46.0579 37.5647 46.1143 37.5441 46.1691C37.524 46.2228 37.4973 46.2643 37.4742 46.2937C37.4523 46.3216 37.4324 46.3403 37.4245 46.3475C37.4203 46.3514 37.4172 46.354 37.4171 46.3541C37.417 46.3542 37.417 46.3542 37.4179 46.3534C37.4186 46.3528 37.4201 46.3516 37.4218 46.3501C37.4277 46.345 37.4446 46.3304 37.4636 46.3104C37.4836 46.2896 37.5089 46.2599 37.5332 46.2209C37.558 46.181 37.5795 46.135 37.5943 46.0831C37.6091 46.0314 37.6152 45.9806 37.6152 45.9327H36.6152ZM36.6455 45.7463L36.3179 46.2924L37.1755 46.8068L37.5031 46.2607L36.6455 45.7463ZM36.3953 46.1939C36.3618 46.2269 36.3306 46.2643 36.3028 46.3072C36.2754 46.3494 36.2575 46.388 36.2455 46.4166C36.2358 46.4399 36.2262 46.4668 36.2244 46.4717C36.2208 46.4814 36.2187 46.4868 36.2164 46.4922L37.1338 46.8901C37.1468 46.8601 37.1562 46.8352 37.1625 46.818C37.164 46.8141 37.1654 46.8101 37.1664 46.8074C37.1675 46.8043 37.1683 46.8024 37.1689 46.8008C37.1701 46.7974 37.1698 46.7984 37.1686 46.8013C37.1656 46.8085 37.1572 46.8275 37.1423 46.8505C37.1351 46.8617 37.1273 46.8722 37.1194 46.8819C37.1115 46.8915 37.1042 46.8993 37.0981 46.9053L36.3953 46.1939ZM36.2498 46.4281C36.1246 46.6306 36.0153 46.8874 35.973 46.971L36.8653 47.4226C36.9662 47.2231 37.0003 47.1158 37.1003 46.9542L36.2498 46.4281ZM35.9219 47.1442C35.9278 47.0882 35.9455 47.0344 35.9734 46.9861L36.839 47.4868C36.881 47.4142 36.9075 47.3334 36.9164 47.2495L35.9219 47.1442ZM35.9734 46.9861C36.0013 46.9379 36.0388 46.8964 36.0832 46.8639L36.6731 47.6713C36.7404 47.6222 36.797 47.5594 36.839 47.4868L35.9734 46.9861ZM35.9129 47.0845C35.8815 47.1644 35.8497 47.2362 35.8135 47.318C35.7781 47.398 35.7382 47.488 35.698 47.5901L36.6285 47.9564C36.6599 47.8765 36.6917 47.8047 36.7279 47.7229C36.7633 47.6429 36.8032 47.5529 36.8434 47.4508L35.9129 47.0845ZM35.7125 47.5567C35.6737 47.6375 35.6408 47.721 35.6142 47.8066L36.5689 48.104C36.5811 48.065 36.5961 48.0268 36.6139 47.9898L35.7125 47.5567ZM35.6263 47.7722L35.4113 48.3183L36.3418 48.6846L36.5568 48.1384L35.6263 47.7722ZM35.4259 48.2849C35.3871 48.3657 35.3542 48.4492 35.3276 48.5347L36.2823 48.8322C36.2945 48.7931 36.3095 48.755 36.3273 48.718L35.4259 48.2849ZM35.3199 48.562C35.2942 48.6645 35.258 48.7643 35.2117 48.8597L36.1115 49.296C36.1877 49.1388 36.2475 48.9743 36.29 48.8049L35.3199 48.562ZM35.2288 48.8275C35.172 48.9257 35.1484 49.0173 35.1372 49.0614C35.1227 49.1189 35.1262 49.1029 35.1313 49.0913L36.0487 49.4892C36.0684 49.4438 36.0812 49.4029 36.0898 49.372C36.097 49.3463 36.105 49.3134 36.1067 49.3067C36.1134 49.28 36.1103 49.3008 36.0944 49.3282L35.2288 48.8275ZM35.1021 49.1805C35.0868 49.2488 35.0647 49.3212 35.0372 49.4091C35.0129 49.4869 34.9792 49.5923 34.958 49.6899L35.9353 49.9019C35.9448 49.8579 35.9623 49.8015 35.9917 49.7074C36.018 49.6233 36.0522 49.5138 36.0778 49.4L35.1021 49.1805ZM35.0138 49.5456C34.9763 49.6104 34.955 49.6721 34.9423 49.7159C34.9296 49.7599 34.9213 49.8008 34.9164 49.8258C34.9101 49.8579 34.9087 49.8659 34.9062 49.8769C34.9041 49.8861 34.9064 49.8726 34.9163 49.8497L35.8337 50.2477C35.8589 50.1895 35.8728 50.1355 35.8806 50.1017C35.888 50.0697 35.8949 50.0323 35.8976 50.0189C35.9016 49.9983 35.9029 49.9937 35.9027 49.9947C35.9024 49.9956 35.8965 50.0168 35.8795 50.0462L35.0138 49.5456ZM34.9058 49.876C34.8647 49.9875 34.8489 50.0995 34.8403 50.1606C34.8287 50.2424 34.8258 50.2636 34.8214 50.2798L35.7853 50.5459C35.8115 50.4508 35.824 50.3455 35.8304 50.3009C35.8396 50.2356 35.8443 50.2212 35.8442 50.2214L34.9058 49.876ZM34.8341 50.2401C34.7969 50.3413 34.7806 50.4323 34.7706 50.4914C34.7592 50.5594 34.7564 50.5791 34.7497 50.6034L35.7136 50.8695C35.7377 50.7825 35.7502 50.696 35.7567 50.6578C35.7646 50.6107 35.7689 50.5956 35.7726 50.5855L34.8341 50.2401ZM34.7514 50.5975C34.7188 50.7102 34.7048 50.8185 34.6957 50.8932C34.6851 50.9799 34.6805 51.0231 34.6714 51.0653L35.6487 51.2773C35.6702 51.1779 35.681 51.0745 35.6883 51.0145C35.6971 50.9426 35.7036 50.9042 35.712 50.8753L34.7514 50.5975ZM34.66 51.1713C34.66 51.1648 34.6624 51.1607 34.6517 51.2082C34.6419 51.2517 34.6191 51.3469 34.6191 51.4646H35.6191C35.6191 51.471 35.6167 51.4752 35.6273 51.4277C35.6371 51.3842 35.66 51.289 35.66 51.1713H34.66ZM34.6191 51.4646C34.6191 51.4895 34.6159 51.5149 34.605 51.5818C34.5954 51.6413 34.5781 51.7423 34.5781 51.859H35.5781C35.5781 51.8341 35.5813 51.8086 35.5922 51.7417C35.6018 51.6822 35.6191 51.5812 35.6191 51.4646H34.6191ZM34.5788 51.8842C34.5829 51.9656 34.5744 52.0472 34.5536 52.1262L35.5207 52.3806C35.5676 52.2023 35.5868 52.0179 35.5775 51.8338L34.5788 51.8842ZM34.5372 52.2534V52.7995H35.5372V52.2534H34.5372ZM34.5372 52.7962C34.5327 53.4762 34.5825 54.1554 34.6863 54.8277L35.6746 54.6751C35.579 54.0555 35.533 53.4295 35.5372 52.8028L34.5372 52.7962ZM35.0716 55.2394C35.9679 55.4393 36.9102 55.8244 37.9653 56.3256L38.3944 55.4223C37.3203 54.9121 36.2971 54.4882 35.2893 54.2634L35.0716 55.2394ZM38.6567 55.7234C38.3759 54.8339 38.2383 53.9095 38.2087 52.936L37.2092 52.9664C37.2411 54.0155 37.3901 55.0329 37.703 56.0244L38.6567 55.7234ZM38.209 52.9512V52.7692H37.209V52.9512H38.209ZM38.2088 52.755C38.2028 52.5434 38.2149 52.3316 38.2449 52.122L37.255 51.9803C37.2169 52.2462 37.2016 52.5148 37.2092 52.7833L38.2088 52.755ZM38.2499 52.0511V51.8691H37.2499V52.0511H38.2499ZM38.2499 51.8691C38.2499 51.7025 38.2794 51.5922 38.3169 51.3206L37.3263 51.1838C37.3023 51.3571 37.2499 51.611 37.2499 51.8691H38.2499ZM38.3216 51.2522V51.1814H37.3216V51.2522H38.3216ZM38.3125 51.2761C38.3553 51.0543 38.3894 50.8104 38.4277 50.5736L37.4406 50.4138C37.3971 50.6826 37.3698 50.8837 37.3306 51.0867L38.3125 51.2761ZM38.4342 50.4937C38.4342 50.5579 38.4123 50.607 38.4239 50.5754C38.4327 50.5513 38.4751 50.4467 38.4751 50.3117H37.4751C37.4751 50.2475 37.497 50.1984 37.4854 50.23C37.4766 50.254 37.4342 50.3587 37.4342 50.4937H38.4342ZM38.4629 50.4214C38.4788 50.3509 38.5005 50.2807 38.5302 50.1802C38.5572 50.0885 38.5907 49.9721 38.6115 49.8487L37.6254 49.6824C37.6155 49.741 37.5977 49.8067 37.5711 49.897C37.547 49.9785 37.5124 50.0904 37.4873 50.2019L38.4629 50.4214ZM38.6184 49.7656C38.6184 49.8417 38.5988 49.8994 38.586 49.93C38.5797 49.945 38.5741 49.9557 38.5718 49.9599C38.5699 49.9635 38.5685 49.9659 38.5717 49.9603C38.5736 49.957 38.5801 49.9458 38.5869 49.9333C38.5939 49.9201 38.604 49.9004 38.6142 49.8762C38.6346 49.8274 38.6594 49.7506 38.6594 49.6543H37.6594C37.6594 49.5782 37.679 49.5204 37.6918 49.4899C37.6981 49.4749 37.7037 49.4642 37.706 49.4599C37.7079 49.4564 37.7093 49.454 37.7061 49.4596C37.7042 49.4629 37.6977 49.4741 37.691 49.4866C37.6839 49.4997 37.6738 49.5194 37.6637 49.5436C37.6432 49.5925 37.6184 49.6692 37.6184 49.7656H38.6184ZM38.6339 49.8119L38.8489 49.1647L37.8998 48.8495L37.6849 49.4967L38.6339 49.8119ZM38.7258 49.3628C38.7879 49.3013 38.8255 49.2374 38.848 49.1912C38.8695 49.1471 38.8829 49.1069 38.8878 49.0923C38.8916 49.0809 38.8916 49.081 38.8926 49.0781C38.893 49.077 38.8909 49.0829 38.887 49.0922C38.881 49.1061 38.856 49.1633 38.7974 49.2212L38.0946 48.5098C38.0207 48.5828 37.9841 48.6603 37.9683 48.6973C37.9593 48.718 37.9527 48.7362 37.9487 48.7478C37.9453 48.7576 37.9409 48.7708 37.9403 48.7727C37.9362 48.7846 37.94 48.7716 37.949 48.7531C37.9591 48.7325 37.9813 48.6926 38.023 48.6514L38.7258 49.3628ZM38.9113 49.0486C38.9857 48.8596 39.0483 48.7019 39.1071 48.5856L38.2149 48.134C38.1304 48.3009 38.0497 48.5073 37.9808 48.6823L38.9113 49.0486ZM39.0124 48.7155C39.0459 48.6825 39.0771 48.6451 39.1049 48.6022C39.1323 48.56 39.1502 48.5215 39.1622 48.4928C39.1719 48.4695 39.1815 48.4426 39.1833 48.4377C39.1869 48.428 39.189 48.4226 39.1913 48.4172L38.2739 48.0193C38.2609 48.0493 38.2515 48.0742 38.2452 48.0914C38.2437 48.0953 38.2423 48.0993 38.2413 48.102C38.2402 48.1051 38.2394 48.107 38.2388 48.1086C38.2376 48.112 38.2379 48.111 38.2391 48.1081C38.2421 48.1009 38.2505 48.0819 38.2654 48.0589C38.2726 48.0477 38.2804 48.0372 38.2883 48.0275C38.2962 48.0179 38.3035 48.0101 38.3096 48.0041L39.0124 48.7155ZM39.1744 48.4525C39.317 48.1835 39.3468 48.086 39.4531 47.9511L38.6674 47.3325C38.487 47.5616 38.3735 47.8282 38.2909 47.984L39.1744 48.4525ZM39.4522 47.9522C39.4999 47.892 39.5415 47.8273 39.5766 47.7591L38.6871 47.302C38.6819 47.3123 38.6755 47.3222 38.6682 47.3314L39.4522 47.9522ZM39.5571 47.7936C39.6188 47.6938 39.669 47.6055 39.7148 47.5251C39.7612 47.4437 39.8031 47.3702 39.854 47.2879L39.0035 46.7619C38.9418 46.8616 38.8916 46.9499 38.8458 47.0303C38.7995 47.1117 38.7576 47.1852 38.7067 47.2675L39.5571 47.7936ZM39.8208 47.3352C39.8684 47.2751 39.91 47.2104 39.9451 47.1422L39.0557 46.6851C39.0504 46.6954 39.0441 46.7053 39.0367 46.7145L39.8208 47.3352ZM39.9197 47.1861C40.0325 47.0124 40.155 46.8449 40.2865 46.6843L39.5128 46.0507C39.3581 46.2396 39.214 46.4367 39.0811 46.6412L39.9197 47.1861ZM40.3995 46.3544C40.4011 46.4178 40.3897 46.4807 40.3661 46.5392L39.4389 46.1646C39.4112 46.2331 39.3979 46.3066 39.3998 46.3807L40.3995 46.3544ZM40.3661 46.5392C40.3424 46.5977 40.3071 46.6504 40.2627 46.6943L39.5599 45.9829C39.5078 46.0344 39.4665 46.0961 39.4389 46.1646L40.3661 46.5392ZM40.2627 46.6943C40.2183 46.7382 40.1656 46.7724 40.1081 46.795L39.7414 45.8647C39.6738 45.8913 39.612 45.9314 39.5599 45.9829L40.2627 46.6943ZM40.1081 46.795C40.0506 46.8177 39.9893 46.8285 39.9277 46.8269L39.9534 45.8273C39.881 45.8254 39.8089 45.8381 39.7414 45.8647L40.1081 46.795ZM40.3334 46.6364C40.4047 46.5458 40.4684 46.4653 40.5324 46.3844C40.5963 46.3035 40.6606 46.2222 40.7327 46.1307L39.947 45.5121C39.8757 45.6027 39.812 45.6832 39.748 45.7641C39.6841 45.845 39.6198 45.9263 39.5477 46.0178L40.3334 46.6364ZM40.7318 46.1318C40.7795 46.0716 40.8211 46.007 40.8562 45.9387L39.9667 45.4817C39.9614 45.492 39.9551 45.5018 39.9478 45.5111L40.7318 46.1318ZM40.7801 46.048C41.41 45.3606 42.1272 44.7561 42.9138 44.2495L42.3724 43.4088C41.5139 43.9616 40.7309 44.6216 40.0428 45.3724L40.7801 46.048ZM42.8597 44.2798L43.996 43.7337L43.5628 42.8324L42.4265 43.3785L42.8597 44.2798ZM43.967 43.7465C44.3099 43.6076 45.8436 42.9011 47.3015 41.7545C48.7371 40.6256 50.2372 38.961 50.2372 36.8915H49.2372C49.2372 38.4728 48.0705 39.8776 46.6833 40.9685C45.3185 42.0418 43.8733 42.7056 43.5917 42.8196L43.967 43.7465ZM50.2372 36.8915V18.2327H49.2372V36.8915H50.2372ZM49.3016 18.4783L73.5935 61.5604L74.4645 61.0692L50.1727 17.9871L49.3016 18.4783ZM74.2462 60.8644C72.0885 59.8239 68.2638 57.9447 65.3102 56.4302L64.8539 57.32C67.8171 58.8395 71.6496 60.7224 73.8118 61.7652L74.2462 60.8644ZM65.3077 56.4289C64.5946 56.0683 63.9441 55.2067 63.4152 54.2077C62.8978 53.2304 62.5458 52.2171 62.3886 51.6785L61.4287 51.9586C61.5991 52.5425 61.9739 53.6227 62.5314 54.6756C63.0774 55.7068 63.8497 56.8122 64.8564 57.3213L65.3077 56.4289ZM62.3934 51.6959L62.0658 50.4014L61.0964 50.6467L61.4239 51.9412L62.3934 51.6959ZM62.0811 50.524C62.0811 49.754 61.8754 49.0037 61.6584 48.3199L60.7053 48.6223C60.9183 49.2936 61.0811 49.9187 61.0811 50.524H62.0811ZM61.6523 48.3017C60.8518 46.0777 59.4875 44.0943 57.6905 42.5407L57.0365 43.2972C58.7043 44.7391 59.9694 46.5789 60.7114 48.6404L61.6523 48.3017Z" fill="#553580" mask="url(#path-2-outside-1)"/>
</svg>
