<svg width="96" height="97" viewBox="0 0 96 97" fill="none" xmlns="http://www.w3.org/2000/svg">
<circle cx="48" cy="48.5" r="47" fill="#F9FAFB"/>
<path d="M48.0023 18.3388V39.1857L60.4898 60.8065L78.6017 71.3331C78.7566 71.0235 78.7566 70.6623 78.4986 70.1979L63.6891 44.5522L48.8795 19.0097C48.6215 18.5452 48.3119 18.3388 48.0023 18.3388Z" fill="#9E1F63"/>
<path d="M17.4029 71.3331L35.5149 60.8065L48.0023 39.1857V18.3388C47.6927 18.3388 47.3315 18.5452 47.0735 19.0097L32.264 44.6554L17.4545 70.3011C17.2481 70.6623 17.2481 71.0751 17.4029 71.3331Z" fill="#FF4724"/>
<path d="M78.5502 71.3331L60.4898 60.8065H35.5149L17.403 71.3331C17.5578 71.6428 17.919 71.7976 18.435 71.7976H77.5698C78.0342 71.7976 78.3954 71.6428 78.5502 71.3331Z" fill="#662D91"/>
<path d="M35.5149 60.8065H60.4898L48.0024 39.1857L35.5149 60.8065Z" fill="#F9FAFB"/>
</svg>
