<svg width="96" height="97" viewBox="0 0 96 97" fill="none" xmlns="http://www.w3.org/2000/svg">
<g clip-path="url(#clip0)">
<g filter="url(#filter0_d)">
<circle cx="48.4926" cy="48.7152" r="47.5074" fill="#1B5BFF"/>
</g>
<path d="M43.3919 36.5495C43.3919 31.8277 47.2196 28 51.9414 28V28V51.5111C51.9414 51.8062 51.7022 52.0455 51.4071 52.0455H43.9263C43.6311 52.0455 43.3919 51.8062 43.3919 51.5111V36.5495Z" fill="white"/>
<path d="M51.6742 28H58.8878C59.1829 28 59.4222 28.2392 59.4222 28.5343V35.748C59.4222 36.0431 59.1829 36.2823 58.8878 36.2823H51.6742V28Z" fill="white"/>
<path d="M35.9111 28.5343C35.9111 28.2392 36.1504 28 36.4455 28H43.6915C43.9687 28 44.1935 28.2247 44.1935 28.502V28.502C44.1935 32.7989 40.7101 36.2823 36.4131 36.2823V36.2823C36.1359 36.2823 35.9111 36.0576 35.9111 35.7804V28.5343Z" fill="white"/>
<rect x="20" y="21" width="56" height="56" rx="6" stroke="white" stroke-width="2"/>
<path d="M23 57H73V71C73 72.6569 71.6569 74 70 74H26C24.3431 74 23 72.6569 23 71V57Z" fill="white"/>
<path d="M30.6204 70.3925C30.4703 70.3925 30.3487 70.2557 30.3487 70.1055V62.4456C30.3487 62.2954 30.2271 62.1586 30.077 62.1586H27.3729C27.2209 62.1586 27.0859 62.037 27.0859 61.8869V60.4066C27.0859 60.2565 27.2228 60.1196 27.3729 60.1196H35.6961C35.8462 60.1196 35.983 60.2545 35.983 60.4066V61.8869C35.983 62.037 35.8462 62.1586 35.6961 62.1586H33.0072C32.8571 62.1586 32.7202 62.2935 32.7202 62.4456V70.1055C32.7202 70.2557 32.5986 70.3925 32.4485 70.3925H30.6204Z" fill="#1B5BFF"/>
<path d="M44.2909 60.4066C44.2909 60.2565 44.4126 60.1196 44.5627 60.1196H46.3755C46.5257 60.1196 46.6625 60.2545 46.6625 60.4066V65.6342C46.6625 68.7317 44.9104 70.5293 42.1303 70.5293C39.3654 70.5293 37.6286 68.7317 37.6286 65.6342V60.4066C37.6286 60.2565 37.7502 60.1196 37.9003 60.1196H39.7132C39.8633 60.1196 40.0001 60.2545 40.0001 60.4066V65.7083C40.0001 67.2342 40.7849 68.3212 42.1455 68.3212C43.5061 68.3212 44.2909 67.2342 44.2909 65.7083V60.4066V60.4066Z" fill="#1B5BFF"/>
<path d="M54.9876 63.4737C54.7462 63.4737 54.6702 63.3825 54.579 63.202C54.2617 62.4608 53.5662 61.9934 52.5096 61.9934C51.5576 61.9934 50.7576 62.3259 50.7576 62.9606C50.7576 63.6561 51.4987 63.9431 53.1291 64.1388C55.6071 64.4257 57.0266 65.182 57.0266 67.145C57.0266 69.3512 55.0921 70.5142 52.616 70.5142C50.4706 70.5142 48.6274 69.4709 48.3404 67.2818C48.31 67.0709 48.4165 66.9949 48.6274 66.9949H50.2901C50.501 66.9949 50.6227 67.0861 50.6835 67.2514C50.9096 67.9773 51.6811 68.536 52.7985 68.536C53.7809 68.536 54.6417 68.1731 54.6417 67.4035C54.6417 66.4818 53.7353 66.3165 51.9225 66.0885C49.8379 65.8167 48.3879 65.2124 48.3879 63.2932C48.3879 61.3739 50.0355 60 52.6179 60C54.9439 60 56.561 61.2542 56.8935 63.1278C56.9392 63.3388 56.8783 63.4756 56.6522 63.4756H54.9876V63.4737Z" fill="#1B5BFF"/>
<path d="M59.0806 70.3925C58.9305 70.3925 58.8088 70.2557 58.8088 70.1055V60.4066C58.8088 60.2565 58.9305 60.1196 59.0806 60.1196H63.189C66.2408 60.1196 68.6123 62.2194 68.6123 65.2865C68.6123 68.3079 66.2712 70.3925 63.189 70.3925H59.0806ZM63.189 68.3516C64.8365 68.3516 66.1192 67.0518 66.1192 65.2542C66.1192 63.4565 64.8346 62.1567 63.1738 62.1567H61.4673C61.3172 62.1567 61.1956 62.2916 61.1956 62.4437V68.078C61.1956 68.2281 61.3172 68.3497 61.4673 68.3497H63.189V68.3516Z" fill="#1B5BFF"/>
</g>
<defs>
<filter id="filter0_d" x="-2.44908" y="-0.509391" width="101.883" height="101.883" filterUnits="userSpaceOnUse" color-interpolation-filters="sRGB">
<feFlood flood-opacity="0" result="BackgroundImageFix"/>
<feColorMatrix in="SourceAlpha" type="matrix" values="0 0 0 0 0 0 0 0 0 0 0 0 0 0 0 0 0 0 127 0"/>
<feOffset dy="1.71715"/>
<feGaussianBlur stdDeviation="1.71715"/>
<feColorMatrix type="matrix" values="0 0 0 0 0 0 0 0 0 0 0 0 0 0 0 0 0 0 0.1 0"/>
<feBlend mode="normal" in2="BackgroundImageFix" result="effect1_dropShadow"/>
<feBlend mode="normal" in="SourceGraphic" in2="effect1_dropShadow" result="shape"/>
</filter>
<clipPath id="clip0">
<rect width="96" height="96" fill="white" transform="translate(0 0.5)"/>
</clipPath>
</defs>
</svg>
