<svg width="96" height="96" viewBox="0 0 96 96" fill="none" xmlns="http://www.w3.org/2000/svg">
<circle cx="32.5" cy="32.5" r="32.5" fill="#000"></circle>
<path fill-rule="evenodd" clip-rule="evenodd"
d="M18.139 25.115l7.995-12.47-11.92 11.92c-.99.992-.524 2.687.835 3.03l6.318 1.6c-.564.887-1.203 2.005-1.7 3.19-.454 1.086-.833 2.33-.871 3.56-.038 1.261.285 2.612 1.351 3.678 1.602 1.602 2.765 2.16 3.694 2.607l.204.098c.432.21.751.382 1.09.653.342.273.757.691 1.29 1.425.095.129.194.267.299.412l.002.004.001.001c1.163 1.614 2.989 4.147 5.344 5.828 1.315.939 2.875 1.676 4.658 1.82 1.807.146 3.694-.328 5.614-1.565 1.84-1.185 3.052-2.505 3.622-4.042.575-1.548.405-3.065-.013-4.441-.383-1.26-1.021-2.546-1.617-3.745l-.112-.226c-.652-1.314-1.267-2.584-1.676-3.914-.799-2.596-.257-3.721.084-4.167a1.882 1.882 0 01.807-.606.469.469 0 01.021-.008l.038-.009.064-.02.283-.093.745-.246c.617-.203 1.442-.475 2.27-.752.828-.275 1.663-.556 2.301-.776.318-.11.594-.206.799-.281.1-.037.196-.073.275-.105a2.829 2.829 0 00.267-.126l.003-.001c.024-.014.188-.104.348-.265.643-.642.437-1.429.416-1.51l-.001-.004a1.617 1.617 0 00-.29-.595 3.654 3.654 0 00-.165-.202 17.37 17.37 0 00-.406-.445c-.195-.208-3.985-4.047-7.169-7.273-2.205-2.233-4.119-4.172-4.348-4.408.027.028 2.066 3.236 4.084 6.412 1.978 3.111 3.936 6.192 3.962 6.218-.347.117-.711.24-1.076.36a715.46 715.46 0 01-3.002.993l-.239.079-.034.01a4.66 4.66 0 00-.83.344 5.042 5.042 0 00-1.636 1.388c-1.128 1.475-1.603 3.74-.594 7.018.494 1.607 1.22 3.09 1.865 4.389l.063.127c.64 1.292 1.17 2.358 1.473 3.358.303.996.323 1.753.075 2.422-.252.68-.876 1.52-2.37 2.482-1.411.91-2.616 1.155-3.646 1.072-1.053-.085-2.075-.527-3.075-1.241-1.907-1.361-3.437-3.476-4.643-5.142l-.282-.39c-.658-.904-1.262-1.546-1.874-2.035-.616-.492-1.185-.785-1.684-1.027l-.214-.104c-.819-.392-1.605-.77-2.828-1.993-.282-.282-.446-.687-.426-1.344.02-.687.246-1.524.627-2.434.76-1.814 1.966-3.518 2.448-4.161.786-1.05.226-2.53-1.008-2.842l-5.886-1.49zm13.334 12.932s-2.438 0-4.063-1.495c-1.625-1.496 0-4.487 0-4.487s.474.3 2.269 2.393c1.794 2.093 1.794 3.589 1.794 3.589z"
fill="url(#paint0_linear)"></path>
<defs>
<linearGradient id="paint0_linear" x1="32.563" y1="30.597" x2="32.5" y2="52.496" gradientUnits="userSpaceOnUse">
<stop stop-color="#22E1FF"></stop>
<stop offset="1" stop-color="#002EFF"></stop>
</linearGradient>
</defs>
</svg>