<svg width="29" height="37" viewBox="0 0 29 37" fill="none" xmlns="http://www.w3.org/2000/svg">
<path fill-rule="evenodd" clip-rule="evenodd" d="M1.48686 28.8364C0.564266 28.2729 0 27.2692 0 26.1915V20.1737C0 19.9433 0.061781 19.7212 0.177106 19.5238C0.535435 18.9068 1.33035 18.697 1.94816 19.059L15.5482 26.9772C16.3431 27.442 16.8333 28.2893 16.8333 29.2107V35.4465C16.8333 35.7304 16.755 36.0142 16.6067 36.2569C16.1578 36.989 15.2022 37.2194 14.4691 36.771L1.48686 28.8364ZM21.7593 17.4095C22.5542 17.8743 23.0443 18.7217 23.0443 19.6431V32.2957C23.0443 32.67 22.8425 33.0155 22.5171 33.1965L19.5393 34.8707C19.5022 34.8912 19.461 34.9077 19.4198 34.92V27.8944C19.4198 26.9854 18.9421 26.1421 18.1595 25.6732L6.21517 18.5366V10.606C6.21517 10.3757 6.27695 10.1536 6.39227 9.95614C6.7506 9.33913 7.54552 9.12935 8.16333 9.49133L21.7593 17.4095ZM27.7108 8.064C28.5099 8.52469 29 9.38027 29 10.3017V28.7829C29 29.1613 28.7899 29.511 28.4563 29.692L25.635 31.2139V18.3474C25.635 17.4383 25.1572 16.5992 24.3788 16.1303L12.1709 8.81674V1.29343C12.1709 1.06308 12.2326 0.840962 12.3438 0.643521C12.7022 0.0265192 13.4971 -0.183261 14.1149 0.1746L27.7108 8.064Z" fill="#00D395"/>
</svg>
