<svg width="256" height="257" viewBox="0 0 256 257" fill="none" xmlns="http://www.w3.org/2000/svg">
<g clip-path="url(#clip0)">
<circle cx="128" cy="128.604" r="126.175" transform="rotate(-5.6583 128 128.604)" fill="#F9FAFB"/>
<path d="M208.101 226.092C188.82 241.934 165.274 251.703 140.44 254.164C107.14 257.463 73.8924 247.399 48.0124 226.185C22.1324 204.971 5.7396 174.345 2.44025 141.044C-0.0202017 116.211 4.93856 91.2056 16.6895 69.1905C28.4403 47.1753 46.4556 29.1391 68.4571 17.3627C90.4585 5.58618 115.458 0.59836 140.294 3.02994C165.131 5.46152 188.688 15.2033 207.988 31.0233L182.537 62.0717C169.378 51.2853 153.316 44.6432 136.382 42.9853C119.449 41.3274 102.404 44.7282 87.4025 52.7576C72.4015 60.7871 60.1184 73.0845 52.1064 88.0948C44.0945 103.105 40.7135 120.154 42.3911 137.086C44.6406 159.791 55.8175 180.672 73.463 195.136C91.1085 209.6 113.777 216.463 136.482 214.213C153.414 212.535 169.468 205.875 182.614 195.073L208.101 226.092Z" fill="url(#paint0_linear)"/>
<path d="M128 232.604C185.438 232.604 232 186.042 232 128.604C232 71.1664 185.438 24.604 128 24.604C70.5624 24.604 24 71.1664 24 128.604C24 186.042 70.5624 232.604 128 232.604Z" fill="white"/>
<path fill-rule="evenodd" clip-rule="evenodd" d="M88.3375 160.284C85.5485 158.578 83.8428 155.54 83.8428 152.278V134.063C83.8428 133.366 84.0295 132.694 84.3782 132.096C85.4614 130.228 87.8644 129.593 89.732 130.689L130.844 154.656C133.247 156.063 134.729 158.628 134.729 161.417V180.292C134.729 181.151 134.493 182.01 134.044 182.745C132.687 184.961 129.799 185.658 127.582 184.301L88.3375 160.284ZM149.62 125.696C152.023 127.103 153.505 129.668 153.505 132.457V170.755C153.505 171.888 152.895 172.934 151.911 173.482L142.909 178.549C142.797 178.611 142.673 178.661 142.548 178.698V157.433C142.548 154.681 141.104 152.129 138.738 150.71L102.631 129.108V105.103C102.631 104.406 102.818 103.734 103.166 103.136C104.25 101.268 106.653 100.633 108.52 101.729L149.62 125.696ZM167.612 97.4087C170.027 98.8031 171.509 101.393 171.509 104.182V160.122C171.509 161.268 170.874 162.326 169.865 162.874L161.336 167.48V128.535C161.336 125.784 159.892 123.244 157.539 121.824L120.635 99.6871V76.915C120.635 76.2178 120.822 75.5455 121.158 74.9479C122.241 73.0803 124.644 72.4453 126.512 73.5285L167.612 97.4087Z" fill="#283947"/>
</g>
<defs>
<linearGradient id="paint0_linear" x1="96.4564" y1="15.5724" x2="136.022" y2="234.931" gradientUnits="userSpaceOnUse">
<stop stop-color="#27D3A2"/>
<stop offset="1" stop-color="#9388FD"/>
</linearGradient>
<clipPath id="clip0">
<rect width="256" height="256" fill="white" transform="translate(0 0.604004)"/>
</clipPath>
</defs>
</svg>
