<svg width="256" height="257" viewBox="0 0 256 257" fill="none" xmlns="http://www.w3.org/2000/svg">
<g clip-path="url(#clip0)">
<circle cx="128" cy="128.604" r="126.175" transform="rotate(-5.6583 128 128.604)" fill="#F9FAFB"/>
<path d="M208.101 226.092C188.82 241.934 165.274 251.703 140.44 254.164C107.14 257.463 73.8924 247.399 48.0124 226.185C22.1324 204.971 5.7396 174.345 2.44025 141.044C-0.0202017 116.211 4.93856 91.2056 16.6895 69.1905C28.4403 47.1753 46.4556 29.1391 68.4571 17.3627C90.4585 5.58618 115.458 0.59836 140.294 3.02994C165.131 5.46152 188.688 15.2033 207.988 31.0233L182.537 62.0717C169.378 51.2853 153.316 44.6432 136.382 42.9853C119.449 41.3274 102.404 44.7282 87.4025 52.7576C72.4015 60.7871 60.1184 73.0845 52.1064 88.0948C44.0945 103.105 40.7135 120.154 42.3911 137.086C44.6406 159.791 55.8175 180.672 73.463 195.136C91.1085 209.6 113.777 216.463 136.482 214.213C153.414 212.535 169.468 205.875 182.614 195.073L208.101 226.092Z" fill="url(#paint0_linear)"/>
<path d="M128 232.604C185.438 232.604 232 186.042 232 128.604C232 71.1664 185.438 24.604 128 24.604C70.5624 24.604 24 71.1664 24 128.604C24 186.042 70.5624 232.604 128 232.604Z" fill="white"/>
<path d="M124.242 166.158V92.0658H132.31V166.158H124.242Z" fill="#283947"/>
<path d="M165.313 116.751L140.396 123.359L134.839 97.4978L142.248 95.8236L145.169 108.077C145.169 108.077 151.902 97.0348 142.925 85.6003C137.635 79.7228 135.124 79.4735 129.193 78.5473C123.975 77.7993 111.846 79.5626 108.23 93.722C106.698 102.841 108.426 109.591 120.181 118.425L119.522 128.257C119.522 128.257 106.396 119.013 103.012 112.53C100.393 107.401 95.9051 97.2663 104.009 83.1603C108.372 76.1073 116.975 69.3393 132.132 70.0517C139.755 70.3723 158.367 79.6872 155.482 101.452C154.983 105.53 152.863 110.963 152.863 110.963L163.087 108.683L165.313 116.751Z" fill="#283947"/>
<path d="M151.083 174.725C146.523 181.653 137.742 188.19 122.621 187.085C114.998 186.569 96.6533 176.755 100.109 155.08C100.714 151.019 102.976 145.658 102.976 145.658L92.6994 147.653L90.6868 139.549L115.782 133.6L120.662 159.604L113.199 161.082L110.599 148.739C110.599 148.739 103.582 159.586 112.238 171.27C117.367 177.29 119.861 177.592 125.791 178.679C130.974 179.569 143.157 178.109 147.146 164.056C148.91 154.991 147.36 148.187 135.854 139.032L136.781 129.219C136.781 129.219 149.658 138.801 152.864 145.373C155.321 150.591 159.543 160.85 151.083 174.725V174.725Z" fill="#283947"/>
</g>
<defs>
<linearGradient id="paint0_linear" x1="96.4564" y1="15.5724" x2="136.022" y2="234.931" gradientUnits="userSpaceOnUse">
<stop stop-color="#27D3A2"/>
<stop offset="1" stop-color="#9388FD"/>
</linearGradient>
<clipPath id="clip0">
<rect width="256" height="256" fill="white" transform="translate(0 0.604004)"/>
</clipPath>
</defs>
</svg>
