<svg width="256" height="257" viewBox="0 0 256 257" fill="none" xmlns="http://www.w3.org/2000/svg">
<g clip-path="url(#clip0_1356_7)">
<circle cx="128" cy="128.604" r="126.175" transform="rotate(-5.6583 128 128.604)" fill="#F9FAFB"/>
<path d="M208.101 226.092C188.82 241.934 165.274 251.703 140.44 254.164C107.14 257.463 73.8924 247.399 48.0124 226.185C22.1324 204.971 5.7396 174.345 2.44025 141.044C-0.0202017 116.211 4.93856 91.2056 16.6895 69.1905C28.4403 47.1753 46.4556 29.1391 68.4571 17.3627C90.4585 5.58618 115.458 0.59836 140.294 3.02994C165.131 5.46152 188.688 15.2033 207.988 31.0233L182.537 62.0717C169.378 51.2853 153.316 44.6432 136.382 42.9853C119.449 41.3274 102.404 44.7282 87.4025 52.7576C72.4015 60.7871 60.1184 73.0845 52.1064 88.0948C44.0945 103.105 40.7135 120.154 42.3911 137.086C44.6406 159.791 55.8175 180.672 73.463 195.136C91.1085 209.6 113.777 216.463 136.482 214.213C153.414 212.535 169.468 205.875 182.614 195.073L208.101 226.092Z" fill="url(#paint0_linear_1356_7)"/>
<path d="M128 232.604C185.438 232.604 232 186.042 232 128.604C232 71.1664 185.438 24.604 128 24.604C70.5624 24.604 24 71.1664 24 128.604C24 186.042 70.5624 232.604 128 232.604Z" fill="white"/>
<path fill-rule="evenodd" clip-rule="evenodd" d="M119.625 196V62H135.39V196H119.625Z" fill="#283947"/>
<path fill-rule="evenodd" clip-rule="evenodd" d="M88.0164 91.4149C92.7339 86.3062 99.5484 83.1838 107.802 83.1838H171.846V98.9486H107.802C103.739 98.9486 101.193 100.383 99.5984 102.11C97.8893 103.961 96.8775 106.593 96.8395 109.401C96.8016 112.205 97.7366 114.745 99.3473 116.507C100.843 118.143 103.4 119.64 107.802 119.64H147.213C156.19 119.64 163.597 122.851 168.752 128.221C173.811 133.491 176.286 140.405 176.331 147.176C176.375 153.95 173.988 160.909 168.911 166.222C163.74 171.633 156.277 174.816 147.213 174.816H84.1546V159.052H147.213C152.436 159.052 155.623 157.309 157.514 155.33C159.5 153.252 160.586 150.359 160.566 147.28C160.546 144.198 159.416 141.259 157.38 139.139C155.442 137.12 152.264 135.404 147.213 135.404H107.802C99.394 135.404 92.4676 132.344 87.7132 127.145C83.0735 122.071 80.991 115.498 81.0762 109.188C81.1615 102.882 83.4134 96.3996 88.0164 91.4149Z" fill="#283947"/>
<rect x="119.625" y="119.689" width="15.7647" height="15.6903" fill="white"/>
</g>
<defs>
<linearGradient id="paint0_linear_1356_7" x1="96.4564" y1="15.5724" x2="136.022" y2="234.931" gradientUnits="userSpaceOnUse">
<stop stop-color="#27D3A2"/>
<stop offset="1" stop-color="#9388FD"/>
</linearGradient>
<clipPath id="clip0_1356_7">
<rect width="256" height="256" fill="white" transform="translate(0 0.604004)"/>
</clipPath>
</defs>
</svg>
