<svg width="13" height="12" viewBox="0 0 13 12" fill="none" xmlns="http://www.w3.org/2000/svg">
<g clip-path="url(#clip0)">
<path d="M10.3567 0.0812683H4.91189V7.38858H12.2192V1.98248C12.2222 0.956003 11.3831 0.0812683 10.3567 0.0812683ZM3.23978 0.0812683H2.32637C1.29989 0.0812683 0.42218 0.917325 0.42218 1.98545V2.89887H3.23978V0.0812683ZM0.42218 4.60966H3.23978V7.42726H0.42218V4.60966ZM9.40458 11.917H10.318C11.3445 11.917 12.2222 11.0809 12.2222 10.0128V9.10235H9.40458V11.917ZM4.91189 9.10235H7.72949V11.9199H4.91189V9.10235ZM0.42218 9.10235V10.0158C0.42218 11.0422 1.25824 11.9199 2.32637 11.9199H3.23978V9.10235H0.42218Z" fill="#F9FAFB"/>
</g>
<defs>
<clipPath id="clip0">
<rect width="12" height="12" fill="white" transform="translate(0.321411)"/>
</clipPath>
</defs>
</svg>
