<svg width="17" height="15" viewBox="0 0 17 15" fill="none" xmlns="http://www.w3.org/2000/svg">
<g clip-path="url(#clip0)">
<path d="M2.39729 3.62461C2.41717 3.41698 2.34227 3.21175 2.19561 3.07201L0.701681 1.16945V0.885254H5.34034L8.92577 9.19807L12.078 0.885254H16.5V1.16945L15.2227 2.46414C15.1126 2.55287 15.0579 2.69872 15.0808 2.84307V12.3558C15.0579 12.5002 15.1126 12.646 15.2227 12.7348L16.4701 14.0294V14.3136H10.1956V14.0294L11.4879 12.7032C11.6148 12.569 11.6148 12.5295 11.6148 12.3243V4.6351L8.02194 14.2821H7.53641L3.35341 4.6351V11.1006C3.31853 11.3725 3.40393 11.6461 3.58497 11.8427L5.26564 13.9979V14.2821H0.5V13.9979L2.18067 11.8427C2.36039 11.6458 2.44081 11.3703 2.39729 11.1006V3.62461Z" fill="#657786"/>
</g>
<defs>
<clipPath id="clip0">
<rect x="0.5" width="16" height="15" fill="white"/>
</clipPath>
</defs>
</svg>
