<svg width="18" height="18" viewBox="0 0 18 18" fill="none" xmlns="http://www.w3.org/2000/svg">
<path d="M16.5433 0.856934H6.56466C5.9066 0.856934 5.37139 1.39236 5.37139 2.05024V12.0289C5.37139 12.6868 5.9066 13.2222 6.56466 13.2222H16.5433C17.2014 13.2222 17.7366 12.6868 17.7366 12.0289V2.05024C17.7366 1.39236 17.2014 0.856934 16.5433 0.856934ZM16.1801 11.6658H6.92783V2.41342H16.1801V11.6658ZM11.4025 16.4433H2.15019V7.19098H4.76604V5.6345H1.78702C1.12896 5.6345 0.59375 6.16993 0.59375 6.82781V16.8065C0.59375 17.4644 1.12896 17.9998 1.78702 17.9998H11.7657C12.4237 17.9998 12.9589 17.4644 12.9589 16.8065V13.8276H11.4025V16.4433Z" fill="#00D395"/>
</svg>
