<svg width="12" height="12" viewBox="0 0 12 12" fill="none" xmlns="http://www.w3.org/2000/svg">
<path d="M10.0353 0.0812683H4.59048V7.38858H11.8978V1.98248C11.9008 0.956003 11.0617 0.0812683 10.0353 0.0812683ZM2.91837 0.0812683H2.00495C0.978479 0.0812683 0.100769 0.917325 0.100769 1.98545V2.89887H2.91837V0.0812683ZM0.100769 4.60966H2.91837V7.42726H0.100769V4.60966ZM9.08317 11.917H9.99658C11.0231 11.917 11.9008 11.0809 11.9008 10.0128V9.10235H9.08317V11.917ZM4.59048 9.10235H7.40808V11.9199H4.59048V9.10235ZM0.100769 9.10235V10.0158C0.100769 11.0422 0.936825 11.9199 2.00495 11.9199H2.91837V9.10235H0.100769Z" fill="#141E27"/>
</svg>
