<svg width="18" height="18" viewBox="0 0 18 18" fill="none" xmlns="http://www.w3.org/2000/svg">
<path d="M16.5433 0.855469H6.56466C5.9066 0.855469 5.37139 1.39089 5.37139 2.04877V12.0274C5.37139 12.6853 5.9066 13.2207 6.56466 13.2207H16.5433C17.2014 13.2207 17.7366 12.6853 17.7366 12.0274V2.04877C17.7366 1.39089 17.2014 0.855469 16.5433 0.855469ZM16.1801 11.6643H6.92783V2.41195H16.1801V11.6643ZM11.4025 16.4418H2.15019V7.18951H4.76604V5.63303H1.78702C1.12896 5.63303 0.59375 6.16846 0.59375 6.82634V16.805C0.59375 17.4629 1.12896 17.9983 1.78702 17.9983H11.7657C12.4237 17.9983 12.9589 17.4629 12.9589 16.805V13.8261H11.4025V16.4418Z" fill="#045385"/>
</svg>
