<svg width="16" height="17" viewBox="0 0 16 17" fill="none" xmlns="http://www.w3.org/2000/svg">
<path d="M13.381 0.0292969H2.44972C1.52791 0.0292969 0.777405 0.775988 0.777405 1.70124V12.6744C0.777405 13.5996 1.52791 14.3463 2.44972 14.3463H11.7005L11.2681 12.8448L12.3123 13.8106L13.2994 14.7196L15.0533 16.2617V1.70124C15.0533 0.775988 14.3028 0.0292969 13.381 0.0292969ZM10.2321 10.6291C10.2321 10.6291 9.93844 10.2801 9.69371 9.97165C10.7624 9.67136 11.1702 9.00583 11.1702 9.00583C10.8358 9.22496 10.5176 9.37917 10.2321 9.48468C9.82423 9.65512 9.43267 9.76875 9.04926 9.83368C8.26612 9.97977 7.54825 9.93919 6.93643 9.82556C6.47144 9.73629 6.07172 9.60643 5.73725 9.47657C5.54963 9.40352 5.34569 9.31424 5.14175 9.20061C5.11727 9.18438 5.0928 9.17627 5.06833 9.16003C5.05201 9.15192 5.04385 9.1438 5.0357 9.13568C4.88886 9.05452 4.80728 8.99771 4.80728 8.99771C4.80728 8.99771 5.19885 9.64701 6.23487 9.95542C5.99014 10.2638 5.68831 10.6291 5.68831 10.6291C3.88547 10.5723 3.20023 9.3954 3.20023 9.3954C3.20023 6.78198 4.37493 4.66365 4.37493 4.66365C5.54963 3.7871 6.66722 3.81145 6.66722 3.81145L6.7488 3.90885C5.28042 4.33089 4.60334 4.97207 4.60334 4.97207C4.60334 4.97207 4.78281 4.87467 5.08464 4.7367C5.95751 4.35524 6.65091 4.24973 6.93643 4.22538C6.98537 4.21726 7.02616 4.20915 7.07511 4.20915C7.57272 4.14422 8.1356 4.12798 8.72295 4.19291C9.49793 4.28219 10.33 4.50945 11.1784 4.97207C11.1784 4.97207 10.5339 4.36335 9.14715 3.94131L9.26136 3.81145C9.26136 3.81145 10.379 3.7871 11.5537 4.66365C11.5537 4.66365 12.7284 6.78198 12.7284 9.3954C12.7284 9.3954 12.035 10.5723 10.2321 10.6291Z" fill="white"/>
</svg>
