<svg width="16" height="16" viewBox="0 0 16 16" fill="none" xmlns="http://www.w3.org/2000/svg">
<path d="M12.665 13.6004C12.665 14.0495 12.2975 14.4169 11.8484 14.4169H2.3998C1.9507 14.4169 1.58325 14.0495 1.58325 13.6004V4.15175C1.58325 3.70265 1.9507 3.3352 2.3998 3.3352H7.999V2.75195H2.3998C1.62991 2.75195 1 3.38186 1 4.15175V13.6004C1 14.3703 1.62991 15.0002 2.3998 15.0002H11.8484C12.6242 15.0002 13.2482 14.3703 13.2482 13.6004V8.0012H12.665V13.6004Z" fill="#657786" stroke="#657786" stroke-width="0.8"/>
<path d="M14.7087 1H10.3344V1.58325H14.003L5.75586 9.83623L6.16997 10.2503L14.4171 1.99736V5.666H15.0004V1.29162C15.0004 1.12831 14.8721 1 14.7087 1Z" fill="#657786" stroke="#657786" stroke-width="0.8"/>
</svg>
