<svg width="15" height="17" viewBox="0 0 15 17" fill="none" xmlns="http://www.w3.org/2000/svg">
<path d="M12.6036 0H1.67232C0.750503 0 0 0.746691 0 1.67194V12.6451C0 13.5703 0.750503 14.317 1.67232 14.317H10.9231L10.4907 12.8155L11.5349 13.7813L12.522 14.6903L14.2759 16.2324V1.67194C14.2759 0.746691 13.5254 0 12.6036 0ZM9.45471 10.5998C9.45471 10.5998 9.16104 10.2508 8.91631 9.94236C9.98496 9.64206 10.3928 8.97653 10.3928 8.97653C10.0584 9.19567 9.74023 9.34988 9.45471 9.45539C9.04683 9.62583 8.65526 9.73945 8.27185 9.80438C7.48872 9.95047 6.77085 9.90989 6.15902 9.79627C5.69404 9.70699 5.29431 9.57713 4.95985 9.44727C4.77222 9.37422 4.56828 9.28495 4.36434 9.17132C4.33987 9.15509 4.31539 9.14697 4.29092 9.13074C4.27461 9.12262 4.26645 9.1145 4.25829 9.10639C4.11145 9.02523 4.02988 8.96841 4.02988 8.96841C4.02988 8.96841 4.42144 9.61771 5.45746 9.92613C5.21274 10.2345 4.9109 10.5998 4.9109 10.5998C3.10806 10.543 2.42282 9.36611 2.42282 9.36611C2.42282 6.75269 3.59752 4.63436 3.59752 4.63436C4.77222 3.75781 5.88982 3.78215 5.88982 3.78215L5.9714 3.87955C4.50302 4.30159 3.82594 4.94277 3.82594 4.94277C3.82594 4.94277 4.0054 4.84538 4.30724 4.7074C5.1801 4.32594 5.8735 4.22043 6.15902 4.19608C6.20797 4.18796 6.24876 4.17985 6.2977 4.17985C6.79532 4.11492 7.3582 4.09869 7.94555 4.16362C8.72052 4.25289 9.5526 4.48015 10.401 4.94277C10.401 4.94277 9.75654 4.33406 8.36974 3.91201L8.48395 3.78215C8.48395 3.78215 9.60155 3.75781 10.7762 4.63436C10.7762 4.63436 11.951 6.75269 11.951 9.36611C11.951 9.36611 11.2576 10.543 9.45471 10.5998Z" fill="#657786"/>
</svg>
